<svg width="138" height="184" viewBox="0 0 138 184" fill="none" xmlns="http://www.w3.org/2000/svg">
<path d="M62.7214 140.663C63.2625 144.032 68.9907 179.554 70.3954 179.605C71.8688 179.658 100.886 184.435 101.374 183.953C101.862 183.467 95.1534 173.313 91.2021 172.726C87.2536 172.136 77.9741 173.896 77.9741 173.896C75.2351 168.968 73.3482 143.843 73.1447 141.043L62.7214 140.663Z" fill="#FFEBB9"/>
<path d="M31.3539 181.404C31.5384 181.612 42.5724 182.202 46.6425 182.001C56.0328 181.538 64.811 179.401 65.692 179.433C67.097 179.485 59.6932 143.899 58.9882 140.527L48.0262 140.128C49.075 142.965 58.3195 168.352 55.2992 173.07C55.2992 173.07 46.1433 170.639 42.1654 170.941C38.1911 171.24 30.8956 180.884 31.3539 181.404Z" fill="#FFEFC8"/>
<path d="M13.1337 72.3907L27.6806 93.6814L30.0216 88.9836L19.8912 71.4243C19.7929 71.2541 19.7525 71.0511 19.7768 70.8511L20.3999 65.7124L16.8195 65.9498L13.1337 72.3907ZM27.7815 96.0892C27.5429 96.0892 27.3163 95.9656 27.1709 95.7523L11.5895 72.949C11.396 72.6649 11.3815 72.2774 11.5533 71.9768L15.736 64.6683C15.8679 64.4378 16.0915 64.2917 16.3373 64.275L21.2382 63.9508C21.4684 63.9358 21.6899 64.0347 21.8457 64.221C22.0014 64.4079 22.0744 64.662 22.0439 64.9144L21.3339 70.7683L31.559 88.4921C31.7111 88.7554 31.7209 89.0906 31.5843 89.3643L28.4521 95.6499C28.3264 95.9023 28.0951 96.0662 27.8363 96.0869C27.8182 96.0886 27.7996 96.0892 27.7815 96.0892Z" fill="#FEC130"/>
<path d="M21.529 110.497C24.2928 107.646 28.2658 106.546 31.5414 108.975L32.121 109.402C31.9083 109.288 31.3893 109.012 31.1854 108.903C27.9906 107.416 24.7626 108.804 22.6488 111.661L21.529 110.497Z" fill="#FEC130"/>
<path d="M28.1241 114.168C30.4894 115.971 33.1311 117.2 35.93 116.757C37.6092 116.524 39.2583 115.573 39.9869 113.806C40.7559 112.017 40.7724 109.85 40.4687 107.879C40.2974 106.848 40.0464 105.815 39.5502 104.872C39.9295 105.226 40.2358 105.679 40.4987 106.153C42.345 109.54 42.5132 114.91 39.175 117.273C35.5057 119.807 30.4687 117.936 28.1241 114.168Z" fill="#FEC130"/>
<path d="M27.7924 119.677C28.7321 117.26 31.3872 115.918 33.7365 116.122C36.1701 116.25 38.5339 117.752 39.8606 119.989C40.7264 121.432 41.2914 123.189 41.1331 124.923C40.5804 123.346 39.796 122.008 38.8557 120.864C36.1059 117.375 30.9753 116.14 27.7924 119.677Z" fill="#FEC130"/>
<path d="M32.3756 130.058C33.8111 129.383 34.9919 128.114 35.8437 126.665C36.1521 126.157 36.3927 125.604 36.6255 125.045C36.5127 125.654 36.3875 126.268 36.1872 126.854C35.5854 128.696 34.5314 130.426 33.0742 131.574L32.3756 130.058Z" fill="#FEC130"/>
<path d="M58.0609 141.06C58.0377 140.998 57.4917 139.512 57.5507 137.225L59.0829 137.273C59.0343 139.168 59.4721 140.394 59.4762 140.406L58.0609 141.06Z" fill="#FEC130"/>
<path d="M47.5895 137.63C48.5913 137.057 49.4358 136.174 50.1809 135.219C49.8963 136.354 49.4601 137.487 48.8686 138.486C48.7739 138.64 48.6958 138.775 48.5608 138.949L47.5895 137.63Z" fill="#FEC130"/>
<path d="M96.0013 142.505C93.3715 141.692 91.1734 138.425 90.0732 135.765C88.3252 131.644 88.6217 126.747 91.1863 123.119C92.4065 121.341 94.0587 119.806 95.9966 119.076C99.8352 117.584 104.435 118.833 107.145 122.217C109.175 124.674 109.711 128.391 108.57 131.439C108.731 130.397 108.8 129.347 108.694 128.326C108.446 125.291 106.615 122.663 104.196 121.339C100.191 118.993 94.9933 120.041 92.349 124.123C89.3053 128.195 89.7374 133.797 92.1208 138.144C93.0921 139.869 94.2833 141.65 96.0013 142.505Z" fill="#FEC130"/>
<path d="M59.367 109.2C58.8035 106.233 58.1774 102.704 54.7419 103.959C53.8586 104.258 52.9882 104.794 52.0464 105.343C52.5365 104.296 53.2687 103.376 54.2446 102.739C55.8705 101.612 58.1515 101.889 59.174 103.834C60.0614 105.467 59.9662 107.533 59.367 109.2Z" fill="#FEC130"/>
<path d="M69.3654 75.3706C65.7716 78.0572 64.9095 83.4161 65.6971 87.8821C65.7939 88.361 65.4565 88.8325 65.0156 88.8376C64.5696 88.8658 64.0837 88.9785 63.6454 89.1125C61.7623 89.6719 60.0635 91.073 59.2107 93.057C58.5266 94.5909 58.3119 96.3215 58.344 98.0393C58.1924 96.8947 58.1572 95.7184 58.3052 94.5461C58.6208 91.4639 60.6213 88.8307 63.2009 87.7062C63.7437 87.4584 64.2648 87.2641 64.8526 87.1439L64.1866 88.1788C63.5471 84.3325 63.9093 80.0838 65.945 76.7929C66.6234 75.6816 67.5134 74.7364 68.495 73.9683L69.3654 75.3706Z" fill="#FEC130"/>
<path d="M63.6454 73.5198C62.9691 73.6981 62.4449 74.2799 62.0108 74.8473C60.7187 76.5825 60.4341 78.9356 60.7699 81.0945L59.2408 81.221C59.2641 78.7597 60.0009 76.1651 61.7391 74.5472C62.2835 74.0528 62.9287 73.5612 63.6454 73.5198Z" fill="#FEC130"/>
<path d="M12.2001 72.4338L27.7815 95.2377L30.9137 88.9514L20.5365 70.9649L21.2842 64.8005L16.3828 65.1253L12.2001 72.4338Z" fill="#FFB3B3"/>
<path d="M30.9133 88.9514L28.9924 92.8063L27.7821 95.2377L12.2007 72.4338L16.3829 65.1265L21.2848 64.8005L20.536 70.9643L20.8419 71.4949L30.9133 88.9514Z" fill="#FFD26A"/>
<path d="M30.6549 89.4884C30.6549 89.4884 24.1013 88.3231 20.939 99.3892C18.6964 107.239 22.0889 111.079 22.0889 111.079C22.0889 111.079 17.3313 117.505 20.8283 125.606C24.878 134.986 32.7248 130.816 32.7248 130.816C32.7248 130.816 33.7768 136.609 39.7457 138.82C44.5587 140.602 48.0748 138.29 48.0748 138.29C48.0748 138.29 49.2127 142.176 53.5082 142.633C57.2593 143.032 58.7682 140.733 58.7682 140.733C58.7682 140.733 60.9245 148.885 71.0714 150.426C79.7291 151.741 82.4551 147.296 82.4551 147.296C82.4551 147.296 87.2318 153.397 95.6204 150.298C102.528 147.746 103.21 141.356 103.21 141.356C103.21 141.356 109.553 143.185 113.098 138.002C118.014 130.816 113.788 123.726 113.788 123.726C113.788 123.726 118.658 118.897 117.528 108.341C116.667 100.3 111.804 99.5813 111.804 99.5813C111.804 99.5813 112.808 93.7854 109.764 89.5988C106.838 85.5766 102.62 86.1671 102.62 86.1671C102.62 86.1671 102.092 78.9805 95.7011 75.7235C88.4603 72.0331 82.6559 75.7235 82.6559 75.7235C82.6559 75.7235 81.1237 73.1191 76.6916 72.5494C72.6502 72.0302 68.9301 74.6697 68.9301 74.6697C68.9301 74.6697 68.6212 67.014 58.0784 66.8766C47.7214 66.742 45.8906 72.9449 45.8906 72.9449C45.8906 72.9449 39.8461 71.1442 34.2772 77.097C28.9737 82.7658 30.6549 89.4884 30.6549 89.4884Z" fill="#FFB3B3"/>
<path d="M113.788 123.726C113.788 123.726 118.013 130.816 113.098 138.002C109.553 143.184 103.21 141.355 103.21 141.355C103.21 141.355 102.528 147.746 95.6194 150.298C87.2318 153.397 82.4546 147.296 82.4546 147.296C82.4546 147.296 79.7286 151.741 71.0715 150.427C60.924 148.885 58.7677 140.734 58.7677 140.734C58.7677 140.734 57.2593 143.033 53.5077 142.633C49.2138 142.177 48.0759 138.29 48.0759 138.29C48.0759 138.29 44.5592 140.603 39.7458 138.821C33.7768 136.61 32.7238 130.816 32.7238 130.816C32.7238 130.816 24.8775 134.986 20.8289 125.607C19.2247 121.891 19.3567 118.526 19.9714 115.972C20.6954 112.962 22.0899 111.079 22.0899 111.079C22.0899 111.079 18.6964 107.238 20.9391 99.3898C24.1013 88.3225 30.6545 89.4879 30.6545 89.4879C30.6545 89.4879 28.9743 82.7658 34.2778 77.0959C39.8457 71.1431 45.8907 72.9443 45.8907 72.9443C45.8907 72.9443 47.7215 66.742 58.0785 66.8766C68.6208 67.0134 68.9302 74.6703 68.9302 74.6703C68.9302 74.6703 72.6508 72.0296 76.6916 72.5499C81.1237 73.1191 82.6554 75.7235 82.6554 75.7235C82.6554 75.7235 88.4603 72.0337 95.7012 75.7235C102.092 78.9811 102.62 86.1682 102.62 86.1682C102.62 86.1682 106.838 85.5772 109.763 89.5988C112.809 93.7849 111.805 99.5807 111.805 99.5807C111.805 99.5807 116.667 100.3 117.528 108.341C117.874 111.567 117.659 114.256 117.192 116.439C116.136 121.396 113.788 123.726 113.788 123.726Z" fill="#FFB3B3"/>
<path d="M113.788 123.726C113.788 123.726 118.013 130.816 113.098 138.002C109.553 143.184 103.21 141.355 103.21 141.355C103.21 141.355 102.528 147.746 95.6194 150.298C87.2318 153.397 82.4546 147.296 82.4546 147.296C82.4546 147.296 79.7286 151.741 71.0715 150.427C60.924 148.885 58.7677 140.734 58.7677 140.734C58.7677 140.734 57.2593 143.033 53.5077 142.633C49.2138 142.177 48.0759 138.29 48.0759 138.29C48.0759 138.29 44.5592 140.603 39.7458 138.821C33.7768 136.61 32.7238 130.816 32.7238 130.816C32.7238 130.816 24.8775 134.986 20.8289 125.607C19.2247 121.891 19.3567 118.526 19.9714 115.972C20.402 114.182 21.0695 112.791 21.5383 111.957C21.8602 111.388 22.0899 111.079 22.0899 111.079C22.0899 111.079 18.6964 107.238 20.9391 99.3898C21.6594 96.8699 22.5546 94.9847 23.5114 93.5739L23.5135 93.5698C26.7476 88.7928 30.6545 89.4879 30.6545 89.4879C30.6545 89.4879 28.9743 82.7658 34.2778 77.0959C39.8457 71.1431 45.8907 72.9443 45.8907 72.9443C45.8907 72.9443 47.7215 66.742 58.0785 66.8766C68.6208 67.0134 68.9302 74.6703 68.9302 74.6703C68.9302 74.6703 72.6508 72.0296 76.6916 72.5499C81.1237 73.1191 82.6554 75.7235 82.6554 75.7235C82.6554 75.7235 88.4603 72.0337 95.7012 75.7235C102.092 78.9811 102.62 86.1682 102.62 86.1682C102.62 86.1682 106.838 85.5772 109.763 89.5988C112.809 93.7849 111.805 99.5807 111.805 99.5807C111.805 99.5807 116.667 100.3 117.528 108.341C117.874 111.567 117.659 114.256 117.192 116.439C116.136 121.396 113.788 123.726 113.788 123.726Z" fill="#FFB3B3"/>
<path d="M113.788 123.726C113.788 123.726 118.013 130.816 113.098 138.002C109.553 143.184 103.21 141.355 103.21 141.355C103.21 141.355 102.528 147.746 95.6194 150.298C87.2318 153.397 82.4546 147.296 82.4546 147.296C82.4546 147.296 79.7286 151.741 71.0715 150.427C60.924 148.885 58.7677 140.734 58.7677 140.734C58.7677 140.734 57.2593 143.033 53.5077 142.633C49.2138 142.177 48.0759 138.29 48.0759 138.29C48.0759 138.29 44.5592 140.603 39.7458 138.821C33.7768 136.61 32.7238 130.816 32.7238 130.816C32.7238 130.816 24.8775 134.986 20.8289 125.607C19.2247 121.891 19.3567 118.526 19.9714 115.972C20.402 114.182 21.0695 112.791 21.5383 111.957C21.8602 111.388 22.0899 111.079 22.0899 111.079C22.0899 111.079 18.6964 107.238 20.9391 99.3898C21.6594 96.8699 22.5546 94.9847 23.5114 93.5739L23.5135 93.5698C26.7476 88.7928 30.6545 89.4879 30.6545 89.4879C30.6545 89.4879 28.9743 82.7658 34.2778 77.0959C39.8457 71.1431 45.8907 72.9443 45.8907 72.9443C45.8907 72.9443 47.7215 66.742 58.0785 66.8766C68.6208 67.0134 68.9302 74.6703 68.9302 74.6703C68.9302 74.6703 72.6508 72.0296 76.6916 72.5499C81.1237 73.1191 82.6554 75.7235 82.6554 75.7235C82.6554 75.7235 88.4603 72.0337 95.7012 75.7235C99.3891 77.6047 101.126 80.7921 101.932 83.1533C102.526 84.8838 102.62 86.1682 102.62 86.1682C102.62 86.1682 104.684 85.8785 106.926 87.0824C107.889 87.5992 108.884 88.3909 109.763 89.5988C112.809 93.7849 111.805 99.5807 111.805 99.5807C111.805 99.5807 116.667 100.3 117.528 108.341C117.874 111.567 117.659 114.256 117.192 116.439C116.136 121.396 113.788 123.726 113.788 123.726Z" fill="#FFB3B3"/>
<path d="M113.788 123.726C113.788 123.726 118.013 130.816 113.098 138.002C109.553 143.184 103.21 141.355 103.21 141.355C103.21 141.355 102.528 147.746 95.6194 150.298C87.2318 153.397 82.4546 147.296 82.4546 147.296C82.4546 147.296 79.7286 151.741 71.0715 150.427C60.924 148.885 58.7677 140.734 58.7677 140.734C58.7677 140.734 57.2593 143.033 53.5077 142.633C49.2138 142.177 48.0759 138.29 48.0759 138.29C48.0759 138.29 44.5592 140.603 39.7458 138.821C33.7768 136.61 32.7238 130.816 32.7238 130.816C32.7238 130.816 24.8775 134.986 20.8289 125.607C19.2247 121.891 19.3567 118.526 19.9714 115.972C20.402 114.182 21.0695 112.791 21.5383 111.957C21.8602 111.388 22.0899 111.079 22.0899 111.079C22.0899 111.079 18.6964 107.238 20.9391 99.3898C21.6594 96.8699 22.5546 94.9847 23.5114 93.5739L23.5135 93.5698C26.7476 88.7928 30.6545 89.4879 30.6545 89.4879C30.6545 89.4879 28.9743 82.7658 34.2778 77.0959C39.8457 71.1431 45.8907 72.9443 45.8907 72.9443C45.8907 72.9443 47.7215 66.742 58.0785 66.8766C68.6208 67.0134 68.9302 74.6703 68.9302 74.6703C68.9302 74.6703 72.6508 72.0296 76.6916 72.5499C77.7918 72.6908 78.7123 72.9558 79.4756 73.2778C81.7892 74.2506 82.6554 75.7235 82.6554 75.7235C82.6554 75.7235 83.1749 75.3941 84.0955 75.0302C86.2554 74.1758 90.6254 73.137 95.7012 75.7235C99.3891 77.6047 101.126 80.7921 101.932 83.1533C102.526 84.8838 102.62 86.1682 102.62 86.1682C102.62 86.1682 104.684 85.8785 106.926 87.0824C107.889 87.5992 108.884 88.3909 109.763 89.5988C112.809 93.7849 111.805 99.5807 111.805 99.5807C111.805 99.5807 116.667 100.3 117.528 108.341C117.874 111.567 117.659 114.256 117.192 116.439C116.136 121.396 113.788 123.726 113.788 123.726Z" fill="#FFD26A"/>
<path d="M82.4541 146.447C82.6751 146.447 82.8878 146.551 83.0332 146.737C83.2148 146.967 87.6039 152.362 95.3788 149.49C101.75 147.136 102.442 141.315 102.448 141.256C102.474 141.012 102.594 140.791 102.777 140.653C102.96 140.514 103.188 140.47 103.402 140.532C103.46 140.548 109.302 142.144 112.488 137.487C117.002 130.887 113.307 124.465 113.148 124.195C112.939 123.842 112.994 123.372 113.277 123.091C113.321 123.047 117.831 118.382 116.767 108.441C115.993 101.211 111.873 100.453 111.698 100.425C111.491 100.391 111.303 100.264 111.182 100.075C111.061 99.8848 111.012 99.6479 111.052 99.4202C111.061 99.3674 111.944 93.9521 109.167 90.134C106.56 86.5482 102.87 86.9921 102.713 87.0128C102.507 87.0398 102.297 86.9731 102.136 86.8265C101.975 86.6799 101.873 86.4672 101.856 86.2366C101.835 85.9647 101.268 79.4979 95.3814 76.4974C88.6094 73.0461 83.0901 76.429 83.0352 76.4634C82.6834 76.6854 82.2358 76.5658 82.0148 76.1898C81.9615 76.1024 80.5747 73.9056 76.6037 73.3956C72.8935 72.9173 69.3768 75.363 69.3421 75.3878C69.1108 75.551 68.819 75.5648 68.5763 75.4246C68.3341 75.2843 68.1768 75.0112 68.1644 74.7076C68.1504 74.4322 67.7064 67.8539 58.0697 67.7286C57.96 67.7269 57.8508 67.7263 57.7432 67.7263C48.4345 67.7263 46.6876 72.9897 46.6167 73.2168C46.4853 73.6388 46.0811 73.8832 45.692 73.7676C45.4633 73.7009 39.9776 72.1854 34.8087 77.7105C29.9176 82.9388 31.3319 89.0072 31.3945 89.263C31.4628 89.5419 31.3991 89.8414 31.2253 90.057C31.0519 90.2709 30.7937 90.3738 30.5386 90.3307C30.2954 90.2916 24.5759 89.4769 21.6698 99.6468C19.6092 106.858 22.5148 110.341 22.6395 110.486C22.9076 110.797 22.9277 111.287 22.6809 111.62C22.5008 111.865 18.2851 117.745 21.5197 125.238C25.1958 133.754 32.1018 130.203 32.3942 130.048C32.6074 129.934 32.8553 129.937 33.0669 130.054C33.2786 130.171 33.4297 130.39 33.4762 130.648C33.5166 130.862 34.5381 135.994 39.9885 138.012C44.3844 139.64 47.6547 137.576 47.6873 137.555C47.8871 137.426 48.1308 137.403 48.3471 137.495C48.5639 137.587 48.7326 137.782 48.804 138.027C48.8444 138.159 49.8658 141.39 53.5812 141.785C56.805 142.129 58.1008 140.302 58.1541 140.224C58.329 139.969 58.6213 139.841 58.9054 139.899C59.1895 139.958 59.4224 140.185 59.5041 140.493C59.5874 140.802 61.6795 148.141 71.1755 149.582C79.1812 150.797 81.7209 146.974 81.8254 146.81C81.9615 146.598 82.1799 146.462 82.4148 146.449C82.4277 146.448 82.4412 146.447 82.4541 146.447ZM90.9379 152.039C86.57 152.039 83.6759 149.71 82.4847 148.524C81.2277 149.839 77.8658 152.318 70.9675 151.27C62.7362 150.02 59.5238 144.636 58.4713 142.186C57.56 142.913 55.9357 143.746 53.4348 143.481C49.9709 143.112 48.3466 140.748 47.7023 139.431C46.3461 140.057 43.3065 141.037 39.5036 139.628C34.6131 137.817 32.8097 133.785 32.2229 131.936C29.9663 132.756 23.6662 134.149 20.1371 125.974C17.0338 118.786 20.0098 112.908 21.1223 111.102C20.2162 109.698 18.3218 105.735 20.2085 99.1316C22.802 90.0558 27.603 88.7283 29.7277 88.6082C29.4597 86.3591 29.4178 81.1088 33.7458 76.483C38.5531 71.3443 43.6697 71.6686 45.4462 71.979C46.2866 70.2393 49.2682 65.9181 58.0878 66.0251C66.5514 66.1349 68.8531 70.9982 69.472 73.3646C70.8956 72.5735 73.7266 71.3115 76.7801 71.7036C80.2332 72.1469 82.0795 73.7711 82.8526 74.6633C84.5499 73.8044 89.7519 71.7542 96.0205 74.9491C101.515 77.749 102.932 83.2108 103.278 85.2834C104.722 85.2937 107.934 85.7278 110.36 89.0629C112.937 92.6074 112.829 97.1309 112.657 98.9448C114.19 99.5065 117.568 101.498 118.289 108.24C119.261 117.325 115.97 122.337 114.738 123.862C115.659 125.814 118.047 132.175 113.708 138.518C110.626 143.024 105.716 142.689 103.805 142.354C103.339 144.32 101.648 148.969 95.8621 151.107C94.0588 151.772 92.4137 152.039 90.9379 152.039Z" fill="#FEC130"/>
<path d="M76.8349 85.2731C77.3938 82.8687 79.269 81.0071 81.3379 80.1838C84.1694 79.0029 87.5945 79.8124 89.6613 82.2616C90.1544 82.8463 90.5984 83.5311 90.7945 84.3066C89.8895 83.1574 88.6802 82.4341 87.4341 81.9086C83.6354 80.3483 79.5169 82.0213 76.8349 85.2731Z" fill="#FEC130"/>
<path d="M84.3993 80.7627L82.9241 80.2999C83.4188 78.355 82.0563 76.2536 82.0423 76.2335L83.2702 75.2136C83.3453 75.3257 85.1057 77.9864 84.3993 80.7627Z" fill="#FEC130"/>
<path d="M84.2947 89.6621C84.4076 91.549 86.1881 93.0277 87.5734 93.8331C89.7938 95.0888 92.5581 95.0307 94.5778 93.4836C96.2481 92.1314 96.791 89.7293 96.9503 87.5101C96.9716 87.0231 97.0254 86.5189 96.9286 86.0233C97.1113 86.1998 97.2205 86.4499 97.3229 86.6851C98.4546 89.4367 97.8026 93.1139 95.4575 94.86C93.7711 96.1242 91.6893 96.4933 89.7359 96.0386C87.8487 95.5752 86.1447 94.3287 85.042 92.5867C84.5333 91.7519 84.0634 90.682 84.2947 89.6621Z" fill="#FEC130"/>
<path d="M103.386 86.1349C103.154 88.3535 102.531 90.4566 101.564 92.3952C102.012 90.391 102.13 88.2287 101.854 86.1992L103.386 86.1349Z" fill="#FEC130"/>
<path d="M112.554 99.7595C111.814 101.919 110.422 103.814 108.648 105.006C109.905 103.574 110.73 101.71 111.019 99.7457C111.036 99.6267 111.052 99.4887 111.055 99.4024L112.554 99.7595Z" fill="#FEC130"/>
<path d="M101.054 105.445C104.221 106.004 107.089 108.494 107.985 111.957C107.303 110.474 106.312 109.193 105.011 108.375C103.798 107.588 102.374 107.148 100.978 107.147L101.054 105.445Z" fill="#FEC130"/>
<path d="M107.382 97.7381C107.87 99.0817 107.548 100.622 107.086 101.926C106.219 104.211 104.478 106.088 102.329 106.86C98.8965 108.137 95.1071 106.586 92.3329 104.335L93.1676 102.906C94.5586 103.779 95.9811 104.537 97.4533 105.014C98.9037 105.449 100.428 105.624 101.885 105.198C104.654 104.5 107.544 101.042 107.382 97.7381Z" fill="#FEC130"/>
<path d="M91.7617 103.62L115.846 118.063C115.846 118.063 115.4 124.364 114.093 124.015C112.972 123.716 113.723 120.447 113.723 120.447L92.7479 111.296L91.7617 103.62Z" fill="#FEC130"/>
<path d="M46.1955 77.6955C46.1681 77.5903 46.1857 77.6254 46.2224 77.6409C47.1937 78.2705 48.402 78.6114 49.5202 78.5516C50.0434 78.5246 50.5107 78.2475 50.9748 77.7427C51.4592 77.1827 51.8726 76.4991 52.1821 75.7569C52.743 77.6674 51.6123 80.0286 49.7609 80.3638C48.1536 80.7616 45.5482 80.1229 44.7803 78.351L46.1955 77.6955Z" fill="#992269"/>
<path d="M102.078 116.157L123.077 108.491C123.077 108.491 123.037 105.731 123.791 102.966C124.717 99.5772 121.549 98.0479 122.526 95.8764C123.709 93.2484 129.397 94.3592 129.052 100.539C128.707 106.719 138.122 108.9 135.63 112.391C133.967 114.72 129.081 116.412 125.341 114.959L107.579 122.193L105.142 119.519L102.078 116.157Z" fill="#FFB3B3"/>
<path d="M102.078 116.157L123.077 108.491C123.077 108.491 123.037 105.731 123.791 102.966C124.717 99.5772 121.549 98.0479 122.526 95.8764C123.709 93.2484 129.397 94.3592 129.052 100.539C128.707 106.719 138.122 108.9 135.63 112.391C133.967 114.72 129.081 116.412 125.341 114.959L107.579 122.193L105.142 119.519L102.078 116.157Z" fill="#FFB3B3"/>
<path d="M135.63 112.391C133.967 114.72 129.08 116.412 125.341 114.959L108.282 121.907L107.578 122.192L105.141 119.519L102.079 116.157L123.076 108.492C123.076 108.492 123.036 105.731 123.791 102.967C123.87 102.678 123.919 102.402 123.944 102.141C124.024 101.279 123.841 100.545 123.572 99.8842C122.961 98.379 121.906 97.2574 122.526 95.877C123.538 93.6319 127.834 94.1142 128.85 98.156C129.025 98.8453 129.103 99.6393 129.053 100.54C128.707 106.719 138.122 108.9 135.63 112.391Z" fill="#FFD26A"/>
<path d="M102.078 116.157C108.841 112.885 115.747 109.949 122.837 107.683C122.837 107.681 122.707 107.887 122.575 108.093C122.442 108.301 122.309 108.509 122.311 108.503C122.324 106.637 122.531 104.827 122.977 103.034C123.063 102.718 123.16 102.324 123.185 102.001C123.314 100.407 122.28 99.3295 121.765 97.8508C120.932 95.4711 122.897 93.5411 124.952 93.6952C128.047 93.8263 129.993 96.9981 129.827 100.232C129.82 100.344 129.821 100.548 129.817 100.658C129.716 103.092 131.444 104.836 133.035 106.284C135.135 108.181 138.745 110.63 135.557 113.686C132.805 116.213 128.464 117.018 125.09 115.764C125.081 115.763 125.607 115.759 125.605 115.759C122.7 117.135 119.66 118.1 116.655 119.168C113.64 120.21 110.618 121.235 107.578 122.193C109.018 121.468 110.461 120.753 111.912 120.06C116.273 118.023 120.57 115.774 125.078 114.159C125.249 114.092 125.436 114.091 125.596 114.156C128.496 115.23 132.472 114.505 134.775 112.173C135.177 111.708 135.469 111.276 135.119 110.659C134.056 109.026 132.245 107.963 130.92 106.505C129.26 104.817 128.095 102.796 128.294 100.191C128.344 98.812 127.966 97.3258 127.051 96.4048C126.099 95.3619 123.946 94.8059 123.19 96.3168C122.905 97.0936 123.466 97.8082 123.823 98.578C124.072 99.0621 124.329 99.6014 124.507 100.209C124.781 101.117 124.8 102.175 124.552 103.104C124.354 103.852 124.19 104.614 124.08 105.387C123.934 106.391 123.845 107.473 123.843 108.477C123.872 108.868 123.636 109.196 123.316 109.301C116.398 112.148 109.27 114.335 102.078 116.157Z" fill="#FEC130"/>
<path d="M134.447 113.57C139.034 109.809 136.746 106.497 136.05 105.911C136.248 104.909 136.489 103.214 134.341 102.265C134.372 101.9 134.444 99.5899 131.898 99.5813C131.33 99.579 129.751 99.7647 128.673 100.736C128.215 101.149 127.042 102.747 126.939 104.308C126.865 105.433 127.483 106.12 128.244 106.464C128.063 107.799 128.233 109.193 129.917 109.872C130.075 111.416 131.192 112.768 133.256 111.877C133.6 111.728 133.969 111.518 134.364 111.237L134.447 113.57Z" fill="#FFB3B3"/>
<path d="M136.541 111.223C136.105 111.969 135.436 112.759 134.447 113.57L134.363 111.237C133.969 111.518 133.6 111.728 133.257 111.877C131.192 112.769 130.075 111.416 129.917 109.872C128.233 109.193 128.063 107.799 128.244 106.464C127.483 106.12 126.866 105.433 126.94 104.308C127.016 103.146 127.684 101.964 128.21 101.265C128.39 101.024 128.555 100.841 128.673 100.736C129.751 99.7635 131.33 99.579 131.898 99.5807C134.445 99.5887 134.372 101.9 134.34 102.264C136.489 103.214 136.248 104.909 136.051 105.912C136.595 106.37 138.12 108.506 136.541 111.223Z" fill="#FFD26A"/>
<path d="M134.447 113.57L134.443 113.478V113.478L134.447 113.57Z" fill="#BF9191"/>
<path d="M133.991 112.884C135.867 111.42 137.58 108.768 135.577 106.581C135.338 106.373 135.241 106.038 135.302 105.728C135.63 104.385 135.217 103.54 134.057 103.056C133.735 102.911 133.549 102.55 133.577 102.185C133.592 101.997 133.574 101.737 133.526 101.535C133.117 99.779 130.565 100.474 129.53 101.115C128.726 101.646 128.174 102.685 127.852 103.619C127.529 104.695 127.712 105.283 128.532 105.674C128.867 105.824 129.056 106.211 129.002 106.59C128.803 107.819 129.149 108.694 130.178 109.071C130.459 109.19 130.642 109.467 130.679 109.776C130.577 111.316 131.704 112.089 133.015 111.748C133.471 111.65 133.925 111.464 134.364 111.237C133.993 111.583 133.593 111.903 133.139 112.151C131.383 113.186 129.562 112.126 129.156 109.968L129.656 110.672C127.917 110.024 127.162 108.286 127.486 106.337L127.956 107.252C126.358 106.575 125.807 104.787 126.402 103.068C126.874 101.688 127.61 100.403 128.759 99.6422C130.458 98.6292 133.132 98.0939 134.509 99.9538C134.992 100.661 135.157 101.475 135.104 102.345L134.624 101.473C136.464 102.229 137.31 103.984 136.799 106.093L136.514 105.232C137.84 106.443 138.338 108.593 137.765 110.362C137.243 112.029 136.111 113.249 134.902 114.255L133.991 112.884Z" fill="#FEC130"/>
<path d="M66.0568 106.278L63.1854 106.126C63.3075 103.272 61.987 100.637 59.7391 99.2524C56.506 97.2603 52.4175 98.5625 50.625 102.154L48.1107 100.605C50.6721 95.4728 56.5137 93.6135 61.1331 96.4588C64.345 98.4383 66.2317 102.201 66.0568 106.278Z" fill="#0C2B34"/>
<path d="M75.9584 143.847C74.9504 140.504 74.7848 136.764 75.9005 133.384C77.7789 127.673 83.5931 124.797 88.2947 128.486C92.7392 132.01 92.7977 138.554 89.4114 142.953C90.8505 140.01 91.5253 136.472 90.2337 133.366C89.0984 130.477 86.3532 128.409 83.5206 128.542C80.6399 128.639 78.2073 131.064 77.0384 133.911C75.7908 136.966 75.6293 140.501 75.9584 143.847Z" fill="#FEC130"/>
<path d="M62.9939 126.6C66.968 123.17 72.5463 123.33 75.93 127.68C80.4474 133.957 76.0702 142.895 68.8154 141.691C71.2987 141.374 73.7551 140.198 75.1041 137.843C76.7356 135.091 76.6166 131.282 74.7755 128.734C71.7799 124.723 67.0632 124.515 62.9939 126.6Z" fill="#FEC130"/>
<path d="M53.9977 117.459C52.792 117.459 51.6578 117.137 50.6668 116.486C48.3827 114.986 47.2697 112.015 47.532 108.122L48.6787 108.217C48.4505 111.6 49.3644 114.146 51.2521 115.387C53.2588 116.705 56.1571 116.328 58.8169 114.402L59.4446 115.473C57.6277 116.788 55.739 117.459 53.9977 117.459Z" fill="#C94E41"/>
<path d="M14.062 50.4762C14.062 50.4762 14.2659 45.211 12.2208 44.7235C1.86563 42.2565 4.07318 30.9052 6.17108 24.9925C6.54795 23.9303 7.60042 23.374 8.5806 23.7171L12.3331 25.0307C14.1846 25.6788 15.3794 27.6717 15.2051 29.8194L14.8459 34.2417L23.5621 28.9524C26.5261 27.4951 25.5072 25.5979 23.4871 24.8931L7.44963 19.2875C5.98443 18.7763 4.40617 19.567 3.78506 21.1277C1.93052 25.7881 -1.0096 34.871 2.17492 41.6264C5.25574 48.1616 14.062 50.4762 14.062 50.4762Z" fill="#FFB81A"/>
<path d="M23.5621 28.9534L14.8454 34.2409L15.205 29.8195C15.3789 27.6712 14.1851 25.6795 12.3326 25.0303L8.58125 23.718C7.60082 23.3743 6.54809 23.931 6.17189 24.9922C4.63792 29.315 3.04434 36.5461 6.34731 41.086C7.56102 42.7538 9.43682 44.0606 12.2208 44.7235C14.2664 45.2099 14.062 50.4757 14.062 50.4757C14.062 50.4757 5.2566 48.1622 2.17428 41.6264C1.37842 39.9385 0.966004 38.1056 0.821322 36.2325V36.2224C0.394414 30.6013 2.39498 24.6224 3.78597 21.1275C4.40641 19.5679 5.98374 18.7761 7.44889 19.2866L23.4881 24.8937C25.5067 25.5971 26.5266 27.4942 23.5621 28.9534Z" fill="#FFB81A"/>
<path d="M23.5621 28.9534L14.8454 34.2409L15.1238 30.8184L15.205 29.8195C15.3789 27.6712 14.1851 25.6795 12.3326 25.0303L8.58125 23.718C7.60082 23.3743 6.54809 23.931 6.17189 24.9922C4.85686 28.7001 3.4966 34.5464 5.22038 38.9999C5.50623 39.7395 5.87699 40.4389 6.34731 41.086C7.56102 42.7538 9.43682 44.0606 12.2208 44.7235C14.2664 45.2099 14.062 50.4757 14.062 50.4757C14.062 50.4757 5.2566 48.1622 2.17428 41.6264C1.37842 39.9385 0.966004 38.1056 0.821322 36.2325V36.2224C0.394414 30.6013 2.39498 24.6224 3.78597 21.1275C4.40641 19.5679 5.98374 18.7761 7.44889 19.2866L23.4881 24.8937C25.5067 25.5971 26.5266 27.4942 23.5621 28.9534Z" fill="#FFB81A"/>
<path d="M15.2051 29.8195C15.379 27.6712 14.1852 25.6796 12.3326 25.0304L8.58129 23.718C7.60085 23.3743 6.54813 23.931 6.17193 24.9922C4.8569 28.7001 3.49664 34.5464 5.22042 38.9999C5.22042 38.9999 2.16707 37.1249 3.17282 31.3168C4.18937 25.4383 4.97079 21.0421 8.13627 21.9716C11.1057 22.8436 15.3101 25.4182 16.5024 23.5351C17.6941 21.652 18.9443 29.3573 18.9443 29.3573L15.1238 30.8184L15.2051 29.8195Z" fill="#FF8E1D"/>
<path d="M14.0621 50.4757C14.0621 50.4757 5.25669 48.1622 2.17437 41.6264C1.37851 39.9385 0.966094 38.1056 0.821411 36.2325C1.34048 39.6049 3.65038 43.9761 6.3474 41.086C7.56111 42.7538 9.43692 44.0606 12.2209 44.7235C14.2665 45.2099 14.0621 50.4757 14.0621 50.4757Z" fill="#FF8E1D"/>
<path d="M6.54266 19.9841C5.6726 19.9841 4.85454 20.5465 4.48632 21.4721C2.20032 27.2165 0.0615931 35.3077 2.85393 41.2314C5.15447 46.1114 10.9919 48.5514 13.2895 49.3465C13.2103 47.6217 12.8129 45.7354 12.06 45.556C8.62463 44.7379 6.20067 42.909 4.85532 40.12C2.41088 35.053 4.1836 28.2715 5.45791 24.6802C5.97982 23.2092 7.45263 22.4294 8.81107 22.9049L12.5635 24.2182C14.742 24.9808 16.1738 27.3687 15.9689 29.8959L15.7386 32.7296L23.2522 28.1734C24.3057 27.6553 24.6628 27.1434 24.6488 26.8623C24.6317 26.5311 24.1386 26.0131 23.2574 25.7057L7.21966 20.0999C6.99519 20.0216 6.76714 19.9841 6.54266 19.9841ZM14.788 51.5421L13.8856 51.3047C13.512 51.2069 4.70205 48.8233 1.49585 42.0214C-1.58021 35.4964 0.661694 26.8704 3.08399 20.7832C3.86334 18.8251 5.83881 17.8327 7.67943 18.4749L23.7174 24.0807C25.1777 24.5902 26.1215 25.6195 26.1795 26.7667C26.2203 27.5773 25.8576 28.7451 23.9021 29.7164L13.9534 35.7539L14.4418 29.7428C14.5826 28.0069 13.5989 26.3668 12.1029 25.8429L8.35037 24.5296C7.75596 24.3216 7.11244 24.6623 6.88424 25.3049C5.93661 27.9755 3.97377 34.6868 6.20657 39.3152C7.32931 41.6425 9.40687 43.1821 12.3813 43.8904C14.9308 44.4981 14.8667 49.5132 14.8279 50.5124L14.788 51.5421Z" fill="#FEC130"/>
<path d="M27.6087 57.5812C27.6087 57.5812 31.1378 54.0597 32.7761 55.5045C41.0715 62.8199 47.5569 53.7119 50.3321 48.1547C50.8309 47.1566 50.5489 45.9004 49.6873 45.2772L46.3895 42.893C44.7626 41.7167 42.6182 41.9581 41.2366 43.4725L38.3921 46.5915L36.5282 35.7531C35.6573 32.2841 37.6232 31.9526 39.3965 33.2375L53.4845 43.4322C54.7709 44.3642 55.2242 46.2206 54.5344 47.7453C52.4744 52.2982 48.0309 60.5926 41.3127 62.1541C34.8133 63.6645 27.6087 57.5812 27.6087 57.5812Z" fill="#FFB81A"/>
<path d="M54.5354 47.7465C53.6345 49.738 52.2762 52.447 50.4708 54.9934L50.4635 55.0014C48.1463 58.2711 45.0876 61.2756 41.3127 62.1541C34.8133 63.665 27.6087 57.5817 27.6087 57.5817C27.6087 57.5817 31.1378 54.0609 32.7766 55.5057C34.7735 57.2661 36.6638 58.0762 38.4258 58.213H38.4294C43.9807 58.639 48.226 52.3746 50.3331 48.1541C50.8309 47.1572 50.5484 45.8992 49.6873 45.2783L46.39 42.8929C44.7621 41.7172 42.6182 41.9581 41.2366 43.4736L38.3911 46.5908L36.5282 35.7522C35.6563 32.2834 37.6227 31.9518 39.397 33.238L53.4845 43.4334C54.7704 44.3636 55.2242 46.2206 54.5354 47.7465Z" fill="#FFB81A"/>
<path d="M54.5354 47.7465C53.6345 49.738 52.2762 52.447 50.4708 54.9934L50.4635 55.0014C48.1463 58.2711 45.0876 61.2756 41.3127 62.1541C34.8133 63.665 27.6087 57.5817 27.6087 57.5817C27.6087 57.5817 31.1378 54.0609 32.7766 55.5057C34.7735 57.2661 36.6638 58.0762 38.4258 58.213H38.4294C43.9807 58.639 48.226 52.3746 50.3331 48.1541C50.8309 47.1572 50.5484 45.8992 49.6873 45.2783L46.39 42.8929C44.7621 41.7172 42.6182 41.9581 41.2366 43.4736L38.3911 46.5908L36.5282 35.7522C35.6563 32.2834 37.6227 31.9518 39.397 33.238L46.33 38.2563L53.4845 43.4334C54.7704 44.3636 55.2242 46.2206 54.5354 47.7465Z" fill="#FFB81A"/>
<path d="M50.3331 48.1541C50.8309 47.1572 50.5484 45.8992 49.6874 45.2783L46.3901 42.8929C44.7621 41.7172 42.6183 41.9581 41.2367 43.4736L38.3911 46.5909L36.5283 35.7522C35.6563 32.2834 37.6227 31.9518 39.3971 33.238L46.3301 38.2563C46.0372 38.9918 45.8457 39.7615 46.032 40.26C46.8004 42.318 53.1875 45.1455 50.3331 48.1541Z" fill="#FF8E1D"/>
<path d="M50.4635 55.0015C48.1463 58.2711 45.0876 61.2757 41.3127 62.1542C34.8133 63.6651 27.6087 57.5818 27.6087 57.5818C27.6087 57.5818 31.1378 54.0609 32.7766 55.5057C34.7735 57.2661 36.6638 58.0762 38.4258 58.213H38.4294C41.233 59.2215 46.0697 59.8567 50.4635 55.0015Z" fill="#FF8E1D"/>
<path d="M28.8832 57.5254C30.8956 58.9903 36.3021 62.4479 41.1559 61.3205C47.0472 59.951 51.3106 52.9743 53.8498 47.363C54.3641 46.2252 54.0273 44.8425 53.0658 44.1457L38.9784 33.9512C38.2043 33.3904 37.5306 33.2967 37.2899 33.4926C37.0855 33.6591 36.9572 34.291 37.2666 35.5241L37.2811 35.5932L38.8754 44.8649L40.6985 42.8665C42.3243 41.0843 44.8935 40.7953 46.8076 42.1795L50.1054 44.5637C51.2992 45.4266 51.693 47.1853 51.0027 48.568C49.3168 51.944 45.7308 57.7743 40.656 58.8972C37.8633 59.5158 35.0514 58.5988 32.2995 56.172C31.6941 55.6379 30.1313 56.4963 28.8832 57.5254ZM39.1316 63.2482C33.1311 63.2482 27.4152 58.4878 27.1445 58.2596L26.4061 57.6358L27.0964 56.9476C27.766 56.2795 31.2108 53.0369 33.2527 54.8376C35.6356 56.9384 38.0252 57.7427 40.3564 57.2264C44.9919 56.2008 48.4087 50.252 49.662 47.7419C49.9636 47.1376 49.7913 46.3684 49.2692 45.9912L45.9714 43.607C44.6565 42.6561 42.8915 42.855 41.7753 44.079L37.9083 48.3179L35.781 35.9469C35.2134 33.6523 35.7945 32.5988 36.3833 32.1187C37.218 31.4395 38.5329 31.5953 39.8152 32.5241L53.9026 42.7187C55.5191 43.8899 56.0847 46.2149 55.2195 48.1276C52.5287 54.0747 47.9595 61.4792 41.47 62.9878C40.6933 63.1683 39.9099 63.2482 39.1316 63.2482Z" fill="#FEC130"/>
<path d="M17.1689 67.9287L14.1691 74.9888C17.1342 78.1365 18.8713 82.449 18.6659 82.9326C18.3958 83.5679 16.9272 83.4276 9.90815 79.7463C2.88917 76.0651 1.85844 74.8939 2.1283 74.2586C2.33363 73.7757 6.43473 72.5247 10.5064 73.0674L13.5058 66.0079C14.4626 63.7565 14.3927 61.1319 13.3179 58.9472L10.8269 53.8856C8.52451 49.2062 8.37459 43.5863 10.4235 38.7637L17.6941 21.6524C17.6941 21.6524 22.9671 20.422 32.9008 25.632C42.834 30.8422 45.3303 36.1475 45.3303 36.1475L38.0599 53.2589C36.0113 58.0814 32.0103 61.5246 27.2951 62.5233L22.195 63.6035C19.9932 64.0698 18.1252 65.6773 17.1689 67.9287Z" fill="#FFB81A"/>
<path d="M45.3298 36.1481L38.0599 53.2589C36.0108 58.0819 32.0097 61.5246 27.2956 62.5238L22.1945 63.6029C19.9932 64.0692 18.1246 65.6767 17.1679 67.9298L14.6338 73.8924L14.1686 74.9882C17.1337 78.1371 18.8719 82.4502 18.6659 82.9325C18.3963 83.5672 16.9272 83.427 9.90904 79.7469C2.88887 76.065 1.85783 74.8933 2.12913 74.2586C2.19609 74.1016 2.66636 73.8665 3.41348 73.6371C4.82434 73.2013 7.21559 72.7891 9.69372 72.98C9.96327 73.0024 10.2346 73.0306 10.506 73.0668L10.6254 72.7851L13.5068 66.0084C14.462 63.7559 14.3932 61.133 13.3169 58.9466L10.8261 53.8861C8.52524 49.2073 8.37512 43.5863 10.4227 38.7627L17.6941 21.652C17.6941 21.652 22.9671 20.4221 32.9013 25.6312C42.8335 30.8424 45.3298 36.1481 45.3298 36.1481Z" fill="#FFB81A"/>
<path d="M17.7929 55.5338C9.56712 53.0887 10.2638 43.8479 12.0589 39.62L18.891 23.5428C19.0147 23.5381 19.1518 23.5352 19.3013 23.5352C20.6478 23.5352 23.0452 23.7647 26.4439 24.9489C27.085 25.1723 10.2467 48.3323 17.7929 55.5338Z" fill="#FFDC8D"/>
<path d="M8.98599 75.5804C8.15794 75.5804 6.48379 74.5461 5.65771 74.0005C6.47179 73.8717 7.40374 73.7831 8.39453 73.7831C8.46019 73.7831 8.52596 73.7831 8.59215 73.7843C9.03463 74.3632 9.56549 75.1515 9.39773 75.405C9.31649 75.5275 9.17279 75.5804 8.98599 75.5804Z" fill="#FFDC8D"/>
<path d="M18.6659 82.9325C18.3963 83.5673 16.9272 83.427 9.90904 79.7469C2.88887 76.0651 1.85783 74.8934 2.12913 74.2586C2.19604 74.1017 2.66636 73.8665 3.41348 73.6377C3.84033 74.0333 5.34894 75.3556 7.71489 76.686C10.0664 78.0083 14.4998 80.2678 13.8307 77.7335C13.541 76.636 12.282 74.9882 10.2852 73.521C9.96508 73.2859 9.77336 73.1071 9.69372 72.98C9.96332 73.0024 10.2346 73.0306 10.506 73.0668L10.6253 72.7851C11.5912 72.9564 13.1358 73.4123 14.6338 73.8924L14.1686 74.9882C17.1337 78.1371 18.8719 82.4502 18.6659 82.9325Z" fill="#FF8E1D"/>
<path d="M45.3297 36.1481L38.0598 53.2589C36.0107 58.0819 32.0097 61.5246 27.2956 62.5238L22.1944 63.6029C19.9931 64.0692 18.1246 65.6767 17.1678 67.9298L14.1686 74.9882L10.5059 73.0668L13.5067 66.0084C14.462 63.7559 14.3931 61.1331 13.3168 58.9466L10.8261 53.8861C10.2888 52.7949 9.86917 51.6491 9.56708 50.4774L9.56889 50.4757C9.56889 50.4757 15.9745 61.5056 27.1895 55.5672C34.9075 51.4812 40.2736 30.444 40.7729 30.8748C44.2679 33.8908 45.3297 36.1481 45.3297 36.1481Z" fill="#FF8E1D"/>
<path d="M45.3297 36.1481L38.0599 53.2588C36.0107 58.0819 32.0097 61.5245 27.2956 62.5238L22.1944 63.6029C19.9931 64.0692 18.1246 65.6766 17.1678 67.9298L14.1686 74.9882L13.5419 74.6587L16.1732 66.4729C17.13 64.2198 18.9986 62.6123 21.1999 62.146L26.3005 61.0663C31.0146 60.0677 35.0156 56.625 37.0653 51.802L44.3351 34.691C44.3351 34.691 44.288 34.5906 44.1814 34.4056C45.0187 35.4869 45.3297 36.1481 45.3297 36.1481Z" fill="#FFB81A"/>
<path d="M3.08691 74.6392C3.64028 75.1848 5.30786 76.3916 10.2353 78.9759C15.1627 81.5602 17.0613 82.2237 17.7924 82.3519C17.3826 81.1169 15.9684 78.0767 13.6393 75.6045L13.2398 75.1802L16.4755 67.5653C17.5332 65.0759 19.6175 63.2821 22.0512 62.7664L27.1518 61.6861C31.6103 60.7421 35.4291 57.4558 37.367 52.8955L44.4594 36.2025C43.7194 34.9799 40.6773 30.6527 32.5733 26.4022C24.4744 22.1544 19.5347 22.2923 18.2095 22.4347L11.1166 39.1272C9.1791 43.6875 9.32228 49.0521 11.4996 53.4768L13.9901 58.5384C15.1787 60.9543 15.2569 63.8824 14.1992 66.3712L10.9635 73.9867L10.415 73.9131C7.2174 73.4871 4.20545 74.2052 3.08691 74.6392ZM18.0682 84.0778C17.5322 84.0778 16.9681 83.8944 16.6023 83.7754C15.1715 83.3103 12.8745 82.2438 9.58097 80.5167C6.28731 78.7891 4.08685 77.496 2.85384 76.5641C2.22662 76.0904 0.921424 75.1038 1.43511 73.8953C1.9312 72.7282 6.51236 71.8388 10.0443 72.1601L12.8129 65.6445C13.662 63.6461 13.5994 61.2952 12.6452 59.356L10.1543 54.2937C7.74257 49.3931 7.58413 43.4512 9.73041 38.4001L17.1637 20.9059L17.5363 20.8188C17.7619 20.7656 23.1772 19.5898 33.2278 24.8618C43.2791 30.1334 45.9031 35.5259 46.0097 35.7529L46.1862 36.1281L38.7533 53.6222C36.6069 58.6735 32.3771 62.314 27.439 63.3598L22.3384 64.44C20.3844 64.854 18.7109 66.2942 17.8618 68.2926L15.0933 74.8083C17.5627 77.6335 19.855 82.1288 19.3593 83.2959C19.1032 83.8979 18.5997 84.0778 18.0682 84.0778Z" fill="#FEC130"/>
<path d="M25.2485 32.6212C27.5492 33.1719 29.8395 33.1275 32.1339 32.534C32.1722 32.8061 32.0087 32.995 31.9207 33.2022C29.708 38.4248 27.5078 43.6542 25.2573 48.8573C24.7192 50.1003 24.8464 51.226 26.0909 51.6163C26.2317 51.6606 26.5106 51.7273 26.3838 51.9889C26.2602 52.2442 26.0708 51.9969 25.9373 51.9274C23.6568 50.7419 21.38 49.5478 19.1067 48.345C18.9722 48.2737 18.6783 48.2634 18.7699 48.011C18.892 47.6724 19.1067 47.9644 19.2599 48.0311C20.1484 48.418 20.552 48.2766 20.965 47.3119C22.7114 43.2293 24.448 39.1423 26.1753 35.0502C26.6146 34.0086 26.4376 33.5239 25.5078 32.9818C25.4043 32.9216 25.2392 32.9178 25.2485 32.6212Z" fill="white"/>
<path d="M19.8322 72.37C25.1362 68.5214 24.2223 63.174 21.4063 61.9742C19.1145 60.998 15.0462 62.3076 15.3479 65.4956C15.5636 67.7712 18.6141 67.1025 18.6141 67.1025C18.6141 67.1025 16.7792 69.6448 16.9002 71.388C16.9002 71.388 16.9944 72.7506 17.9491 72.9512C18.7631 73.1226 19.8322 72.37 19.8322 72.37Z" fill="#FFB3B3"/>
<path d="M22.3503 69.857C21.7479 70.7251 20.9216 71.5795 19.8323 72.3694C19.8323 72.3694 18.7632 73.1231 17.9493 72.9518C16.9945 72.7512 16.9004 71.3886 16.9004 71.3886C16.7793 69.6443 18.6152 67.1019 18.6152 67.1019C18.6152 67.1019 15.5637 67.7712 15.3485 65.4962C15.1689 63.607 16.5242 62.3772 18.134 61.8925C19.2429 61.5591 20.4708 61.5769 21.4059 61.9747C23.6434 62.9274 24.6799 66.4988 22.3503 69.857Z" fill="#FFD26A"/>
<path d="M21.3697 71.0448C21.3702 71.0448 21.3702 71.0442 21.3707 71.0436C21.7474 70.6544 22.0729 70.2571 22.3503 69.857C22.0734 70.2571 21.748 70.655 21.3697 71.0448Z" fill="#FFD9D9"/>
<path d="M15.9995 63.2528C16.1474 63.0677 16.3161 62.8981 16.5014 62.7446C16.3161 62.8981 16.148 63.0677 15.9995 63.2528Z" fill="#FFC78E"/>
<path d="M19.8323 72.37C21.1213 70.8304 22.3845 69.1625 22.7767 67.1434C23.0158 66.0924 21.5751 63.0597 20.9749 62.8556C19.3014 62.2783 15.9332 63.0781 16.2629 65.5715C16.3953 66.2022 17.2699 66.2792 17.8448 66.3005C18.1061 66.3057 18.3607 66.2833 18.5951 66.2505C19.0008 66.1988 19.3671 66.5224 19.4137 66.9732C19.4706 67.6625 18.8114 67.9299 18.4786 68.4226C17.7863 69.2752 17.0551 70.2089 16.9004 71.388C16.6665 70.1514 17.0991 68.8722 17.511 67.7321C17.6636 67.3394 17.8158 66.9697 18.0165 66.5696L18.7627 67.9385C17.2305 68.3404 15.0825 68.0868 14.5583 66.1229C14.2701 65.0317 14.4869 63.8065 15.0831 62.8969C15.7966 61.7908 16.9609 61.1429 18.1123 60.8439C19.8101 60.4035 21.8308 60.6323 23.1203 62.0685C24.4077 63.4707 24.7441 65.7589 24.2163 67.5699C23.5508 69.9018 21.8282 71.5645 19.8323 72.37Z" fill="#FEC130"/>
<path d="M10.7742 60.4915C10.4879 58.3729 14.0983 55.0567 16.7849 58.6488C18.1009 60.4087 18.3901 63.108 16.0414 62.7141C16.252 63.0321 16.949 64.6292 16.0652 65.7497C15.3324 66.6794 13.9456 66.2298 13.9456 66.2298C13.9456 66.2298 15.927 67.639 14.7839 69.6397C13.9586 71.0839 11.7112 70.2319 11.7112 70.2319L11.1322 71.5945C8.85989 70.9919 6.84753 67.4665 9.39774 65.1254C8.42755 62.6101 9.39774 60.8933 10.7742 60.4915Z" fill="#FFEAB6"/>
<path d="M16.0408 62.7147C16.2525 63.032 16.949 64.6298 16.0646 65.7491C15.3536 66.6518 14.0294 66.2556 13.9482 66.2315C14.017 66.2821 15.113 67.0996 15.1368 68.3501C15.1456 68.7416 15.0499 69.174 14.7839 69.6402C13.9591 71.085 11.7107 70.2307 11.7107 70.2307L11.1316 71.5956C9.67203 71.2075 8.31902 69.6138 8.21594 67.9017C8.15809 66.9513 8.48725 65.9624 9.3971 65.1265C8.42753 62.61 9.3971 60.8939 10.7737 60.492C10.4879 58.3717 14.0983 55.0578 16.7844 58.6488C18.1014 60.4092 18.3906 63.1085 16.0408 62.7147Z" fill="#FFEAB6"/>
<path d="M16.0408 62.7147C16.2525 63.032 16.949 64.6298 16.0646 65.7491C15.9596 65.8819 15.8421 65.9866 15.7174 66.0671C15.216 66.3965 14.5976 66.358 14.2395 66.2982C14.0786 66.27 13.9699 66.2378 13.9482 66.2315C14.017 66.2821 15.113 67.0996 15.1368 68.3501C15.1456 68.7416 15.0499 69.174 14.7839 69.6402C13.9591 71.085 11.7107 70.2307 11.7107 70.2307L11.1316 71.5956C9.67203 71.2075 8.31902 69.6138 8.21594 67.9017C8.15809 66.9513 8.48725 65.9624 9.3971 65.1265C9.36093 65.0339 9.32839 64.9414 9.29579 64.8488C9.11312 64.3043 9.02267 63.7996 9.00823 63.3436C8.95576 61.8103 9.75343 60.7892 10.7737 60.492C10.4879 58.3717 14.0983 55.0578 16.7844 58.6488C18.1014 60.4092 18.3906 63.1085 16.0408 62.7147Z" fill="#FFEAB6"/>
<path d="M16.9474 62.6883C16.7409 62.7509 16.4915 62.771 16.1986 62.7348C16.1479 62.7308 16.0952 62.7228 16.0408 62.7147C16.2525 63.0321 16.949 64.6298 16.0646 65.7492C15.9596 65.882 15.8421 65.9866 15.7174 66.0671C15.216 66.3965 14.5976 66.358 14.2395 66.2982C14.0786 66.27 13.9699 66.2378 13.9482 66.2315C14.017 66.2821 15.113 67.0997 15.1368 68.3501C15.1456 68.7417 15.0499 69.174 14.7839 69.6403C13.9591 71.0851 11.7107 70.2307 11.7107 70.2307L11.1316 71.5956C9.67203 71.2075 8.31902 69.6138 8.21594 67.9017C8.15809 66.9513 8.48725 65.9625 9.3971 65.1265C9.36093 65.034 9.32839 64.9414 9.29579 64.8488C9.11312 64.3044 9.02267 63.7996 9.00823 63.3437C8.95757 61.8805 9.68109 60.8836 10.6344 60.538C10.6796 60.5202 10.7266 60.5058 10.7737 60.492C10.723 60.116 10.7953 59.7021 10.9619 59.2962C11.7397 57.4127 14.5759 55.6949 16.7844 58.6488C17.8985 60.1379 18.2768 62.2967 16.9474 62.6883Z" fill="#FFD26A"/>
<path d="M14.0739 57.9118C13.6703 57.9118 13.3226 58.0325 13.0706 58.1578C12.0853 58.6482 11.4462 59.7274 11.5321 60.3644C11.5906 60.795 11.3474 61.2044 10.9691 61.3147C10.5196 61.4464 10.1611 61.7707 9.95957 62.2289C9.66928 62.8895 9.71993 63.799 10.1022 64.7902C10.2363 65.1374 10.1482 65.541 9.88594 65.7819C9.12568 66.4799 8.83875 67.3055 9.03316 68.2357C9.23114 69.1832 9.91766 70.0806 10.7359 70.5325L11.0183 69.8685C11.1844 69.4764 11.5896 69.2861 11.959 69.4258C12.3937 69.5874 13.7314 69.8921 14.1365 69.1832C14.8248 67.9781 13.7505 67.1071 13.5285 66.9444C13.2113 66.7127 13.0923 66.2574 13.2517 65.8745C13.4105 65.4916 13.7955 65.2944 14.1598 65.4122C14.3973 65.4858 15.1601 65.6054 15.4887 65.1886C16.0801 64.4383 15.4307 63.2298 15.4235 63.2189C15.2444 62.9401 15.2299 62.5652 15.3909 62.2737C15.5513 61.9817 15.8499 61.8207 16.1557 61.8718C16.3554 61.9058 16.8325 61.9569 16.9572 61.7114C17.172 61.2889 16.9117 60.1511 16.1955 59.1933C15.4509 58.1981 14.6959 57.9118 14.0739 57.9118ZM11.1327 72.4465C11.0737 72.4465 11.0136 72.439 10.9541 72.4229C9.347 71.9969 7.91094 70.3974 7.53966 68.6209C7.25236 67.2463 7.59208 65.9418 8.49815 64.8919C8.03021 63.3247 8.27228 62.1858 8.58203 61.4815C8.88791 60.7858 9.39414 60.2322 10.0138 59.8993C10.1675 58.6091 11.1306 57.2569 12.4434 56.6032C14.1805 55.7385 16.0248 56.2997 17.3743 58.1049C18.285 59.3221 18.9608 61.232 18.2928 62.5485C18.1308 62.867 17.7997 63.3126 17.1663 63.5069C17.3531 64.3406 17.3531 65.4094 16.6416 66.3114C16.3461 66.6857 15.9808 66.9157 15.6015 67.0462C15.9865 67.9034 16.0713 68.9751 15.4312 70.0962C14.6928 71.3886 13.2206 71.4639 12.1334 71.2328L11.8255 71.9584C11.6967 72.2613 11.4235 72.4465 11.1327 72.4465Z" fill="#FEC130"/>
<path d="M15.4447 63.2494C13.5161 60.5995 10.996 61.3061 10.9712 61.3142L10.5771 59.6682C10.7197 59.6256 14.0905 58.6787 16.6374 62.1789L15.4447 63.2494Z" fill="#FEC130"/>
<path d="M13.484 66.9099C13.4659 66.895 11.4877 65.2834 9.62899 65.9371L9.16638 64.3135C11.7868 63.3914 14.3011 65.4611 14.4067 65.5496L13.484 66.9099Z" fill="#FEC130"/>
<path d="M100.852 130.944C102.78 133.427 103.656 136.76 103.911 139.984C103.943 140.456 103.953 140.93 103.974 141.407L102.444 141.305C102.592 140.006 102.67 138.65 102.577 137.341C102.432 135.114 101.938 132.856 100.852 130.944Z" fill="#FEC130"/>
<path d="M80.4587 138.991C80.4794 140.797 80.8831 142.577 81.5584 144.204C81.9584 145.142 82.4815 146.025 83.0813 146.805L81.8285 147.787C80.4753 145.145 79.9842 141.976 80.4587 138.991Z" fill="#FEC130"/>
<path d="M127.557 106.086C129.044 103.685 130.411 102.801 133.038 102.888C131.107 103.396 130.006 104.057 129.191 106.131C129.094 106.365 128.994 106.627 128.931 106.841L127.557 106.086Z" fill="#FEC130"/>
<path d="M129.181 109.634C129.745 108.232 130.766 107.16 132.015 106.595C132.728 106.342 133.483 106.287 134.213 106.33C133.527 106.502 132.852 106.764 132.273 107.188C131.753 107.606 131.337 108.241 131.032 108.85C130.832 109.269 130.696 109.705 130.653 110.109L129.181 109.634Z" fill="#FEC130"/>
<path d="M51.2475 121.62C50.5629 122.781 50.3601 124.189 50.2405 125.536C50.0615 128.146 50.5676 130.921 52.0755 132.932C54.1639 135.73 58.3305 137.152 61.5264 136.658C63.9264 136.29 66.2094 135.013 68.0247 133.18C66.5742 135.579 64.3005 137.3 61.7686 138.028C56.4045 139.501 50.1645 136.248 49.3981 129.767C49.0643 127.117 49.5357 123.603 51.2475 121.62Z" fill="#FEC130"/>
<path d="M57.0595 113.875C57.7358 113.289 58.8225 113.446 59.399 114.169C60.1783 115.141 59.9454 116.657 59.0911 117.421C58.9379 116.593 58.9581 115.818 58.6321 115.162C58.3081 114.514 57.7379 114.229 57.0595 113.875Z" fill="#FEC130"/>
<path d="M46.5696 110.009C46.3642 108.936 47.0328 107.86 47.9937 107.534C49.0322 107.157 50.1225 108.107 50.1132 109.277C49.4364 108.905 48.966 108.541 48.3062 108.763C47.6687 108.985 47.1394 109.451 46.5696 110.009Z" fill="#FEC130"/>
<path d="M64.9804 87.1404C66.6643 87.5826 68.2865 88.4191 69.5579 89.7242C68.1132 88.9681 66.4656 88.7094 64.8878 88.8411L64.9804 87.1404Z" fill="#FEC130"/>
<path d="M37.1663 79.9711C37.13 83.4057 40.4294 86.324 43.0307 87.5532C45.913 88.9129 49.1554 89.0532 52.2151 88.3018C55.1435 87.6176 58.3316 86.2539 59.4291 82.9354C60.4123 79.9349 59.2739 75.4614 56.9142 73.5198C57.6868 73.8608 58.3202 74.526 58.8537 75.2389C61.8172 79.3415 61.5605 85.0488 57.3349 87.943C53.0022 90.7504 47.0488 91.3155 42.5272 88.7445C39.8265 87.2583 36.4987 83.5862 37.1663 79.9711Z" fill="#FEC130"/>
<path d="M22.5811 15.0725C22.5811 15.0725 21.0323 3.34516 23.1673 0.362213C24.8662 3.64056 22.5811 15.0725 22.5811 15.0725Z" fill="#FFEFC8"/>
<path d="M35.1373 17.8133C35.1373 17.8133 38.1578 6.4453 41.2217 4.7319C41.5265 8.49945 35.1373 17.8133 35.1373 17.8133Z" fill="#FFEFC8"/>
<path d="M41.8922 20.1588C41.8922 20.1588 51.1905 14.3486 54.4624 15.4936C52.317 18.4306 41.8922 20.1588 41.8922 20.1588Z" fill="#FFEFC8"/>
<path d="M45.59 30.3235C45.59 30.3235 56.2513 29.9038 58.685 32.5895C55.5657 34.1045 45.59 30.3235 45.59 30.3235Z" fill="#FFEFC8"/>
<path d="M14.9939 17.0724C14.9939 17.0724 6.95416 9.28144 6.83038 5.4729C10.0394 6.73642 14.9939 17.0724 14.9939 17.0724Z" fill="#FFEFC8"/>
<path d="M94.0795 108.72C93.0839 118.788 84.9307 126.949 75.8694 126.949C66.8081 126.949 60.27 118.788 61.2656 108.72C62.2612 98.6527 70.4143 90.4911 79.4756 90.4911C88.5369 90.4911 95.0751 98.6527 94.0795 108.72Z" fill="#FFB3B3"/>
<path d="M58.1422 90.1082C57.0001 99.2702 49.3898 106.909 41.144 107.171C32.8977 107.433 27.1383 100.218 28.2804 91.0562C29.4219 81.8942 37.0322 74.2552 45.2785 73.993C53.5243 73.7314 59.2837 80.9467 58.1422 90.1082Z" fill="#FFB3B3"/>
<path d="M45.7132 74.6254C45.5745 74.6254 45.4348 74.6271 45.2946 74.6317C37.3303 74.8847 29.9528 82.2915 28.8496 91.1436C28.3176 95.4142 29.3163 99.3668 31.6615 102.273C33.9751 105.14 37.3411 106.655 41.1274 106.532C49.0922 106.28 56.4692 98.8729 57.5724 90.0208C58.1049 85.7502 57.1062 81.7982 54.761 78.8914C52.5328 76.1306 49.3323 74.6254 45.7132 74.6254ZM40.7067 107.816C36.7575 107.816 33.2553 106.162 30.8051 103.126C28.2302 99.9348 27.1311 95.6177 27.7106 90.9683C28.8874 81.5263 36.7611 73.6245 45.262 73.3548C49.3975 73.2255 53.0736 74.887 55.6169 78.0388C58.1918 81.2296 59.2909 85.5467 58.7114 90.1956C57.5346 99.6382 49.6614 107.54 41.16 107.81C41.0084 107.814 40.8573 107.816 40.7067 107.816Z" fill="#7F2222"/>
<path d="M58.1421 90.1088C57.9848 91.3793 57.7022 92.6189 57.31 93.8147C54.8789 101.245 48.2456 106.947 41.1439 107.171C41.0989 107.174 41.0518 107.174 41.0068 107.174C37.6909 107.248 34.7843 106.106 32.5757 104.119C31.6567 103.291 30.8573 102.314 30.2027 101.219C28.5494 98.4573 27.7965 94.9301 28.2798 91.0557C28.3501 90.4848 28.4479 89.9202 28.569 89.3614C30.3724 80.9709 37.5465 74.2385 45.279 73.993C46.0588 73.9688 46.8169 74.0108 47.5475 74.1155C51.3064 74.6524 54.3796 76.8285 56.2606 80.0142C56.9302 81.1457 57.4471 82.4059 57.7928 83.7644C58.2849 85.7054 58.4241 87.8481 58.1421 90.1088Z" fill="#FFE29F"/>
<path d="M45.7019 74.6254C45.5668 74.6254 45.4312 74.6271 45.2951 74.6317C37.8509 74.8675 30.9009 81.2641 29.128 89.5097C29.009 90.0587 28.9153 90.6078 28.8491 91.1425C28.3994 94.7501 29.0333 98.1117 30.6815 100.865C31.3045 101.907 32.0636 102.835 32.9381 103.622C35.1316 105.597 37.9208 106.603 40.995 106.535C41.0447 106.535 41.084 106.535 41.1218 106.533C47.8079 106.321 54.3864 100.881 56.7699 93.5968C57.1533 92.428 57.4234 91.2253 57.5725 90.0219V90.0214C57.8374 87.9005 57.7251 85.8537 57.2392 83.9375C56.9122 82.6508 56.4216 81.4486 55.7805 80.3649C53.9378 77.2454 50.9883 75.2509 47.4742 74.749C46.8977 74.6668 46.3032 74.6254 45.7019 74.6254ZM40.6887 107.816C37.4726 107.816 34.5448 106.713 32.2142 104.615C31.2486 103.745 30.4108 102.722 29.7236 101.572C27.9177 98.5556 27.2212 94.8887 27.7102 90.9677C27.7816 90.3922 27.8825 89.8006 28.0103 89.2119C29.899 80.4241 37.3159 73.6066 45.2631 73.3542C46.063 73.3307 46.8558 73.3727 47.6211 73.4819C51.4731 74.0321 54.7119 76.2272 56.7414 79.6635C57.4472 80.8565 57.987 82.1776 58.3461 83.5908C58.8754 85.6778 58.9981 87.8999 58.7114 90.1961C58.5515 91.4891 58.2617 92.7804 57.8503 94.0338C55.2713 101.915 48.4082 107.58 41.1606 107.81C41.114 107.812 41.0597 107.812 41.0069 107.812C40.9008 107.815 40.7942 107.816 40.6887 107.816Z" fill="#7F2222"/>
<path d="M94.0805 108.721C93.9087 110.451 93.5268 112.126 92.9644 113.711C90.4014 120.938 84.1064 126.336 77.0824 126.901C76.6808 126.933 76.2756 126.949 75.8689 126.949C71.4788 126.949 67.6821 125.034 65.0467 121.913C64.0894 120.781 63.2847 119.489 62.6643 118.072C61.4576 115.337 60.9277 112.139 61.2661 108.721C61.3096 108.285 61.3655 107.853 61.4358 107.425C62.968 97.9611 70.806 90.4911 79.4756 90.4911C80.2808 90.4911 81.0637 90.5549 81.8254 90.6797C85.1719 91.2264 88.066 92.9305 90.2109 95.4228C91.148 96.514 91.9424 97.7541 92.568 99.1144C93.8523 101.904 94.4293 105.196 94.0805 108.721Z" fill="#FFE29F"/>
<path d="M49.3561 95.0618C47.7716 98.1112 44.7098 99.4433 42.5173 98.037C40.3253 96.6313 39.8327 93.0191 41.4177 89.9691C43.0022 86.9197 46.064 85.5876 48.2565 86.9938C50.4485 88.4001 50.9411 92.0118 49.3561 95.0618Z" fill="#134453"/>
<path d="M46.8268 91.8657C46.2203 93.0334 45.0488 93.5428 44.2095 93.0047C43.3706 92.4665 43.1823 91.0844 43.7888 89.9173C44.3952 88.7502 45.5668 88.2403 46.4061 88.7784C47.2449 89.3165 47.4332 90.6986 46.8268 91.8657Z" fill="white"/>
<path d="M77.768 109.108C76.0722 112.371 72.7962 113.796 70.4505 112.292C68.1049 110.787 67.5781 106.922 69.2738 103.659C70.9695 100.396 74.2456 98.9707 76.5907 100.475C78.9364 101.98 79.4632 105.845 77.768 109.108Z" fill="#0C2B34"/>
<path d="M75.0612 105.689C74.4123 106.937 73.1585 107.483 72.2612 106.907C71.3634 106.331 71.1616 104.852 71.8105 103.603C72.4594 102.355 73.7132 101.809 74.611 102.385C75.5088 102.961 75.7101 104.44 75.0612 105.689Z" fill="white"/>
<path d="M73.0482 107.136C72.7724 107.136 72.5039 107.063 72.2612 106.907C71.3634 106.331 71.1616 104.852 71.8105 103.603C72.2839 102.692 73.0793 102.156 73.8239 102.156C74.0997 102.156 74.3683 102.229 74.611 102.385C75.5088 102.961 75.7101 104.44 75.0612 105.689C74.5877 106.6 73.7923 107.136 73.0482 107.136Z" fill="white"/>
<path d="M79.4756 91.9818C71.0917 91.9818 63.5207 99.5634 62.5991 108.883C62.1577 113.346 63.3038 117.526 65.8265 120.654C68.3253 123.752 71.8922 125.459 75.8694 125.459C84.2533 125.459 91.8243 117.877 92.746 108.557C93.1873 104.094 92.0412 99.9135 89.5185 96.7859C87.0197 93.6877 83.4528 91.9818 79.4756 91.9818ZM75.8694 128.439C71.1191 128.439 66.8428 126.381 63.8286 122.643C60.79 118.876 59.4063 113.874 59.9321 108.557C60.9985 97.7736 69.7659 89.0009 79.4756 89.0009C84.2259 89.0009 88.5022 91.0591 91.5165 94.7967C94.555 98.5636 95.9387 103.567 95.413 108.883C94.3465 119.666 85.5791 128.439 75.8694 128.439Z" fill="#0C2B34"/>
<path d="M30.2027 101.219C28.5494 98.4573 27.7965 94.9301 28.2798 91.0557C28.3501 90.4847 28.4479 89.9202 28.569 89.3613L29.3012 88.7732C29.2391 89.017 29.1812 89.2625 29.1279 89.5097C29.0089 90.0587 28.9152 90.6078 28.849 91.1425C28.4009 94.7398 29.0296 98.0922 30.6668 100.841L30.2027 101.219ZM55.7964 80.3919C55.7907 80.3833 55.7855 80.3741 55.7804 80.3649C53.9377 77.2454 50.9881 75.2509 47.474 74.749C47.2681 74.7197 47.0596 74.6955 46.8495 74.6766L47.5475 74.1154C51.3064 74.6524 54.3796 76.8285 56.2606 80.0142L55.7964 80.3919Z" fill="#BF9191"/>
<path d="M43.62 90.3002C43.6671 90.1709 43.723 90.0427 43.7887 89.9173C44.2311 89.0653 44.9747 88.564 45.6702 88.564C45.6971 88.564 45.7245 88.5645 45.7514 88.5663L43.62 90.3002Z" fill="white"/>
<path d="M40.702 107.177C37.5129 107.177 34.7165 106.045 32.5757 104.119L33.058 103.729C35.1631 105.571 37.8011 106.538 40.7051 106.538C40.8013 106.538 40.8981 106.537 40.9949 106.535C41.0446 106.535 41.0839 106.535 41.1217 106.533C41.3618 106.526 41.6008 106.511 41.8404 106.49L41.0068 107.174C40.9048 107.176 40.8034 107.177 40.702 107.177ZM56.4375 94.5294C56.556 94.2224 56.6668 93.9108 56.7697 93.5969C57.1532 92.428 57.4233 91.2253 57.5723 90.022V90.0214C57.8264 87.9844 57.7333 86.0159 57.2955 84.1658L57.7928 83.7645C58.2849 85.7054 58.4241 87.8482 58.1421 90.1088C57.9848 91.3794 57.7022 92.6189 57.31 93.8147L56.4375 94.5294Z" fill="#BF9191"/>
<path d="M45.7122 75.4769C45.5808 75.4769 45.4493 75.4792 45.3169 75.4832C37.7096 75.7247 30.6633 82.802 29.6093 91.2603C29.1084 95.2785 30.0398 98.9879 32.2323 101.705C34.3927 104.382 37.5435 105.793 41.1052 105.681C48.7125 105.44 55.7593 98.3624 56.8133 89.9041C57.3137 85.8859 56.3823 82.1765 54.1903 79.46C52.1101 76.882 49.1109 75.4769 45.7122 75.4769ZM40.7057 108.669C36.5355 108.669 32.832 106.914 30.2344 103.694C27.5063 100.314 26.3404 95.7528 26.9511 90.8516C28.1774 81.0157 36.3813 72.7845 45.2403 72.5034C49.6066 72.3648 53.4918 74.1287 56.1877 77.4702C58.9158 80.8507 60.0816 85.4116 59.471 90.3129C58.2452 100.149 50.0408 108.38 41.1818 108.661C41.023 108.666 40.8636 108.669 40.7057 108.669Z" fill="#0C2B34"/>
</svg>
