<svg width="124" height="135" viewBox="0 0 124 135" fill="none" xmlns="http://www.w3.org/2000/svg">
<path d="M61.3418 79.3528C60.7573 83.6459 54.5686 128.908 52.9782 128.96C51.3099 129.015 18.4867 134.838 17.9301 134.218C17.373 133.594 24.8856 120.703 29.3558 119.991C33.8227 119.274 44.3469 121.606 44.3469 121.606C47.4075 115.346 49.3332 83.31 49.5402 79.7395L61.3418 79.3528Z" fill="#FFEBB9"/>
<path d="M97.2096 131.621C97.0024 131.884 84.5109 132.534 79.8996 132.24C69.2607 131.561 59.3011 128.753 58.3036 128.786C56.7128 128.838 64.7986 83.5097 65.5687 79.2143L77.9804 78.8076C76.8164 82.4174 66.56 114.718 70.0204 120.765C70.0204 120.765 80.3694 117.749 84.8771 118.172C89.3807 118.59 97.7244 130.961 97.2096 131.621Z" fill="#FFEFC8"/>
<path d="M81.092 77.9195C81.092 78.1284 81.0401 78.3898 80.9876 78.5987C80.3609 81.0548 79.7333 83.5108 79.0541 85.9147C79.0541 85.9147 75.6051 89.5728 70.6404 88.1096L71.1633 84.4515L71.9472 76.9785C72.2084 74.418 74.5075 72.5889 77.0164 72.8501C79.5247 73.1112 81.3537 75.3589 81.092 77.9195Z" fill="#E26988"/>
<path d="M49.5286 84.504L49.9992 88.8414C44.5642 90.6704 42.317 88.6325 42.317 88.6325L41.5856 85.9672C40.9583 83.5111 40.2791 81.1073 39.6518 78.6512C39.025 76.1951 40.4882 73.6346 42.9963 73.0073C45.4523 72.3803 48.0129 73.8435 48.6404 76.3518C48.6924 76.5607 48.7446 76.7699 48.7446 77.031V77.0832L49.5286 84.504Z" fill="#E26988"/>
<path d="M117.829 58.7931C117.829 66.6317 111.454 73.0073 103.615 73.0073H103.093C101.42 78.9646 95.9335 83.3542 89.4012 83.3542C86.7884 83.3542 84.3321 82.6749 82.2422 81.4206C79.6291 84.974 75.4487 87.2734 70.7454 87.2734C66.9826 87.2734 63.5858 85.8102 61.0778 83.4586C58.5173 85.8102 55.1203 87.2734 51.4099 87.2734C46.9684 87.2734 42.9963 85.2355 40.3838 82.0476C38.5545 82.8838 36.569 83.3542 34.4266 83.3542C28.7824 83.3542 23.9227 80.0619 21.6231 75.3586C21.4667 74.9928 21.2572 74.6272 21.1527 74.2091C20.7871 74.2613 20.3688 74.3658 20.0035 74.418C19.4806 74.4702 18.9058 74.5224 18.3311 74.5224C12.6875 74.5224 7.82724 71.2302 5.52813 66.4747C4.6397 64.5934 4.11687 62.5032 4.11687 60.256C4.11687 57.6955 4.79612 55.3439 5.94595 53.2534C4.06494 50.8495 2.96759 47.8187 2.96759 44.5264C2.96759 37.9941 7.40914 32.4549 13.4189 30.7825C13.0533 29.5282 12.8964 28.222 12.8964 26.8633C12.8964 19.0247 19.2717 12.6491 27.1106 12.6491C29.0963 12.6491 31.0298 13.0672 32.7547 13.7986C33.8521 7.00516 39.7049 1.77936 46.8117 1.77936C51.463 1.77936 55.5912 4.02653 58.2039 7.47577C60.6603 3.24257 65.5727 0.420898 70.7982 0.420898C78.219 0.420898 84.3329 6.11702 84.9602 13.3805C86.3709 12.9102 87.8863 12.6488 89.454 12.6488C97.2925 12.6488 103.668 19.0241 103.668 26.863V27.2288C104.766 27.4903 105.811 27.8558 106.751 28.3262C111.507 30.6256 114.747 35.4855 114.747 41.1294C114.747 43.6377 114.12 45.9893 112.97 48.0273C115.896 50.6409 117.829 54.5079 117.829 58.7931Z" fill="#FFD26A"/>
<path d="M111.281 52.3254C111.281 60.164 104.906 66.5396 97.0668 66.5396H96.5439C94.8715 72.4969 89.3846 76.8867 82.8529 76.8867C80.2398 76.8867 77.7835 76.2075 75.6935 74.9532C73.0808 78.5066 68.8998 80.806 64.1966 80.806C60.4342 80.806 57.0372 79.3428 54.5292 76.9912C51.9684 79.3428 48.5719 80.806 44.8616 80.806C40.4197 80.806 36.4477 78.768 33.8349 75.5802C32.0061 76.4164 30.0201 76.8867 27.8779 76.8867C25.6308 76.8867 23.5403 76.3642 21.659 75.4758C21.659 75.4758 21.7115 74.6393 21.1887 74.3257C18.7326 72.7058 15.6498 70.5636 14.6044 67.7939C13.6118 68.0028 12.5145 68.1075 11.4688 68.0553C9.37888 68.0031 7.34062 67.4805 5.56406 66.6443C4.67564 64.763 4.1528 62.6728 4.1528 60.4257C4.1528 57.8651 4.83205 55.5135 5.98189 53.423C4.10087 51.0192 3.00354 47.9883 3.00354 44.696C3.00354 38.1637 7.44507 32.6246 13.4548 30.9522C13.0893 29.6979 12.9323 28.3916 12.9323 27.0329C12.9323 19.1943 19.3077 12.8187 27.1465 12.8187C29.1322 12.8187 31.0658 13.2368 32.7907 13.9683C33.888 7.17481 39.7408 1.94901 46.8476 1.94901C51.4989 1.94901 55.6271 4.19618 58.2399 7.64542H58.5538C61.0099 3.41221 65.6087 0.590546 70.8345 0.590546C78.2549 0.590546 84.3689 6.28667 84.9959 13.5502C86.4071 13.0798 87.9222 12.8187 89.4899 12.8187C97.3285 12.8187 103.704 19.1941 103.704 27.0329V27.3988C104.802 27.6602 105.847 28.0258 106.787 28.4961C107.676 30.3774 108.198 32.4676 108.198 34.7148C108.198 37.2231 107.571 39.5747 106.421 41.6127C109.347 44.1732 111.281 48.0403 111.281 52.3254Z" fill="#FFD26A"/>
<path d="M103.563 26.916C98.8074 11.5523 83.8098 15.8374 83.8098 15.8374C83.8098 15.8374 82.1897 7.68551 73.2015 5.22944C64.2651 2.82559 58.6218 10.6116 58.6218 10.6116C58.6218 10.6116 53.9185 5.54252 46.08 6.37871C38.2414 7.21491 35.1058 17.3529 35.1058 17.3529C35.1058 17.3529 28.4688 15.0535 20.9438 18.9727C13.4709 22.892 15.2477 33.5525 15.2477 33.5525C0.249839 41.3911 5.68454 53.097 5.73677 53.2537C3.85575 50.8498 2.75842 47.8189 2.75842 44.5267C2.75842 37.9944 7.20026 32.4552 13.2097 30.7828C12.8439 29.5285 12.6875 28.2223 12.6875 26.8635C12.6875 19.025 19.0625 12.6493 26.9014 12.6493C28.8871 12.6493 30.8207 13.0674 32.5456 13.7989C33.6429 7.00544 39.4957 1.77964 46.6025 1.77964C51.2538 1.77964 55.382 4.02681 57.9948 7.47604H58.3087C60.7648 3.24284 65.3636 0.421173 70.5894 0.421173C78.0098 0.421173 84.1237 6.1173 84.7508 13.3808C86.162 12.9105 87.6772 12.6491 89.2448 12.6491C97.1875 12.7018 103.563 19.0775 103.563 26.916Z" fill="#FFD26A"/>
<path d="M64.9971 80.2711C64.8926 80.2711 64.7882 80.2189 64.6835 80.1666C64.4743 80.01 64.4743 79.6963 64.6309 79.5396C67.1395 76.4565 64.6309 71.5963 64.579 71.5441C64.4743 71.3352 64.5265 71.0738 64.6835 70.9693C68.6547 67.9385 70.8499 64.594 71.3199 61.0403C71.8428 56.6507 69.3342 53.4629 69.3342 53.4106C69.1775 53.2017 69.2297 52.9403 69.3867 52.7836C69.5956 52.6269 69.8567 52.6792 70.0134 52.8359C70.1179 52.9925 72.7831 56.337 72.2084 61.0925C71.7383 64.8029 69.5431 68.2518 65.5194 71.3871C66.0941 72.6414 67.819 76.9788 65.3105 80.0619C65.2582 80.2189 65.1535 80.2711 64.9971 80.2711Z" fill="#FEC130"/>
<path d="M41.5856 14.4787C41.4812 14.4787 41.4286 14.4787 41.3239 14.3743C41.115 14.2176 41.0628 13.9562 41.2195 13.7473C41.272 13.695 44.8776 8.52174 50.8874 11.082C51.096 11.1864 51.2532 11.4479 51.1485 11.709C51.0441 11.9179 50.7829 12.0749 50.5215 11.9704C45.1915 9.72324 42.1079 14.1128 41.9515 14.322C41.847 14.3743 41.6898 14.4787 41.5856 14.4787Z" fill="#FEC130"/>
<path d="M30.1936 58.2706C30.1411 58.2706 30.0892 58.2706 30.0367 58.2183C29.9844 58.2183 26.0132 56.6507 26.6925 52.2611C26.7444 51.9997 26.9536 51.843 27.2147 51.8952C27.4764 51.9474 27.6328 52.1566 27.5806 52.4178C27.0058 56.0759 30.1936 57.3299 30.2984 57.3299C30.5595 57.4344 30.664 57.6958 30.5595 57.9047C30.507 58.1661 30.35 58.2706 30.1936 58.2706Z" fill="#FEC130"/>
<path d="M92.7981 61.5628C92.5364 61.5628 92.3278 61.3539 92.3278 61.1447C92.3278 60.8833 92.4842 60.6744 92.7456 60.6744C96.4038 60.4655 96.9266 57.0688 96.9786 56.9118C97.0311 56.6504 97.2403 56.4937 97.5014 56.4937C97.7625 56.5459 97.9195 56.7551 97.9195 57.0163C97.9195 57.0163 97.2919 61.3017 92.7981 61.5628C92.8501 61.5628 92.8501 61.5628 92.7981 61.5628Z" fill="#FEC130"/>
<path d="M21.832 36.1656C21.5709 36.1656 21.3617 35.9567 21.3617 35.6953C21.2053 29.6333 25.8558 28.1701 27.1626 27.8567C27.6326 25.6618 28.6258 23.9897 30.089 22.9968C32.4406 21.4292 35.1056 22.0039 35.2622 22.0039C35.5237 22.0562 35.6806 22.3176 35.6281 22.5265C35.5762 22.7879 35.3148 22.9446 35.1059 22.8924C35.0533 22.8924 32.6498 22.422 30.6637 23.7286C29.3053 24.617 28.4688 26.1846 28.0513 28.2748C27.9987 28.4837 27.8423 28.6407 27.6329 28.6407C27.424 28.6929 22.1459 29.4247 22.3026 35.5908C22.3023 35.9567 22.0937 36.1656 21.832 36.1656Z" fill="#FEC130"/>
<path d="M105.81 38.6217H105.654C105.392 38.5694 105.287 38.308 105.34 38.0469C105.34 38.0469 106.071 35.643 104.87 33.5528C104.086 32.1418 102.622 31.149 100.584 30.5742C100.376 30.522 100.271 30.3653 100.218 30.1561C100.218 29.9472 99.9047 24.6167 93.7911 24.2511C93.5294 24.2511 93.3207 24.0422 93.3727 23.7807C93.3727 23.5193 93.5819 23.3104 93.843 23.3626C99.905 23.7285 100.95 28.484 101.107 29.8424C103.249 30.4695 104.817 31.6193 105.706 33.1869C107.064 35.643 106.28 38.3083 106.228 38.4127C106.176 38.5172 106.019 38.6217 105.81 38.6217Z" fill="#FEC130"/>
<path d="M104.295 47.1919H104.19C103.929 47.1397 103.824 46.8783 103.877 46.6172C103.981 46.3035 105.914 39.2489 99.853 37.3154C99.5913 37.2632 99.4871 37.0018 99.5391 36.7406C99.5913 36.4795 99.853 36.3747 100.114 36.427C107.012 38.6741 104.765 46.7741 104.765 46.8786C104.66 47.0353 104.503 47.1919 104.295 47.1919Z" fill="#FEC130"/>
<path d="M68.4458 29.5288C68.3414 29.5288 68.2891 29.5288 68.2372 29.4766C68.0283 29.3721 67.9235 29.0585 68.0802 28.8496C71.2683 23.4671 65.1019 19.5478 64.8402 19.3909C64.6838 19.2864 64.6313 19.1295 64.6313 18.9728C64.893 15.6805 64.3699 13.2244 62.9592 11.7612C61.9315 10.6541 60.6637 10.3848 60.017 10.3191C59.7848 10.2955 59.6043 10.109 59.5914 9.87627C59.5751 9.58986 59.8157 9.35428 60.101 9.38011C60.9158 9.4534 62.3883 9.76424 63.5862 11.082C65.1019 12.7019 65.7814 15.2627 65.5197 18.7116C66.7215 19.5478 72.0523 23.7808 68.8122 29.2677C68.7595 29.4244 68.6028 29.5288 68.4458 29.5288Z" fill="#FEC130"/>
<path d="M61.0778 83.0374C61.1811 83.0374 61.2844 83.0756 61.3656 83.1512C63.9115 85.5379 67.2428 86.8523 70.7454 86.8523C75.1162 86.8523 79.2871 84.7286 81.9029 81.1713C82.0315 80.9961 82.2727 80.9481 82.4583 81.0598C84.5011 82.2855 86.9018 82.9333 89.4014 82.9333C95.5642 82.9333 101.027 78.8051 102.687 72.8939C102.738 72.7122 102.904 72.5864 103.093 72.5864H103.615C111.22 72.5864 117.408 66.3989 117.408 58.7934C117.408 54.83 115.688 51.0203 112.689 48.3412C112.541 48.2095 112.506 47.9928 112.603 47.8204C113.73 45.8231 114.326 43.5094 114.326 41.1297C114.326 35.7801 111.353 31.0192 106.568 28.7055C105.672 28.2574 104.665 27.8994 103.57 27.6388C103.38 27.5936 103.247 27.424 103.247 27.2291V26.8633C103.247 19.2578 97.0592 13.0703 89.4537 13.0703C87.9736 13.0703 86.5065 13.3092 85.093 13.7804C84.9705 13.8214 84.8363 13.8037 84.7282 13.7329C84.6207 13.6622 84.551 13.5456 84.5401 13.417C83.9313 6.36581 77.8949 0.842373 70.7979 0.842373C65.7816 0.842373 60.9806 3.52898 58.5678 7.68721C58.497 7.80935 58.3698 7.88742 58.2291 7.8964C58.0896 7.90623 57.9529 7.84277 57.8675 7.73017C55.2059 4.21635 51.1754 2.20084 46.8111 2.20084C39.9988 2.20084 34.2617 7.1071 33.1697 13.866C33.1489 13.9938 33.0711 14.105 32.9577 14.1676C32.8445 14.2302 32.7089 14.2375 32.5899 14.1867C30.8678 13.4563 28.973 13.0705 27.1099 13.0705C19.5044 13.0705 13.3169 19.258 13.3169 26.8635C13.3169 28.2549 13.4823 29.4982 13.8229 30.6649C13.8541 30.773 13.8412 30.8892 13.7864 30.9875C13.7319 31.0858 13.6399 31.1582 13.5317 31.1886C7.55905 32.8503 3.38845 38.3353 3.38845 44.5267C3.38845 47.651 4.38723 50.5791 6.27751 52.9939C6.38112 53.127 6.396 53.3087 6.31486 53.4564C5.13553 55.6002 4.53744 57.8878 4.53744 60.2563C4.53744 62.3372 4.99879 64.3688 5.90827 66.295C8.23575 71.1092 12.9963 74.1015 18.3307 74.1015C18.8923 74.1015 19.4665 74.0488 19.9607 73.9993C20.1194 73.9763 20.3081 73.9384 20.4965 73.9005C20.6998 73.8598 20.9033 73.8196 21.0929 73.7921C21.3071 73.7638 21.5093 73.8977 21.5612 74.1072C21.6255 74.3644 21.7387 74.6056 21.8586 74.8611C21.9111 74.9725 21.9628 75.0829 22.0099 75.1935C24.3057 79.8878 29.1825 82.9333 34.4262 82.9333C36.4218 82.9333 38.3671 82.5065 40.2083 81.6646C40.3818 81.5852 40.5876 81.6329 40.7092 81.7806C43.3506 85.0038 47.2511 86.8525 51.4096 86.8525C54.8597 86.8525 58.1918 85.537 60.7922 83.1489C60.8731 83.0745 60.9756 83.0374 61.0778 83.0374ZM70.7454 87.6946C67.1572 87.6946 63.7383 86.3946 61.0747 84.0267C58.3625 86.3951 54.9453 87.6946 51.4099 87.6946C47.1048 87.6946 43.0617 85.8282 40.2647 82.5615C38.4003 83.3671 36.4381 83.7753 34.4265 83.7753C28.8632 83.7753 23.6893 80.5443 21.2445 75.544C21.1923 75.4229 21.1446 75.3216 21.0963 75.2191C21.0159 75.0481 20.9337 74.8734 20.8629 74.6867C20.7967 74.6996 20.7293 74.7131 20.6619 74.7266C20.4577 74.7676 20.253 74.8083 20.0627 74.8355C19.5306 74.8889 18.9316 74.9442 18.331 74.9442C12.6706 74.9442 7.61969 71.7693 5.14845 66.6586C4.18394 64.6156 3.69536 62.463 3.69536 60.2566C3.69536 57.8342 4.28418 55.493 5.44582 53.2938C3.54767 50.7726 2.54608 47.7474 2.54608 44.527C2.54608 38.0985 6.78377 32.3887 12.9033 30.4956C12.6152 29.3699 12.4748 28.1771 12.4748 26.8638C12.4748 18.7939 19.0406 12.2284 27.1102 12.2284C28.9109 12.2284 30.7392 12.5685 32.4309 13.2151C33.7919 6.31414 39.7582 1.35875 46.8114 1.35875C51.2391 1.35875 55.3409 3.31249 58.1598 6.74094C60.8091 2.62736 65.7002 0 70.7979 0C78.1532 0 84.4348 5.59223 85.3249 12.8251C86.6699 12.4286 88.0567 12.2282 89.4537 12.2282C97.5239 12.2282 104.089 18.7936 104.089 26.8635V26.9C105.122 27.1676 106.08 27.52 106.939 27.9499C112.013 30.4029 115.168 35.4543 115.168 41.13C115.168 43.5386 114.591 45.8854 113.498 47.94C116.522 50.7647 118.25 54.7014 118.25 58.7937C118.25 66.8636 111.685 73.429 103.615 73.429H103.408C101.546 79.5374 95.8324 83.7759 89.4009 83.7759C86.8811 83.7759 84.4531 83.1534 82.3525 81.9729C79.5681 85.5626 75.258 87.6946 70.7454 87.6946Z" fill="#FFD26A"/>
<path d="M76.1799 22.5787C79.2108 23.6238 82.0849 23.3626 82.5553 22.0039C83.0259 20.5929 80.9876 18.6072 77.9565 17.5621C74.9256 16.517 72.0517 16.7781 71.5811 18.1368C71.1108 19.4956 73.149 21.4813 76.1799 22.5787Z" fill="#0C2B34"/>
<path d="M46.3408 23.2579C49.3197 22.0036 51.2532 19.8612 50.6785 18.5024C50.1037 17.1437 47.2292 17.0392 44.2506 18.2935C41.2723 19.5478 39.3384 21.6903 39.9135 23.049C40.4883 24.4078 43.3622 24.5122 46.3408 23.2579Z" fill="#0C2B34"/>
<path d="M46.1844 73.5298C45.139 73.5298 42.0035 73.2162 40.8539 69.6628C40.802 69.4014 40.9061 69.1402 41.1678 69.088C41.429 69.0358 41.6901 69.1402 41.7423 69.4017C42.8399 72.9028 46.2364 72.6417 46.3933 72.5895C46.655 72.5372 46.864 72.7462 46.9159 73.0076C46.9159 73.269 46.7595 73.4779 46.4978 73.5301C46.4978 73.5301 46.3931 73.5298 46.1844 73.5298Z" fill="#ED7E97"/>
<path d="M78.6884 78.2331C78.0611 78.2331 77.3816 78.1286 76.5979 77.815C76.3368 77.7105 76.2323 77.4491 76.3368 77.2402C76.4412 76.9788 76.7024 76.8744 76.9113 76.9788C80.3605 78.2853 82.2418 75.4111 82.2937 75.3064C82.4504 75.0975 82.7121 75.045 82.921 75.1497C83.1297 75.3064 83.1822 75.5678 83.0774 75.7767C83.0774 75.7767 81.5101 78.2331 78.6884 78.2331Z" fill="#ED7E97"/>
<path d="M47.9084 79.6963C47.6473 79.6963 47.3859 79.6963 47.1767 79.644C45.2957 79.3304 44.0411 77.9719 43.571 77.3969C37.509 78.7556 35.3666 72.7981 35.3666 72.7458C35.2622 72.4844 35.4189 72.2233 35.628 72.1711C35.8897 72.0666 36.1506 72.2233 36.2028 72.4325C36.255 72.6414 38.1886 77.8672 43.6236 76.404C43.8325 76.3518 44.0414 76.4562 44.1458 76.6129C44.1458 76.6129 45.2957 78.3897 47.3339 78.7031C48.6924 78.912 50.2081 78.3895 51.7232 77.0832C51.9324 76.9265 52.1936 76.9265 52.3505 77.1354C52.5069 77.3443 52.5069 77.6058 52.298 77.7624C50.7829 79.1215 49.3197 79.6963 47.9084 79.6963Z" fill="#ED7E97"/>
<path d="M89.8718 78.1809C87.9905 78.1809 86.5273 77.7105 86.4748 77.7105C86.2134 77.6583 86.1089 77.3969 86.1614 77.1358C86.2134 76.8743 86.4748 76.7699 86.7362 76.8221C87.0499 76.9266 94 79.0693 96.1427 73.0595C96.2472 72.7981 96.5083 72.6937 96.7175 72.7981C96.9786 72.9026 97.0831 73.164 96.9786 73.3729C95.6721 77.3447 92.4323 78.1809 89.8718 78.1809Z" fill="#ED7E97"/>
<path d="M34.0315 39.003C36.3109 33.2937 42.0045 30.2013 46.7488 32.0955C51.4927 33.9895 53.4908 40.1534 51.2114 45.8624C48.9319 51.5715 43.2383 54.6641 38.4941 52.7699C33.7501 50.8757 31.7517 44.712 34.0315 39.003Z" fill="white"/>
<path d="M36.9657 45.3941C37.4947 41.5916 40.5888 38.8797 43.8765 39.3371C47.1646 39.7945 49.4011 43.248 48.8721 47.0504C48.3431 50.8529 45.249 53.5645 41.961 53.1071C38.6732 52.6497 36.4367 49.1963 36.9657 45.3941Z" fill="#22213F"/>
<path d="M42.3696 49.3869C42.0034 50.2753 40.9061 50.6934 39.861 50.2753C38.8162 49.8572 38.2933 48.8121 38.6589 47.9237C39.0251 47.0353 40.1221 46.6172 41.1675 47.0353C42.1604 47.4534 42.6829 48.4985 42.3696 49.3869Z" fill="white"/>
<path d="M89.1398 38.1513C91.5439 43.7952 89.6626 50.0139 84.9594 51.9997C80.2561 53.9854 74.5075 51.059 72.1037 45.4151C69.7001 39.7712 71.5811 33.5526 76.2844 31.5668C80.9876 29.5813 86.7362 32.5077 89.1398 38.1513Z" fill="white"/>
<path d="M80.1545 38.7216C83.4313 38.1892 86.5868 40.8298 87.2026 44.6194C87.8184 48.4086 85.6613 51.9123 82.3848 52.445C79.108 52.9774 75.9521 50.3371 75.3364 46.5473C74.7209 42.758 76.8776 39.2543 80.1545 38.7216Z" fill="#22213F"/>
<path d="M77.2772 47.192C76.9113 48.0804 77.4861 49.1255 78.479 49.5436C79.5241 49.9617 80.6214 49.5436 80.9873 48.6552C81.3534 47.7668 80.7786 46.7217 79.7858 46.3036C78.7404 45.8855 77.6431 46.3036 77.2772 47.192Z" fill="white"/>
<path d="M81.1447 54.2468C73.8807 54.2468 67.9756 48.3418 67.9756 41.078C67.9756 33.8142 73.8807 27.9092 81.1447 27.9092C88.4085 27.9092 94.3133 33.8142 94.3133 41.078C94.3133 48.3418 88.4085 54.2468 81.1447 54.2468ZM42.1603 54.2468C34.8965 54.2468 28.9912 48.3418 28.9912 41.078C28.9912 33.8142 34.8965 27.9092 42.1603 27.9092C49.3716 27.9092 55.2769 33.8142 55.3288 41.078C55.3291 48.3418 49.4241 54.2468 42.1603 54.2468ZM81.1447 25.6095C73.2377 25.6095 66.7309 31.5544 65.8371 39.22C62.3508 37.683 59.2796 38.4257 57.4656 39.2009C56.5632 31.5446 50.0606 25.6095 42.1606 25.6095C33.6425 25.6095 26.7443 32.5074 26.7443 41.0255C26.7443 49.5436 33.6945 56.4415 42.1606 56.4415C50.4113 56.4415 57.2197 49.8887 57.56 41.6705C58.7719 41.0115 62.0234 39.6361 65.7465 41.7176C66.1109 49.9137 72.9097 56.4415 81.1447 56.4415C89.6103 56.4415 96.5604 49.5436 96.5604 41.0255C96.5604 32.5077 89.61 25.6095 81.1447 25.6095Z" fill="#0C2B34"/>
<path d="M120.756 77.9195C117.359 80.9503 111.558 81.891 106.542 81.1073C100.218 79.6963 96.1946 79.6963 97.2397 74.8886C99.8003 70.1854 104.765 75.4634 110.095 74.7842C124.623 74.7319 113.179 61.8243 107.43 57.3824C105.967 56.2851 105.705 54.1946 106.803 52.7836C110.774 48.6552 115.112 55.71 118.77 59.5249C123.839 65.9524 126.504 72.4848 120.756 77.9195Z" fill="#FFEAB6"/>
<path d="M62.327 70.0287V95.6871L60.7071 95.2167L21.3574 83.9815V79.1738L22.0366 78.2331L33.1152 63.0785C33.1152 63.0785 39.3861 62.0857 46.6496 63.0785C52.0324 63.8622 58.0418 65.7435 62.327 70.0287Z" fill="#E6ECFF"/>
<path d="M62.0705 91.1408C62.0705 91.1408 45.5052 74.1571 21.2572 79.1738C20.9961 79.226 21.9365 78.2331 21.9365 78.2331C29.8798 75.0453 46.0272 78.1809 52.1936 81.7343C58.4126 85.2877 60.6073 85.7058 59.1438 76.4563C57.6806 67.259 46.7064 63.1827 46.55 63.1305C51.9845 63.8622 57.9942 65.7432 62.3319 70.0284L62.0705 91.1408Z" fill="#F5F8FF"/>
<path d="M60.6597 95.2167L21.3094 83.9815V82.3616C21.2572 82.3613 49.0583 81.8387 60.6597 95.2167Z" fill="#C7D1EA"/>
<path d="M103.302 79.1738V83.9815L65.4675 94.7464L62.2794 95.6349V69.9765C72.3131 60.0474 91.5439 63.0786 91.5439 63.0786L103.302 79.1738Z" fill="#E6ECFF"/>
<path d="M64.1087 91.9767C64.1087 91.9767 70.3271 86.6464 80.3608 83.093C90.3941 79.5396 103.511 80.4803 103.511 80.4803L103.354 79.1737C103.354 79.1737 77.4344 74.8886 62.8544 91.82L64.1087 91.9767Z" fill="#F5F8FF"/>
<path d="M103.302 82.3613V83.9812L65.4675 94.7461C70.9019 90.9316 83.2873 84.0337 103.302 82.3613Z" fill="#C7D1EA"/>
<path d="M62.6455 91.1408C62.6455 91.1408 79.2108 74.1571 103.458 79.1738C103.72 79.226 102.779 78.2331 102.779 78.2331C94.8359 75.0453 78.6888 78.1809 72.5223 81.7343C66.3034 85.2877 64.1087 85.7058 65.5722 76.4563C67.0354 67.259 78.0095 63.1827 78.1659 63.1305C72.7315 63.8622 66.7215 65.7432 62.3841 70.0284L62.6455 91.1408Z" fill="#C7D1EA"/>
<path d="M21.7306 83.6639L60.7754 94.8118L61.8581 95.1263V70.2042C58.3022 66.7142 53.1505 64.4575 46.5413 63.4952C40.0859 62.6127 34.3505 63.3242 33.3034 63.4697L22.3293 78.4813L21.7312 79.3099V83.6639H21.7306ZM62.2793 96.1082C62.24 96.1082 62.2007 96.1026 62.162 96.0914L60.5424 95.6211L21.194 84.3866C21.0126 84.335 20.8882 84.1699 20.8882 83.9817V79.174C20.8882 79.0856 20.9163 78.9994 20.968 78.9275L21.6472 77.9866L32.7272 62.83C32.7929 62.7402 32.8915 62.6798 33.0018 62.6624C33.065 62.6526 39.4179 61.6718 46.6592 62.661C53.5327 63.6615 58.8868 66.04 62.5775 69.7307C62.6564 69.8096 62.7005 69.9169 62.7005 70.0287V95.687C62.7005 95.8196 62.6382 95.9443 62.5323 96.0237C62.4588 96.079 62.3695 96.1082 62.2793 96.1082Z" fill="#8196C9"/>
<path d="M62.7005 70.1533V95.08L65.3539 94.3404L102.881 83.6633V79.3111L91.308 63.4702C89.3983 63.2085 72.0011 61.1234 62.7005 70.1533ZM62.2793 96.056C62.1886 96.056 62.099 96.0265 62.0249 95.9701C61.9199 95.8906 61.8581 95.7662 61.8581 95.6348V69.9764C61.8581 69.8641 61.903 69.7563 61.983 69.6771C72.0519 59.7138 91.4153 62.6315 91.609 62.6627C91.7196 62.6801 91.8179 62.7402 91.8839 62.8303L103.642 78.9255C103.695 78.9977 103.723 79.0845 103.723 79.174V83.9817C103.723 84.1699 103.598 84.3355 103.417 84.3866L65.5825 95.1516L62.3924 96.0409C62.3554 96.051 62.3175 96.056 62.2793 96.056Z" fill="#8196C9"/>
<path d="M58.0467 94.348C58.0467 94.348 61.9135 88.5996 66.4603 94.348C66.4603 94.348 62.593 99.3124 58.0467 94.348Z" fill="#E6ECFF"/>
<path d="M58.5979 94.3174C59.8283 95.57 61.1039 96.1813 62.3944 96.1305C64.0924 96.0656 65.4071 94.868 65.908 94.3376C64.6815 92.8823 63.4115 92.1654 62.1378 92.2165C60.4194 92.2805 59.0862 93.7123 58.5979 94.3174ZM62.2462 96.9756C60.6771 96.9756 59.1609 96.1883 57.7358 94.6324C57.6047 94.489 57.5884 94.2744 57.6971 94.113C57.7695 94.0051 59.5006 91.4749 62.101 91.375C63.7386 91.3045 65.3169 92.2244 66.7905 94.0866C66.9107 94.2388 66.9115 94.4539 66.7922 94.6069C66.7203 94.6993 65.001 96.8695 62.4343 96.972C62.3714 96.9745 62.3091 96.9756 62.2462 96.9756Z" fill="#8196C9"/>
<path d="M62.2793 97.6206C60.6072 97.6206 58.9348 97.0458 57.576 95.896C32.963 88.6844 20.3687 85.0263 20.0551 84.9218C19.5328 84.7651 19.2711 84.1903 19.4284 83.6675C19.5848 83.145 20.1598 82.8835 20.6827 83.0405C20.8916 83.0927 26.1171 84.6604 58.3081 94.0669C58.4645 94.1191 58.5692 94.1713 58.6736 94.2758L58.7262 94.328C60.7116 96.1049 63.7425 96.1049 65.7285 94.328C65.833 94.2236 65.9899 94.1713 66.0944 94.1191C83.1828 89.1025 103.302 83.2494 103.824 83.0927C104.347 82.936 104.922 83.1972 105.079 83.7197C105.236 84.2423 104.974 84.7648 104.452 84.974C104.033 85.1307 75.867 93.3351 66.8784 96.0004C65.5718 97.0458 63.8997 97.6206 62.2793 97.6206Z" fill="#4150D8"/>
<path d="M20.3716 83.4179C20.2756 83.4179 20.184 83.4384 20.1023 83.4783C19.9686 83.5432 19.8726 83.6535 19.8319 83.7886C19.7859 83.9416 19.7982 84.1089 19.8659 84.2482C19.9313 84.3822 20.0411 84.4779 20.1764 84.5186C20.3227 84.5666 22.6342 85.2414 26.8298 86.4665C32.9429 88.2506 43.2485 91.2593 57.6946 95.4922C57.751 95.5088 57.8035 95.5369 57.8485 95.5748C59.0865 96.6227 60.6603 97.1997 62.2793 97.1997C63.8209 97.1997 65.4015 96.6429 66.6153 95.6719C66.658 95.6382 66.7066 95.6127 66.7585 95.597C71.3 94.2503 80.7116 91.4971 89.0154 89.0683C96.7299 86.8116 104.016 84.6801 104.308 84.5784C104.617 84.4546 104.77 84.1561 104.675 83.8411C104.59 83.5561 104.262 83.4019 103.946 83.4965C103.811 83.5373 102.373 83.9559 100.022 84.6413C93.1717 86.6386 78.9227 90.7923 66.2458 94.5139C66.227 94.5226 66.2062 94.5319 66.1854 94.5415C66.1324 94.5653 66.0515 94.6013 66.0268 94.6263C63.8537 96.5716 60.6016 96.5721 58.4454 94.6425L58.3755 94.5732C58.3345 94.5325 58.2958 94.5075 58.1753 94.4673C34.0981 87.4318 25.01 84.7531 22.0235 83.8731C21.0682 83.5915 20.6322 83.4631 20.5794 83.4494C20.5089 83.428 20.439 83.4179 20.3716 83.4179ZM62.2793 98.0418C60.491 98.0418 58.7529 97.4154 57.3734 96.2756C42.9716 92.0562 32.6944 89.0556 26.5936 87.2749C22.1072 85.965 20.0593 85.3672 19.9223 85.3214C19.571 85.2164 19.2776 84.9645 19.108 84.6161C18.9471 84.2842 18.9174 83.9043 19.0249 83.5462C19.1341 83.1829 19.3857 82.8895 19.7345 82.7204C20.0664 82.5593 20.4466 82.5295 20.8037 82.637C20.8444 82.6466 21.0932 82.7202 22.2619 83.0644C25.2478 83.9444 34.3353 86.6229 58.4261 93.6626C58.6122 93.7241 58.7944 93.8007 58.9713 93.9771L59.0244 94.0307C60.8425 95.6559 63.6117 95.6568 65.4478 94.0136C65.5657 93.8948 65.7255 93.8235 65.842 93.7715C65.865 93.7611 65.8869 93.7516 65.9063 93.7418C65.9285 93.7308 65.9515 93.7218 65.9754 93.7145C78.6615 89.9904 92.9291 85.831 99.786 83.8321C102.134 83.1475 103.569 82.7294 103.703 82.6893C104.465 82.4607 105.263 82.8687 105.482 83.5982C105.702 84.3308 105.334 85.0737 104.608 85.3646C104.388 85.4472 98.9122 87.05 89.2518 89.8758C80.9957 92.2912 71.6448 95.0264 67.0755 96.3809C65.7246 97.4373 63.9815 98.0418 62.2793 98.0418Z" fill="#31409B"/>
<path d="M59.0921 83.093C58.8307 83.093 58.6737 82.8841 58.5693 82.7794C58.5173 82.7272 58.4648 82.6749 58.4129 82.6227C58.3604 82.5705 58.3604 82.5183 58.3084 82.5183C58.1515 82.2568 58.0992 82.1002 58.047 82.0479C57.9425 82.1002 57.8381 82.1002 57.7334 82.1002C57.5764 82.0479 57.4717 81.9957 57.4194 81.8913C57.1583 81.4732 56.7924 81.0028 56.4266 81.1073C56.3221 81.1073 56.2702 81.1595 56.1654 81.1073C55.747 81.0028 55.4862 80.637 55.1725 80.2189C55.0156 80.01 54.8067 79.6963 54.6497 79.5919C54.6497 79.5919 54.5978 79.6441 54.5978 79.6963C54.4933 79.8008 54.3889 79.853 54.2841 79.9052C54.1274 79.9052 54.0227 79.9052 53.9183 79.8008C53.8658 79.7485 53.7613 79.8008 53.5521 79.9052C53.2387 80.0619 52.7681 80.2189 52.2978 80.0097C51.8797 79.8008 51.5664 79.3827 51.253 78.5987C50.2079 78.5987 49.1625 78.1284 48.1174 77.1877L48.0649 77.1355C47.4382 76.4038 46.8106 76.3515 46.0269 76.3515C45.6088 76.3515 45.191 76.2993 44.7726 76.1948C44.6682 76.1948 44.6162 76.1426 44.5637 76.0904C43.7278 75.3589 42.8916 75.3589 41.8984 75.3589H40.8014C40.5925 75.3067 40.3308 75.2023 40.1219 75.15C38.9723 74.7842 37.8747 74.4708 36.7777 74.8364C35.7323 75.4112 34.6872 75.2022 33.7988 74.9931C33.1717 74.8364 32.5447 74.7316 31.97 74.8364C31.7083 74.8886 31.4471 74.7319 31.3952 74.4183C31.3427 74.1569 31.4994 73.8957 31.813 73.8435C32.597 73.6868 33.3287 73.8435 34.0602 74.0002C34.9486 74.1569 35.6803 74.3138 36.4118 73.8957C36.4118 73.8957 36.4643 73.8435 36.5162 73.8435C37.9275 73.321 39.3385 73.739 40.54 74.1049C40.7489 74.1571 40.9581 74.2094 41.1673 74.3138H42.0557C43.1005 74.3138 44.2503 74.2616 45.3477 75.2023C45.6613 75.2545 45.975 75.2545 46.2886 75.3067C47.177 75.3589 48.1177 75.4112 49.058 76.4563C49.999 77.2925 50.8874 77.6581 51.7758 77.5536C51.9845 77.5536 52.1936 77.6581 52.2981 77.8672C52.6117 78.8079 52.8729 78.9646 52.9254 79.0168C53.0298 79.069 53.1343 79.0168 53.3954 78.9123C53.6568 78.8079 53.9702 78.6509 54.3361 78.7557C54.493 78.599 54.7022 78.5468 54.9111 78.5468C55.4859 78.5468 55.9037 79.0693 56.2699 79.5396C56.3743 79.6963 56.531 79.9055 56.6357 80.01C57.2102 79.9055 57.785 80.2189 58.3079 80.9506C58.4123 80.9506 58.4643 80.9506 58.569 81.0028C58.9874 81.1073 59.301 81.5254 59.5099 81.9435L59.5619 81.9957C59.7711 82.0479 59.9277 82.2571 59.9277 82.466C59.9277 82.8319 59.6663 82.9886 59.5619 82.9886C59.1966 83.093 59.144 83.093 59.0921 83.093Z" fill="#8196C9"/>
<path d="M66.4603 82.2569C66.1986 82.2569 65.9375 82.0479 65.9375 81.7865C65.9375 81.4729 66.0942 81.3162 66.1989 81.264C66.2514 81.2117 66.3559 81.2117 66.5126 81.2117C66.5651 81.1595 66.5651 81.1073 66.617 81.0551C66.6695 81.0028 66.7215 80.9506 66.7737 80.8984C67.1398 80.5325 67.7146 79.9577 68.4986 79.9055C68.5505 79.9055 68.655 79.9055 68.7075 79.9577C68.812 79.9577 69.1775 79.6441 69.3867 79.4352C69.8048 79.0693 70.2752 78.7034 70.7974 78.5468C71.1636 78.2331 71.5814 77.9198 72.1039 77.9198C72.1565 77.9198 72.2606 77.8675 72.3131 77.8675C72.5743 77.8153 72.7832 77.7631 72.9921 77.5539C73.0968 77.2925 73.2535 76.9791 73.5669 76.8224C73.8808 76.6657 74.1942 76.8224 74.3508 76.8747C74.3508 76.8747 74.3508 76.8224 74.4033 76.8224C74.8212 76.2999 75.2918 76.3521 75.5529 76.4043C75.7618 76.4043 75.814 76.4043 75.8666 76.3521C76.023 76.1432 76.3369 76.1432 76.5458 76.2999C76.6502 76.4043 76.7547 76.3521 77.225 76.0385C77.3295 75.9862 77.4339 75.934 77.5386 75.8818C77.5386 75.8818 77.5906 75.8818 77.5906 75.8295C77.7473 75.7773 77.852 75.6729 78.009 75.6206C78.4271 75.4117 78.8974 75.1503 79.4722 75.2025H79.5766C79.733 75.2548 79.9947 75.1503 80.2033 75.0459C80.4123 74.9414 80.674 74.837 80.9873 74.7845C81.4579 74.523 82.1372 74.1052 82.8686 74.3141C82.9731 74.2097 83.1303 74.1052 83.287 74.0005C83.7051 73.6868 84.1229 73.3212 84.5935 73.2165C85.2727 72.694 85.9523 73.2687 86.3178 73.5824C86.4226 73.6868 86.5793 73.7913 86.6837 73.8438C87.2585 73.5302 87.8855 73.6349 88.3039 73.7393C88.4603 73.7916 88.6175 73.7916 88.7742 73.8438H89.6626C90.0282 73.8438 90.4466 73.7916 90.8644 73.8438C90.9164 73.8438 90.9689 73.896 91.073 73.896C91.3347 74.0527 91.5956 74.0005 91.9615 73.9483C92.2751 73.896 92.5885 73.896 92.9543 73.9483C93.6336 73.8438 94.4701 73.8438 95.306 74.3141C95.5677 74.4708 95.6196 74.7322 95.5149 74.9934C95.3585 75.2548 95.0968 75.307 94.8356 75.2023C94.2086 74.8364 93.5816 74.8886 93.0069 74.9934H92.7979C92.5888 74.9411 92.3276 74.9411 92.0659 74.9934C91.6481 75.0456 91.1775 75.0978 90.6552 74.8367C90.3416 74.7845 90.0279 74.8367 89.7143 74.8367H88.7214C88.5128 74.8367 88.3036 74.7844 88.0947 74.7322C87.6244 74.6278 87.3627 74.5755 87.0496 74.8367C86.9451 74.9411 86.7879 74.9411 86.6315 74.9411C86.2656 74.8889 85.9523 74.6275 85.6906 74.4186C85.5339 74.3141 85.2727 74.1049 85.2202 74.1049L85.1683 74.1572C85.0638 74.2616 84.9594 74.3138 84.8546 74.3138C84.5932 74.3138 84.2799 74.6275 83.966 74.8886C83.757 75.0975 83.4959 75.3067 83.2342 75.4112C83.0775 75.5156 82.9208 75.5156 82.7639 75.4112C82.3983 75.2545 82.0327 75.4112 81.4577 75.777C81.4051 75.8293 81.3007 75.8293 81.196 75.8293C81.0396 75.8293 80.8304 75.9337 80.6212 75.986C80.2556 76.1426 79.8372 76.2996 79.3672 76.1949C79.158 76.1949 78.8443 76.3515 78.5307 76.5085C78.374 76.613 78.2173 76.6652 78.0084 76.7699C77.9559 76.8221 77.8515 76.8744 77.7995 76.9266C77.4336 77.188 76.8589 77.5014 76.3363 77.3447C76.0224 77.5536 75.709 77.5014 75.4998 77.5014C75.2912 77.5014 75.2912 77.5014 75.2384 77.5536C74.9248 78.0239 74.507 78.1806 73.9844 77.9195C73.9844 77.9717 73.9319 78.0239 73.9319 78.0762C73.9319 78.1284 73.8799 78.1806 73.8274 78.2328C73.3571 78.8076 72.8868 78.8598 72.5212 78.9121C72.4687 78.9121 72.3642 78.9121 72.3123 78.9643H72.1556C71.9467 78.9643 71.6331 79.2257 71.3716 79.4346C71.3191 79.4869 71.2147 79.5391 71.11 79.5391C70.7963 79.5913 70.3785 79.9049 70.0651 80.2183C69.5948 80.6364 69.0722 81.0545 68.4975 80.9498C68.1316 81.002 67.7657 81.3679 67.4524 81.629C67.3999 81.6812 67.3999 81.6812 67.3479 81.7335C67.2435 81.9424 67.0862 82.2038 66.7731 82.256C66.6687 82.3082 66.5642 82.3082 66.5114 82.256C66.5123 82.2568 66.5123 82.2569 66.4603 82.2569Z" fill="#8196C9"/>
<path d="M67.5051 74.366C67.244 74.366 67.0351 74.2094 66.9306 74.0002C66.7214 73.8957 66.5648 73.6865 66.6167 73.4254C66.6692 73.0595 66.9826 72.9551 67.0351 72.9551C67.1915 72.9551 67.2962 72.9551 67.3487 73.0073C67.4007 72.8506 67.6099 72.6936 67.7665 72.6936H67.9235C67.9755 72.6414 68.028 72.537 68.0799 72.4322C68.2888 72.0664 68.5502 71.4393 69.125 71.4916C69.5431 71.4916 69.752 71.8574 69.8568 72.1186C69.8568 72.0664 69.909 72.0664 69.909 72.0141C69.9615 71.8575 70.0659 71.7527 70.1179 71.596C70.4315 71.1257 70.7452 70.4987 71.3725 70.5509C71.6858 70.5509 71.8947 70.7076 72.1037 71.0213C72.7309 71.1779 73.4624 70.8646 74.2461 70.1328L74.2986 70.0806C74.8734 69.6625 75.5001 69.7147 75.971 69.767C76.4932 69.8192 76.8594 69.8192 77.2772 69.4533C77.3817 69.3489 77.5389 69.2966 77.6953 69.2966C78.0612 69.3489 78.4271 69.2444 78.8449 69.14L79.0538 69.0877C79.5766 68.9311 80.2559 68.8263 80.8829 69.0877C81.1446 69.1922 81.249 69.5058 81.1446 69.7147C81.0401 69.9761 80.7262 70.0806 80.5173 69.9761C80.2036 69.8195 79.838 69.8717 79.3155 70.0284L79.1069 70.0806C78.6888 70.1851 78.2704 70.2895 77.8003 70.2895C77.1211 70.8121 76.4935 70.7598 75.9188 70.7076C75.4487 70.6554 75.1876 70.6554 74.8739 70.8643C73.7244 71.9094 72.6268 72.223 71.5814 71.8572C71.4769 71.8049 71.3727 71.7527 71.32 71.5957C71.32 71.5957 71.32 71.5435 71.268 71.5435C71.1636 71.7002 71.0063 71.9616 70.9544 72.0661C70.9019 72.1705 70.8499 72.275 70.7455 72.4319C70.484 72.9023 70.2226 73.4248 69.7004 73.3726C69.2823 73.3204 69.1256 72.9545 69.0211 72.6934C69.0211 72.7456 68.9686 72.7456 68.9686 72.7978C68.7597 73.2681 68.4986 73.7385 68.0802 73.7907C67.9757 73.9996 67.7665 74.2088 67.5054 74.2088C67.5574 74.366 67.5051 74.366 67.5051 74.366Z" fill="#8196C9"/>
<path d="M50.8348 73.1117C50.5737 73.1117 50.3645 72.955 50.2081 72.7459C49.79 72.7459 49.4761 72.2755 49.2152 71.8574C49.1627 71.8052 49.1627 71.753 49.1627 71.753C49.1108 72.0144 48.9538 72.4322 48.5879 72.4847C48.0654 72.5892 47.752 72.1189 47.4387 71.6485C47.3862 71.5441 47.2817 71.4396 47.2295 71.3349C47.1772 71.2304 46.9683 71.0212 46.8114 70.8646V70.9168C46.7594 71.0212 46.655 71.1257 46.5502 71.1782C45.5571 71.6485 44.4597 71.4396 43.1535 70.5512C42.8399 70.3945 42.5262 70.4467 42.1081 70.5512C41.5859 70.6556 40.9061 70.7601 40.1746 70.3423C39.7046 70.3945 39.2862 70.3423 38.8681 70.2901L38.6592 70.2378C38.1369 70.1856 37.7708 70.1856 37.4574 70.3423C37.1957 70.499 36.9346 70.3945 36.7782 70.1334C36.6212 69.8722 36.7256 69.6108 36.9868 69.4542C37.6138 69.0883 38.2414 69.1405 38.8161 69.2452L39.025 69.2975C39.4428 69.3497 39.861 69.4019 40.1743 69.2975C40.331 69.2452 40.4882 69.2975 40.5927 69.4019C41.0105 69.7156 41.4286 69.6633 41.8989 69.5586C42.3695 69.4541 42.9963 69.3497 43.6238 69.6631C43.6238 69.6631 43.6758 69.6631 43.6758 69.7153C44.5642 70.3423 45.2959 70.5515 45.9229 70.3423C46.0799 70.0286 46.341 69.8197 46.6022 69.7675C47.177 69.6631 47.5951 70.2378 47.9609 70.6559C48.0654 70.7604 48.1179 70.9174 48.2226 71.0218C48.2226 71.0218 48.2746 71.074 48.2746 71.1263C48.379 70.8648 48.5363 70.4992 48.9538 70.447C49.4764 70.3426 49.8422 70.9174 50.1036 71.2832C50.1556 71.3877 50.2081 71.4921 50.26 71.5446C50.3123 71.5446 50.3645 71.4924 50.4167 71.4924C50.6256 71.4924 50.7829 71.5446 50.8873 71.7538C50.9918 71.7016 51.0959 71.6494 51.2007 71.6494C51.3051 71.6494 51.5668 71.7016 51.6713 72.0675C51.7232 72.2764 51.6188 72.5378 51.4624 72.6423C51.3051 72.9028 51.1485 73.1117 50.8348 73.1117Z" fill="#8196C9"/>
<path d="M97.6058 74.6794C97.7103 74.7839 97.8147 74.8361 97.9194 74.9408C98.1281 75.0975 98.3898 75.1497 98.6506 75.2022C101.211 75.4112 102.936 77.6061 102.988 77.6583C103.563 78.3901 104.556 78.4945 105.287 77.972C106.019 77.3972 106.124 76.4043 105.601 75.6726C105.549 75.6203 103.459 74.366 102.831 73.7913C102.309 73.3209 103.406 73.5299 102.57 73.0595C101.577 72.4848 100.375 72.0144 99.0165 71.91H98.9645C98.7554 71.91 98.5462 71.91 98.3373 71.9622C97.7105 72.1711 97.2402 72.6939 97.1877 73.4254C97.1355 73.8957 97.2919 74.366 97.6058 74.6794Z" fill="#FFEAB6"/>
<path d="M97.6058 74.6794C97.6058 73.3206 99.3826 73.0073 100.846 72.9548C101.734 72.9548 102.518 73.007 102.57 73.0592L99.853 72.38L98.3373 72.0141C97.7105 72.223 97.2402 72.7456 97.1877 73.4773C97.1355 73.8957 97.2919 74.366 97.6058 74.6794Z" fill="#FFEAB6"/>
<path d="M103.302 78.1286C103.145 78.1286 103.04 78.0764 102.936 77.9719C102.936 77.9719 100.95 75.8817 98.5989 75.6725C98.2327 75.6203 97.9196 75.5159 97.6579 75.3589C96.9787 74.9408 96.6131 74.2093 96.7176 73.4254C96.822 72.2758 97.8149 71.3874 99.0167 71.4918C101.002 71.6485 102.832 72.7461 103.772 73.4254C103.981 73.5821 104.034 73.8435 103.877 74.0524C103.72 74.2613 103.459 74.3138 103.25 74.1568C102.414 73.582 100.689 72.5369 98.9122 72.38C98.2855 72.3278 97.7107 72.7981 97.6579 73.4773C97.606 73.8954 97.8149 74.3135 98.1808 74.5746C98.3372 74.6791 98.5464 74.7313 98.7033 74.7835C101.473 74.9925 103.668 77.3963 103.668 77.4488C103.824 77.6577 103.772 77.9191 103.563 78.0758C103.511 78.0761 103.407 78.1286 103.302 78.1286Z" fill="#FFEAB6"/>
<path d="M25.4379 69.7672C10.3358 81.2639 -1.52677 75.6723 3.54206 54.9783C5.73672 47.61 5.68422 41.6003 11.3806 44.2133C13.5753 46.3557 12.5827 47.3489 11.5895 50.5364C9.96937 54.9783 7.93111 65.6388 9.76018 68.304C12.1118 70.8123 17.9124 66.7886 21.0477 64.8551C24.1316 62.5557 28.1028 66.9975 25.4379 69.7672Z" fill="#FFEAB6"/>
<path d="M27.4761 70.5512L31.9702 66.0569L33.6426 70.0809L35.1577 73.7388L31.4996 72.2233L27.4761 70.5512Z" fill="#FFEAB6"/>
<path d="M31.4996 72.2233C31.7613 71.8052 32.0221 71.3871 32.388 70.969C32.7541 70.6032 33.172 70.2898 33.5901 70.0284L35.1058 73.6865L31.4996 72.2233Z" fill="#EA2A21"/>
<path d="M28.0593 70.3005L34.6147 73.3695L31.6481 66.637L28.0593 70.3005ZM34.9968 73.8115C34.7256 73.2002 31.4372 72.6569 31.3853 72.6046L27.3192 70.969C27.1628 70.9168 27.058 70.7601 27.058 70.6554C27.0055 70.4987 27.058 70.3417 27.1625 70.2373L31.6565 65.7432C31.761 65.6388 31.9177 65.5865 32.0746 65.6388C32.231 65.691 32.3358 65.7955 32.388 65.9002L33.9694 69.8978C34.0214 70.0545 35.3804 73.3204 35.224 73.4771C35.1712 73.5293 35.0389 73.9069 34.9968 73.8115Z" fill="#E29700"/>
<path d="M4.80988 48.0225L9.30674 43.5032L31.9407 66.0223L27.4444 70.542L4.80988 48.0225Z" fill="#CC5749"/>
<path d="M5.40606 48.0211L27.4437 69.9467L31.3458 66.0243L9.30877 44.0988L5.40606 48.0211ZM27.4451 70.9634C27.3375 70.9634 27.2302 70.9224 27.1477 70.8407L4.51372 48.3213C4.34889 48.1573 4.34833 47.8906 4.51231 47.7255L9.00861 43.2059C9.0878 43.1267 9.19449 43.082 9.30653 43.0818C9.41603 43.0829 9.52527 43.1256 9.60445 43.2045L32.2393 65.7239C32.3182 65.8025 32.3628 65.9098 32.3631 66.0215C32.3634 66.1333 32.3196 66.2405 32.2407 66.3197L27.7438 70.8393C27.661 70.9222 27.5532 70.9634 27.4451 70.9634Z" fill="#B7130B"/>
<path d="M29.5127 68.602C29.4083 68.602 29.4616 68.7222 29.4097 68.6177L6.72963 46.0946C6.57295 45.938 6.57295 45.6243 6.72963 45.4676C6.88659 45.311 7.19996 45.311 7.35692 45.4676L29.9842 67.9907C30.1408 68.1474 29.9319 68.29 29.7753 68.4467C29.7233 68.5512 29.6172 68.602 29.5127 68.602Z" fill="#B7130B"/>
<path d="M2.75842 46.6175L7.98366 41.4961L9.65605 43.2207L4.53499 48.3418L2.75842 46.6175Z" fill="#E6ECFF"/>
<path d="M1.45164 40.1896C2.70594 38.9353 4.69169 38.9353 5.9457 40.1896L7.61782 41.8617L3.12376 46.3558L1.45164 44.6834C0.197352 43.4294 0.197352 41.3914 1.45164 40.1896Z" fill="#FFCA3B"/>
<path d="M3.69851 39.6671C3.01928 39.6671 2.28782 39.9285 1.76499 40.451C0.720168 41.4961 0.720168 43.2207 1.76499 44.3181L3.45255 45.9952L7.37154 42.2315L5.57952 40.451C5.05725 39.9282 4.37803 39.6671 3.69851 39.6671ZM3.12373 46.8261C3.01928 46.8261 2.8626 46.7739 2.81009 46.6694L1.13798 44.9973C-0.272717 43.5863 -0.272717 41.2869 1.13798 39.8237C2.54895 38.4128 4.84863 38.4128 6.31183 39.8237L7.98366 41.4961C8.14062 41.6528 7.98253 41.794 7.82585 41.9507L3.20207 46.3558C3.09762 46.5125 3.28098 46.8261 3.12373 46.8261Z" fill="#E29700"/>
<path d="M26.0649 59.6293C26.0127 59.8382 25.9605 60.0474 25.856 60.2041C25.7516 60.3608 25.6471 60.5177 25.4904 60.6222C25.2287 60.8311 24.9676 61.0403 24.7584 61.3014C24.497 61.615 24.2881 61.8762 24.1317 62.1898C23.818 62.7124 23.7133 63.1827 23.6611 63.6008C23.5569 64.3323 23.7133 64.8551 23.7133 64.9595L22.0934 67.4679L20.578 66.0047C20.5258 65.9002 20.2644 65.064 20.3169 63.8097C20.3688 62.1898 20.9961 59.9949 23.4525 58.0614C24.1839 57.4866 25.1768 57.591 25.7516 58.3228C26.0127 58.7409 26.1172 59.2112 26.0649 59.6293Z" fill="#FFEFC8"/>
<path d="M28.6257 60.9881C28.7302 61.4584 28.6257 61.9809 28.364 62.399C28.2598 62.5035 28.1554 62.6079 28.0506 62.7127C27.8937 62.8171 27.7889 62.9216 27.6323 63.0785C27.3186 63.34 27.0578 63.6533 26.8483 63.9147C25.9079 65.169 25.751 66.2664 25.751 66.4753L22.0406 68.9836L22.459 66.423C22.459 66.3708 22.459 66.0049 22.6154 65.3779C22.7198 64.9598 22.8768 64.3851 23.1382 63.8103C23.1901 63.6536 23.2946 63.4444 23.3993 63.2877C23.7652 62.6085 24.2878 61.8245 25.0195 61.0928C25.2806 60.8314 25.5418 60.5702 25.8554 60.3088C25.9076 60.2566 26.0121 60.2044 26.0646 60.1521C26.7961 59.5774 27.8414 59.734 28.3637 60.4658C28.5212 60.57 28.5732 60.7789 28.6257 60.9881Z" fill="#FFEFC8"/>
<path d="M30.4025 64.6984C30.35 64.8028 30.2456 64.9073 30.1936 65.012C30.0367 65.2209 29.7753 65.3779 29.5144 65.4301C27.1103 66.3185 26.0132 68.8791 26.0132 68.9313C26.0132 68.9313 24.2364 69.872 23.8705 69.8197C22.9821 69.7153 22.6162 68.5132 22.9821 67.6773C22.9821 67.6251 23.2438 67.1025 23.6616 66.3708C24.0275 65.796 24.5497 65.0643 25.229 64.385C26.0132 63.6011 27.0583 62.8174 28.3648 62.347C28.5735 62.2948 28.7827 62.2426 28.9396 62.2426C29.6189 62.2426 30.1939 62.6607 30.4548 63.3399C30.6637 63.81 30.6115 64.2803 30.4025 64.6984Z" fill="#FFEFC8"/>
<path d="M25.6993 58.375C25.6993 58.375 21.6756 59.5246 20.2643 63.8619C20.3169 62.242 20.9436 60.0471 23.3999 58.1136C24.1317 57.5391 25.1765 57.6435 25.6993 58.375Z" fill="#FFEFC8"/>
<path d="M28.6258 60.988C28.5213 61.0402 26.8486 60.5699 23.6089 63.6533C23.4525 63.81 23.1908 63.7577 23.1388 63.7577C22.9819 63.7577 23.0344 63.601 23.4 63.2352C23.4525 63.183 23.7136 62.8171 24.132 62.2423C24.3409 61.9809 24.5498 61.7198 24.7587 61.3539C24.8112 61.2494 24.9157 61.145 24.9676 61.0402C25.2813 60.6221 25.6469 60.1518 26.065 59.6815C26.0127 59.8904 25.9605 60.0996 25.856 60.2563C25.9085 60.204 26.0127 60.1518 26.065 60.0996C26.7967 59.5248 27.8421 59.6815 28.3643 60.4132C28.5213 60.5699 28.5733 60.7788 28.6258 60.988Z" fill="#FFEFC8"/>
<path d="M30.4025 64.6984C30.0364 63.3397 28.2073 63.5489 26.8489 63.8622C25.9604 64.0711 25.2812 64.3848 25.2292 64.3848L27.6328 63.026L28.9916 62.2421C29.6708 62.2421 30.2459 62.6602 30.5073 63.3394C30.6637 63.81 30.6114 64.2803 30.4025 64.6984Z" fill="#FFEFC8"/>
<path d="M20.3688 65.848C20.1599 65.848 19.9507 65.6913 19.8988 65.4821C19.6374 64.1234 19.4804 60.6222 23.0863 57.748C23.5044 57.3821 24.0792 57.2254 24.654 57.2777C25.2287 57.3299 25.6994 57.6436 26.0649 58.0616C26.6397 58.7409 26.6922 59.734 26.2216 60.4655C26.0649 60.6744 25.8038 60.7269 25.5949 60.6222C25.386 60.4655 25.3332 60.2041 25.4379 59.9952C25.6996 59.5771 25.6468 59.0023 25.3335 58.6364C25.1248 58.375 24.8631 58.2183 24.5495 58.2183C24.2361 58.1661 23.9228 58.2706 23.6611 58.4797C20.4733 61.0403 20.578 64.1236 20.7872 65.3254C20.8288 65.6986 20.5235 65.8485 20.5235 65.8485C20.5235 65.8485 20.4213 65.848 20.3688 65.848Z" fill="#FFEFC8"/>
<path d="M22.9294 64.7507C22.8771 64.7507 22.8249 64.7507 22.773 64.6984C22.5113 64.594 22.4068 64.3326 22.5113 64.1237C22.9294 62.9219 23.87 61.1973 25.8038 59.7341C26.2741 59.3682 26.7964 59.2637 27.3715 59.316C27.9462 59.3682 28.4163 59.6818 28.7822 60.0999C29.357 60.8314 29.4721 61.6937 28.9495 62.4251C28.7928 62.6341 28.4163 62.8696 28.2074 62.7127C27.9985 62.556 27.9463 62.2946 28.1029 62.0857C28.4166 61.6676 28.4166 61.0928 28.1029 60.6747C27.894 60.4133 27.6326 60.2566 27.319 60.2044C27.0053 60.1521 26.6922 60.2566 26.4306 60.4658C24.6537 61.8245 23.8181 63.3922 23.4522 64.4373C23.2952 64.5937 23.0863 64.7507 22.9294 64.7507Z" fill="#FFEFC8"/>
<path d="M25.4379 70.2376C25.3859 70.2376 25.3334 70.2376 25.2292 70.1853C25.0203 70.0809 24.8257 69.9905 24.8782 69.7815C24.8782 69.7293 26.6924 66.0049 29.3052 65.0118C29.5141 64.9595 29.6708 64.8551 29.7752 64.6981C30.0892 64.3845 30.1411 63.9141 30.0366 63.4963C29.9325 63.1827 29.7233 62.9738 29.4099 62.8171C29.096 62.6604 28.7826 62.6604 28.5215 62.7649C27.2672 63.2352 26.1174 64.0192 25.1248 65.1165C24.9678 65.3254 24.6542 65.3254 24.4975 65.1687C24.2886 65.012 24.2886 64.6984 24.4455 64.5417C25.5426 63.3399 26.7972 62.4515 28.2079 61.9289C28.7307 61.72 29.3052 61.7723 29.828 61.9812C30.3503 62.2426 30.7164 62.6604 30.9251 63.183C31.1868 63.9147 31.0295 64.7506 30.5073 65.3254C30.2983 65.5868 29.9844 65.7957 29.6708 65.9002C27.4761 66.6841 26.1134 69.7765 26.1393 69.8217C26.1393 69.8217 25.5948 70.2376 25.4379 70.2376Z" fill="#FFEFC8"/>
<path d="M54.0749 54.5604C54.0749 54.5604 50.7829 55.6578 50.8348 58.3752C50.8873 61.145 55.4861 59.9429 57.2102 58.0094L55.3814 56.5462L54.0749 54.5604Z" fill="#CC5749"/>
<path d="M54.1746 54.909C53.3906 55.2748 51.2535 56.494 51.3055 58.3753C51.3055 58.9501 51.5672 59.2637 52.0375 59.4727C53.1348 59.8908 55.4654 59.134 56.7191 58.0367L55.1203 57.0166C55.0681 56.9643 55.0681 56.9644 55.0158 56.9121L54.1746 54.909ZM52.7684 60.5178C52.3506 60.5178 52.0372 60.4655 51.6713 60.3611C50.8349 60.0474 50.3645 59.3682 50.3645 58.4275C50.3123 55.3445 53.7613 54.1946 53.9182 54.1424C54.1269 54.0902 54.336 54.1424 54.4405 54.3513L55.3814 56.5463L57.4716 57.748C57.5761 57.8525 57.6286 57.9569 57.6286 58.0617C57.6286 58.1661 57.5761 58.3231 57.5241 58.4275C56.3746 59.6293 54.3363 60.5178 52.7684 60.5178Z" fill="#CC5749"/>
<path d="M51.1485 59.8908C50.9921 59.8908 50.8873 59.8385 50.7829 59.6819C50.6259 59.4729 50.6784 59.2115 50.8873 59.0548C50.9915 58.9504 53.5001 57.1213 55.12 56.2329C55.3289 56.1284 55.6425 56.1807 55.747 56.4418C55.8517 56.6507 55.7992 56.9644 55.5381 57.0688C53.9704 57.905 51.4096 59.8385 51.4096 59.8385C51.3579 59.8383 51.2532 59.8908 51.1485 59.8908Z" fill="#CC5749"/>
<path d="M62.2793 92.2151C62.1684 92.2151 62.0569 92.1713 61.9744 92.0842C61.893 91.9989 53.7026 83.5044 42.3586 80.4109C31.0091 77.3163 21.5037 79.5607 21.4094 79.5831C21.1839 79.6379 20.9556 79.4997 20.9009 79.2734C20.8458 79.0474 20.9843 78.8199 21.21 78.7646C21.3072 78.741 31.0119 76.4433 42.5805 79.598C54.1572 82.7552 62.502 91.4162 62.5848 91.5033C62.7452 91.6717 62.739 91.9382 62.5702 92.0985C62.4882 92.1763 62.3838 92.2151 62.2793 92.2151Z" fill="#8196C9"/>
<path d="M60.1661 92.8151C60.0763 92.8151 59.9862 92.7865 59.9098 92.7278C43.0079 79.7521 21.5594 81.3695 21.3443 81.3883C21.1126 81.4024 20.909 81.2353 20.89 81.0036C20.8703 80.7717 21.0427 80.5681 21.2747 80.5488C21.4925 80.5313 43.2569 78.8814 60.4228 92.0598C60.607 92.2013 60.6418 92.4655 60.5 92.6503C60.4172 92.7584 60.2922 92.8151 60.1661 92.8151Z" fill="#8196C9"/>
<path d="M58.8784 93.8032C58.8076 93.8032 58.7357 93.7855 58.67 93.7479C41.9242 84.1951 21.4871 82.7948 21.2824 82.7819C21.0502 82.767 20.8742 82.5668 20.8891 82.3346C20.9039 82.1027 21.1028 81.9269 21.3361 81.9412C21.5422 81.9544 42.1679 83.3643 59.087 93.0162C59.2894 93.1313 59.3597 93.3885 59.2445 93.5907C59.1668 93.7268 59.0244 93.8032 58.8784 93.8032Z" fill="#8196C9"/>
<path d="M62.2796 92.2151C62.1752 92.2151 62.0707 92.1766 61.9896 92.0989C61.8208 91.9388 61.8143 91.6718 61.9747 91.5036C62.0575 91.4163 70.4026 82.7555 81.9793 79.5983C93.5488 76.4437 103.253 78.7416 103.349 78.765C103.575 78.82 103.714 79.0477 103.659 79.2737C103.604 79.5001 103.376 79.6393 103.15 79.5835C103.055 79.5607 93.5499 77.3161 82.2009 80.4112C70.8479 83.5072 62.6663 91.9995 62.5848 92.0845C62.5017 92.171 62.3911 92.2151 62.2796 92.2151Z" fill="#8196C9"/>
<path d="M64.3932 92.8151C64.2668 92.8151 64.1416 92.7584 64.059 92.6503C63.9172 92.4658 63.952 92.2013 64.1365 92.0598C81.3018 78.8812 103.067 80.5311 103.284 80.5488C103.516 80.5682 103.688 80.7717 103.669 81.0037C103.65 81.2353 103.455 81.4041 103.214 81.3884C102.999 81.3693 81.5506 79.7525 64.6495 92.7278C64.5729 92.7868 64.4833 92.8151 64.3932 92.8151Z" fill="#8196C9"/>
<path d="M65.6803 93.8032C65.5343 93.8032 65.3919 93.7271 65.3144 93.5907C65.199 93.3885 65.2695 93.1313 65.4714 93.0162C82.3904 83.3643 103.016 81.9541 103.223 81.9412C103.458 81.9272 103.655 82.1027 103.67 82.3346C103.684 82.5668 103.508 82.767 103.276 82.7819C103.071 82.7948 82.6344 84.1948 65.8892 93.7479C65.8229 93.7852 65.751 93.8032 65.6803 93.8032Z" fill="#8196C9"/>
<path d="M61.0452 59.2135C61.041 59.2135 61.0374 59.2135 61.0337 59.2132C53.5751 59.013 53.6001 53.1481 53.6015 53.0889C53.6054 52.8564 53.8034 52.6789 54.0303 52.6755C54.2625 52.68 54.4475 52.8715 54.4439 53.1035C54.4408 53.3135 54.4528 58.1936 61.0562 58.3711C61.2887 58.377 61.4718 58.5707 61.4659 58.8032C61.4594 59.0324 61.2721 59.2135 61.0452 59.2135Z" fill="#CC5749"/>
<path d="M3.36121 46.616L4.53014 47.7507L9.06491 43.2165L7.97601 42.0936L3.36121 46.616ZM4.53492 48.763C4.42906 48.763 4.32348 48.7234 4.24177 48.6439L2.4652 46.9196C2.38349 46.8407 2.33744 46.732 2.33716 46.6186C2.33688 46.5049 2.38237 46.3962 2.46352 46.3167L7.68876 41.1954C7.76878 41.117 7.87633 41.0797 7.98893 41.0749C8.10125 41.0763 8.20822 41.1224 8.286 41.203L9.95839 42.9276C10.1187 43.0927 10.1168 43.3561 9.95418 43.5186L4.83255 48.6397C4.75028 48.7217 4.64246 48.763 4.53492 48.763Z" fill="#8196C9"/>
<path d="M32.1277 72.0237L34.3311 72.918L33.4008 70.6723C32.9148 71.0443 32.484 71.5023 32.1277 72.0237ZM35.1058 74.1077C35.0524 74.1077 34.9988 74.0976 34.9474 74.0769L31.3415 72.6137C31.2261 72.567 31.1376 72.4716 31.0992 72.3531C31.061 72.2346 31.077 72.1051 31.143 71.9998L31.3067 71.7398C31.8433 70.8961 32.5509 70.1837 33.3542 69.6794C33.4595 69.614 33.594 69.5938 33.7128 69.6308C33.8307 69.6687 33.9324 69.7524 33.9798 69.867L35.4952 73.5251C35.5604 73.6821 35.5247 73.8626 35.4051 73.9831C35.3237 74.0645 35.2156 74.1077 35.1058 74.1077Z" fill="#B7130B"/>
</svg>
