<svg width="145" height="178" viewBox="0 0 145 178" fill="none" xmlns="http://www.w3.org/2000/svg">
<path d="M65.1562 109.865C65.6984 113.825 71.4387 155.569 72.9118 155.617C74.457 155.668 104.86 161.044 105.375 160.473C105.891 159.897 98.9304 148.007 94.7899 147.349C90.6524 146.688 80.905 148.837 80.905 148.837C78.0691 143.062 76.2796 113.517 76.0873 110.224L65.1562 109.865Z" fill="#FFEBB9"/>
<path d="M31.9449 158.063C32.1369 158.307 43.707 158.908 47.9781 158.638C57.832 158.014 67.0565 155.426 67.9804 155.456C69.4539 155.505 61.9564 113.699 61.2423 109.738L49.7461 109.36C50.8248 112.69 60.3305 142.481 57.1265 148.057C57.1265 148.057 47.5404 145.274 43.3653 145.662C39.1939 146.047 31.468 157.456 31.9449 158.063Z" fill="#FFEFC8"/>
<path d="M113.566 87.3827C113.566 94.5825 107.715 100.439 100.521 100.439H100.042C98.507 105.911 93.4717 109.943 87.4764 109.943C85.0786 109.943 82.8243 109.319 80.9061 108.167C78.5083 111.431 74.6713 113.543 70.3553 113.543C66.9018 113.543 63.785 112.199 61.4827 110.039C59.1329 112.199 56.0153 113.543 52.6106 113.543C48.5339 113.543 44.8889 111.671 42.4908 108.743C40.8124 109.511 38.9899 109.943 37.0234 109.943C31.8438 109.943 27.384 106.919 25.2735 102.599C25.1297 102.263 24.9377 101.927 24.8419 101.543C24.5064 101.591 24.1226 101.687 23.7871 101.735C23.3072 101.783 22.7799 101.831 22.2521 101.831C17.0727 101.831 12.6127 98.807 10.5024 94.4387C9.68708 92.7107 9.20695 90.7906 9.20695 88.7268C9.20695 86.3747 9.83111 84.2146 10.8857 82.2947C9.15894 80.0868 8.1521 77.3026 8.1521 74.2786C8.1521 68.2784 12.2286 63.1904 17.744 61.6544C17.4082 60.5026 17.2648 59.3024 17.2648 58.0544C17.2648 50.8543 23.1155 44.9983 30.3096 44.9983C32.1321 44.9983 33.9066 45.3825 35.489 46.0541C36.4961 39.8142 41.8675 35.0142 48.3901 35.0142C52.6586 35.0142 56.4474 37.0783 58.8451 40.2464C61.0992 36.3583 65.6078 33.7663 70.4033 33.7663C77.2137 33.7663 82.8249 38.9984 83.4004 45.6705C84.6951 45.2386 86.0863 44.9986 87.5247 44.9986C94.7185 44.9986 100.57 50.8546 100.57 58.0547V58.3908C101.577 58.6307 102.536 58.9668 103.399 59.3988C107.763 61.5108 110.737 65.9747 110.737 71.1585C110.737 73.4628 110.161 75.623 109.106 77.4948C111.84 79.9427 113.566 83.4469 113.566 87.3827Z" fill="#FFD26A"/>
<path d="M107.523 81.3348C107.523 88.5349 101.672 94.3909 94.4785 94.3909H93.9986C92.4642 99.863 87.4283 103.895 81.4336 103.895C79.0353 103.895 76.7816 103.271 74.8633 102.119C72.465 105.383 68.6283 107.495 64.312 107.495C60.8591 107.495 57.7417 106.151 55.4399 103.991C53.0896 106.151 49.9722 107.495 46.5673 107.495C42.4908 107.495 38.8459 105.623 36.4478 102.695C34.7697 103.463 32.9472 103.895 30.9804 103.895C28.9181 103.895 26.9996 103.415 25.2732 102.599C24.7459 102.359 24.218 102.023 23.7388 101.735C21.4845 100.247 19.7577 98.0868 18.7986 95.5425C17.8875 95.7347 16.8801 95.8308 15.921 95.7828C14.0025 95.7347 12.1323 95.2547 10.5016 94.4864C9.68651 92.7585 9.20667 90.8383 9.20667 88.7746C9.20667 86.4225 9.83054 84.2624 10.8851 82.3422C9.15865 80.1346 8.15125 77.3503 8.15125 74.3264C8.15125 68.3262 12.228 63.2382 17.7435 61.7022C17.4077 60.5501 17.2642 59.3502 17.2642 58.1022C17.2642 50.9021 23.1149 45.0461 30.3091 45.0461C32.1315 45.0461 33.906 45.4302 35.4884 46.1018C36.4955 39.862 41.867 35.062 48.3895 35.062C52.6581 35.062 56.4471 37.1261 58.8446 40.2942H59.1326C61.3864 36.4061 65.6072 33.8141 70.403 33.8141C77.2131 33.8141 82.8243 39.0462 83.3999 45.7183C84.6945 45.2864 86.0857 45.0461 87.5241 45.0461C94.718 45.0461 100.569 50.9024 100.569 58.1022V58.4385C101.576 58.6785 102.535 59.0143 103.399 59.4465C104.214 61.1745 104.694 63.0946 104.694 65.1587C104.694 67.4624 104.118 69.6228 103.063 71.4946C105.797 73.8467 107.523 77.3987 107.523 81.3348Z" fill="#FFD26A"/>
<path d="M100.521 58.1022C96.1569 43.9903 82.393 47.9262 82.393 47.9262C82.393 47.9262 80.906 40.4381 72.657 38.1824C64.456 35.9745 59.2763 43.1265 59.2763 43.1265C59.2763 43.1265 54.9601 38.4704 47.7665 39.2384C40.5726 40.0064 37.695 49.3186 37.695 49.3186C37.695 49.3186 31.6039 47.2065 24.6981 50.8065C17.8397 54.4063 19.4702 64.1987 19.4702 64.1987C5.70597 71.3988 10.6939 82.1509 10.7419 82.2947C9.01514 80.0871 8.0083 77.3029 8.0083 74.2789C8.0083 68.2787 12.0845 63.1907 17.6 61.6547C17.2644 60.5026 17.1207 59.3026 17.1207 58.0547C17.1207 50.8546 22.9714 44.9986 30.1656 44.9986C31.988 44.9986 33.7622 45.3827 35.3449 46.0544C36.352 39.8145 41.7234 35.0145 48.246 35.0145C52.5146 35.0145 56.3036 37.0786 58.701 40.2467H58.9891C61.2428 36.3586 65.4637 33.7666 70.2595 33.7666C77.0696 33.7666 82.6808 38.9987 83.2563 45.6708C84.551 45.2389 85.9422 44.9989 87.3806 44.9989C94.6699 45.0461 100.521 50.9024 100.521 58.1022Z" fill="#FFD26A"/>
<path d="M61.4827 109.613C61.5875 109.613 61.6921 109.651 61.7742 109.728C64.1035 111.913 67.1507 113.116 70.3553 113.116C74.3537 113.116 78.1694 111.172 80.5629 107.914C80.6933 107.737 80.9376 107.688 81.1254 107.801C82.9942 108.923 85.1902 109.516 87.4761 109.516C93.1151 109.516 98.1132 105.736 99.6311 100.324C99.6828 100.14 99.8508 100.012 100.042 100.012H100.521C107.479 100.012 113.14 94.3465 113.14 87.3827C113.14 83.7048 111.607 80.3058 108.822 77.8127C108.673 77.679 108.637 77.4595 108.735 77.2849C109.765 75.4566 110.31 73.338 110.31 71.1585C110.31 66.2605 107.591 61.9012 103.214 59.7829C102.393 59.372 101.472 59.0442 100.471 58.8056C100.279 58.7599 100.143 58.5881 100.143 58.3908V58.0547C100.143 51.0903 94.4825 45.4251 87.5247 45.4251C86.1707 45.4251 84.8283 45.6438 83.5351 46.0751C83.4109 46.1166 83.2754 46.0987 83.1661 46.0271C83.0572 45.9554 82.9868 45.8374 82.9757 45.7072C82.4189 39.2504 76.8966 34.1928 70.4033 34.1928C65.8132 34.1928 61.421 36.6529 59.2139 40.4605C59.142 40.5839 59.0136 40.663 58.8713 40.6721C58.7272 40.682 58.5914 40.6175 58.5053 40.504C56.0698 37.2861 52.3834 35.4408 48.3898 35.4408C42.1573 35.4408 36.9083 39.9331 35.9094 46.1223C35.8884 46.2517 35.8095 46.3643 35.6952 46.4277C35.5805 46.4911 35.4433 46.4982 35.3222 46.447C33.7472 45.7783 32.0139 45.4248 30.3093 45.4248C23.351 45.4248 17.6906 51.09 17.6906 58.0544C17.6906 59.3291 17.8421 60.4676 18.1531 61.535C18.185 61.6445 18.1716 61.7622 18.1165 61.862C18.0608 61.9615 17.9679 62.0349 17.858 62.0656C12.3942 63.5871 8.57796 68.6094 8.57796 74.2789C8.57796 77.1399 9.4919 79.8207 11.2209 82.032C11.326 82.1665 11.3408 82.3508 11.2587 82.5003C10.18 84.4637 9.6331 86.5587 9.6331 88.7268C9.6331 90.6325 10.0553 92.4932 10.8871 94.2567C13.0164 98.6643 17.3719 101.404 22.2518 101.404C22.7632 101.404 23.2905 101.356 23.7439 101.31C23.8865 101.29 24.0589 101.255 24.2305 101.221C24.4183 101.183 24.6058 101.146 24.7814 101.121C24.9967 101.09 25.2019 101.227 25.2553 101.44C25.3132 101.672 25.4161 101.892 25.5257 102.125C25.574 102.228 25.6217 102.329 25.6649 102.431C27.7647 106.728 32.2264 109.516 37.0231 109.516C38.849 109.516 40.6292 109.126 42.3136 108.355C42.49 108.274 42.6977 108.323 42.8207 108.473C45.2375 111.424 48.8057 113.116 52.6106 113.116C55.7664 113.116 58.815 111.912 61.1943 109.725C61.2764 109.65 61.3796 109.613 61.4827 109.613ZM70.3553 113.969C67.0646 113.969 63.9282 112.78 61.4798 110.613C58.9875 112.78 55.853 113.969 52.6106 113.969C48.658 113.969 44.9446 112.258 42.3709 109.263C40.6624 109.997 38.8658 110.369 37.0234 110.369C31.9034 110.369 27.1408 107.393 24.8905 102.786C24.8419 102.674 24.7984 102.581 24.7544 102.488C24.6874 102.345 24.6155 102.191 24.5513 102.027C24.5004 102.037 24.4496 102.046 24.3981 102.057C24.2106 102.094 24.0229 102.132 23.8473 102.157C23.3552 102.207 22.8032 102.257 22.2524 102.257C17.0426 102.257 12.3931 99.3325 10.1186 94.6246C9.23081 92.7426 8.78138 90.7593 8.78138 88.7268C8.78138 86.5041 9.31945 84.3551 10.3803 82.3351C8.64245 80.016 7.72595 77.2363 7.72595 74.2786C7.72595 68.3692 11.6104 63.1185 17.2239 61.3636C16.9651 60.3377 16.8392 59.2503 16.8392 58.0544C16.8392 50.62 22.8819 44.5718 30.3102 44.5718C31.952 44.5718 33.6185 44.8792 35.1634 45.4641C36.433 39.1304 41.9138 34.588 48.3907 34.588C52.4481 34.588 56.2087 36.372 58.8019 39.5043C61.2466 35.741 65.7308 33.3401 70.4039 33.3401C77.1588 33.3401 82.9291 38.4678 83.7695 45.1089C84.9934 44.7524 86.2542 44.5724 87.5252 44.5724C94.9535 44.5724 100.996 50.6206 100.996 58.0547V58.0578C101.936 58.3032 102.806 58.6251 103.591 59.0175C108.26 61.2774 111.163 65.9306 111.163 71.1588C111.163 73.3676 110.638 75.5198 109.641 77.4064C112.45 80.0416 113.993 83.5714 113.993 87.3833C113.993 94.8177 107.95 100.866 100.522 100.866H100.362C98.6388 106.478 93.3873 110.37 87.4769 110.37C85.1701 110.37 82.9459 109.802 81.0194 108.725C78.4546 112.016 74.4971 113.969 70.3553 113.969Z" fill="#FEC130"/>
<path d="M64.8397 107.015C64.6479 106.871 64.6479 106.583 64.7917 106.439C67.0934 103.607 64.7917 99.1425 64.7437 99.0947C64.6476 98.9031 64.6956 98.6631 64.8397 98.567C68.4846 95.783 70.4986 92.711 70.9301 89.4468C71.4097 85.4148 69.1077 82.4867 69.1077 82.4383C68.9639 82.2947 68.9639 82.0548 69.1557 81.8625C74.0958 76.7265 69.3477 70.5825 69.1077 70.2941C68.9639 70.1025 69.0116 69.8625 69.1557 69.7183C69.3477 69.5745 69.5872 69.6222 69.7313 69.7664C69.7793 69.8144 74.9592 76.5346 69.923 82.1506C70.5466 83.0147 72.1293 85.7987 71.6975 89.4468C71.2662 92.8549 69.252 96.0227 65.559 98.9028C66.0863 100.055 67.669 104.039 65.367 106.871C65.2067 107.124 64.9354 107.063 64.8397 107.015Z" fill="#FEC130"/>
<path d="M43.5935 46.6782C43.4975 46.6782 43.4498 46.6782 43.354 46.5821C43.1622 46.4382 43.1142 46.1979 43.258 46.0057C43.306 45.958 46.6149 41.2061 52.13 43.5581C52.3218 43.6542 52.4661 43.8942 52.3698 44.1339C52.2738 44.3261 52.034 44.4703 51.7945 44.3742C46.9026 42.3099 44.0728 46.3421 43.929 46.5343C43.8813 46.6304 43.7375 46.6782 43.5935 46.6782Z" fill="#FEC130"/>
<path d="M47.8623 100.967C46.9032 100.967 44.0253 100.679 42.9701 97.4149C42.9221 97.1749 43.0181 96.9349 43.2582 96.8868C43.4977 96.8388 43.7375 96.9349 43.7855 97.1749C44.7926 100.391 47.9103 100.15 48.054 100.103C48.2935 100.103 48.4853 100.247 48.5333 100.487C48.5333 100.727 48.3896 100.919 48.1495 100.967C48.1495 100.919 48.006 100.967 47.8623 100.967Z" fill="#FEC130"/>
<path d="M33.1387 86.9028C33.0907 86.9028 33.0427 86.9028 32.995 86.8547C32.947 86.8547 29.302 85.4148 29.9253 81.3826C29.9733 81.1426 30.1654 80.9987 30.4049 81.0465C30.6447 81.0945 30.7887 81.2865 30.7407 81.5262C30.2134 84.8865 33.139 86.0384 33.2345 86.0861C33.4743 86.1822 33.5703 86.4225 33.4743 86.6144C33.4743 86.8066 33.3302 86.9028 33.1387 86.9028Z" fill="#FEC130"/>
<path d="M90.6418 89.9264C90.4017 89.9264 90.21 89.7348 90.21 89.5429C90.21 89.3029 90.3537 89.111 90.5935 89.111C93.9987 88.9187 94.4305 85.7989 94.4785 85.6548C94.5265 85.4148 94.718 85.2706 94.9578 85.2706C95.1976 85.319 95.3416 85.5109 95.3416 85.7509C95.3419 85.7987 94.766 89.6867 90.6418 89.9264Z" fill="#FEC130"/>
<path d="M25.4653 66.5983C25.2252 66.5983 25.0335 66.4066 25.0335 66.1666C24.8897 60.5987 29.1583 59.2546 30.3571 58.9665C30.7884 56.9506 31.6998 55.4143 33.043 54.5021C35.201 53.0625 37.6471 53.5902 37.7911 53.5902C38.0306 53.6386 38.1746 53.8786 38.1266 54.0705C38.0786 54.3105 37.8388 54.4543 37.6473 54.4063C37.5993 54.4063 35.393 53.9747 33.5705 55.1746C32.3236 55.9906 31.5563 57.4305 31.1728 59.3507C31.1248 59.5426 30.9807 59.6868 30.7887 59.6868C30.5969 59.7348 25.7531 60.4067 25.8968 66.0708C25.8965 66.4066 25.7528 66.5983 25.4653 66.5983C25.5133 66.5983 25.5133 66.5983 25.4653 66.5983Z" fill="#FEC130"/>
<path d="M102.584 68.9025H102.44C102.2 68.8545 102.104 68.6145 102.152 68.3742C102.152 68.3742 102.824 66.1666 101.72 64.2465C101.001 62.9504 99.6582 62.0386 97.7877 61.5105C97.5959 61.4625 97.4999 61.3186 97.4519 61.1264C97.4519 60.9342 97.1644 56.0384 91.5532 55.7023C91.3131 55.7023 91.1214 55.5104 91.1694 55.2704C91.1694 55.0304 91.3612 54.8385 91.6012 54.8862C97.1644 55.2223 98.1238 59.5904 98.2675 60.8384C100.233 61.4144 101.672 62.4705 102.488 63.9104C103.735 66.1663 103.015 68.6145 102.968 68.7103C102.919 68.7587 102.728 68.9025 102.584 68.9025Z" fill="#FEC130"/>
<path d="M49.4444 106.631C49.2047 106.631 48.9652 106.631 48.7734 106.583C47.0469 106.295 45.8955 105.047 45.464 104.519C39.9008 105.766 37.9343 100.295 37.9343 100.247C37.8385 100.007 37.9823 99.7669 38.174 99.7189C38.4138 99.6227 38.6539 99.7669 38.7019 99.9588C38.7499 100.15 40.5244 104.951 45.5117 103.607C45.7034 103.559 45.8955 103.655 45.9915 103.799C45.9915 103.799 47.0467 105.431 48.9171 105.719C50.1638 105.911 51.555 105.431 52.9454 104.231C53.1371 104.087 53.3769 104.087 53.5212 104.279C53.665 104.471 53.665 104.711 53.4732 104.855C52.0823 106.055 50.7396 106.631 49.4444 106.631Z" fill="#FEC130"/>
<path d="M101.145 76.7265H101.049C100.809 76.6787 100.713 76.4387 100.761 76.1987C100.857 75.9104 102.631 69.4303 97.0679 67.6546C96.8281 67.6065 96.7321 67.3665 96.7801 67.1266C96.8281 66.8866 97.0679 66.7905 97.3079 66.8385C103.638 68.9026 101.576 76.3426 101.576 76.4387C101.528 76.6307 101.336 76.7265 101.145 76.7265Z" fill="#FEC130"/>
<path d="M69.444 62.9504H69.3002C69.0601 62.854 68.9641 62.6143 69.0121 62.4224C71.65 54.454 65.2714 51.3343 64.9837 51.1904C64.8399 51.0943 64.7442 50.9504 64.7442 50.7582C64.9836 47.7345 64.5044 45.4785 63.2092 44.1342C62.266 43.1179 61.1035 42.8703 60.51 42.81C60.2966 42.7884 60.1301 42.6175 60.1182 42.4031C60.104 42.1401 60.3239 41.9237 60.5864 41.9473C61.3339 42.0144 62.6853 42.3002 63.7848 43.5106C65.1754 44.9986 65.751 47.3506 65.5592 50.4707C66.8539 51.1907 72.3213 54.8388 69.7795 62.5669C69.7792 62.8543 69.6354 62.9504 69.444 62.9504Z" fill="#FEC130"/>
<path d="M40.9078 69.2387C38.7975 74.4708 40.668 80.1349 45.0326 81.8628C49.3966 83.5908 54.6243 80.7587 56.6865 75.5269C58.7968 70.2944 56.9263 64.6303 52.5623 62.9027C48.2454 61.1745 43.0178 64.0065 40.9078 69.2387Z" fill="white"/>
<path d="M56.351 69.7186C55.8712 73.2226 53.0416 75.7188 50.0202 75.2866C46.9991 74.8547 44.9849 71.6865 45.4641 68.1826C45.944 64.6784 48.7736 62.1825 51.7949 62.6147C54.768 62.9985 56.8303 66.2147 56.351 69.7186Z" fill="#22213F"/>
<path d="M50.5475 66.5022C50.2117 67.3185 49.2046 67.7024 48.2455 67.3185C47.2864 66.9344 46.8068 65.9744 47.1426 65.1584C47.4781 64.3423 48.4853 63.9585 49.4444 64.3423C50.3558 64.7262 50.8833 65.6864 50.5475 66.5022Z" fill="white"/>
<path d="M91.5048 68.4704C93.7109 73.6547 91.9844 79.3669 87.6681 81.1909C83.3521 83.015 78.0762 80.3268 75.8705 75.143C73.6642 69.9589 75.3906 64.2467 79.7072 62.4227C84.0232 60.5506 89.2985 63.2865 91.5048 68.4704Z" fill="white"/>
<path d="M83.3575 62.3258C86.3647 61.8367 89.2605 64.2621 89.8258 67.7427C90.3909 71.2236 88.411 74.4415 85.4038 74.9309C82.397 75.4199 79.5012 72.9945 78.9361 69.5136C78.3708 66.033 80.3503 62.8148 83.3575 62.3258Z" fill="#22213F"/>
<path d="M80.1384 65.3025C79.8026 66.1186 80.3302 67.0785 81.2416 67.4624C82.2007 67.8468 83.2081 67.4624 83.5436 66.6466C83.8794 65.8306 83.3521 64.8706 82.4407 64.4865C81.4816 64.1507 80.4745 64.4865 80.1384 65.3025Z" fill="white"/>
<path d="M76.4934 52.4384C79.275 53.3983 81.9129 53.1583 82.3447 51.9103C82.776 50.6143 80.9058 48.79 78.1239 47.8303C75.3423 46.8704 72.7045 47.1104 72.2732 48.3584C71.7934 49.6063 73.7119 51.4304 76.4934 52.4384Z" fill="#0C2B34"/>
<path d="M57.3582 59.5904C60.0918 58.4382 61.8662 56.4703 61.3387 55.2223C60.8114 53.9744 58.1735 53.8783 55.44 55.0304C52.7064 56.1823 50.9316 58.1502 51.4589 59.3984C51.9865 60.6464 54.624 60.7425 57.3582 59.5904Z" fill="#0C2B34"/>
<path d="M77.6929 105.239C77.117 105.239 76.4937 105.143 75.7744 104.855C75.5343 104.759 75.4383 104.519 75.5344 104.327C75.6304 104.087 75.8704 103.991 76.0619 104.087C79.2273 105.287 80.9538 102.647 81.0018 102.551C81.1455 102.359 81.3856 102.311 81.5776 102.407C81.7691 102.551 81.8171 102.791 81.7211 102.983C81.7211 102.983 80.2822 105.239 77.6929 105.239Z" fill="#FEC130"/>
<path d="M87.9562 105.239C86.2297 105.239 84.8865 104.807 84.8385 104.807C84.5987 104.759 84.5027 104.519 84.5507 104.279C84.5987 104.039 84.8385 103.943 85.0785 103.991C85.366 104.087 91.7449 106.055 93.7108 100.535C93.8068 100.295 94.0466 100.199 94.2384 100.295C94.4784 100.391 94.5745 100.631 94.4784 100.823C93.2793 104.423 90.2579 105.239 87.9562 105.239Z" fill="#FEC130"/>
<path d="M28.9179 103.799C12.6599 109.991 3.64323 101.975 13.5233 85.0788C17.36 79.1747 18.8944 73.8467 23.2107 77.6387C24.5539 80.0866 23.4504 80.7107 21.7723 83.2544C19.1825 86.7109 14.6261 95.6389 15.5372 98.4229C16.9281 101.207 23.1149 99.2386 26.3763 98.3265C29.6375 97.0791 31.9875 102.071 28.9179 103.799Z" fill="#FFEAB6"/>
<path d="M32.1315 95.0628C32.0355 95.2548 31.9395 95.3986 31.7955 95.5428C31.6517 95.6389 31.5077 95.7347 31.3639 95.8308C31.0764 95.9747 30.7883 96.0708 30.5485 96.2147C30.261 96.4063 29.973 96.5985 29.7812 96.7908C29.3977 97.1746 29.1576 97.5588 28.9658 97.8948C28.6781 98.519 28.6781 98.999 28.6781 99.0948L27.6229 99.1425L25.657 99.1906C25.657 99.0948 25.657 98.2787 25.9925 97.2227C26.4723 95.8308 27.5755 94.0548 30.2133 92.951C30.9804 92.6146 31.8915 92.9991 32.1795 93.7671C32.323 94.247 32.275 94.679 32.1315 95.0628Z" fill="#FFEBB9"/>
<path d="M34.0498 96.8869C34.0498 97.3185 33.8098 97.751 33.426 98.039C33.3299 98.1351 33.1865 98.1826 33.0904 98.2306C32.9467 98.2787 32.8023 98.3748 32.6586 98.4229C32.3228 98.6148 31.9876 98.7589 31.7475 98.9509C30.5963 99.7669 30.1651 100.727 30.1171 100.919L28.2466 100.343L27.1912 100.007C27.1912 99.9586 27.3352 99.6228 27.5753 99.1422C27.7667 98.8064 28.0545 98.3262 28.4386 97.8946C28.5347 97.7507 28.6781 97.6546 28.7742 97.5107C29.302 96.9827 29.9253 96.4544 30.7404 95.9747C31.0285 95.8308 31.364 95.6386 31.6995 95.4944C31.7955 95.4464 31.8432 95.4464 31.9393 95.3983C32.7066 95.1106 33.6177 95.4944 33.9058 96.2627C34.0021 96.503 34.0498 96.6949 34.0498 96.8869Z" fill="#FFEBB9"/>
<path d="M34.625 100.631C34.529 100.727 34.4332 100.775 34.3372 100.871C34.1454 101.015 33.906 101.063 33.6179 101.111C31.2681 101.255 29.6371 103.223 29.5894 103.271C29.0618 103.943 28.1027 104.039 27.4794 103.511C26.8078 102.983 26.7118 102.023 27.2394 101.399C27.2874 101.351 27.6232 100.967 28.1985 100.439C28.678 100.007 29.3019 99.5272 30.1172 99.0948C31.0283 98.6151 32.1315 98.1829 33.4261 98.1351H33.4741C33.6659 98.1351 33.8582 98.1351 34.05 98.1829C34.6253 98.3751 35.0568 98.9031 35.1048 99.5272C35.1046 99.9111 34.9131 100.343 34.625 100.631Z" fill="#FFEBB9"/>
<path d="M137.916 55.9238C136.765 61.9243 131.49 64.5641 126.646 65.8124C125.303 66.2443 124.248 68.4044 123.577 70.2765C123.001 71.9086 121.226 72.8205 119.548 72.2925L119.452 72.2444C118.061 71.8125 117.102 70.5646 117.102 69.1244C117.102 68.8841 117.102 68.6925 117.15 68.4525C117.246 67.8764 117.342 67.3964 117.438 67.06C118.349 63.3161 122.138 60.2922 128.756 58.0843C129.332 57.8923 129.812 57.5082 130.243 57.0282C131.394 55.7322 131.394 53.4762 130.291 52.1319C129.908 51.6522 129.38 51.3161 128.708 51.1239C127.03 50.6922 124.056 51.9402 121.563 53.1882C119.836 54.1001 117.678 53.2843 116.959 51.4603C116.815 51.0761 116.719 50.6922 116.719 50.3078V49.924C116.815 48.964 117.294 48.0999 118.157 47.5235C124.823 42.9158 133.648 43.4438 136.813 49.444C137.677 51.1716 138.156 53.3321 137.916 55.9238Z" fill="#FFEFC8"/>
<path d="M121.323 78.9642C120.939 80.6441 119.26 81.7002 117.582 81.3163C116.143 80.9799 115.136 79.6842 115.136 78.244C115.136 78.0043 115.184 77.7643 115.232 77.5243C115.616 75.8445 117.294 74.7884 118.973 75.1723C119.644 75.3162 120.172 75.6522 120.604 76.1322C121.275 76.9002 121.563 77.9563 121.323 78.9642Z" fill="#FFEFC8"/>
<path d="M114.41 35.9952C115.669 40.007 113.317 43.3551 110.8 45.7089C110.137 46.405 110.203 48.0627 110.402 49.4218C110.568 50.6149 109.806 51.742 108.614 51.9746H108.547C107.554 52.1737 106.56 51.7093 106.096 50.8475C106.03 50.715 105.964 50.5822 105.93 50.4164C105.798 50.0186 105.699 49.7204 105.632 49.4881C104.97 46.9023 106.295 43.8521 109.608 40.3383C109.872 40.04 110.071 39.6752 110.17 39.2111C110.436 38.0507 109.707 36.658 108.614 36.1943C108.216 36.0285 107.786 35.995 107.322 36.0948C106.163 36.393 104.738 38.1167 103.645 39.6752C102.883 40.8023 101.326 41.0013 100.267 40.1392C100.035 39.9734 99.869 39.7414 99.7366 39.5094C99.7034 39.4429 99.6372 39.3436 99.6045 39.2441C99.3392 38.6473 99.3724 37.9179 99.6704 37.3214C102.221 32.3486 107.786 29.7628 111.661 32.3815C112.721 33.1777 113.681 34.3375 114.41 35.9952Z" fill="#FFEFC8"/>
<path d="M111.826 55.4555C112.124 56.6159 111.462 57.8093 110.303 58.1076C109.309 58.3729 108.282 57.9085 107.819 57.0467C107.752 56.9142 107.686 56.7484 107.653 56.5826C107.355 55.4223 108.017 54.2286 109.177 53.9306C109.608 53.7981 110.071 53.8311 110.468 53.9968C111.098 54.2286 111.627 54.7594 111.826 55.4555Z" fill="#FFEFC8"/>
<path d="M137.409 88.6176C136.701 92.7619 133.081 94.6667 129.768 95.6113C128.861 95.928 128.164 97.4333 127.721 98.7334C127.324 99.871 126.132 100.526 124.965 100.188L124.906 100.158C123.932 99.8807 123.259 99.0134 123.239 98.035C123.241 97.8866 123.243 97.7384 123.289 97.5758C123.352 97.1612 123.4 96.8504 123.446 96.6136C124.036 94.0102 126.606 91.9015 131.155 90.2879C131.528 90.1434 131.871 89.9097 132.17 89.542C132.935 88.6307 132.922 87.0586 132.161 86.1464C131.883 85.8177 131.515 85.5914 131.057 85.4683C129.889 85.2041 127.836 86.0873 126.153 86.9747C124.961 87.6296 123.485 87.0956 122.935 85.8445C122.804 85.5911 122.763 85.3091 122.75 85.0421C122.751 84.9678 122.738 84.8493 122.753 84.7455C122.79 84.0935 123.152 83.4597 123.689 83.0647C128.227 79.8051 134.357 80.0462 136.611 84.1467C137.191 85.3386 137.517 86.8095 137.409 88.6176Z" fill="#FFEFC8"/>
<path d="M126.237 104.753C125.973 105.921 124.84 106.68 123.672 106.417C122.667 106.199 121.965 105.316 121.945 104.338C121.946 104.189 121.963 104.011 122.009 103.849C122.273 102.681 123.407 101.921 124.574 102.185C125.018 102.264 125.415 102.505 125.694 102.834C126.148 103.328 126.377 104.042 126.237 104.753Z" fill="#FFEFC8"/>
<path d="M57.3102 83.8307C56.1588 85.3668 56.063 87.2869 57.1665 88.1027C58.2696 88.9185 60.0921 88.3907 61.2427 86.8547C62.3938 85.3187 62.4896 83.3982 61.3864 82.5828C60.3313 81.7667 58.5088 82.3425 57.3102 83.8307Z" fill="#22213F"/>
<path d="M109.873 104.231C102.776 114.935 83.6394 102.935 74.5273 98.9989C71.6496 97.6548 69.2999 96.6949 70.4988 93.5746C72.465 90.3109 75.3906 92.8068 78.1722 94.0548C86.1337 97.1749 99.3223 106.007 104.742 101.063C105.845 99.287 105.413 95.255 102.056 90.2148C101.145 88.8226 101.48 86.9508 102.872 85.9906C104.262 85.0787 106.132 85.4145 107.092 86.8067C111.504 93.431 112.559 99.9111 109.873 104.231Z" fill="#FFEFC8"/>
<path d="M69.9232 94.3909H69.8272C68.8681 94.0548 67.7649 93.5265 66.5183 92.711C65.8467 92.231 65.655 91.3189 66.0865 90.5989C66.4703 90.0228 67.1416 89.7826 67.7649 89.9748C67.6215 90.1667 65.703 91.7988 69.9232 94.3909Z" fill="#FFEFC8"/>
<path d="M74.623 88.1027C74.2872 88.0544 72.8005 88.0544 72.7045 91.0308C72.4647 90.3109 72.1292 89.8306 72.1292 89.7826C71.6493 89.111 71.8411 88.1508 72.5124 87.6708C73.2323 87.2389 74.1437 87.4308 74.623 88.1027Z" fill="#FFEFC8"/>
<path d="M70.2141 94.5268C70.1314 94.7744 69.861 94.9015 69.6158 94.8125C68.5465 94.4241 67.4126 93.8515 66.2788 93.0948C65.8473 92.8068 65.5598 92.3749 65.4638 91.8469C65.3674 91.3188 65.4637 90.8386 65.7512 90.407C66.3268 89.4951 67.526 89.2548 68.4374 89.8787C70.6911 91.415 72.1781 91.5588 72.8497 91.511C73.0895 91.511 73.2809 91.6546 73.2809 91.8949C73.2809 92.1349 73.1375 92.3268 72.8977 92.3268C72.1304 92.3749 70.4516 92.2307 67.9575 90.5508C67.4783 90.2147 66.7587 90.3589 66.4711 90.8389C66.3274 91.0788 66.2311 91.3669 66.3274 91.6546C66.3754 91.943 66.5672 92.183 66.8067 92.3268C67.9019 93.0434 68.9593 93.5745 69.9476 93.9533C70.1758 94.0411 70.2914 94.2948 70.2141 94.5268Z" fill="#FFEFC8"/>
<path d="M75.8662 92.7409L75.9219 93.3138C75.9219 93.3138 75.4071 93.2006 75.4386 92.8546C75.6787 90.4545 74.3355 88.4385 74.2398 88.3427C73.9042 87.8627 73.2326 87.7185 72.7051 88.0544C72.2258 88.3907 72.0817 89.0626 72.4173 89.5426C72.4653 89.5907 73.1369 90.6467 73.2806 91.8947C73.2806 92.1346 73.0892 92.2785 72.8491 92.3266C72.6093 92.3746 72.4176 92.1827 72.3695 91.9427C72.2735 90.9347 71.6982 90.0706 71.6982 90.0706C71.1229 89.2065 71.3147 88.0063 72.2261 87.3824C73.0894 86.7583 74.3361 86.9983 74.9119 87.8624C74.9599 87.9582 76.5424 90.2625 76.2546 92.9504C76.3017 93.1429 76.1063 92.7409 75.8662 92.7409Z" fill="#FFEFC8"/>
<path d="M74.5753 94.5825C74.4793 94.6309 74.0481 94.8228 73.3765 94.8708C73.185 94.9189 72.9452 94.9189 72.7051 94.9189C71.9378 94.9189 71.0267 94.775 69.8755 94.3909C68.9164 94.0548 67.8133 93.5265 66.5667 92.711C65.8951 92.231 65.7033 91.3189 66.1348 90.5989C66.5187 90.0228 67.19 89.7826 67.8133 89.9748C67.957 90.0228 68.1011 90.0709 68.2448 90.1667C70.6429 91.7505 72.1779 91.8947 72.8969 91.8466C73.137 91.8466 73.2327 91.7983 73.3284 91.7983H73.2804L74.5753 94.5825Z" fill="#FFEFC8"/>
<path d="M75.6304 94.1028C75.4386 94.727 74.8153 95.1589 74.1918 95.1589C74.0483 95.1589 73.8562 95.1108 73.7122 95.0628C73.5685 95.0147 73.4724 94.9667 73.3287 94.8708C72.7531 94.4867 72.5133 93.8148 72.7531 93.1429C72.8971 92.7107 72.8971 92.2788 72.8971 91.8949C72.8488 91.6069 72.8008 91.3189 72.7051 91.0308C72.4653 90.3109 72.1298 89.8306 72.1298 89.7826C71.6499 89.111 71.8417 88.1507 72.513 87.6708C73.1846 87.1908 74.1437 87.3827 74.6233 88.0543C74.719 88.2468 76.6378 91.0789 75.6304 94.1028Z" fill="#FFEFC8"/>
<path d="M72.7048 98.1348C71.4099 98.1348 70.4508 97.7987 69.7792 97.1268C69.1076 96.4546 68.9639 95.5908 69.0119 94.9667C69.1079 94.1506 69.8752 93.5742 70.6903 93.6703C71.4096 93.7667 71.9372 94.3425 71.9852 95.0147C72.1293 95.0628 72.5128 95.1108 73.2324 95.0628C74.0478 94.9667 74.8151 95.5908 74.9109 96.4066C75.0069 97.2226 74.383 97.9909 73.5676 98.0867C73.2324 98.1348 72.9449 98.1348 72.7048 98.1348Z" fill="#FFEFC8"/>
<path d="M72.8817 98.5275C71.3721 98.5275 70.2112 98.1829 69.4439 97.4149C68.6763 96.5988 68.4848 95.5908 68.5802 94.9189C68.6283 94.5825 68.772 94.247 68.9638 93.959C69.1075 93.7671 69.3956 93.7671 69.5394 93.9109C69.7311 94.0548 69.7311 94.3428 69.5874 94.4867C69.4439 94.6309 69.3959 94.8231 69.3479 95.015C69.2999 95.4947 69.3959 96.2149 69.9712 96.791C70.5468 97.3668 71.6087 97.6534 72.8076 97.6534C72.8076 97.6534 73.0408 97.8948 73.0408 98.1348C73.1366 98.3748 73.1218 98.5275 72.8817 98.5275Z" fill="#FFEFC8"/>
<path d="M32.1315 93.8148C32.1315 93.8148 28.2948 93.7668 25.9445 97.2226C26.4243 95.8308 27.5274 94.0548 30.1653 92.951C30.9323 92.6627 31.8434 93.0468 32.1315 93.8148Z" fill="#FFEFC8"/>
<path d="M34.0498 96.8869C33.9538 96.8869 32.6108 96.0227 28.9179 97.8948C28.7261 97.9909 28.5343 97.8948 28.4386 97.8948C28.2948 97.8468 28.3906 97.7029 28.7741 97.511C28.8221 97.4629 29.1582 97.2227 29.6852 96.791C29.925 96.5991 30.1651 96.4069 30.4526 96.215C30.5486 96.1669 30.6443 96.0711 30.7403 96.023C31.1244 95.735 31.6037 95.3986 32.0355 95.1111C31.9392 95.3031 31.8435 95.4469 31.6995 95.5911C31.7955 95.5431 31.8432 95.5431 31.9392 95.4947C32.7066 95.207 33.6177 95.5911 33.9057 96.3588C34.0021 96.503 34.0498 96.6949 34.0498 96.8869Z" fill="#FFEFC8"/>
<path d="M34.6251 100.631C34.6731 99.3831 33.0427 99.047 31.6995 98.9989C30.8841 98.9509 30.1651 99.047 30.1171 99.047L32.6106 98.4709L34.0018 98.1348C34.5771 98.3264 35.0089 98.8548 35.0569 99.4789C35.1047 99.9111 34.9132 100.343 34.6251 100.631Z" fill="#FFEFC8"/>
<path d="M25.609 98.9989H25.561C25.3209 98.9509 25.1769 98.7589 25.1769 98.519C25.3206 97.2707 26.088 94.1509 29.9727 92.5666C30.4523 92.3749 30.9798 92.3749 31.4594 92.5666C31.9389 92.7588 32.3228 93.1429 32.5145 93.6226C32.8023 94.3909 32.6105 95.255 32.0352 95.783C31.8432 95.9269 31.6034 95.9269 31.4594 95.735C31.3159 95.543 31.3159 95.3031 31.5074 95.1589C31.8432 94.8709 31.9389 94.3428 31.7952 93.959C31.6992 93.6709 31.4594 93.479 31.2199 93.3829C30.9318 93.2868 30.644 93.2868 30.4045 93.3829C26.9033 94.775 26.2317 97.559 26.088 98.6628C26.0405 98.855 25.8485 98.9989 25.609 98.9989Z" fill="#FFEFC8"/>
<path d="M27.9108 98.6148C27.719 98.4709 27.671 98.2306 27.8147 98.0387C28.4863 97.1268 29.781 95.8308 31.8432 95.0148C32.8504 94.6309 33.9538 95.1109 34.337 96.1188C34.6248 96.9349 34.385 97.8468 33.7134 98.3748C33.5217 98.5187 33.2819 98.4709 33.1382 98.2784C32.9944 98.0868 33.0421 97.8468 33.2339 97.7026C33.6177 97.4143 33.7615 96.8866 33.5697 96.4544C33.3299 95.8786 32.7063 95.6386 32.179 95.8305C30.2605 96.5505 29.1094 97.7026 28.5341 98.5664C28.3196 98.8209 27.9588 98.6628 27.9108 98.6148Z" fill="#FFEFC8"/>
<path d="M29.6374 103.655C29.5414 103.655 29.446 103.607 29.3499 103.559C29.1582 103.415 29.1582 103.127 29.3019 102.983C29.3019 102.983 31.0764 100.823 33.6179 100.679C33.8097 100.679 33.954 100.631 34.0978 100.535C34.4333 100.343 34.625 99.9588 34.625 99.5269C34.577 98.9509 34.0497 98.4709 33.4739 98.5189C32.2273 98.615 31.0284 98.9989 29.8769 99.7189C29.6852 99.8627 29.3977 99.7669 29.3016 99.575C29.1576 99.3831 29.2536 99.0947 29.4454 98.9989C30.74 98.2306 32.0832 97.799 33.4259 97.7029C34.481 97.6548 35.3921 98.4709 35.4881 99.5269C35.5361 100.247 35.2003 100.919 34.577 101.303C34.2892 101.447 34.0017 101.543 33.6659 101.591C31.5557 101.735 29.973 103.559 29.973 103.607C29.8772 103.559 29.7812 103.655 29.6374 103.655Z" fill="#FFEFC8"/>
</svg>
