<?xml version="1.0" encoding="UTF-8" standalone="no"?>
<!DOCTYPE svg PUBLIC "-//W3C//DTD SVG 1.1//EN" "http://www.w3.org/Graphics/SVG/1.1/DTD/svg11.dtd">
<svg width="100%" height="100%" viewBox="0 0 62 77" version="1.1" xmlns="http://www.w3.org/2000/svg" xmlns:xlink="http://www.w3.org/1999/xlink" xml:space="preserve" xmlns:serif="http://www.serif.com/" style="fill-rule:evenodd;clip-rule:evenodd;stroke-linejoin:round;stroke-miterlimit:2;">
    <g transform="matrix(0.0443315,0,0,0.0443315,-14.4684,-76.7221)">
        <g transform="matrix(-3.73951,-0.122532,-0.156097,4.76386,1796.43,1295.92)">
            <path d="M199.042,342.678C197.191,351.849 177.608,448.538 173.544,448.538C169.281,448.538 85.01,458.725 83.641,457.356C82.271,455.978 102.526,428.844 113.996,427.63C125.458,426.407 152.127,432.151 152.127,432.151C160.463,418.932 168.058,350.325 168.885,342.678L199.042,342.678Z" style="fill:rgb(255,235,185);fill-rule:nonzero;"/>
        </g>
        <g transform="matrix(-3.73951,-0.122532,-0.156097,4.76386,1796.43,1295.92)">
            <path d="M286.226,457.356C285.675,457.907 253.735,458.424 241.989,457.468C214.889,455.264 189.701,448.538 187.152,448.538C183.087,448.538 207.518,351.841 209.843,342.678L241.559,342.678C238.286,350.342 209.404,418.932 217.731,432.151C217.731,432.151 244.4,426.407 255.871,427.63C267.332,428.844 287.595,455.978 286.226,457.356Z" style="fill:rgb(255,239,200);fill-rule:nonzero;"/>
        </g>
        <g transform="matrix(3.02055,0,0,3.02055,334,1814.3)">
            <g>
                <path d="M419.772,304.249C384.863,341.972 347.344,336.099 315.824,319.073C316.067,318.588 327.494,301.053 328.062,299.921C391.828,334.541 422.488,268.99 430.404,215.702C432.688,201.066 455.652,204.898 452.964,219.533C449.706,236.514 441.238,278.802 419.772,304.249Z" style="fill:rgb(255,234,182);fill-rule:nonzero;"/>
                <path d="M362.665,309.187C377.79,308.884 391.305,302.108 402.645,289.183C416.739,273.188 425.924,238.746 429.425,221.281C429.343,222.251 426.874,254.195 417.22,275.857C407.487,297.682 385.22,316.658 362.665,309.187Z" style="fill:rgb(255,234,182);fill-rule:nonzero;"/>
                <path d="M419.772,304.249C396.12,331.231 368.941,333.782 350.181,331.25C337.485,329.535 327.139,325.153 321.158,322.153C317.925,320.531 315.905,319.315 315.743,319.234L317.202,317.133L328.79,300.488C331.457,302.028 341.398,307.218 354.093,308.933C354.659,309.015 355.225,309.096 355.629,309.097C355.629,309.097 359.007,322.932 376.071,324.006C393.135,325.08 426.639,309.516 452.068,223.738C449.705,237.322 439.698,281.468 419.772,304.249Z" style="fill:rgb(255,234,182);fill-rule:nonzero;"/>
                <path d="M438.248,216.602C438.734,216.441 440.109,215.715 442.053,213.857C442.701,213.373 443.268,212.645 443.835,211.918C445.698,209.818 447.643,206.747 449.347,202.544C450.727,198.987 451.946,194.541 452.681,189.042C453.009,185.969 450.829,183.055 447.756,182.727C445.249,182.481 442.902,183.934 441.847,186.035C441.604,186.52 441.522,187.086 441.44,187.652C440.132,198.326 436.647,203.255 434.865,205.194C434.379,205.759 433.812,206.082 433.731,206.244L433.974,206.163L438.248,216.602Z" style="fill:rgb(255,234,182);fill-rule:nonzero;"/>
                <path d="M434.283,218.457C436.627,219.431 439.216,218.706 440.755,216.848C441.16,216.444 441.484,215.798 441.728,215.313C441.971,214.828 442.053,214.262 442.053,213.858C442.299,211.351 440.927,208.842 438.583,207.868C437.047,207.3 435.754,206.247 434.705,205.113C433.897,204.303 433.171,203.332 432.767,202.522C431.314,200.175 430.589,197.99 430.67,197.828C429.784,194.753 426.794,193.051 423.801,193.775C420.808,194.499 419.024,197.651 419.748,200.644C419.828,201.292 423.208,213.913 434.283,218.457Z" style="fill:rgb(255,234,182);fill-rule:nonzero;"/>
                <path d="M446.828,211.195M450.777,222.281C448.51,224.381 444.87,224.376 442.77,222.109C440.67,219.842 440.675,216.202 442.942,214.102C444.886,212.244 445.453,211.113 445.778,210.466C443.92,208.522 443.52,205.691 445.059,203.429C446.761,200.843 450.401,200.039 452.987,201.741C454.846,202.876 456.945,205.548 457.183,209.106C457.421,212.665 456.041,216.222 452.882,220.1C452.396,220.665 451.586,221.473 450.777,222.281Z" style="fill:rgb(255,234,182);fill-rule:nonzero;"/>
                <path d="M452.395,221.474C452.233,221.393 452.233,221.393 452.072,221.312C451.345,220.745 451.339,218.991 452.068,218.345C454.984,214.952 456.128,212.421 455.889,209.266C455.57,206.273 453.874,204.006 452.339,203.034C451.774,202.548 451.046,202.385 450.237,202.384C449.428,202.383 448.621,201.573 448.622,200.764C448.623,199.955 449.433,199.148 450.242,199.149C451.617,199.232 452.829,199.638 453.88,200.367C455.981,201.826 458.565,204.741 458.883,208.947C459.282,212.991 457.659,217.033 454.257,220.992C453.77,221.557 452.88,221.717 452.395,221.474Z" style="fill:rgb(255,234,182);fill-rule:nonzero;"/>
                <path d="M449.185,202.868L449.347,202.545C450.727,198.988 451.946,194.542 452.681,189.043C453.009,185.97 450.829,183.056 447.756,182.728C445.249,182.482 442.902,183.935 441.847,186.036C442.737,185.875 452.121,184.512 449.185,202.868Z" style="fill:rgb(255,234,182);fill-rule:nonzero;"/>
                <path d="M419.667,200.806C420.396,199.756 423.961,195.474 432.767,202.522C431.314,200.175 430.589,197.99 430.67,197.828C429.784,194.753 426.794,193.051 423.801,193.775C420.727,194.661 418.782,197.732 419.667,200.806Z" style="fill:rgb(255,234,182);fill-rule:nonzero;"/>
                <path d="M434.221,206.767C435.111,204.942 433.652,206.406 433.49,206.325C432.763,205.758 432.845,204.787 433.412,204.06C435.113,202.283 438.435,197.677 439.662,187.569C439.826,185.628 440.88,183.931 442.499,182.72C444.118,181.509 445.979,181.026 447.92,181.191C449.861,181.355 451.558,182.409 452.769,184.028C453.98,185.647 454.463,187.508 454.298,189.449C453.562,195.352 452.18,200.526 450.234,204.81C449.829,205.618 449.019,206.022 448.211,205.616C447.403,205.211 446.999,204.401 447.405,203.593C449.271,199.471 450.49,194.62 451.226,189.121C451.389,187.989 451.067,187.018 450.34,186.046C449.775,185.156 448.643,184.588 447.673,184.506C446.541,184.343 445.57,184.665 444.598,185.392C443.708,185.957 443.14,187.088 443.058,188.059C441.668,199.299 438.029,204.327 436.004,206.346C435.696,206.573 434.868,207.091 434.221,206.767Z" style="fill:rgb(255,234,182);fill-rule:nonzero;"/>
                <path d="M429.431,217.642L429.269,217.561C420.865,211.727 418.21,201.694 418.049,201.209C417.566,199.348 417.731,197.407 418.784,195.71C419.838,194.013 421.295,192.721 423.318,192.319C427.282,191.273 431.161,193.624 432.208,197.588C432.208,197.588 433.05,201.479 435.716,204.232C436.362,204.961 436.565,205.843 435.917,206.328C435.188,206.974 433.975,206.973 433.49,206.325C430.34,202.924 429.295,198.555 429.214,198.312C428.651,196.208 426.307,194.83 424.203,195.394C423.07,195.635 422.261,196.443 421.612,197.332C421.125,198.302 420.962,199.434 421.284,200.405C421.283,200.809 424.004,209.416 431.357,214.521C432.084,215.088 432.101,216.352 431.695,217.16C431.21,217.725 430.239,218.048 429.431,217.642Z" style="fill:rgb(255,234,182);fill-rule:nonzero;"/>
                <path d="M320.509,323.447C317.114,321.744 315.094,320.528 314.932,320.447C314.609,320.285 314.367,319.961 314.205,319.476C314.206,319.072 314.206,318.667 314.368,318.344L326.525,299.354C326.606,299.192 326.606,299.192 326.687,299.031C327.254,298.304 328.144,298.143 328.952,298.549C329.114,298.63 339.942,305.277 354.336,307.237C372.611,309.526 388.391,303.077 401.513,288.213C417.065,270.522 426.582,229.772 429.028,215.621C429.272,214.732 430.001,214.086 430.89,214.329C431.779,214.573 432.425,215.302 432.182,216.191C429.736,230.746 419.895,272.142 403.856,290.399C390.086,306.152 373.335,312.923 353.928,310.471C341.798,308.837 332.18,304.214 328.705,302.269L318.169,318.835C319.139,319.322 320.351,320.132 321.967,320.943C328.271,324.106 338.376,328.163 350.505,329.797C368.699,332.248 395.392,329.857 418.64,303.279C441.644,277.186 451.1,221.636 451.427,219.372C451.671,218.483 452.4,217.837 453.289,218.08C454.178,218.324 454.824,219.053 454.581,219.942C454.173,222.368 444.555,278.646 420.983,305.466C396.845,333.013 369.019,335.645 350.097,333.031C337.483,331.153 326.975,326.69 320.509,323.447Z" style="fill:rgb(255,234,182);fill-rule:nonzero;"/>
            </g>
            <path d="M399.006,281.395C399.006,308.522 376.942,330.586 349.815,330.586L348.007,330.586C342.22,351.203 323.231,366.394 300.625,366.394C291.583,366.394 283.083,364.043 275.849,359.703C266.807,372.001 252.339,379.958 236.062,379.958C223.041,379.958 211.286,374.894 202.605,366.756C193.743,374.894 181.988,379.958 169.148,379.958C153.776,379.958 140.031,372.905 130.989,361.873C124.659,364.767 117.787,366.394 110.372,366.394C90.84,366.394 74.022,355.001 66.064,338.724C65.52,337.458 64.798,336.192 64.435,334.745C63.17,334.926 61.722,335.288 60.456,335.468C58.649,335.649 56.659,335.83 54.67,335.83C35.138,335.83 18.32,324.437 10.362,307.979C7.287,301.468 5.478,294.235 5.478,286.458C5.478,277.596 7.829,269.458 11.808,262.224C5.298,253.905 1.501,243.416 1.501,232.022C1.501,209.416 16.872,190.246 37.671,184.459C36.405,180.119 35.863,175.597 35.863,170.895C35.863,143.768 57.926,121.704 85.054,121.704C91.926,121.704 98.617,123.151 104.586,125.683C108.384,102.173 128.639,84.089 153.234,84.089C169.329,84.089 183.616,91.865 192.659,103.8C201.159,89.152 218.158,79.386 236.243,79.386C261.923,79.386 283.083,99.097 285.253,124.235C290.136,122.607 295.381,121.703 300.806,121.703C327.933,121.703 349.997,143.766 349.997,170.894L349.997,172.16C353.795,173.064 357.412,174.33 360.667,175.958C377.124,183.915 388.337,200.734 388.337,220.266C388.337,228.947 386.167,237.085 382.188,244.138C392.496,253.363 399.006,266.565 399.006,281.395Z" style="fill:rgb(255,210,106);fill-rule:nonzero;"/>
            <path d="M376.219,258.608C376.219,285.735 354.156,307.799 327.028,307.799L325.219,307.799C319.432,328.416 300.443,343.607 277.837,343.607C268.795,343.607 260.295,341.256 253.061,336.916C244.019,349.214 229.551,357.171 213.274,357.171C200.253,357.171 188.498,352.107 179.817,343.969C170.955,352.107 159.2,357.171 146.36,357.171C130.988,357.171 117.243,350.118 108.201,339.086C101.871,341.98 94.998,343.607 87.584,343.607C79.807,343.607 72.574,341.799 66.063,338.724C64.073,337.82 62.084,336.554 60.276,335.469C51.776,329.863 45.265,321.725 41.649,312.14C38.213,312.863 34.414,313.225 30.798,313.044C23.564,312.863 16.511,311.055 10.362,308.161C7.287,301.65 5.479,294.417 5.479,286.64C5.479,277.778 7.829,269.64 11.808,262.406C5.298,254.087 1.501,243.598 1.501,232.204C1.501,209.598 16.872,190.428 37.671,184.641C36.405,180.301 35.863,175.779 35.863,171.077C35.863,143.95 57.926,121.886 85.054,121.886C91.926,121.886 98.617,123.333 104.586,125.865C108.384,102.355 128.639,84.27 153.234,84.27C169.329,84.27 183.616,92.047 192.659,103.982L193.744,103.982C202.244,89.333 218.159,79.569 236.243,79.569C261.923,79.569 283.083,99.281 285.253,124.418C290.136,122.79 295.381,121.886 300.806,121.886C327.933,121.886 349.997,143.949 349.997,171.077L349.997,172.343C353.795,173.247 357.412,174.513 360.667,176.141C363.741,182.652 365.55,189.885 365.55,197.662C365.55,206.343 363.38,214.481 359.401,221.534C369.709,230.396 376.219,243.779 376.219,258.608Z" style="fill:rgb(255,210,106);fill-rule:nonzero;"/>
            <path d="M349.815,171.078C333.358,117.909 281.454,132.738 281.454,132.738C281.454,132.738 275.848,104.526 244.742,96.027C213.817,87.707 194.285,114.653 194.285,114.653C194.285,114.653 178.009,97.112 150.881,100.005C123.754,102.898 112.903,137.982 112.903,137.982C112.903,137.982 89.934,130.025 63.892,143.588C38.032,157.152 44.18,194.045 44.18,194.045C-7.721,221.172 11.086,261.682 11.266,262.225C4.756,253.906 0.959,243.417 0.959,232.023C0.959,209.417 16.33,190.247 37.129,184.46C35.863,180.12 35.321,175.598 35.321,170.896C35.321,143.769 57.384,121.705 84.512,121.705C91.384,121.705 98.075,123.152 104.044,125.684C107.842,102.174 128.097,84.09 152.692,84.09C168.787,84.09 183.074,91.865 192.117,103.801L193.202,103.801C201.702,89.153 217.617,79.386 235.701,79.386C261.381,79.386 282.541,99.098 284.711,124.236C289.594,122.608 294.839,121.704 300.264,121.704C327.752,121.887 349.815,143.95 349.815,171.078Z" style="fill:rgb(255,210,106);fill-rule:nonzero;"/>
            <g>
                <path d="M215.084,355.362C214.361,354.819 214.361,353.734 214.903,353.192C223.584,342.522 214.903,325.703 214.722,325.522C214.36,324.799 214.541,323.894 215.084,323.533C228.828,313.044 236.424,301.469 238.052,289.172C239.86,273.981 231.18,262.949 231.18,262.768C230.637,262.225 230.637,261.321 231.361,260.598C249.988,241.247 232.084,218.099 231.18,217.014C230.637,216.291 230.818,215.386 231.361,214.844C232.084,214.301 232.989,214.482 233.531,215.025C233.712,215.206 253.243,240.525 234.254,261.684C236.605,264.939 242.573,275.428 240.945,289.173C239.317,302.013 231.722,313.949 217.796,324.8C219.785,329.14 225.753,344.151 217.073,354.821C216.291,355.828 215.446,355.543 215.084,355.362Z" style="fill:rgb(254,193,48);fill-rule:nonzero;"/>
                <path d="M135.149,128.036C134.787,128.036 134.606,128.036 134.245,127.674C133.522,127.131 133.341,126.227 133.883,125.504C134.064,125.323 146.542,107.419 167.34,116.281C168.063,116.643 168.606,117.547 168.244,118.451C167.882,119.174 166.978,119.717 166.074,119.355C147.627,111.579 136.957,126.77 136.415,127.493C136.234,127.674 135.691,128.036 135.149,128.036Z" style="fill:rgb(254,193,48);fill-rule:nonzero;"/>
                <path d="M151.063,332.575C147.446,332.575 136.595,331.49 132.616,319.192C132.435,318.288 132.797,317.384 133.701,317.203C134.605,317.022 135.509,317.384 135.69,318.288C139.488,330.405 151.243,329.501 151.785,329.32C152.689,329.32 153.413,329.863 153.593,330.767C153.593,331.671 153.05,332.395 152.146,332.576C152.148,332.394 151.787,332.575 151.063,332.575Z" style="fill:rgb(254,193,48);fill-rule:nonzero;"/>
                <path d="M263.551,348.67C261.381,348.67 259.03,348.308 256.316,347.223C255.413,346.861 255.051,345.957 255.413,345.234C255.775,344.33 256.678,343.968 257.402,344.33C269.338,348.851 275.849,338.905 276.029,338.543C276.572,337.82 277.476,337.639 278.199,338C278.922,338.543 279.103,339.447 278.742,340.17C278.923,340.171 273.498,348.67 263.551,348.67Z" style="fill:rgb(254,193,48);fill-rule:nonzero;"/>
                <path d="M95.723,279.586C95.543,279.586 95.362,279.586 95.18,279.405C94.999,279.405 81.256,273.98 83.607,258.788C83.787,257.884 84.511,257.341 85.414,257.522C86.319,257.703 86.862,258.426 86.68,259.33C84.692,271.989 95.722,276.33 96.085,276.511C96.989,276.873 97.35,277.777 96.989,278.5C96.99,279.225 96.265,279.586 95.723,279.586Z" style="fill:rgb(254,193,48);fill-rule:nonzero;"/>
                <path d="M312.561,290.98C311.657,290.98 310.933,290.257 310.933,289.533C310.933,288.629 311.476,287.905 312.38,287.905C325.22,287.182 326.848,275.426 327.029,274.884C327.21,273.98 327.933,273.437 328.837,273.437C329.741,273.618 330.284,274.341 330.284,275.245C330.103,275.427 327.933,290.076 312.561,290.98Z" style="fill:rgb(254,193,48);fill-rule:nonzero;"/>
                <path d="M66.787,203.088C65.884,203.088 65.159,202.365 65.159,201.46C64.616,180.482 80.713,175.418 85.234,174.333C86.862,166.737 90.298,160.95 95.362,157.514C103.5,152.089 112.723,154.078 113.266,154.078C114.17,154.259 114.713,155.163 114.532,155.886C114.351,156.79 113.447,157.333 112.724,157.152C112.543,157.152 104.224,155.524 97.351,160.046C92.65,163.12 89.756,168.546 88.309,175.78C88.129,176.503 87.587,177.046 86.863,177.046C86.139,177.227 67.873,179.759 68.415,201.099C68.415,202.364 67.692,203.088 66.787,203.088Z" style="fill:rgb(254,193,48);fill-rule:nonzero;"/>
                <path d="M357.411,211.768L356.868,211.768C355.964,211.587 355.602,210.683 355.783,209.779C355.783,209.779 358.315,201.46 354.155,194.226C351.442,189.343 346.379,185.907 339.325,183.918C338.602,183.737 338.24,183.195 338.059,182.471C338.059,181.748 336.974,163.301 315.815,162.035C314.911,162.035 314.187,161.312 314.368,160.407C314.368,159.503 315.091,158.779 315.996,158.96C336.974,160.226 340.591,176.683 341.134,181.385C348.549,183.555 353.974,187.534 357.049,192.959C361.751,201.459 359.038,210.682 358.857,211.044C358.858,211.226 358.135,211.768 357.411,211.768Z" style="fill:rgb(254,193,48);fill-rule:nonzero;"/>
                <path d="M157.031,353.915C156.127,353.915 155.223,353.915 154.499,353.734C147.988,352.649 143.648,347.947 142.02,345.958C121.042,350.66 113.627,330.043 113.627,329.863C113.265,328.959 113.808,328.055 114.531,327.874C115.435,327.512 116.339,328.055 116.52,328.778C116.701,329.501 123.392,347.586 142.2,342.522C142.923,342.341 143.647,342.703 144.008,343.245C144.008,343.245 147.987,349.394 155.04,350.479C159.742,351.202 164.987,349.394 170.231,344.873C170.954,344.33 171.859,344.33 172.401,345.054C172.943,345.778 172.944,346.682 172.22,347.224C167.159,351.745 162.095,353.915 157.031,353.915Z" style="fill:rgb(254,193,48);fill-rule:nonzero;"/>
                <path d="M302.433,348.49C295.922,348.49 290.859,346.862 290.678,346.862C289.774,346.681 289.412,345.777 289.593,344.873C289.774,343.969 290.678,343.607 291.582,343.788C292.667,344.15 316.72,351.564 324.135,330.767C324.497,329.863 325.401,329.501 326.124,329.863C327.028,330.225 327.39,331.129 327.028,331.852C322.327,345.596 311.114,348.49 302.433,348.49Z" style="fill:rgb(254,193,48);fill-rule:nonzero;"/>
                <path d="M352.167,241.247L351.805,241.247C350.901,241.066 350.539,240.162 350.72,239.258C351.082,238.173 357.773,213.758 336.795,207.067C335.891,206.886 335.529,205.982 335.71,205.078C335.891,204.174 336.795,203.812 337.699,203.993C361.571,211.769 353.794,239.801 353.794,240.163C353.432,240.885 352.89,241.247 352.167,241.247Z" style="fill:rgb(254,193,48);fill-rule:nonzero;"/>
                <path d="M231.902,189.343C230.998,188.981 230.636,188.077 230.817,187.354C240.764,157.333 216.711,145.578 215.626,145.036C215.083,144.674 214.722,144.132 214.722,143.408C215.626,132.015 213.818,123.515 208.935,118.451C205.377,114.619 200.991,113.687 198.754,113.46C197.951,113.379 197.325,112.734 197.28,111.927C197.225,110.936 198.056,110.121 199.044,110.21C201.863,110.464 206.959,111.539 211.105,116.1C216.35,121.706 218.52,130.568 217.796,142.323C222.679,145.036 243.296,158.78 233.711,187.897C233.461,189.343 232.083,189.343 231.902,189.343Z" style="fill:rgb(254,193,48);fill-rule:nonzero;"/>
            </g>
            <path d="M202.605,365.256C202.974,365.256 203.343,365.392 203.631,365.661C212.433,373.913 223.95,378.458 236.062,378.458C251.175,378.458 265.597,371.114 274.641,358.814C275.1,358.191 275.959,358.019 276.62,358.417C283.684,362.654 291.985,364.895 300.625,364.895C321.936,364.895 340.825,350.62 346.563,330.181C346.745,329.534 347.335,329.086 348.007,329.086L349.815,329.086C376.112,329.086 397.506,307.692 397.506,281.396C397.506,267.509 391.71,254.674 381.188,245.256C380.663,244.786 380.536,244.014 380.881,243.401C384.777,236.496 386.837,228.496 386.837,220.267C386.837,201.769 376.559,185.309 360.014,177.309C356.911,175.758 353.43,174.519 349.65,173.62C348.973,173.459 348.497,172.855 348.497,172.161L348.497,170.895C348.497,144.598 327.103,123.204 300.807,123.204C295.687,123.204 290.614,124.03 285.729,125.659C285.291,125.805 284.815,125.742 284.43,125.49C284.046,125.238 283.799,124.823 283.76,124.365C281.656,99.985 260.782,80.886 236.243,80.886C218.898,80.886 202.3,90.177 193.957,104.554C193.705,104.988 193.252,105.267 192.751,105.298C192.251,105.332 191.767,105.107 191.463,104.707C182.258,92.557 168.324,85.59 153.234,85.59C129.679,85.59 109.843,102.552 106.067,125.923C105.993,126.378 105.715,126.774 105.311,126.997C104.909,127.22 104.425,127.246 104,127.065C98.048,124.54 91.496,123.205 85.054,123.205C58.757,123.205 37.363,144.599 37.363,170.896C37.363,175.708 37.934,180.008 39.111,184.04C39.222,184.425 39.177,184.839 38.982,185.189C38.786,185.54 38.46,185.797 38.073,185.905C17.424,191.651 3.001,210.615 3.001,232.023C3.001,242.827 6.454,252.951 12.99,261.3C13.36,261.774 13.411,262.421 13.122,262.947C9.046,270.36 6.977,278.27 6.977,286.459C6.977,293.652 8.573,300.678 11.717,307.34C19.765,323.983 36.226,334.33 54.67,334.33C56.613,334.33 58.597,334.146 60.306,333.976C60.855,333.897 61.507,333.765 62.159,333.635C62.863,333.494 63.567,333.354 64.223,333.26C64.985,333.158 65.704,333.636 65.89,334.381C66.113,335.271 66.505,336.105 66.921,336.988C67.101,337.373 67.28,337.753 67.443,338.134C75.38,354.363 92.242,364.895 110.372,364.895C117.274,364.895 124.001,363.419 130.365,360.509C130.983,360.226 131.718,360.395 132.149,360.922C141.283,372.067 154.768,378.458 169.148,378.458C181.076,378.458 192.598,373.91 201.59,365.651C201.877,365.388 202.241,365.256 202.605,365.256ZM236.062,381.458C223.647,381.458 211.816,376.965 202.595,368.777C193.204,376.965 181.381,381.458 169.148,381.458C154.249,381.458 140.252,375.001 130.565,363.702C124.118,366.484 117.33,367.894 110.372,367.894C91.105,367.894 73.183,356.703 64.716,339.383C64.534,338.966 64.37,338.616 64.204,338.263C63.941,337.702 63.656,337.095 63.407,336.445C63.187,336.488 62.968,336.532 62.746,336.576C62.037,336.718 61.328,336.859 60.666,336.953C58.825,337.14 56.749,337.33 54.669,337.33C35.065,337.33 17.57,326.334 9.01,308.633C5.669,301.554 3.977,294.098 3.977,286.458C3.977,278.077 6.012,269.978 10.027,262.366C3.464,253.638 0,243.168 0,232.022C0,209.771 14.661,190.004 35.835,183.435C34.845,179.549 34.362,175.43 34.362,170.895C34.362,142.944 57.101,120.204 85.053,120.204C91.274,120.204 97.589,121.375 103.435,123.603C108.168,99.727 128.822,82.588 153.233,82.588C168.548,82.588 182.74,89.338 192.503,101.183C201.685,86.964 218.607,77.885 236.242,77.885C261.7,77.885 283.446,97.227 286.553,122.255C291.195,120.892 295.98,120.202 300.806,120.202C328.757,120.202 351.496,142.942 351.496,170.893L351.496,170.986C355.059,171.91 358.365,173.129 361.338,174.615C378.91,183.111 389.837,200.606 389.837,220.265C389.837,228.597 387.846,236.715 384.068,243.824C394.678,253.74 400.506,267.035 400.506,281.394C400.506,309.345 377.766,332.084 349.815,332.084L349.13,332.084C342.673,353.225 322.892,367.893 300.625,367.893C291.912,367.893 283.514,365.744 276.244,361.665C266.6,374.084 251.679,381.458 236.062,381.458Z" style="fill:rgb(254,193,48);fill-rule:nonzero;"/>
            <path d="M125.021,213.034C117.064,232.746 124.117,254.087 140.574,260.597C157.031,267.108 176.744,256.438 184.52,236.725C192.477,217.013 185.424,195.672 168.967,189.162C152.51,182.652 132.979,193.322 125.021,213.034Z" style="fill:white;fill-rule:nonzero;"/>
            <path d="M132.575,227.228C134.406,214.069 145.114,204.684 156.492,206.267C167.871,207.85 175.611,219.801 173.78,232.961C171.949,246.12 161.241,255.505 149.863,253.922C138.484,252.339 130.744,240.387 132.575,227.228Z" style="fill:rgb(34,33,63);fill-rule:nonzero;"/>
            <path d="M153.595,220.992C152.329,224.066 148.531,225.513 144.914,224.066C141.297,222.619 139.489,219.002 140.754,215.928C142.02,212.854 145.818,211.407 149.435,212.854C152.872,214.3 154.68,217.917 153.595,220.992Z" style="fill:white;fill-rule:nonzero;"/>
            <path d="M315.816,210.141C324.135,229.673 317.624,251.194 301.348,258.066C285.072,264.938 265.178,254.811 256.859,235.279C248.54,215.747 255.05,194.226 271.327,187.354C287.423,180.301 307.497,190.609 315.816,210.141Z" style="fill:white;fill-rule:nonzero;"/>
            <path d="M277.854,202.884C289.194,201.041 300.114,210.179 302.245,223.293C304.376,236.407 296.911,248.532 285.571,250.375C274.231,252.218 263.311,243.08 261.178,229.966C259.049,216.851 266.514,204.726 277.854,202.884Z" style="fill:rgb(34,33,63);fill-rule:nonzero;"/>
            <path d="M266.987,214.3C265.721,217.374 267.71,220.991 271.146,222.438C274.763,223.885 278.561,222.438 279.827,219.364C281.093,216.29 279.104,212.673 275.668,211.226C272.051,209.779 268.253,211.226 266.987,214.3Z" style="fill:white;fill-rule:nonzero;"/>
            <g>
                <path d="M259.03,149.737C269.519,153.354 279.466,152.45 281.094,147.748C282.722,142.865 275.669,135.993 265.179,132.376C254.69,128.759 244.743,129.663 243.116,134.365C241.487,139.067 248.541,145.94 259.03,149.737Z" style="fill:rgb(12,43,52);fill-rule:nonzero;"/>
                <g>
                    <path d="M253.062,131.472C252.339,131.472 251.615,131.472 251.073,131.653C247.637,132.015 245.286,133.1 244.743,134.727C244.2,136.355 245.286,138.706 247.817,141.238C250.711,143.951 254.87,146.483 259.752,148.11C264.636,149.738 269.519,150.642 273.497,150.28C276.933,149.918 279.284,148.833 279.827,147.206C280.37,145.578 279.284,143.227 276.753,140.695C273.859,137.982 269.7,135.45 264.817,133.823C260.657,132.195 256.678,131.472 253.062,131.472ZM271.327,153.535C267.348,153.535 263.008,152.631 258.668,151.184C253.423,149.376 248.721,146.663 245.466,143.588C242.03,140.152 240.583,136.716 241.668,133.822C242.753,130.928 246.008,128.939 250.71,128.577C255.05,128.215 260.476,128.939 265.72,130.747C270.965,132.555 275.667,135.268 278.922,138.343C282.358,141.779 283.805,145.215 282.72,148.109C281.635,151.003 278.38,152.992 273.678,153.354C272.955,153.535 272.051,153.535 271.327,153.535Z" style="fill:rgb(12,43,52);fill-rule:nonzero;"/>
                    <path d="M181.627,158.418M187.776,139.791C184.159,139.791 179.819,140.695 174.936,142.685C170.234,144.674 166.074,147.387 163.362,150.281C161.011,152.813 160.107,155.345 160.83,156.972C161.553,158.6 163.904,159.685 167.341,159.685C171.32,159.866 176.203,158.781 180.905,156.791C191.033,152.451 196.458,145.759 195.011,142.504C194.286,140.876 191.754,139.791 187.776,139.791ZM168.063,163.12L167.34,163.12C162.457,162.939 159.202,161.312 157.936,158.418C156.67,155.524 157.936,151.907 161.191,148.29C164.265,145.035 168.606,141.96 173.85,139.79C185.063,135.088 195.733,135.63 198.084,141.418C200.435,147.024 193.563,155.162 182.169,159.865C177.286,162.035 172.223,163.12 168.063,163.12Z" style="fill:rgb(12,43,52);fill-rule:nonzero;"/>
                </g>
                <path d="M181.627,158.418C191.935,154.078 198.627,146.663 196.637,141.961C194.648,137.259 184.701,136.897 174.393,141.238C164.085,145.578 157.393,152.993 159.383,157.695C161.372,162.397 171.318,162.759 181.627,158.418Z" style="fill:rgb(12,43,52);fill-rule:nonzero;"/>
            </g>
            <g>
                <path d="M79.808,343.245C18.501,366.574 -15.497,336.373 21.757,272.714C36.224,250.47 42.012,230.396 58.287,244.683C63.351,253.906 59.192,256.257 52.863,265.842C43.096,278.863 25.917,312.501 29.352,322.99C34.597,333.479 57.927,326.064 70.224,322.628C82.522,317.926 91.202,336.734 79.808,343.245Z" style="fill:rgb(255,239,200);fill-rule:nonzero;"/>
                <path d="M91.744,310.15C91.383,310.873 91.022,311.416 90.478,311.958C89.935,312.32 89.393,312.681 88.85,313.043C87.765,313.586 86.68,313.947 85.777,314.49C84.692,315.213 83.607,315.937 82.883,316.66C81.435,318.107 80.532,319.554 79.808,320.819C78.723,323.17 78.723,324.978 78.723,325.34L74.744,325.521L67.329,325.702C67.329,325.34 67.329,322.266 68.596,318.287C70.404,313.042 74.564,306.351 84.511,302.192C87.405,300.926 90.841,302.373 91.926,305.266C92.649,307.256 92.469,308.884 91.744,310.15Z" style="fill:rgb(255,239,200);fill-rule:nonzero;"/>
                <path d="M99.159,317.203C99.159,318.831 98.256,320.458 96.808,321.543C96.447,321.905 95.905,322.086 95.543,322.266C94.999,322.447 94.457,322.809 93.914,322.989C92.649,323.712 91.383,324.255 90.478,324.978C86.138,328.052 84.511,331.669 84.329,332.393L77.277,330.223L73.298,328.957C73.298,328.776 73.841,327.51 74.744,325.702C75.468,324.436 76.553,322.628 77.999,321C78.362,320.457 78.904,320.096 79.265,319.553C81.255,317.564 83.606,315.574 86.68,313.766C87.765,313.223 89.032,312.5 90.298,311.957C90.659,311.776 90.841,311.776 91.201,311.595C94.096,310.51 97.532,311.957 98.617,314.85C98.978,315.575 99.159,316.479 99.159,317.203Z" style="fill:rgb(255,239,200);fill-rule:nonzero;"/>
                <path d="M101.33,331.309C100.968,331.671 100.607,331.852 100.245,332.213C99.522,332.756 98.617,332.936 97.532,333.117C88.67,333.66 82.522,341.074 82.341,341.255C80.351,343.787 76.735,344.149 74.384,342.159C71.851,340.17 71.49,336.553 73.48,334.202C73.66,334.021 74.927,332.574 77.096,330.585C78.905,328.957 81.257,327.149 84.33,325.521C87.766,323.713 91.927,322.085 96.809,321.904L96.991,321.904C97.714,321.904 98.437,321.904 99.16,322.085C101.331,322.808 102.959,324.798 103.14,327.149C102.958,328.596 102.415,330.224 101.33,331.309Z" style="fill:rgb(255,239,200);fill-rule:nonzero;"/>
            </g>
            <g>
                <path d="M66.245,347.585C63.533,348.308 60.639,348.851 57.384,349.394C41.288,352.288 28.448,351.022 19.767,345.958C12.715,341.799 8.194,335.288 6.746,326.969C4.395,313.225 9.279,294.959 21.757,272.715C30.438,257.162 39.66,245.045 40.023,244.503C43.821,239.439 51.054,238.535 55.938,242.333C56.842,243.056 57.566,243.78 58.288,244.684C58.288,244.684 49.608,241.067 39.661,257.524C29.895,273.981 7.289,313.949 16.332,333.48C25.373,352.83 65.341,347.585 66.245,347.585Z" style="fill:rgb(255,239,200);fill-rule:nonzero;"/>
                <path d="M64.074,324.618C20.671,342.341 19.224,328.777 27.544,302.193C35.863,275.608 60.096,249.205 60.096,249.205L60.278,252.279C60.096,254.449 59.373,256.438 57.927,258.247C57.927,258.247 55.757,261.141 52.502,265.843C49.428,270.545 45.267,276.875 41.288,283.928C32.066,300.747 27.545,315.034 28.991,322.991C29.352,324.8 30.075,325.523 31.16,326.246C37.491,329.862 52.681,327.692 64.074,324.618Z" style="fill:rgb(255,239,200);fill-rule:nonzero;"/>
                <path d="M19.044,347.223C11.629,342.883 6.745,336.01 5.118,327.149C2.587,313.043 7.651,294.415 20.309,271.809C28.991,256.075 38.214,243.958 38.575,243.416C42.915,237.629 51.054,236.544 56.842,240.884C62.629,245.224 63.714,253.363 59.373,259.15C59.373,259.331 50.693,270.543 42.916,284.65C33.874,301.107 29.352,315.032 30.8,322.628C30.981,324.075 31.523,324.436 32.066,324.798C38.034,328.234 54.491,326.064 66.788,322.085C67.693,321.904 68.596,322.266 68.778,323.17C68.959,324.074 68.596,324.978 67.693,325.159C58.288,328.053 38.575,332.393 30.257,327.691C28.629,326.787 27.724,325.521 27.363,323.351C25.915,315.032 30.436,300.383 39.842,283.203C47.799,268.916 56.48,257.342 56.48,257.342C59.735,253.002 58.83,246.853 54.672,243.598C50.331,240.343 44.182,241.247 40.928,245.407C40.566,245.95 31.524,257.886 22.843,273.438C10.545,295.502 5.661,313.405 8.012,326.607C9.46,334.383 13.618,340.532 20.31,344.33C28.81,349.213 43.815,349.892 56.842,347.585C67.693,345.776 76.373,342.702 76.735,342.521C78.738,341.679 80.171,340.532 80.893,339.628C81.436,338.905 82.522,338.905 83.064,339.447C83.786,339.99 83.786,341.075 83.244,341.617C82.341,342.702 81.436,343.425 80.171,344.149C79.448,344.692 43.12,359.977 19.044,347.223Z" style="fill:rgb(255,239,200);fill-rule:nonzero;"/>
                <path d="M91.926,305.629C91.926,305.629 77.457,305.448 68.596,318.469C70.405,313.224 74.565,306.533 84.512,302.374C87.405,301.288 90.841,302.735 91.926,305.629Z" style="fill:rgb(255,239,200);fill-rule:nonzero;"/>
                <path d="M99.159,317.203C98.798,317.203 93.735,313.948 79.808,321.001C79.086,321.363 78.362,321.001 78.001,321.001C77.457,320.82 77.82,320.278 79.266,319.554C79.448,319.373 80.714,318.469 82.702,316.841C83.607,316.118 84.511,315.394 85.596,314.671C85.959,314.49 86.32,314.128 86.681,313.948C88.129,312.863 89.936,311.597 91.565,310.512C91.202,311.235 90.842,311.778 90.299,312.32C90.66,312.139 90.842,312.139 91.202,311.958C94.096,310.873 97.533,312.32 98.617,315.213C98.978,315.575 99.159,316.479 99.159,317.203Z" style="fill:rgb(255,239,200);fill-rule:nonzero;"/>
                <path d="M101.33,331.309C101.511,326.607 95.362,325.341 90.298,325.16C87.223,324.979 84.511,325.341 84.329,325.341L93.734,323.171L98.978,321.905C101.149,322.628 102.777,324.618 102.958,326.969C102.958,328.596 102.415,330.224 101.33,331.309Z" style="fill:rgb(255,239,200);fill-rule:nonzero;"/>
                <path d="M67.33,325.16L67.15,325.16C66.245,324.979 65.702,324.256 65.702,323.351C66.245,318.649 69.138,306.894 83.787,300.926C85.596,300.203 87.586,300.203 89.393,300.926C91.201,301.649 92.649,303.096 93.372,304.905C94.457,307.799 93.735,311.054 91.565,313.043C90.842,313.586 89.936,313.586 89.394,312.862C88.852,312.138 88.851,311.234 89.575,310.692C90.842,309.607 91.203,307.618 90.66,306.171C90.299,305.086 89.394,304.363 88.491,304.001C87.406,303.639 86.321,303.639 85.417,304.001C72.215,309.246 69.682,319.735 69.14,323.894C68.95,324.913 68.054,325.16 67.33,325.16Z" style="fill:rgb(255,239,200);fill-rule:nonzero;"/>
                <path d="M76.735,324.075C76.372,324.075 76.012,323.894 75.83,323.713C75.108,323.17 74.927,322.266 75.469,321.543C78.001,318.107 82.884,313.224 90.659,310.15C92.468,309.427 94.457,309.427 96.265,310.331C98.074,311.054 99.34,312.501 100.064,314.31C101.149,317.384 100.589,320.116 98.056,322.105C97.334,322.648 96.085,323.172 95.543,322.448C94.999,321.725 95.18,320.82 95.905,320.278C97.351,319.193 97.893,317.204 97.171,315.576C96.266,313.406 93.915,312.502 91.926,313.225C84.692,315.938 80.351,320.278 78.181,323.533C77.82,323.894 77.277,324.075 76.735,324.075Z" style="fill:rgb(255,239,200);fill-rule:nonzero;"/>
                <path d="M75.971,344.105C75.61,344.105 81.799,342.341 81.436,342.16C80.714,341.617 79.815,340.777 80.357,340.235C80.357,340.235 87.947,331.852 97.532,331.309C98.255,331.309 98.798,331.128 99.34,330.766C100.606,330.043 101.329,328.596 101.329,326.968C101.329,325.883 100.786,324.798 99.882,324.074C98.977,323.351 98.074,322.989 96.988,322.989C92.285,323.351 87.764,324.797 83.424,327.51C82.7,328.053 81.616,327.691 81.254,326.967C80.711,326.244 81.073,325.159 81.797,324.797C86.679,321.903 91.743,320.276 96.806,319.914C98.796,319.733 100.605,320.457 102.052,321.723C103.499,322.989 104.403,324.797 104.584,326.787C104.765,329.5 103.499,332.032 101.148,333.478C100.063,334.021 98.977,334.382 97.712,334.563C89.574,335.106 82.376,342.367 82.376,342.548C82.014,342.73 76.334,344.105 75.971,344.105Z" style="fill:rgb(255,239,200);fill-rule:nonzero;"/>
            </g>
            <path d="M210.382,292.969C187.414,287.001 182.351,266.203 185.606,255.895C186.329,253.544 187.595,251.736 189.223,250.831C198.265,245.406 202.967,256.799 218.701,260.959C234.616,264.938 244.02,257.342 249.445,266.384C250.349,267.831 250.53,270.001 249.988,272.533C247.817,282.842 233.892,298.937 210.382,292.969Z" style="fill:rgb(34,33,63);fill-rule:nonzero;"/>
            <path d="M250.53,270.544C242.754,274.161 229.732,275.246 215.988,271.629C202.244,268.193 191.393,260.959 186.148,254.087C186.871,251.736 187.595,251.555 189.222,250.651C198.264,245.226 202.966,256.619 218.7,260.779C234.615,264.758 244.019,257.162 249.444,266.204C250.349,267.65 250.892,268.193 250.53,270.544Z" style="fill:white;fill-rule:nonzero;"/>
            <path d="M433.922,120.598C433.922,128.383 430.887,135.377 425.873,140.655C421.255,145.405 417.956,151.475 416.24,157.809L415.448,160.844L394.731,160.844L393.939,158.073C393.015,154.906 391.828,151.739 390.244,148.836C388.661,145.933 386.549,143.162 384.306,140.655C383.646,139.995 383.118,139.335 382.591,138.676C378.632,133.794 376.257,127.46 376.257,120.598C376.257,105.159 388.661,92.361 403.968,91.832C415.58,91.436 425.873,97.903 430.755,107.403C432.735,111.361 433.922,115.847 433.922,120.598Z" style="fill:rgb(255,213,108);fill-rule:nonzero;"/>
            <path d="M433.922,120.598C433.922,128.383 430.887,135.377 425.873,140.655C421.255,145.405 417.956,151.475 416.24,157.809L415.712,159.92L415.448,160.844L396.447,160.844C394.995,156.489 393.016,152.399 390.245,148.836C390.113,148.704 389.981,148.44 389.849,148.308C389.057,147.384 388.266,146.329 387.342,145.405C385.363,143.426 383.779,141.182 382.46,138.675C380.349,134.716 379.293,130.23 379.293,125.347C379.293,109.908 391.697,97.11 407.004,96.581C416.109,96.185 424.29,100.144 429.832,106.346C430.096,106.742 430.492,107.006 430.756,107.402C432.735,111.361 433.922,115.847 433.922,120.598Z" style="fill:rgb(255,202,59);fill-rule:nonzero;"/>
            <path d="M433.922,120.598C433.922,128.383 430.887,135.377 425.873,140.655C421.255,145.405 417.956,151.475 416.24,157.809L415.712,159.92C414.392,160.184 413.073,160.448 411.753,160.844L396.447,160.844C394.995,156.489 393.016,152.399 390.245,148.836C390.113,148.704 389.981,148.44 389.849,148.308L389.849,148.176C389.849,148.176 406.211,152.531 418.483,139.995C429.567,128.647 429.963,109.909 429.831,106.346C430.095,106.742 430.491,107.006 430.755,107.402C432.735,111.361 433.922,115.847 433.922,120.598Z" style="fill:rgb(234,176,33);fill-rule:nonzero;"/>
            <path d="M395.523,159.657L414.525,159.657L415.053,157.546C416.9,150.816 420.331,144.746 424.95,139.864C429.964,134.718 432.735,127.856 432.735,120.598C432.735,112.945 429.7,105.951 424.29,100.674C418.748,95.395 411.622,92.624 403.969,92.888C389.322,93.416 377.314,105.82 377.314,120.599C377.314,127.857 380.085,134.586 384.967,139.865C389.585,144.747 393.148,150.949 394.996,157.811L395.523,159.657ZM415.448,162.032L394.731,162.032C394.203,162.032 393.807,161.636 393.543,161.108L392.751,158.337C391.036,151.871 387.737,146.065 383.382,141.447C377.972,135.773 375.069,128.383 375.069,120.598C375.069,104.631 388.001,91.173 403.967,90.644C412.28,90.381 420.066,93.283 426.004,98.957C431.942,104.631 435.241,112.416 435.241,120.598C435.241,128.383 432.206,135.773 426.796,141.447C422.441,146.065 419.143,151.74 417.427,158.205L416.635,161.24C416.372,161.636 415.976,162.032 415.448,162.032Z" style="fill:rgb(226,151,0);fill-rule:nonzero;"/>
            <path d="M395.919,128.119C394.863,128.119 394.204,128.779 393.94,129.175C393.28,130.231 393.148,131.55 393.676,132.606C394.468,134.189 396.447,134.981 399.35,135.113L399.878,135.113C399.878,133.002 399.35,128.647 396.315,128.251C396.183,128.119 396.051,128.119 395.919,128.119ZM401.065,159.92C400.405,159.92 399.877,159.392 399.877,158.732L399.877,137.355L399.349,137.355C394.203,137.355 392.355,134.98 391.564,133.66C390.64,131.813 390.904,129.569 392.092,127.854C393.148,126.402 394.863,125.611 396.71,125.875C401.592,126.667 402.252,132.605 402.252,135.112C403.572,135.112 401.724,135.112 405.551,135.112C406.211,135.112 406.739,135.64 406.739,136.3C406.739,136.96 406.211,137.488 405.551,137.488C401.724,137.488 403.572,137.488 402.252,137.488L402.252,158.865C402.121,159.393 401.593,159.92 401.065,159.92Z" style="fill:rgb(226,151,0);fill-rule:nonzero;"/>
            <path d="M415.053,128.119L414.657,128.119C411.622,128.647 411.094,133.001 411.094,135.113L411.622,135.113C414.525,134.981 416.636,134.057 417.296,132.474C417.824,131.418 417.692,130.099 417.032,129.175C416.768,128.647 416.108,128.119 415.053,128.119ZM410.038,159.92C409.378,159.92 408.85,159.392 408.85,158.732L408.85,137.487L405.419,137.487C404.759,137.487 404.231,136.959 404.231,136.299C404.231,135.639 404.759,135.111 405.419,135.111L408.718,135.111C408.718,132.736 409.378,126.534 414.26,125.874C416.107,125.61 417.823,126.27 418.878,127.853C420.066,129.436 420.33,131.68 419.406,133.527C418.746,134.979 416.899,137.222 411.621,137.486L410.961,137.486L410.961,158.863C411.226,159.393 410.698,159.92 410.038,159.92Z" style="fill:rgb(226,151,0);fill-rule:nonzero;"/>
            <g>
                <path d="M407.531,185.388L402.385,185.388C398.162,185.388 394.732,181.957 394.732,177.735L394.732,166.387C394.732,162.164 398.163,158.734 402.385,158.734L407.531,158.734C411.754,158.734 415.184,162.165 415.184,166.387L415.184,177.735C415.317,181.957 411.886,185.388 407.531,185.388Z" style="fill:rgb(254,193,48);fill-rule:nonzero;"/>
                <path d="M402.385,159.92C398.822,159.92 395.787,162.823 395.787,166.518L395.787,177.866C395.787,181.429 398.69,184.464 402.385,184.464L407.531,184.464C411.094,184.464 414.129,181.561 414.129,177.866L414.129,166.518C414.129,162.955 411.226,159.92 407.531,159.92L402.385,159.92ZM407.531,186.575L402.385,186.575C397.503,186.575 393.544,182.616 393.544,177.734L393.544,166.386C393.544,161.504 397.503,157.545 402.385,157.545L407.531,157.545C412.413,157.545 416.372,161.504 416.372,166.386L416.372,177.734C416.372,182.617 412.414,186.575 407.531,186.575Z" style="fill:rgb(254,193,48);fill-rule:nonzero;"/>
                <path d="M414.789,174.699L395.392,174.699C392.621,174.699 390.378,172.456 390.378,169.685L390.378,161.504C390.378,158.733 392.621,156.49 395.392,156.49L414.789,156.49C417.56,156.49 419.803,158.733 419.803,161.504L419.803,169.685C419.803,172.456 417.56,174.699 414.789,174.699Z" style="fill:rgb(254,193,48);fill-rule:nonzero;"/>
                <path d="M395.259,157.677C393.148,157.677 391.3,159.392 391.3,161.636L391.3,169.817C391.3,171.928 393.015,173.776 395.259,173.776L414.656,173.776C416.767,173.776 418.615,172.061 418.615,169.817L418.615,161.636C418.615,159.525 416.9,157.677 414.656,157.677L395.259,157.677ZM414.789,175.887L395.392,175.887C391.961,175.887 389.19,173.116 389.19,169.685L389.19,161.504C389.19,158.073 391.961,155.302 395.392,155.302L414.789,155.302C418.22,155.302 420.991,158.073 420.991,161.504L420.991,169.685C420.991,173.116 418.22,175.887 414.789,175.887Z" style="fill:rgb(202,143,1);fill-rule:nonzero;"/>
                <path d="M419.803,164.407L390.245,164.407C389.585,164.407 389.849,163.879 389.849,163.219C389.849,162.559 389.585,162.031 390.245,162.031L419.803,162.031C420.463,162.031 420.361,162.559 420.361,163.219C420.361,163.879 420.463,164.407 419.803,164.407Z" style="fill:rgb(224,158,1);fill-rule:nonzero;"/>
                <path d="M419.803,169.157L390.245,169.157C389.585,169.157 389.849,168.629 389.849,167.969C389.849,167.309 389.585,166.781 390.245,166.781L419.803,166.781C420.463,166.781 420.355,167.309 420.355,167.969C420.355,168.629 420.463,169.157 419.803,169.157Z" style="fill:rgb(243,172,1);fill-rule:nonzero;"/>
            </g>
            <path d="M405.42,82.726C402.781,82.726 400.802,80.615 400.802,78.109L400.802,61.087C400.802,58.448 402.913,56.469 405.42,56.469C408.059,56.469 410.038,58.579 410.038,61.087L410.038,78.109C410.17,80.615 408.059,82.726 405.42,82.726Z" style="fill:rgb(255,202,59);fill-rule:nonzero;"/>
            <path d="M377.445,93.019C376.257,93.019 375.07,92.623 374.146,91.699L362.138,79.692C360.291,77.844 360.291,74.942 362.138,73.094C363.985,71.246 366.888,71.246 368.736,73.094L380.744,85.101C382.591,86.949 382.591,89.851 380.744,91.699C379.82,92.491 378.633,93.019 377.445,93.019Z" style="fill:rgb(255,202,59);fill-rule:nonzero;"/>
            <path d="M433.526,93.019C432.338,93.019 431.151,92.623 430.227,91.699C428.38,89.852 428.38,86.949 430.227,85.101L442.235,73.094C444.082,71.246 446.985,71.246 448.833,73.094C450.68,74.941 450.68,77.844 448.833,79.692L436.825,91.699C435.902,92.491 434.714,93.019 433.526,93.019Z" style="fill:rgb(255,202,59);fill-rule:nonzero;"/>
            <path d="M405.42,57.524C403.441,57.524 401.857,59.106 401.857,61.087L401.857,78.109C401.857,80.088 403.44,81.672 405.42,81.672C407.399,81.672 408.983,80.089 408.983,78.109L408.983,61.087C408.983,59.106 407.399,57.524 405.42,57.524ZM405.42,83.914C402.253,83.914 399.614,81.276 399.614,78.109L399.614,61.087C399.614,57.92 402.253,55.281 405.42,55.281C408.587,55.281 411.226,57.92 411.226,61.087L411.226,78.109C411.358,81.276 408.719,83.914 405.42,83.914Z" style="fill:rgb(226,151,0);fill-rule:nonzero;"/>
            <path d="M365.437,72.699C364.513,72.699 363.59,73.094 362.93,73.755C362.27,74.414 361.874,75.338 361.874,76.261C361.874,77.185 362.27,78.109 362.93,78.768L374.938,90.777C376.258,92.096 378.633,92.096 379.952,90.777C380.612,90.116 381.008,89.194 381.008,88.269C381.008,87.345 380.612,86.423 379.952,85.762L367.944,73.754C367.153,73.094 366.229,72.699 365.437,72.699ZM377.445,94.207C375.862,94.207 374.41,93.548 373.354,92.492L361.347,80.484C360.291,79.428 359.632,77.844 359.632,76.392C359.632,74.809 360.292,73.358 361.347,72.302C363.59,70.058 367.285,70.058 369.66,72.302L381.668,84.309C382.724,85.365 383.383,86.817 383.383,88.401C383.383,89.984 382.723,91.435 381.668,92.491C380.48,93.548 379.029,94.207 377.445,94.207Z" style="fill:rgb(226,151,0);fill-rule:nonzero;"/>
            <path d="M445.534,72.699C444.61,72.699 443.687,73.094 443.027,73.755L431.019,85.762C430.359,86.423 429.963,87.345 429.963,88.269C429.963,89.194 430.359,90.116 431.019,90.777C432.339,92.096 434.714,92.096 436.033,90.777L448.041,78.768C448.701,78.109 449.097,77.185 449.097,76.261C449.097,75.338 448.701,74.414 448.041,73.755C447.382,73.094 446.458,72.699 445.534,72.699ZM433.526,94.207C431.943,94.207 430.491,93.548 429.435,92.492C428.379,91.436 427.72,89.853 427.72,88.402C427.72,86.949 428.38,85.366 429.435,84.31L441.443,72.303C443.686,70.059 447.381,70.059 449.756,72.303C450.812,73.359 451.471,74.809 451.471,76.393C451.471,77.977 450.811,79.428 449.756,80.485L437.748,92.492C436.561,93.548 435.11,94.207 433.526,94.207Z" style="fill:rgb(226,151,0);fill-rule:nonzero;"/>
            <g>
                <path d="M382.185,349.086L382.102,349.086C381.274,349.07 380.616,348.388 380.63,347.56C380.646,346.732 381.324,346.122 382.155,346.086C382.489,346.066 419.192,346.308 433.853,310.666C434.169,309.9 435.044,309.533 435.811,309.85C436.578,310.164 436.943,311.041 436.627,311.807C421.525,348.523 384.216,349.086 382.185,349.086Z" style="fill:rgb(255,247,226);fill-rule:nonzero;"/>
                <path d="M417.79,353.988C417.174,353.988 416.597,353.605 416.378,352.992C416.1,352.213 416.507,351.354 417.286,351.075C417.427,351.025 431.446,345.863 438.229,331.376C438.581,330.626 439.474,330.301 440.223,330.653C440.974,331.005 441.297,331.897 440.946,332.647C433.616,348.303 418.915,353.68 418.293,353.901C418.127,353.961 417.957,353.988 417.79,353.988Z" style="fill:rgb(255,247,226);fill-rule:nonzero;"/>
            </g>
        </g>
    </g>
</svg>
