<?xml version="1.0" encoding="UTF-8" standalone="no"?>
<!DOCTYPE svg PUBLIC "-//W3C//DTD SVG 1.1//EN" "http://www.w3.org/Graphics/SVG/1.1/DTD/svg11.dtd">
<svg width="100%" height="100%" viewBox="0 0 62 77" version="1.1" xmlns="http://www.w3.org/2000/svg" xmlns:xlink="http://www.w3.org/1999/xlink" xml:space="preserve" xmlns:serif="http://www.serif.com/" style="fill-rule:evenodd;clip-rule:evenodd;stroke-linejoin:round;stroke-miterlimit:2;">
    <g transform="matrix(0.158265,0,0,0.158265,-4,-2.94117)">
        <g transform="matrix(1.59313,0,0,1.59313,-154.254,-201.863)">
            <path d="M218.569,442.455L205.712,441.069L215.423,350.987L228.281,352.373L218.569,442.455Z" style="fill:rgb(255,239,200);fill-rule:nonzero;"/>
            <path d="M248.653,442.455L261.51,441.069L251.799,350.987L238.941,352.373L248.653,442.455Z" style="fill:rgb(255,234,182);fill-rule:nonzero;"/>
            <path d="M197.618,427.424C189.181,425.965 180.256,425.817 171.927,427.799C167.597,428.829 163.225,430.167 159.672,432.847C156.119,435.527 153.225,438.303 153.566,442.74L218.654,442.808C218.654,434.898 206.055,428.883 197.618,427.424Z" style="fill:rgb(255,239,200);fill-rule:nonzero;"/>
            <path d="M269.497,427.141C277.933,425.682 286.859,425.534 295.188,427.516C299.518,428.546 303.89,429.883 307.443,432.563C310.996,435.243 313.643,438.303 313.301,442.74L248.46,442.524C248.46,434.615 261.06,428.6 269.497,427.141Z" style="fill:rgb(255,239,200);fill-rule:nonzero;"/>
        </g>
        <path d="M19.657,275.771L25.665,278.621C25.665,278.621 28.059,273.577 33.344,275.974C36.089,277.218 36.655,279.672 36.58,281.31C36.493,283.213 35.434,284.925 33.843,285.973C32.027,287.17 29.069,287.638 25.359,285.003L21.176,293.82L27.117,296.639L28.637,293.433C28.637,293.433 37.991,295.233 42.348,286.05C46.517,277.265 39.606,271.486 36.233,269.886C33.654,268.662 24.573,265.117 19.657,275.771Z" style="fill:rgb(215,217,217);fill-rule:nonzero;"/>
        <path d="M23.431,304.592L17.401,301.732L20.073,296.101L26.102,298.961L23.431,304.592Z" style="fill:rgb(215,217,217);fill-rule:nonzero;"/>
        <path d="M78.001,373.25L84.787,375.169C84.787,375.169 86.398,369.471 92.349,371.044C95.439,371.861 96.464,374.326 96.675,376.052C96.92,378.057 96.115,380.035 94.637,381.412C92.949,382.984 89.939,383.996 85.594,381.896L82.777,391.855L89.487,393.753L90.511,390.133C90.511,390.133 100.611,390.361 103.544,379.99C106.351,370.067 98.103,365.245 94.294,364.168C91.381,363.344 81.259,361.241 78.001,373.25Z" style="fill:rgb(215,217,217);fill-rule:nonzero;"/>
        <path d="M87.038,402.721L80.228,400.795L82.027,394.434L88.837,396.36L87.038,402.721Z" style="fill:rgb(215,217,217);fill-rule:nonzero;"/>
        <path d="M17.509,345.995L30.632,344.58C30.632,344.58 29.444,333.562 40.874,332.13C46.81,331.386 50.313,334.949 51.888,337.799C53.716,341.107 53.701,345.104 52.099,348.528C50.269,352.438 45.751,356.3 36.738,355.695L38.814,374.953L51.791,373.554L51.036,366.553C51.036,366.553 68.729,359.886 66.566,339.83C64.497,320.639 46.808,318.038 39.441,318.832C33.808,319.439 14.765,322.87 17.509,345.995Z" style="fill:rgb(240,240,240);fill-rule:nonzero;"/>
        <path d="M53.813,390.835L40.643,392.255L39.317,379.955L52.487,378.536L53.813,390.835Z" style="fill:rgb(240,240,240);fill-rule:nonzero;"/>
        <path d="M380.913,78.13C380.913,99.742 363.392,117.262 341.779,117.262C320.167,117.262 302.646,99.742 302.646,78.13C302.646,56.517 320.167,38.996 341.779,38.996C363.392,38.996 380.913,56.517 380.913,78.13Z" style="fill:white;fill-rule:nonzero;"/>
        <path d="M380.913,78.13C380.913,78.13 380.884,77.915 380.854,77.496C380.826,77.059 380.786,76.442 380.734,75.639C380.71,75.229 380.683,74.773 380.653,74.271C380.6,73.77 380.493,73.227 380.405,72.637C380.311,72.046 380.21,71.411 380.102,70.733C380.02,70.048 379.766,69.354 379.59,68.599C378.901,65.577 377.487,62.006 375.256,58.22C373.007,54.451 369.763,50.513 365.345,47.17C364.79,46.757 364.229,46.339 363.661,45.916C363.069,45.528 362.446,45.173 361.83,44.794C361.201,44.436 360.605,44.001 359.93,43.696C359.264,43.376 358.59,43.053 357.909,42.727C357.568,42.565 357.225,42.403 356.881,42.24C356.523,42.109 356.163,41.978 355.801,41.847C355.078,41.583 354.348,41.317 353.61,41.049C352.866,40.803 352.088,40.645 351.317,40.435C350.539,40.259 349.774,39.985 348.962,39.902C347.353,39.674 345.727,39.343 344.042,39.334C343.203,39.305 342.357,39.223 341.505,39.236C340.654,39.28 339.795,39.325 338.931,39.369C338.499,39.399 338.063,39.397 337.631,39.454L336.334,39.653C335.468,39.797 334.588,39.898 333.717,40.079C332,40.546 330.222,40.894 328.531,41.601C326.786,42.159 325.146,43.021 323.459,43.83C322.638,44.276 321.851,44.794 321.038,45.277C320.64,45.532 320.215,45.749 319.836,46.036L318.691,46.894C317.111,47.979 315.728,49.336 314.281,50.643C312.973,52.09 311.599,53.506 310.471,55.149L309.577,56.346L308.794,57.625L308.012,58.912C307.74,59.336 307.492,59.774 307.288,60.238C306.85,61.148 306.41,62.062 305.968,62.98C305.618,63.936 305.266,64.896 304.913,65.859C303.646,69.761 302.963,73.906 302.907,78.124C302.962,82.343 303.643,86.489 304.91,90.393C305.263,91.357 305.615,92.317 305.965,93.273C306.407,94.191 306.847,95.105 307.285,96.016L307.617,96.696L308.01,97.342L308.791,98.63L309.574,99.91L310.468,101.106C311.596,102.749 312.97,104.166 314.279,105.614C315.726,106.921 317.109,108.279 318.69,109.364L319.835,110.221C320.214,110.509 320.639,110.726 321.037,110.981C321.85,111.464 322.637,111.982 323.458,112.428C325.145,113.237 326.786,114.099 328.531,114.658C330.222,115.364 332.001,115.713 333.718,116.18C334.589,116.36 335.469,116.462 336.335,116.606L337.632,116.805C338.064,116.862 338.501,116.859 338.932,116.889C339.797,116.934 340.655,116.979 341.507,117.023C342.359,117.036 343.205,116.954 344.044,116.925C345.729,116.916 347.355,116.584 348.964,116.356C349.776,116.273 350.541,115.999 351.32,115.823C352.09,115.613 352.869,115.455 353.613,115.209C354.35,114.941 355.08,114.675 355.804,114.411C356.165,114.28 356.525,114.149 356.884,114.018C357.228,113.855 357.571,113.692 357.912,113.531C358.592,113.204 359.266,112.881 359.933,112.562C360.607,112.256 361.203,111.821 361.832,111.463C362.448,111.084 363.072,110.729 363.663,110.341C364.231,109.918 364.792,109.5 365.347,109.087C369.765,105.744 373.009,101.806 375.257,98.037C377.488,94.251 378.902,90.68 379.591,87.658C379.767,86.904 380.021,86.21 380.102,85.525C380.21,84.847 380.311,84.212 380.405,83.621C380.493,83.031 380.6,82.488 380.653,81.987C380.683,81.486 380.71,81.03 380.734,80.62C380.786,79.817 380.826,79.2 380.854,78.763C380.884,78.344 380.913,78.13 380.913,78.13C380.913,78.13 380.92,78.344 380.907,78.764C380.891,79.202 380.869,79.821 380.839,80.626C380.822,81.038 380.803,81.496 380.782,82C380.738,82.503 380.638,83.049 380.558,83.643C380.471,84.237 380.378,84.876 380.278,85.559C380.204,86.248 379.957,86.948 379.787,87.708C379.125,90.753 377.731,94.358 375.508,98.186C373.266,101.997 370.016,105.986 365.57,109.38C365.012,109.799 364.447,110.223 363.875,110.653C363.28,111.047 362.652,111.408 362.031,111.794C361.398,112.157 360.797,112.598 360.117,112.91C359.444,113.235 358.765,113.564 358.078,113.896C357.734,114.061 357.389,114.226 357.041,114.392C356.68,114.525 356.316,114.659 355.951,114.793C355.221,115.062 354.484,115.333 353.74,115.607C352.988,115.858 352.202,116.021 351.424,116.235C350.637,116.415 349.864,116.694 349.044,116.781C347.418,117.016 345.773,117.355 344.069,117.37C343.221,117.401 342.366,117.485 341.504,117.474C340.642,117.432 339.774,117.389 338.899,117.346C338.462,117.317 338.021,117.32 337.584,117.264L336.271,117.065C335.394,116.922 334.503,116.82 333.621,116.64C331.882,116.171 330.081,115.82 328.367,115.109C326.6,114.546 324.937,113.677 323.228,112.859C322.395,112.409 321.597,111.886 320.773,111.398C320.369,111.141 319.939,110.921 319.555,110.63L318.394,109.764C316.792,108.666 315.389,107.294 313.922,105.97C312.594,104.507 311.202,103.071 310.057,101.408L309.151,100.197L308.356,98.901L307.563,97.596L307.166,96.942L306.829,96.253C306.384,95.331 305.937,94.404 305.489,93.475C305.134,92.505 304.777,91.533 304.419,90.556C303.132,86.601 302.442,82.398 302.386,78.124C302.442,73.85 303.135,69.649 304.422,65.695C304.78,64.719 305.137,63.747 305.492,62.778C305.94,61.849 306.387,60.923 306.831,60.001C307.038,59.531 307.291,59.088 307.566,58.658L308.359,57.354L309.154,56.059L310.06,54.847C311.204,53.184 312.597,51.75 313.924,50.286C315.391,48.963 316.794,47.591 318.396,46.494L319.556,45.627C319.94,45.337 320.371,45.117 320.774,44.86C321.598,44.372 322.396,43.849 323.228,43.399C324.937,42.582 326.6,41.713 328.367,41.15C330.081,40.439 331.882,40.087 333.62,39.619C334.502,39.439 335.393,39.337 336.27,39.194L337.583,38.995C338.02,38.939 338.461,38.942 338.898,38.913C339.772,38.87 340.641,38.827 341.502,38.784C342.364,38.773 343.219,38.857 344.067,38.889C345.771,38.903 347.415,39.242 349.041,39.478C349.861,39.565 350.635,39.843 351.421,40.023C352.199,40.237 352.986,40.4 353.737,40.651C354.481,40.925 355.219,41.196 355.949,41.464C356.314,41.599 356.677,41.733 357.039,41.866C357.386,42.032 357.732,42.197 358.076,42.361C358.762,42.693 359.442,43.022 360.114,43.348C360.794,43.659 361.395,44.1 362.029,44.464C362.65,44.849 363.277,45.21 363.873,45.604C364.444,46.034 365.01,46.458 365.568,46.877C370.014,50.27 373.264,54.259 375.506,58.071C377.73,61.899 379.124,65.504 379.787,68.55C379.956,69.31 380.204,70.01 380.278,70.699C380.378,71.382 380.471,72.021 380.558,72.615C380.638,73.209 380.738,73.755 380.782,74.258C380.803,74.762 380.822,75.221 380.839,75.632C380.869,76.438 380.891,77.057 380.907,77.495C380.92,77.915 380.913,78.13 380.913,78.13Z" style="fill:rgb(12,43,52);fill-rule:nonzero;"/>
        <g>
            <path d="M327.857,71.422L335.292,71.422C335.292,71.422 335.292,65.179 341.779,65.068C345.149,65.009 346.895,67.216 347.605,68.907C348.429,70.871 348.18,73.108 347.076,74.929C345.815,77.008 343.051,78.898 338.041,78.015L338.041,88.925L345.392,88.925L345.392,84.959C345.392,84.959 355.703,82.293 355.703,70.931C355.703,60.059 345.953,57.534 341.78,57.534C338.589,57.534 327.717,58.306 327.857,71.422Z" style="fill:rgb(12,43,52);fill-rule:nonzero;"/>
            <rect x="338.02" y="91.757" width="7.461" height="6.968" style="fill:rgb(12,43,52);fill-rule:nonzero;"/>
        </g>
        <path d="M329.474,124.218C329.474,127.6 326.732,130.342 323.35,130.342C319.968,130.342 317.226,127.6 317.226,124.218C317.226,120.836 319.968,118.095 323.35,118.095C326.732,118.095 329.474,120.836 329.474,124.218Z" style="fill:white;fill-rule:nonzero;"/>
        <path d="M329.474,124.218C329.419,124.221 329.437,123.673 329.184,122.748C328.933,121.84 328.312,120.515 326.943,119.497C325.621,118.477 323.447,117.908 321.346,118.692C320.311,119.068 319.324,119.774 318.624,120.75C317.903,121.712 317.499,122.945 317.487,124.217C317.499,125.49 317.903,126.724 318.624,127.686C319.324,128.662 320.311,129.369 321.346,129.744C323.448,130.529 325.622,129.96 326.944,128.939C328.312,127.922 328.934,126.596 329.184,125.689C329.437,124.764 329.419,124.215 329.474,124.218C329.492,124.218 329.503,124.353 329.506,124.612C329.515,124.87 329.486,125.255 329.381,125.738C329.183,126.69 328.59,128.112 327.167,129.232C325.793,130.354 323.467,131.019 321.182,130.195C320.057,129.801 318.98,129.044 318.213,127.989C317.424,126.947 316.977,125.602 316.966,124.217C316.977,122.834 317.425,121.488 318.213,120.447C318.98,119.392 320.057,118.635 321.182,118.241C323.467,117.418 325.793,118.083 327.167,119.204C328.59,120.325 329.183,121.746 329.381,122.698C329.486,123.181 329.515,123.566 329.506,123.825C329.503,124.084 329.492,124.218 329.474,124.218Z" style="fill:rgb(12,43,52);fill-rule:nonzero;"/>
        <path d="M331.247,260.571C341.424,295.103 343.806,331.651 337.681,367.164C336.925,371.55 338.851,376.051 343.443,377.313C347.414,378.404 352.83,375.966 353.592,371.551C360.228,333.075 358.206,293.672 347.157,256.185C344.162,246.022 328.233,250.348 331.247,260.571Z" style="fill:rgb(255,234,182);fill-rule:nonzero;"/>
        <g transform="matrix(1.02817,0,0,1.02817,-7.06986,-6.73754)">
            <path d="M374.545,218.583C369.856,202.482 356.925,189.373 341.535,185.121C344.631,173.604 339.728,160.305 333.637,150.217C327.546,140.129 316.551,132.875 305.383,131.025C293.786,129.103 286.587,130.149 275.35,133.745C268.642,120.898 255.749,113.931 241.979,112.281C228.208,110.631 213.378,118.381 207.797,131.82C205.8,117.691 189.878,109.313 176.734,112.502C163.589,115.69 153.607,127.353 147.453,140.065L324.031,330.017C339.682,336.257 358.989,329.763 368.377,315.102C377.766,300.44 376.326,279.034 365.069,265.932C375.522,253.233 379.234,234.684 374.545,218.583Z" style="fill:rgb(254,193,48);fill-rule:nonzero;"/>
            <path d="M85.983,164.108C91.251,149.366 100.898,138.185 115.639,132.086C130.505,125.936 147.285,125.843 163.127,128.641C169.621,129.789 176.293,131.533 181.299,135.826C186.305,140.118 189.116,147.603 186.231,153.533C199.965,145.779 217.78,145.833 231.466,153.671C245.153,161.508 254.216,176.845 254.479,192.614C268.789,191.47 283.807,194.633 295.161,203.418C306.515,212.203 313.538,227.077 310.966,241.2C320.323,240.383 329.296,246.406 334.277,254.369C339.259,262.331 340.886,271.925 341.548,281.294C341.957,287.077 342.016,293.033 340.084,298.5C339.144,301.16 337.744,303.668 337.133,306.423C336.392,309.757 336.853,313.22 336.955,316.633C337.429,332.423 329.57,348.227 316.693,357.378C303.817,366.528 286.307,368.753 271.551,363.113C255.162,380.033 225.792,382.142 207.154,367.736C195.028,371.804 182.184,374.735 169.499,373.103C163.028,372.271 156.629,370.122 151.101,366.629C146.035,363.428 143.13,357.242 138.36,354.312C135.072,352.291 131.491,352.836 127.821,353.38C126.053,353.642 124.265,353.905 122.478,353.88C116.063,353.794 109.656,352.217 103.969,349.238C93.123,343.557 85.054,332.966 82.107,321.083C81.511,318.676 81.068,316.122 79.552,314.16C78.165,312.365 76.062,311.307 74.103,310.164C61.886,303.037 53.081,290.327 50.702,276.385C48.323,262.444 52.415,247.532 61.576,236.758C61.576,236.758 52.327,213.036 61.03,191.79C69.733,170.545 85.983,164.108 85.983,164.108Z" style="fill:rgb(254,193,48);fill-rule:nonzero;"/>
        </g>
        <g>
            <path d="M374.545,218.583C369.856,202.482 356.925,189.373 341.535,185.121C344.631,173.604 339.728,160.305 333.637,150.217C327.546,140.129 316.551,132.875 305.383,131.025C293.786,129.103 286.587,130.149 275.35,133.745C268.642,120.898 255.749,113.931 241.979,112.281C228.208,110.631 213.378,118.381 207.797,131.82C205.8,117.691 189.878,109.313 176.734,112.502C163.589,115.69 153.607,127.353 147.453,140.065L324.031,330.017C339.682,336.257 358.989,329.763 368.377,315.102C377.766,300.44 376.326,279.034 365.069,265.932C375.522,253.233 379.234,234.684 374.545,218.583Z" style="fill:rgb(255,210,106);fill-rule:nonzero;"/>
            <path d="M85.983,164.108C91.251,149.366 100.898,138.185 115.639,132.086C130.505,125.936 147.285,125.843 163.127,128.641C169.621,129.789 176.293,131.533 181.299,135.826C186.305,140.118 189.116,147.603 186.231,153.533C199.965,145.779 217.78,145.833 231.466,153.671C245.153,161.508 254.216,176.845 254.479,192.614C268.789,191.47 283.807,194.633 295.161,203.418C306.515,212.203 313.538,227.077 310.966,241.2C320.323,240.383 329.296,246.406 334.277,254.369C339.259,262.331 340.886,271.925 341.548,281.294C341.957,287.077 342.016,293.033 340.084,298.5C339.144,301.16 337.744,303.668 337.133,306.423C336.392,309.757 336.853,313.22 336.955,316.633C337.429,332.423 329.57,348.227 316.693,357.378C303.817,366.528 286.307,368.753 271.551,363.113C255.162,380.033 225.792,382.142 207.154,367.736C195.028,371.804 182.184,374.735 169.499,373.103C163.028,372.271 156.629,370.122 151.101,366.629C146.035,363.428 143.13,357.242 138.36,354.312C135.072,352.291 131.491,352.836 127.821,353.38C126.053,353.642 124.265,353.905 122.478,353.88C116.063,353.794 109.656,352.217 103.969,349.238C93.123,343.557 85.054,332.966 82.107,321.083C81.511,318.676 81.068,316.122 79.552,314.16C78.165,312.365 76.062,311.307 74.103,310.164C61.886,303.037 53.081,290.327 50.702,276.385C48.323,262.444 52.415,247.532 61.576,236.758C61.576,236.758 52.327,213.036 61.03,191.79C69.733,170.545 85.983,164.108 85.983,164.108Z" style="fill:rgb(255,210,106);fill-rule:nonzero;"/>
        </g>
        <path d="M213.195,371.654C211.075,370.524 209.045,369.223 207.126,367.746C207.135,367.742 207.144,367.74 207.154,367.736C209.064,369.213 211.086,370.515 213.196,371.646L213.195,371.654ZM156.08,369.316C154.326,368.521 152.627,367.61 151.003,366.584C145.938,363.384 143.032,357.198 138.262,354.267C137.943,354.071 137.621,353.899 137.296,353.749C137.654,353.909 138.009,354.096 138.36,354.312C143.13,357.242 146.035,363.428 151.101,366.629C152.695,367.636 154.361,368.531 156.08,369.316ZM105.884,350.176C105.204,349.868 104.533,349.54 103.871,349.194C93.025,343.513 84.956,332.922 82.01,321.038C81.413,318.631 80.971,316.078 79.454,314.116C78.067,312.321 75.964,311.262 74.005,310.119C61.788,302.993 52.983,290.282 50.604,276.341C49.658,270.802 49.751,265.113 50.76,259.588C50.776,259.669 50.791,259.749 50.806,259.829C49.831,265.291 49.768,270.913 50.702,276.385C53.081,290.327 61.886,303.037 74.103,310.164C76.062,311.307 78.165,312.365 79.552,314.16C81.068,316.122 81.511,318.676 82.107,321.083C85.054,332.966 93.123,343.557 103.969,349.238C104.599,349.568 105.237,349.881 105.884,350.176ZM336.487,333.008C335.833,333.008 335.178,332.99 334.525,332.954C334.593,332.748 334.661,332.54 334.726,332.334C335.344,332.366 335.965,332.382 336.584,332.382C338.053,332.382 339.523,332.292 340.985,332.115C340.982,332.318 340.978,332.527 340.974,332.73C339.484,332.914 337.984,333.008 336.487,333.008ZM357.385,326.684C357.384,326.498 357.384,326.309 357.383,326.122C361.715,323.298 365.509,319.581 368.377,315.102C371.215,310.671 373.063,305.624 373.95,300.377C373.109,305.849 371.23,311.123 368.28,315.731C365.433,320.175 361.676,323.869 357.385,326.684Z" style="fill:rgb(168,171,171);fill-rule:nonzero;"/>
        <path d="M336.584,332.382C335.965,332.382 335.344,332.366 334.726,332.334C336.33,327.268 337.115,321.95 336.955,316.633C336.944,316.246 336.928,315.858 336.909,315.47C349.131,315.327 361.382,308.967 368.28,298.196C370.874,294.144 372.638,289.576 373.599,284.812C374.614,289.919 374.741,295.236 373.95,300.377C373.063,305.624 371.215,310.671 368.377,315.102C365.509,319.581 361.715,323.298 357.383,326.122C352.428,329.352 346.77,331.414 340.985,332.115C339.523,332.292 338.053,332.382 336.584,332.382Z" style="fill:rgb(255,210,106);fill-rule:nonzero;"/>
        <path d="M215.67,372.877C214.834,372.495 214.007,372.086 213.195,371.654L213.196,371.646C214.008,372.082 214.833,372.492 215.67,372.877Z" style="fill:rgb(1,23,33);fill-rule:nonzero;"/>
        <path d="M236.324,377.262C229.206,377.262 222.102,375.816 215.67,372.877C214.833,372.492 214.008,372.082 213.196,371.646C211.086,370.515 209.064,369.213 207.154,367.736C207.144,367.74 207.135,367.742 207.126,367.746C207.103,367.728 207.079,367.709 207.056,367.692C197.267,370.975 187.01,373.518 176.746,373.518C174.296,373.518 171.845,373.373 169.401,373.059C164.831,372.471 160.297,371.227 156.08,369.316C154.361,368.531 152.695,367.636 151.101,366.629C146.035,363.428 143.13,357.242 138.36,354.312C138.009,354.096 137.654,353.909 137.296,353.749C135.818,353.065 134.287,352.834 132.719,352.834C131.086,352.834 129.414,353.085 127.723,353.336C126.032,353.586 124.321,353.837 122.612,353.837C122.535,353.837 122.457,353.837 122.38,353.836C116.711,353.759 111.049,352.519 105.884,350.176C105.237,349.881 104.599,349.568 103.969,349.238C93.123,343.557 85.054,332.966 82.107,321.083C81.511,318.676 81.068,316.122 79.552,314.16C78.165,312.365 76.062,311.307 74.103,310.164C61.886,303.037 53.081,290.327 50.702,276.385C49.768,270.913 49.831,265.291 50.806,259.829C53.433,273.366 62.089,285.633 74.005,292.584C75.964,293.727 78.067,294.786 79.454,296.581C80.971,298.543 81.413,301.096 82.01,303.503C84.956,315.387 93.025,325.978 103.871,331.659C109.559,334.638 115.965,336.214 122.38,336.301C122.457,336.302 122.534,336.302 122.612,336.302C124.321,336.302 126.032,336.051 127.723,335.801C129.414,335.55 131.086,335.299 132.719,335.299C134.079,335.299 135.413,335.473 136.708,335.966C136.787,337.154 136.913,338.322 137.08,339.461C137.418,341.61 137.904,343.654 138.469,345.57C139.638,349.392 141.138,352.677 142.581,355.321C144.023,357.969 145.356,360.014 146.32,361.393C146.792,362.09 147.194,362.606 147.456,362.963C147.715,363.307 147.862,363.488 147.883,363.488C147.883,363.488 147.884,363.488 147.884,363.487C147.899,363.477 147.781,363.276 147.542,362.903C147.272,362.487 146.923,361.949 146.489,361.28C145.578,359.87 144.298,357.803 142.907,355.148C141.513,352.498 140.061,349.223 138.929,345.433C138.383,343.533 137.912,341.51 137.585,339.385C137.435,338.341 137.32,337.274 137.242,336.189C137.585,336.345 137.925,336.525 138.262,336.732C143.032,339.663 145.938,345.848 151.003,349.049C156.531,352.542 162.93,354.692 169.401,355.524C171.846,355.838 174.296,355.983 176.747,355.983C187.01,355.983 201.513,348.841 211.301,345.558C219.622,351.989 227.958,349.115 238.447,349.114C251.452,349.113 262.381,354.899 271.453,345.533C276.863,347.601 282.642,348.612 288.428,348.611C298.424,348.611 308.44,345.594 316.595,339.798C324.947,333.863 331.185,325.127 334.411,315.412C335.102,315.453 335.794,315.473 336.487,315.473C336.627,315.473 336.769,315.472 336.909,315.47C336.928,315.858 336.944,316.246 336.955,316.633C337.115,321.95 336.33,327.268 334.726,332.334C334.661,332.54 334.593,332.748 334.525,332.954C334.487,332.952 334.449,332.949 334.411,332.947C331.185,342.662 324.947,351.398 316.595,357.333C308.439,363.129 298.425,366.146 288.428,366.146C282.643,366.146 276.862,365.136 271.453,363.068C262.38,372.435 249.33,377.262 236.324,377.262Z" style="fill:rgb(255,210,106);fill-rule:nonzero;"/>
        <g>
            <g>
                <path d="M154.919,269.124C154.903,269.133 154.768,268.948 154.524,268.59C154.269,268.24 153.956,267.681 153.455,267.03C152.512,265.688 151.01,263.833 148.88,261.824C146.756,259.811 143.932,257.709 140.473,255.974C137.024,254.235 132.91,252.931 128.47,252.49C124.026,252.101 119.741,252.622 116.029,253.692C112.308,254.757 109.144,256.301 106.684,257.886C104.219,259.467 102.4,261.011 101.225,262.156C100.612,262.703 100.202,263.194 99.885,263.491C99.58,263.798 99.412,263.954 99.399,263.942C99.385,263.93 99.526,263.751 99.807,263.42C100.099,263.1 100.488,262.584 101.082,262.011C102.221,260.816 104.018,259.214 106.484,257.577C108.944,255.935 112.131,254.336 115.896,253.231C119.651,252.121 124.001,251.576 128.52,251.971C133.031,252.419 137.205,253.759 140.689,255.545C144.184,257.329 147.02,259.488 149.133,261.557C151.254,263.622 152.724,265.529 153.622,266.914C154.1,267.588 154.387,268.166 154.614,268.535C154.829,268.913 154.935,269.115 154.919,269.124Z" style="fill:rgb(196,138,1);fill-rule:nonzero;"/>
                <path d="M168.832,328.352C168.823,328.351 168.825,328.232 168.837,327.998C168.854,327.737 168.877,327.394 168.905,326.959C168.942,326.492 168.987,325.93 169.04,325.271C169.146,324.604 169.269,323.842 169.406,322.988C169.721,321.277 170.25,319.209 171.064,316.871C171.955,314.568 173.043,311.949 174.714,309.311C177.946,304.025 183.049,298.264 190.348,294.31C193.969,292.326 198.128,290.881 202.57,290.196C207.009,289.503 211.722,289.552 216.412,290.388C225.807,292.095 234.059,296.9 239.578,303.036C245.164,309.152 248.063,316.394 248.734,322.583C249.436,328.827 248.051,333.88 246.699,337.055C245.305,340.258 244.042,341.747 244.042,341.747C244.034,341.742 244.092,341.636 244.213,341.436C244.349,341.213 244.527,340.92 244.754,340.55C245.204,339.757 245.862,338.581 246.511,336.978C247.797,333.803 249.109,328.787 248.368,322.626C247.659,316.517 244.76,309.382 239.223,303.358C233.756,297.319 225.6,292.587 216.318,290.9C211.685,290.075 207.032,290.023 202.649,290.7C198.263,291.37 194.16,292.784 190.576,294.732C183.354,298.613 178.271,304.288 175.027,309.504C173.35,312.107 172.248,314.695 171.337,316.971C170.503,319.283 169.948,321.33 169.605,323.026C169.451,323.874 169.313,324.63 169.193,325.291C169.121,325.946 169.06,326.504 169.01,326.968C168.96,327.4 168.921,327.741 168.891,328.001C168.861,328.233 168.841,328.352 168.832,328.352Z" style="fill:rgb(196,138,1);fill-rule:nonzero;"/>
                <path d="M298.506,339.785C298.514,339.802 298.365,339.885 298.074,340.028C297.777,340.16 297.358,340.403 296.774,340.609C295.63,341.078 293.899,341.6 291.697,341.887C289.499,342.179 286.817,342.156 283.938,341.536C281.066,340.924 278.012,339.652 275.281,337.614C272.578,335.538 270.524,332.943 269.156,330.344C267.779,327.741 267.028,325.165 266.714,322.97C266.393,320.773 266.426,318.965 266.567,317.737C266.607,317.12 266.727,316.65 266.773,316.329C266.833,316.01 266.872,315.844 266.89,315.847C267.038,315.849 266.35,318.579 267.078,322.911C267.433,325.064 268.207,327.579 269.579,330.117C270.942,332.651 272.96,335.174 275.596,337.199C278.258,339.185 281.233,340.443 284.042,341.067C286.856,341.7 289.487,341.763 291.655,341.521C296.023,341.046 298.464,339.644 298.506,339.785Z" style="fill:rgb(196,138,1);fill-rule:nonzero;"/>
                <path d="M146.638,146.332C146.602,146.326 146.657,145.869 146.787,145.044C146.906,144.218 147.16,143.034 147.547,141.592C147.926,140.147 148.497,138.457 149.241,136.625C150.009,134.803 150.964,132.845 152.132,130.883C153.317,128.93 154.599,127.167 155.848,125.634C157.118,124.118 158.342,122.821 159.441,121.808C160.533,120.79 161.459,120.011 162.132,119.518C162.8,119.017 163.178,118.754 163.2,118.782C163.261,118.859 161.8,119.985 159.697,122.073C158.64,123.111 157.456,124.421 156.22,125.937C155.005,127.47 153.75,129.221 152.579,131.151C151.424,133.091 150.467,135.02 149.683,136.812C148.923,138.614 148.322,140.274 147.901,141.694C147.043,144.531 146.733,146.35 146.638,146.332Z" style="fill:rgb(196,138,1);fill-rule:nonzero;"/>
                <path d="M107.571,161.652C107.545,161.755 105.774,161.239 102.84,160.93C101.374,160.764 99.615,160.712 97.671,160.791C95.728,160.904 93.599,161.169 91.41,161.673C89.225,162.202 87.202,162.917 85.413,163.685C83.639,164.485 82.089,165.318 80.853,166.122C78.367,167.711 77.014,168.964 76.945,168.883C76.921,168.857 77.248,168.535 77.864,167.975C78.168,167.689 78.551,167.353 79.027,167.001C79.499,166.644 80.018,166.21 80.651,165.814C81.876,164.961 83.428,164.082 85.217,163.247C87.021,162.444 89.071,161.703 91.29,161.167C93.513,160.654 95.678,160.4 97.65,160.311C99.624,160.258 101.406,160.35 102.882,160.564C103.625,160.635 104.284,160.791 104.866,160.899C105.449,161.001 105.942,161.131 106.342,161.25C107.143,161.476 107.58,161.617 107.571,161.652Z" style="fill:rgb(196,138,1);fill-rule:nonzero;"/>
                <path d="M107.571,244.602C107.582,244.616 107.447,244.74 107.179,244.963C106.905,245.178 106.523,245.528 105.975,245.901C104.909,246.689 103.272,247.715 101.109,248.703C98.949,249.695 96.232,250.585 93.116,251.058C90.007,251.535 86.494,251.542 82.919,250.851C79.349,250.122 76.106,248.772 73.415,247.141C70.716,245.512 68.546,243.65 66.931,241.908C65.31,240.167 64.19,238.594 63.506,237.458C63.143,236.904 62.924,236.434 62.753,236.131C62.591,235.822 62.513,235.656 62.529,235.648C62.569,235.625 62.942,236.256 63.676,237.348C64.407,238.442 65.562,239.966 67.197,241.653C68.826,243.342 70.991,245.148 73.66,246.729C76.323,248.312 79.516,249.624 83.02,250.34C86.531,251.018 89.981,251.027 93.047,250.583C96.118,250.143 98.808,249.303 100.96,248.366C103.116,247.432 104.766,246.466 105.86,245.734C106.957,245.006 107.542,244.566 107.571,244.602Z" style="fill:rgb(196,138,1);fill-rule:nonzero;"/>
                <path d="M83.041,291.46C83.136,291.5 82.351,293.24 81.53,296.19C81.11,297.661 80.735,299.447 80.442,301.445C80.181,303.449 80.019,305.668 80.059,307.999C80.122,310.331 80.381,312.541 80.731,314.531C81.112,316.515 81.565,318.283 82.05,319.734C83,322.644 83.861,324.348 83.768,324.392C83.736,324.408 83.506,323.991 83.117,323.221C82.918,322.838 82.687,322.362 82.46,321.793C82.229,321.225 81.937,320.588 81.701,319.852C81.167,318.402 80.671,316.624 80.26,314.621C79.88,312.612 79.602,310.373 79.538,308.011C79.498,305.648 79.676,303.4 79.968,301.377C80.29,299.357 80.707,297.559 81.176,296.087C81.38,295.341 81.643,294.692 81.849,294.115C82.051,293.536 82.26,293.051 82.443,292.659C82.797,291.872 83.008,291.446 83.041,291.46Z" style="fill:rgb(196,138,1);fill-rule:nonzero;"/>
                <path d="M147.884,363.487C147.87,363.498 147.723,363.317 147.456,362.963C147.194,362.606 146.792,362.09 146.32,361.393C145.356,360.014 144.023,357.969 142.581,355.321C141.138,352.677 139.638,349.392 138.469,345.57C137.904,343.654 137.418,341.61 137.08,339.461C136.764,337.309 136.598,335.057 136.606,332.751C136.658,323.496 139.221,315.342 141.839,309.938C143.14,307.216 144.396,305.119 145.333,303.72C145.786,303.01 146.19,302.494 146.445,302.132C146.707,301.775 146.852,301.593 146.867,301.603C146.881,301.614 146.765,301.816 146.531,302.192C146.305,302.572 145.929,303.105 145.504,303.829C144.623,305.256 143.422,307.37 142.173,310.093C139.657,315.502 137.178,323.591 137.127,332.754C137.119,335.034 137.279,337.257 137.585,339.385C137.912,341.51 138.383,343.533 138.929,345.433C140.061,349.223 141.513,352.498 142.907,355.148C144.298,357.803 145.578,359.87 146.489,361.28C146.923,361.949 147.272,362.487 147.542,362.903C147.781,363.276 147.899,363.477 147.884,363.487Z" style="fill:rgb(196,138,1);fill-rule:nonzero;"/>
                <path d="M137.82,321.179C137.831,321.201 137.457,321.421 136.7,321.59C135.948,321.765 134.799,321.809 133.446,321.513C132.088,321.233 130.563,320.596 128.964,319.747C127.363,318.892 125.702,317.76 124.14,316.364C120.99,313.573 118.944,310.281 117.835,307.788C117.289,306.531 116.938,305.479 116.738,304.742C116.55,304 116.464,303.588 116.498,303.579C116.596,303.55 116.997,305.196 118.169,307.632C119.348,310.051 121.4,313.24 124.486,315.975C126.018,317.344 127.636,318.464 129.192,319.326C130.753,320.183 132.228,320.839 133.53,321.155C135.18,321.591 136.444,321.45 137.16,321.309C137.587,321.225 137.818,321.141 137.82,321.179Z" style="fill:rgb(196,138,1);fill-rule:nonzero;"/>
                <path d="M210.23,369.358C210.211,369.388 209.886,369.219 209.313,368.886C208.735,368.559 207.931,368.034 206.966,367.342C205.04,365.959 202.529,363.799 200.228,360.983C197.934,358.16 196.326,355.264 195.361,353.098C194.878,352.014 194.526,351.12 194.323,350.488C194.112,349.859 194.013,349.507 194.046,349.494C194.13,349.463 194.651,350.831 195.694,352.94C196.736,355.047 198.371,357.871 200.632,360.654C202.901,363.43 205.335,365.602 207.188,367.048C209.043,368.495 210.278,369.282 210.23,369.358Z" style="fill:rgb(196,138,1);fill-rule:nonzero;"/>
                <path d="M277.344,338.186C277.38,338.185 277.416,338.562 277.448,339.243C277.483,339.925 277.505,340.912 277.501,342.132C277.482,344.567 277.367,347.969 276.535,351.629C275.705,355.295 274.178,358.383 272.869,360.445C272.2,361.47 271.63,362.281 271.19,362.805C270.762,363.338 270.512,363.621 270.484,363.599C270.406,363.541 271.323,362.341 272.554,360.254C273.769,358.164 275.211,355.116 276.027,351.512C276.846,347.912 277.021,344.548 277.133,342.123C277.231,339.694 277.266,338.186 277.344,338.186Z" style="fill:rgb(196,138,1);fill-rule:nonzero;"/>
                <path d="M319.669,286.484C319.678,286.468 319.839,286.545 320.14,286.706C320.436,286.872 320.886,287.101 321.434,287.446C322.52,288.149 324.062,289.245 325.684,290.915C327.301,292.582 328.98,294.826 330.36,297.576C331.05,298.951 331.659,300.447 332.208,302.025C332.731,303.612 333.182,305.283 333.552,307.014C334.979,313.967 334.907,320.417 334.776,325.022C334.698,327.331 334.584,329.196 334.499,330.484C334.455,331.078 334.418,331.568 334.389,331.966C334.358,332.305 334.333,332.483 334.315,332.482C334.297,332.481 334.287,332.302 334.284,331.962C334.287,331.563 334.291,331.072 334.297,330.475C334.324,329.108 334.362,327.261 334.408,325.013C334.445,320.416 334.456,314.001 333.042,307.121C332.676,305.408 332.234,303.756 331.724,302.187C331.188,300.628 330.598,299.149 329.93,297.79C328.595,295.07 326.977,292.843 325.417,291.169C323.854,289.491 322.365,288.364 321.322,287.615C320.254,286.902 319.649,286.52 319.669,286.484Z" style="fill:rgb(196,138,1);fill-rule:nonzero;"/>
                <path d="M307.981,297.571C307.96,297.542 308.327,297.229 309.007,296.69C309.691,296.158 310.661,295.36 311.832,294.347C314.177,292.325 317.252,289.334 320.199,285.642C323.139,281.943 325.367,278.276 326.814,275.539C327.539,274.171 328.099,273.047 328.465,272.261C328.838,271.478 329.061,271.051 329.094,271.064C329.127,271.078 328.968,271.532 328.651,272.343C328.341,273.157 327.829,274.31 327.141,275.707C325.771,278.503 323.572,282.236 320.607,285.967C317.634,289.69 314.488,292.668 312.069,294.629C310.861,295.612 309.852,296.368 309.128,296.852C308.408,297.343 308.001,297.6 307.981,297.571Z" style="fill:rgb(196,138,1);fill-rule:nonzero;"/>
                <path d="M301.963,160.994C301.979,160.986 302.054,161.116 302.182,161.371C302.304,161.628 302.506,161.999 302.707,162.502C303.139,163.496 303.675,164.977 304.141,166.863C305.087,170.609 305.544,176.133 304.041,181.914C302.539,187.697 299.449,192.3 296.799,195.111C295.474,196.531 294.284,197.564 293.423,198.221C293.003,198.563 292.646,198.789 292.414,198.954C292.178,199.114 292.049,199.191 292.039,199.177C292.013,199.142 292.48,198.768 293.294,198.065C294.111,197.364 295.251,196.299 296.526,194.864C299.077,192.021 302.06,187.465 303.537,181.783C305.013,176.103 304.626,170.671 303.782,166.946C303.367,165.072 302.89,163.586 302.518,162.576C302.149,161.565 301.924,161.011 301.963,160.994Z" style="fill:rgb(196,138,1);fill-rule:nonzero;"/>
                <path d="M319.669,170.856C319.667,170.947 318.674,170.928 317.106,171.158C315.54,171.383 313.404,171.938 311.255,173.036C309.11,174.143 307.414,175.556 306.319,176.697C305.218,177.837 304.655,178.655 304.58,178.604C304.534,178.578 304.992,177.679 306.048,176.448C307.095,175.218 308.808,173.712 311.017,172.573C313.23,171.442 315.451,170.928 317.062,170.793C318.677,170.652 319.674,170.804 319.669,170.856Z" style="fill:rgb(196,138,1);fill-rule:nonzero;"/>
                <path d="M351.937,279.684C351.92,279.678 351.987,279.433 352.129,278.975C352.259,278.513 352.517,277.854 352.746,276.973C353.263,275.23 353.876,272.662 354.27,269.439C354.664,266.22 354.781,262.329 354.249,258.071C353.743,253.819 352.557,249.199 350.494,244.705C349.453,242.462 348.248,240.364 346.944,238.431C345.617,236.513 344.188,234.771 342.736,233.194C339.778,230.091 336.717,227.683 333.944,225.999C331.176,224.305 328.774,223.206 327.072,222.57C326.236,222.209 325.551,222.027 325.106,221.849C324.654,221.686 324.419,221.592 324.424,221.575C324.429,221.557 324.674,221.617 325.137,221.748C325.594,221.894 326.291,222.046 327.143,222.38C328.875,222.961 331.319,224.016 334.136,225.684C336.958,227.343 340.075,229.745 343.085,232.865C344.562,234.45 346.016,236.205 347.365,238.142C348.69,240.094 349.913,242.217 350.967,244.487C353.055,249.037 354.24,253.715 354.725,258.014C355.236,262.32 355.08,266.246 354.635,269.486C354.191,272.728 353.518,275.3 352.94,277.032C352.68,277.908 352.39,278.559 352.228,279.011C352.053,279.459 351.954,279.69 351.937,279.684Z" style="fill:rgb(196,138,1);fill-rule:nonzero;"/>
                <path d="M351.876,215.672C351.932,215.685 351.781,216.656 351.264,218.154C350.749,219.649 349.817,221.658 348.398,223.627C346.978,225.596 345.365,227.115 344.096,228.062C342.828,229.015 341.944,229.447 341.915,229.397C341.803,229.26 345.212,227.225 347.976,223.322C350.789,219.462 351.709,215.607 351.876,215.672Z" style="fill:rgb(196,138,1);fill-rule:nonzero;"/>
                <path d="M246.798,133.745C246.832,133.734 246.974,134.103 247.201,134.784C247.32,135.123 247.452,135.542 247.565,136.039C247.682,136.535 247.843,137.095 247.937,137.731C248.184,138.993 248.343,140.521 248.388,142.222C248.405,143.923 248.291,145.797 247.965,147.735C247.618,149.671 247.093,151.474 246.504,153.07C245.887,154.656 245.222,156.041 244.564,157.145C244.261,157.712 243.921,158.186 243.643,158.613C243.369,159.043 243.104,159.393 242.877,159.672C242.434,160.236 242.176,160.536 242.147,160.514C242.066,160.454 243.04,159.202 244.242,156.966C244.851,155.853 245.471,154.473 246.054,152.904C246.609,151.324 247.111,149.549 247.452,147.646C247.772,145.741 247.898,143.901 247.909,142.227C247.89,140.553 247.771,139.045 247.574,137.791C247.196,135.281 246.702,133.774 246.798,133.745Z" style="fill:rgb(196,138,1);fill-rule:nonzero;"/>
                <path d="M168.832,328.352C168.823,328.351 168.825,328.232 168.837,327.998C168.842,327.929 168.847,327.855 168.852,327.775C168.873,327.779 168.894,327.783 168.915,327.786C168.906,327.863 168.898,327.935 168.891,328.001C168.861,328.233 168.841,328.352 168.832,328.352ZM246.564,315.274C245.543,312.533 244.112,309.756 242.238,307.098C242.32,307.043 242.403,306.988 242.486,306.932C242.532,306.902 242.578,306.872 242.624,306.842C244.436,309.436 245.831,312.142 246.84,314.817C246.749,314.975 246.657,315.127 246.564,315.274Z" style="fill:rgb(196,138,1);fill-rule:nonzero;"/>
                <path d="M137.143,334.169C136.968,334.063 136.79,333.954 136.615,333.846C136.608,333.482 136.605,333.117 136.606,332.751C136.644,325.942 138.041,319.73 139.82,314.77C139.937,314.871 140.056,314.972 140.175,315.073C138.487,319.985 137.164,326.085 137.127,332.754C137.125,333.228 137.131,333.7 137.143,334.169Z" style="fill:rgb(196,138,1);fill-rule:nonzero;"/>
                <path d="M135.357,321.728C134.793,321.728 134.147,321.666 133.446,321.513C132.088,321.233 130.563,320.596 128.964,319.747C127.363,318.892 125.702,317.76 124.14,316.364C120.99,313.573 118.944,310.281 117.835,307.788C117.289,306.531 116.938,305.479 116.738,304.742C116.55,304 116.464,303.588 116.498,303.579L116.501,303.579C116.603,303.579 117.007,305.217 118.169,307.632C119.348,310.051 121.4,313.24 124.486,315.975C126.018,317.344 127.636,318.464 129.192,319.326C130.753,320.183 132.228,320.839 133.53,321.155C134.364,321.376 135.1,321.449 135.716,321.449C136.318,321.449 136.806,321.379 137.16,321.309C137.514,321.239 137.733,321.169 137.799,321.169C137.812,321.169 137.819,321.172 137.82,321.179C137.831,321.201 137.457,321.421 136.7,321.59C136.337,321.675 135.882,321.728 135.357,321.728Z" style="fill:rgb(196,138,1);fill-rule:nonzero;"/>
            </g>
            <path d="M173.463,147.129C173.441,147.174 172.687,146.811 171.289,146.261C169.893,145.705 167.808,145.044 165.164,144.595C162.523,144.14 159.3,143.989 155.789,144.464C152.283,144.932 148.502,146.097 144.951,148.113C141.424,150.175 138.52,152.863 136.357,155.662C134.184,158.462 132.699,161.326 131.769,163.839C130.83,166.352 130.358,168.487 130.139,169.973C129.912,171.459 129.85,172.293 129.8,172.289C129.782,172.288 129.783,172.08 129.8,171.682C129.832,171.286 129.824,170.694 129.938,169.945C130.097,168.44 130.518,166.272 131.423,163.712C132.321,161.152 133.791,158.228 135.977,155.368C138.152,152.51 141.097,149.762 144.691,147.662C148.309,145.607 152.162,144.437 155.725,143.989C159.295,143.532 162.562,143.725 165.227,144.232C167.896,144.733 169.983,145.456 171.365,146.073C172.07,146.35 172.578,146.655 172.936,146.826C173.29,147.009 173.471,147.113 173.463,147.129Z" style="fill:rgb(196,138,1);fill-rule:nonzero;"/>
            <path d="M217.161,208.996C217.143,208.993 217.16,208.697 217.208,208.136C217.234,207.841 217.266,207.497 217.302,207.1C217.349,206.692 217.392,206.221 217.373,205.686C217.466,203.561 217.23,200.446 216.176,196.791C215.961,195.862 215.541,194.951 215.2,193.973C214.823,193.007 214.327,192.044 213.845,191.039C213.263,190.085 212.762,189.036 212.044,188.084C211.7,187.599 211.371,187.092 211.002,186.605C210.613,186.133 210.218,185.655 209.819,185.171C208.15,183.307 206.261,181.432 203.967,179.943C201.702,178.428 199.15,177.163 196.378,176.329C193.589,175.555 190.755,175.262 188.03,175.335C185.294,175.37 182.696,175.948 180.29,176.634C179.693,176.831 179.105,177.024 178.523,177.216C177.951,177.43 177.402,177.684 176.853,177.911C175.737,178.333 174.754,178.953 173.753,179.449C172.808,180.042 171.875,180.592 171.041,181.207C170.23,181.853 169.389,182.399 168.712,183.07C165.87,185.599 164.009,188.108 162.953,189.954C162.652,190.397 162.437,190.818 162.259,191.188C162.078,191.543 161.921,191.851 161.787,192.114C161.527,192.614 161.383,192.874 161.367,192.867C161.35,192.86 161.462,192.586 161.691,192.07C161.813,191.8 161.956,191.483 162.121,191.118C162.286,190.738 162.488,190.306 162.778,189.853C163.788,187.961 165.621,185.39 168.468,182.795C169.145,182.107 169.989,181.545 170.805,180.882C171.644,180.251 172.583,179.684 173.537,179.075C174.546,178.564 175.539,177.928 176.668,177.492C177.224,177.258 177.78,176.997 178.359,176.776C178.948,176.578 179.545,176.378 180.149,176.176C182.588,175.466 185.227,174.868 188.012,174.825C190.786,174.744 193.676,175.039 196.523,175.829C199.351,176.679 201.952,177.972 204.254,179.521C206.585,181.043 208.499,182.956 210.183,184.858C210.585,185.352 210.983,185.839 211.376,186.321C211.748,186.817 212.078,187.334 212.424,187.828C213.145,188.799 213.647,189.867 214.227,190.838C214.709,191.861 215.201,192.842 215.573,193.824C215.91,194.819 216.323,195.745 216.53,196.688C217.552,200.402 217.731,203.555 217.576,205.694C217.578,206.232 217.52,206.706 217.456,207.115C217.401,207.512 217.353,207.855 217.312,208.15C217.23,208.708 217.179,208.999 217.161,208.996Z" style="fill:rgb(196,138,1);fill-rule:nonzero;"/>
            <path d="M123.603,239.645C123.599,239.663 123.414,239.629 123.065,239.549C122.721,239.456 122.195,239.37 121.553,239.143C120.25,238.752 118.408,238.005 116.318,236.742C114.228,235.486 111.933,233.636 109.863,231.147C107.792,228.668 106.002,225.508 104.981,221.904C104.008,218.287 103.924,214.654 104.43,211.464C104.931,208.265 105.952,205.499 107.102,203.349C108.249,201.193 109.447,199.607 110.365,198.603C110.799,198.079 111.207,197.736 111.455,197.479C111.713,197.232 111.854,197.108 111.866,197.121C111.902,197.156 111.378,197.695 110.519,198.735C109.656,199.77 108.518,201.371 107.43,203.517C106.337,205.658 105.37,208.391 104.905,211.536C104.434,214.672 104.533,218.228 105.483,221.766C106.482,225.289 108.22,228.392 110.233,230.842C112.246,233.303 114.477,235.152 116.513,236.43C118.548,237.714 120.346,238.505 121.618,238.951C122.889,239.403 123.615,239.598 123.603,239.645Z" style="fill:rgb(196,138,1);fill-rule:nonzero;"/>
            <path d="M213.992,189.907C214.043,189.87 214.098,189.829 214.157,189.786C214.568,189.478 215.203,189.087 216.017,188.658C217.639,187.796 220.063,186.891 222.867,186.541C223.748,186.434 224.607,186.388 225.424,186.388C227.208,186.388 228.801,186.607 230.027,186.889C230.82,187.071 231.471,187.256 231.942,187.426C230.11,187.024 228.234,186.824 226.358,186.824C222.066,186.824 217.769,187.868 213.992,189.907Z" style="fill:rgb(196,138,1);fill-rule:nonzero;"/>
        </g>
        <path d="M124.864,273.265C124.864,292.943 132.459,307.035 148.332,315.754C164.206,324.472 181.239,324.9 199.348,324.677C199.601,330.873 199.854,337.068 200.107,343.263C178.724,343.318 156.626,340.651 138.146,329.891C119.666,319.132 105.574,298.798 107.303,277.484C107.303,277.484 107.159,267.116 116.491,267.246C124.945,267.364 124.864,273.265 124.864,273.265Z" style="fill:rgb(255,234,182);fill-rule:nonzero;"/>
        <path d="M247.059,300.892C245.552,300.236 243.858,301.152 242.486,302.059C238.145,304.928 236.868,306.829 232.575,309.616C229.514,311.602 224.988,313.763 221.669,312.247C217.985,310.564 217.933,305.392 215.782,301.96C215.117,300.898 214.044,299.91 212.795,299.998C211.448,300.092 209.814,301.282 209.587,302.613C209.359,303.944 209.758,305.602 209.811,306.951C209.975,311.141 209.979,313.325 209.607,316.589C209.235,319.853 208.533,325.868 210.375,328.588C211.301,333.056 212.428,336.048 214.392,340.167C214.917,341.268 213.27,340.42 214.249,341.148C215.303,341.933 216.307,343.612 220.208,344.277C224.87,345.071 228.421,345.421 233.101,344.744C236.002,344.324 240.609,342.582 241.475,339.782C241.744,338.913 241.733,337.951 242.167,337.152C242.53,336.481 243.161,336.007 243.707,335.474C245.735,333.492 246.202,327.179 243.936,325.474C246.697,321.684 246.425,318.42 243.072,315.143C245.529,311.63 246.577,311.096 248.095,307.3C248.988,305.067 249.263,301.852 247.059,300.892Z" style="fill:rgb(255,234,182);fill-rule:nonzero;"/>
        <path d="M218.408,322.037C217.692,322.657 217.191,320.324 216.307,320.131C210.889,318.948 204.202,319.055 198.766,318.726C197.963,318.677 197.06,318.69 196.492,319.337C196.069,319.818 195.943,320.534 195.852,321.207C195.108,326.668 195.28,332.289 196.355,337.678C196.903,340.425 197.898,343.403 200.137,344.601C201.435,345.295 202.934,345.258 204.363,345.121C212.346,344.355 220.11,340.844 226.38,335.165L218.408,322.037Z" style="fill:rgb(255,234,182);fill-rule:nonzero;"/>
        <g>
            <path d="M240.038,329.384C239.955,329.255 241.249,328.335 242.586,326.934C243.934,325.543 244.803,324.214 244.935,324.292C245.056,324.352 244.362,325.849 242.962,327.295C241.571,328.75 240.102,329.502 240.038,329.384Z" style="fill:white;fill-rule:nonzero;"/>
            <path d="M239.258,339.61C239.175,339.481 240.469,338.561 241.807,337.161C243.155,335.77 244.023,334.44 244.155,334.518C244.276,334.578 243.582,336.075 242.182,337.522C240.791,338.976 239.322,339.728 239.258,339.61Z" style="fill:white;fill-rule:nonzero;"/>
            <path d="M238.337,320.084C238.254,319.955 239.548,319.035 240.885,317.635C242.233,316.244 243.102,314.915 243.234,314.992C243.355,315.052 242.661,316.549 241.261,317.996C239.87,319.45 238.401,320.202 238.337,320.084Z" style="fill:white;fill-rule:nonzero;"/>
        </g>
        <path d="M196.567,221.722C196.26,224.032 188.176,224.738 179.185,227.874C170.128,230.829 163.271,235.163 161.627,233.513C160.879,232.713 161.737,230.416 164.295,227.684C166.825,224.962 171.158,221.952 176.568,220.12C181.98,218.301 187.249,218.069 190.914,218.701C194.604,219.324 196.679,220.632 196.567,221.722Z" style="fill:rgb(12,43,52);fill-rule:nonzero;"/>
        <path d="M283.005,184.458C281.256,186.252 274.596,184.211 266.541,183.952C258.497,183.46 251.638,184.869 250.108,182.92C249.44,181.978 250.552,180.167 253.568,178.497C256.54,176.833 261.484,175.525 267.019,175.781C272.552,176.043 277.312,177.802 280.076,179.736C282.883,181.676 283.778,183.581 283.005,184.458Z" style="fill:rgb(12,43,52);fill-rule:nonzero;"/>
        <path d="M284.89,219.268C298.014,224.396 304.254,239.816 298.826,253.709C293.398,267.601 278.357,274.707 265.233,269.579C252.108,264.451 245.869,249.031 251.297,235.139C256.725,221.246 271.765,214.14 284.89,219.268Z" style="fill:white;fill-rule:nonzero;"/>
        <path d="M285.362,218.061C298.486,223.189 305.331,237.06 300.649,249.042C295.968,261.023 281.533,266.579 268.409,261.451C255.283,256.324 248.439,242.453 253.12,230.472C257.802,218.49 272.236,212.933 285.362,218.061Z" style="fill:rgb(12,43,52);fill-rule:nonzero;"/>
        <path d="M205.681,237.048C216.353,246.249 217.108,262.867 207.368,274.164C197.629,285.459 181.081,287.158 170.409,277.956C159.737,268.755 158.982,252.138 168.722,240.842C178.462,229.546 195.009,227.847 205.681,237.048Z" style="fill:white;fill-rule:nonzero;"/>
        <path d="M206.527,236.067C217.199,245.268 219.04,260.626 210.64,270.369C202.241,280.11 186.779,280.549 176.107,271.348C165.435,262.146 163.594,246.789 171.994,237.047C180.394,227.305 195.855,226.866 206.527,236.067Z" style="fill:rgb(12,43,52);fill-rule:nonzero;"/>
        <path d="M235.465,291.322C233.88,291.322 232.359,290.428 231.408,289.154C230.424,287.837 229.939,286.608 229.916,284.965C229.869,281.466 229.622,278.675 232.491,276.674C234.852,275.028 239.161,274.215 242.553,274.215C243.285,274.215 243.975,274.252 244.592,274.328C244.32,278.44 243.862,282.606 242.063,286.314C240.861,288.79 238.376,291.213 235.626,291.319C235.572,291.321 235.518,291.322 235.465,291.322Z" style="fill:rgb(204,87,73);fill-rule:nonzero;"/>
        <path d="M242.063,286.314C242.077,286.322 242.023,286.451 241.893,286.683C241.764,286.916 241.554,287.248 241.25,287.653C240.629,288.456 239.655,289.545 238.171,290.628C237.405,291.131 236.452,291.556 235.352,291.656C234.261,291.777 233.017,291.458 232.044,290.676C231.065,289.909 230.339,288.747 230.009,287.454C229.667,286.159 229.661,284.78 229.72,283.409C229.778,282.035 229.942,280.655 230.455,279.414C230.961,278.167 231.843,277.157 232.81,276.426C234.769,274.95 236.962,274.419 238.739,274.184C240.536,273.958 241.997,273.985 243,274.004C244.004,274.03 244.558,274.071 244.558,274.106C244.558,274.143 244.002,274.17 243.001,274.206C242.002,274.249 240.549,274.28 238.791,274.548C237.053,274.823 234.944,275.384 233.103,276.806C232.194,277.512 231.389,278.451 230.927,279.607C230.455,280.763 230.297,282.08 230.241,283.432C230.181,284.787 230.189,286.114 230.502,287.325C230.805,288.532 231.46,289.591 232.343,290.3C233.22,291.017 234.312,291.316 235.317,291.226C236.327,291.153 237.235,290.776 237.972,290.318C239.413,289.324 240.446,288.267 241.092,287.526C241.738,286.768 242.025,286.29 242.063,286.314Z" style="fill:rgb(244,146,181);fill-rule:nonzero;"/>
        <path d="M230.144,152.944C223.607,149.503 216.221,147.772 208.83,147.755C208.818,142.108 208.806,136.461 208.794,130.814C208.794,130.814 214.215,131.903 214.31,147.129C214.31,147.129 214.67,147.095 215.301,147.095C217.792,147.095 224.521,147.631 230.144,152.944Z" style="fill:rgb(254,193,48);fill-rule:nonzero;"/>
        <path d="M235.362,178.604C236.358,171.421 233.824,163.833 228.713,158.689C224.302,154.251 218.06,151.72 211.812,151.72C210.819,151.72 209.826,151.784 208.839,151.914C208.836,150.528 208.833,149.142 208.83,147.755C216.221,147.772 223.607,149.503 230.144,152.944C231.602,154.322 232.986,156.022 234.202,158.117C241.294,170.334 235.362,178.604 235.362,178.604Z" style="fill:rgb(254,193,48);fill-rule:nonzero;"/>
        <path d="M86.891,202.865C86.897,202.806 87.999,202.848 89.745,203.196C91.488,203.541 93.865,204.25 96.311,205.447C98.755,206.651 100.769,208.098 102.108,209.266C103.451,210.435 104.158,211.282 104.116,211.322C104.056,211.383 103.26,210.632 101.875,209.551C100.492,208.469 98.482,207.097 96.081,205.914C93.678,204.738 91.364,203.987 89.662,203.555C87.96,203.12 86.879,202.949 86.891,202.865Z" style="fill:rgb(12,43,52);fill-rule:nonzero;"/>
        <path d="M162.623,190.106C166.116,179.759 174.686,171.493 185.553,170.307C186.521,170.202 187.492,170.15 188.462,170.15C198.544,170.15 208.542,175.729 213.642,184.461C216.171,183.046 219.068,182.307 221.965,182.307C222.948,182.307 223.932,182.393 224.901,182.565C228.722,183.247 232.286,185.288 234.808,188.239C233.869,187.91 232.912,187.64 231.942,187.426C231.471,187.256 230.82,187.071 230.027,186.889C228.801,186.607 227.208,186.388 225.424,186.388C224.607,186.388 223.748,186.434 222.867,186.541C220.063,186.891 217.639,187.796 216.017,188.658C215.203,189.087 214.568,189.478 214.157,189.786C214.098,189.829 214.043,189.87 213.992,189.907C213.916,189.948 213.841,189.989 213.766,190.031C213.358,189.295 212.949,188.536 212.424,187.828C212.078,187.334 211.748,186.817 211.376,186.321C210.983,185.839 210.585,185.352 210.183,184.858C208.499,182.956 206.585,181.043 204.254,179.521C201.952,177.972 199.351,176.679 196.523,175.829C193.978,175.122 191.398,174.812 188.897,174.812C188.601,174.812 188.306,174.816 188.012,174.825C185.227,174.868 182.588,175.466 180.149,176.176C179.545,176.378 178.948,176.578 178.359,176.776C177.78,176.997 177.224,177.258 176.668,177.492C175.539,177.928 174.546,178.564 173.537,179.075C172.583,179.684 171.644,180.251 170.805,180.882C169.989,181.545 169.145,182.107 168.468,182.795C165.621,185.39 163.788,187.961 162.778,189.853C162.723,189.938 162.672,190.023 162.623,190.106ZM202.705,179.143C198.515,176.835 193.719,175.56 188.932,175.56C188.679,175.56 188.423,175.564 188.17,175.571C185.495,175.647 182.857,175.984 180.317,176.627C182.715,175.944 185.304,175.369 188.03,175.335C188.295,175.328 188.561,175.324 188.828,175.324C191.306,175.324 193.86,175.631 196.378,176.329C198.646,177.012 200.768,177.983 202.705,179.143Z" style="fill:rgb(254,193,48);fill-rule:nonzero;"/>
        <path d="M104.397,211.679C104.287,211.555 104.175,211.432 104.062,211.31C104.082,211.32 104.096,211.326 104.106,211.326C104.11,211.326 104.113,211.325 104.116,211.322C104.158,211.282 103.451,210.435 102.108,209.266C100.769,208.098 98.755,206.651 96.311,205.447C93.865,204.25 91.488,203.541 89.745,203.196C88.467,202.941 87.534,202.851 87.123,202.843C88.866,202.374 90.667,202.126 92.461,202.126C95.077,202.126 97.677,202.653 100.053,203.786C103.169,198.668 108.875,195.222 114.855,194.845C109.102,197.616 105.123,203.676 104.695,210.025C104.596,210.494 104.507,210.974 104.43,211.464C104.419,211.535 104.408,211.607 104.397,211.679Z" style="fill:rgb(254,193,48);fill-rule:nonzero;"/>
        <path d="M104.679,212.002C104.586,211.894 104.492,211.786 104.397,211.679C104.408,211.607 104.419,211.535 104.43,211.464C104.507,210.974 104.596,210.494 104.695,210.025C104.651,210.682 104.645,211.342 104.679,212.002Z" style="fill:rgb(1,23,33);fill-rule:nonzero;"/>
        <path d="M104.106,211.326C104.096,211.326 104.082,211.32 104.062,211.31C99.69,206.583 93.405,203.442 87.045,202.865C87.071,202.858 87.097,202.85 87.123,202.843C87.534,202.851 88.467,202.941 89.745,203.196C91.488,203.541 93.865,204.25 96.311,205.447C98.755,206.651 100.769,208.098 102.108,209.266C103.451,210.435 104.158,211.282 104.116,211.322C104.113,211.325 104.11,211.326 104.106,211.326Z" style="fill:rgb(1,23,33);fill-rule:nonzero;"/>
        <path d="M354.217,272.554C354.434,271.376 354.595,270.172 354.705,268.951C355.095,265.818 355.209,262.087 354.725,258.014C354.24,253.715 353.055,249.037 350.967,244.487C349.913,242.217 348.69,240.094 347.365,238.142C346.016,236.205 344.562,234.45 343.085,232.865C340.075,229.745 336.958,227.343 334.136,225.684C331.319,224.016 328.875,222.961 327.143,222.38C326.588,222.162 326.098,222.022 325.698,221.91L325.759,221.914C326.051,221.904 326.342,221.899 326.636,221.899C332.62,221.899 338.895,223.989 344.287,227.405C342.884,228.655 341.853,229.321 341.915,229.397C341.917,229.4 341.92,229.401 341.926,229.401C342.037,229.401 342.894,228.966 344.096,228.062C344.273,227.93 344.456,227.787 344.644,227.634C349.092,230.52 352.914,234.311 355.439,238.568C361.22,248.313 359.99,262.804 354.217,272.554ZM341.525,231.968C337.343,227.977 332.549,224.962 327.918,222.902C329.532,223.563 331.608,224.569 333.944,225.999C336.341,227.454 338.952,229.45 341.525,231.968Z" style="fill:rgb(254,193,48);fill-rule:nonzero;"/>
        <path d="M341.926,229.401C341.92,229.401 341.917,229.4 341.915,229.397C341.853,229.321 342.884,228.655 344.287,227.405C344.407,227.48 344.526,227.557 344.644,227.634C344.456,227.787 344.273,227.93 344.096,228.062C342.894,228.966 342.037,229.401 341.926,229.401Z" style="fill:rgb(1,23,33);fill-rule:nonzero;"/>
        <path d="M358.684,384.109C358.793,383.295 358.883,382.478 358.901,381.657C358.952,379.222 359.156,377.186 358.511,374.497C358.059,372.617 357.146,370.718 356.47,369.903C357.898,366.726 358.833,363.375 359.205,359.972C359.344,358.69 359.396,357.345 358.787,356.172C357.738,354.148 355.078,353.22 352.619,352.696C347.794,351.667 342.751,351.446 337.841,352.05C337.235,352.124 336.591,352.228 336.154,352.602C335.567,353.105 335.545,353.915 335.579,354.636C335.697,357.131 336.06,361.313 335.769,365.411C333.274,366.331 330.969,367.805 329.042,369.75L328.976,369.817C326.754,372.041 321.576,375.566 321.576,375.566C320.105,376.559 319.184,377.589 319.083,378.797C318.99,379.918 319.546,380.91 320.491,381.52C323.546,383.491 330.392,378.526 330.392,378.526C330.392,378.526 329.204,382.258 327.385,384.981C324.314,389.578 326.723,385.731 322.034,392.733C321.55,393.456 320.04,395.315 320.646,397.263C321.279,399.304 322.736,399.55 324.742,398.778C328.138,397.472 332.587,392.749 335.538,390.361C334.725,391.362 330.743,397.102 330.081,398.152C329.155,399.62 328.22,400.83 328.655,402.061C329.09,403.292 330.852,403.715 332.154,403.617C333.211,403.538 334.094,402.81 334.879,402.098C337.108,400.079 340.042,396.5 341.967,394.189C341.065,396.243 338.921,400.254 338.336,402.419C338.121,403.217 337.53,404.953 337.895,405.694C338.515,406.951 340.321,407.037 341.623,406.517C343.308,405.845 345.612,403.163 346.604,401.644C347.595,400.124 348.265,398.421 348.927,396.732C348.927,396.732 348.672,397.96 348.351,398.669C348.03,399.378 347.194,401.453 347.181,402.231C347.169,403.01 346.29,405.924 347.53,406.718C349.196,407.785 350.615,406.021 351.05,405.475C353.948,401.835 355.618,396.86 356.79,393.438C357.829,390.405 358.26,387.277 358.684,384.109Z" style="fill:rgb(255,234,182);fill-rule:nonzero;"/>
    </g>
</svg>
