<?xml version="1.0" encoding="UTF-8" standalone="no"?>
<!DOCTYPE svg PUBLIC "-//W3C//DTD SVG 1.1//EN" "http://www.w3.org/Graphics/SVG/1.1/DTD/svg11.dtd">
<svg width="100%" height="100%" viewBox="0 0 62 77" version="1.1" xmlns="http://www.w3.org/2000/svg" xmlns:xlink="http://www.w3.org/1999/xlink" xml:space="preserve" xmlns:serif="http://www.serif.com/" style="fill-rule:evenodd;clip-rule:evenodd;stroke-linejoin:round;stroke-miterlimit:2;">
    <g transform="matrix(0.0459535,0,0,0.0459535,-38.5299,-91.0111)">
        <g transform="matrix(4.14553,-0.135836,0.189188,5.77377,630.035,1024.31)">
            <path d="M199.042,342.678C197.191,351.849 177.608,448.538 173.544,448.538C169.281,448.538 85.01,458.725 83.641,457.356C82.271,455.978 102.526,428.844 113.996,427.63C125.458,426.407 152.127,432.151 152.127,432.151C160.463,418.932 168.058,350.325 168.885,342.678L199.042,342.678Z" style="fill:rgb(255,235,185);fill-rule:nonzero;"/>
        </g>
        <g transform="matrix(4.14553,-0.135836,0.189188,5.77377,630.035,1024.31)">
            <path d="M286.226,457.356C285.675,457.907 253.735,458.424 241.989,457.468C214.889,455.264 189.701,448.538 187.152,448.538C183.087,448.538 207.518,351.841 209.843,342.678L241.559,342.678C238.286,350.342 209.404,418.932 217.731,432.151C217.731,432.151 244.4,426.407 255.871,427.63C267.332,428.844 287.595,455.978 286.226,457.356Z" style="fill:rgb(255,239,200);fill-rule:nonzero;"/>
        </g>
        <g transform="matrix(2.74503,0,0,2.74503,-529.215,1996.94)">
            <path d="M811.838,344.011C811.838,344.755 811.653,345.686 811.466,346.43C809.234,355.177 806.999,363.924 804.58,372.485C804.58,372.485 792.297,385.513 774.616,380.302L776.478,367.274L779.27,340.66C780.2,331.541 788.388,325.027 797.323,325.957C806.256,326.887 812.77,334.892 811.838,344.011Z" style="fill:rgb(226,105,136);fill-rule:nonzero;"/>
            <path d="M699.429,367.461L701.105,382.908C681.749,389.422 673.746,382.164 673.746,382.164L671.141,372.672C668.907,363.925 666.488,355.364 664.254,346.617C662.022,337.87 667.233,328.751 676.165,326.517C684.912,324.284 694.031,329.495 696.266,338.428C696.451,339.172 696.637,339.917 696.637,340.847L696.637,341.033L699.429,367.461Z" style="fill:rgb(226,105,136);fill-rule:nonzero;"/>
            <path d="M942.673,275.895C942.673,303.811 919.968,326.517 892.051,326.517L890.191,326.517C884.235,347.733 864.694,363.366 841.43,363.366C832.125,363.366 823.377,360.947 815.934,356.48C806.628,369.135 791.74,377.324 774.99,377.324C761.589,377.324 749.492,372.113 740.56,363.738C731.441,372.113 719.343,377.324 706.129,377.324C690.311,377.324 676.165,370.066 666.861,358.713C660.346,361.691 653.275,363.366 645.645,363.366C625.544,363.366 608.237,351.641 600.047,334.891C599.49,333.588 598.744,332.286 598.372,330.797C597.07,330.983 595.58,331.355 594.279,331.541C592.417,331.727 590.37,331.913 588.323,331.913C568.224,331.913 550.915,320.188 542.727,303.252C539.563,296.552 537.701,289.108 537.701,281.105C537.701,271.986 540.12,263.611 544.215,256.166C537.516,247.605 533.608,236.811 533.608,225.086C533.608,201.822 549.426,182.095 570.829,176.139C569.527,171.672 568.968,167.02 568.968,162.181C568.968,134.265 591.673,111.559 619.59,111.559C626.662,111.559 633.548,113.048 639.691,115.653C643.599,91.459 664.443,72.848 689.753,72.848C706.318,72.848 721.02,80.851 730.325,93.135C739.073,78.059 756.568,68.01 775.178,68.01C801.606,68.01 823.38,88.296 825.614,114.164C830.638,112.489 836.035,111.558 841.618,111.558C869.534,111.558 892.24,134.263 892.24,162.18L892.24,163.483C896.149,164.414 899.87,165.716 903.22,167.391C920.156,175.58 931.696,192.888 931.696,212.988C931.696,221.921 929.462,230.296 925.367,237.554C935.787,246.862 942.673,260.634 942.673,275.895Z" style="fill:rgb(255,210,106);fill-rule:nonzero;"/>
            <path d="M919.352,252.861C919.352,280.777 896.647,303.483 868.73,303.483L866.868,303.483C860.912,324.699 841.371,340.333 818.109,340.333C808.803,340.333 800.055,337.914 792.612,333.447C783.307,346.102 768.417,354.291 751.667,354.291C738.268,354.291 726.17,349.08 717.238,340.705C708.118,349.08 696.022,354.291 682.808,354.291C666.989,354.291 652.843,347.033 643.538,335.68C637.025,338.658 629.952,340.333 622.323,340.333C614.32,340.333 606.875,338.472 600.175,335.308C600.175,335.308 600.362,332.329 598.5,331.212C589.753,325.443 578.774,317.814 575.051,307.95C571.516,308.694 567.608,309.067 563.884,308.881C556.441,308.695 549.182,306.834 542.855,303.856C539.691,297.156 537.829,289.712 537.829,281.709C537.829,272.59 540.248,264.215 544.343,256.77C537.644,248.209 533.736,237.415 533.736,225.69C533.736,202.426 549.554,182.699 570.957,176.743C569.655,172.276 569.096,167.624 569.096,162.785C569.096,134.869 591.801,112.163 619.718,112.163C626.79,112.163 633.676,113.652 639.819,116.257C643.727,92.063 664.571,73.452 689.881,73.452C706.446,73.452 721.148,81.455 730.453,93.739L731.571,93.739C740.318,78.663 756.696,68.614 775.307,68.614C801.734,68.614 823.508,88.9 825.741,114.768C830.767,113.093 836.163,112.163 841.746,112.163C869.662,112.163 892.368,134.868 892.368,162.785L892.368,164.088C896.277,165.019 899.998,166.321 903.349,167.996C906.512,174.696 908.373,182.14 908.373,190.143C908.373,199.076 906.141,207.451 902.045,214.709C912.465,223.828 919.352,237.6 919.352,252.861Z" style="fill:rgb(255,210,106);fill-rule:nonzero;"/>
            <path d="M891.865,162.369C874.929,107.653 821.517,122.914 821.517,122.914C821.517,122.914 815.747,93.882 783.737,85.135C751.911,76.574 731.813,104.303 731.813,104.303C731.813,104.303 715.063,86.25 687.147,89.228C659.231,92.206 648.064,128.311 648.064,128.311C648.064,128.311 624.427,120.122 597.628,134.08C571.014,148.038 577.342,186.004 577.342,186.004C523.929,213.92 543.284,255.609 543.47,256.167C536.771,247.606 532.863,236.812 532.863,225.087C532.863,201.823 548.682,182.096 570.084,176.14C568.781,171.673 568.224,167.021 568.224,162.182C568.224,134.266 590.928,111.56 618.845,111.56C625.917,111.56 632.803,113.049 638.946,115.654C642.854,91.46 663.698,72.849 689.008,72.849C705.573,72.849 720.275,80.852 729.58,93.136L730.698,93.136C739.445,78.06 755.823,68.011 774.434,68.011C800.861,68.011 822.635,88.297 824.868,114.165C829.894,112.49 835.29,111.559 840.873,111.559C869.16,111.747 891.865,134.453 891.865,162.369Z" style="fill:rgb(255,210,106);fill-rule:nonzero;"/>
            <g>
                <path d="M754.518,352.386C754.146,352.386 753.774,352.2 753.401,352.014C752.656,351.456 752.656,350.339 753.214,349.781C762.148,338.801 753.214,321.492 753.029,321.306C752.656,320.562 752.842,319.631 753.401,319.259C767.544,308.465 775.362,296.554 777.036,283.898C778.898,268.265 769.964,256.912 769.964,256.726C769.406,255.982 769.592,255.051 770.151,254.493C770.895,253.935 771.825,254.121 772.383,254.679C772.755,255.237 782.247,267.148 780.2,284.084C778.526,297.298 770.708,309.581 756.378,320.747C758.425,325.214 764.568,340.661 755.634,351.641C755.448,352.2 755.075,352.386 754.518,352.386Z" style="fill:rgb(254,193,48);fill-rule:nonzero;"/>
                <path d="M671.141,118.075C670.769,118.075 670.582,118.075 670.209,117.703C669.465,117.145 669.279,116.214 669.837,115.47C670.024,115.284 682.865,96.86 704.268,105.978C705.011,106.35 705.571,107.281 705.198,108.211C704.826,108.955 703.896,109.514 702.965,109.142C683.983,101.139 673.001,116.772 672.444,117.517C672.072,117.703 671.512,118.075 671.141,118.075Z" style="fill:rgb(254,193,48);fill-rule:nonzero;"/>
                <path d="M630.57,274.034C630.383,274.034 630.198,274.034 630.011,273.848C629.825,273.848 615.682,268.265 618.101,252.632C618.286,251.701 619.031,251.143 619.961,251.329C620.893,251.515 621.45,252.26 621.264,253.19C619.217,266.218 630.57,270.684 630.943,270.684C631.873,271.056 632.245,271.987 631.873,272.731C631.686,273.662 631.127,274.034 630.57,274.034Z" style="fill:rgb(254,193,48);fill-rule:nonzero;"/>
                <path d="M853.528,285.759C852.596,285.759 851.853,285.015 851.853,284.27C851.853,283.339 852.41,282.595 853.341,282.595C866.369,281.851 868.231,269.754 868.416,269.195C868.603,268.264 869.348,267.706 870.278,267.706C871.208,267.892 871.767,268.637 871.767,269.567C871.766,269.568 869.532,284.829 853.528,285.759C853.713,285.759 853.713,285.759 853.528,285.759Z" style="fill:rgb(254,193,48);fill-rule:nonzero;"/>
                <path d="M600.791,195.31C599.861,195.31 599.116,194.566 599.116,193.635C598.559,172.046 615.121,166.835 619.775,165.719C621.449,157.902 624.986,151.947 630.197,148.411C638.572,142.828 648.063,144.875 648.621,144.875C649.552,145.061 650.111,145.992 649.924,146.736C649.739,147.667 648.808,148.225 648.064,148.039C647.877,148.039 639.317,146.364 632.244,151.017C627.406,154.181 624.427,159.764 622.94,167.208C622.753,167.952 622.196,168.511 621.45,168.511C620.706,168.697 601.909,171.303 602.467,193.263C602.466,194.566 601.723,195.31 600.791,195.31Z" style="fill:rgb(254,193,48);fill-rule:nonzero;"/>
                <path d="M899.868,204.057L899.311,204.057C898.379,203.871 898.007,202.94 898.194,202.01C898.194,202.01 900.798,193.449 896.519,186.005C893.727,180.98 888.516,177.444 881.257,175.397C880.514,175.211 880.141,174.653 879.954,173.908C879.954,173.164 878.837,154.18 857.064,152.878C856.132,152.878 855.389,152.134 855.574,151.203C855.574,150.272 856.319,149.528 857.249,149.714C878.838,151.017 882.561,167.953 883.118,172.791C890.748,175.024 896.332,179.119 899.496,184.702C904.335,193.449 901.543,202.941 901.358,203.313C901.171,203.685 900.613,204.057 899.868,204.057Z" style="fill:rgb(254,193,48);fill-rule:nonzero;"/>
                <path d="M894.471,234.579L894.1,234.579C893.168,234.393 892.796,233.462 892.983,232.532C893.355,231.415 900.24,206.291 878.653,199.405C877.721,199.219 877.35,198.288 877.535,197.358C877.721,196.428 878.653,196.055 879.582,196.241C904.149,204.244 896.147,233.091 896.147,233.463C895.774,234.021 895.215,234.579 894.471,234.579Z" style="fill:rgb(254,193,48);fill-rule:nonzero;"/>
                <path d="M766.8,171.674C766.428,171.674 766.242,171.674 766.057,171.488C765.313,171.116 764.94,169.999 765.498,169.255C776.852,150.086 754.891,136.128 753.959,135.569C753.402,135.197 753.215,134.638 753.215,134.08C754.147,122.355 752.284,113.608 747.26,108.397C743.6,104.454 739.085,103.495 736.782,103.261C735.955,103.177 735.312,102.513 735.266,101.684C735.208,100.664 736.065,99.825 737.081,99.917C739.983,100.178 745.227,101.285 749.493,105.978C754.891,111.747 757.311,120.867 756.379,133.15C760.659,136.128 779.644,151.203 768.105,170.744C767.917,171.302 767.359,171.674 766.8,171.674Z" style="fill:rgb(254,193,48);fill-rule:nonzero;"/>
            </g>
            <path d="M740.56,362.238C740.928,362.238 741.296,362.374 741.585,362.643C750.652,371.143 762.516,375.824 774.99,375.824C790.556,375.824 805.41,368.261 814.726,355.592C815.184,354.968 816.043,354.797 816.704,355.195C823.979,359.56 832.529,361.867 841.431,361.867C863.379,361.867 882.835,347.165 888.745,326.113C888.927,325.466 889.518,325.018 890.19,325.018L892.05,325.018C919.136,325.018 941.172,302.982 941.172,275.896C941.172,261.781 935.047,248.213 924.367,238.672C923.841,238.203 923.714,237.431 924.06,236.817C928.073,229.704 930.195,221.464 930.195,212.989C930.195,193.937 919.608,176.982 902.566,168.742C899.375,167.146 895.79,165.871 891.892,164.943C891.215,164.782 890.74,164.178 890.74,163.484L890.74,162.181C890.74,135.095 868.703,113.059 841.617,113.059C836.346,113.059 831.121,113.91 826.087,115.588C825.651,115.734 825.173,115.671 824.788,115.419C824.405,115.167 824.157,114.752 824.118,114.294C821.95,89.182 800.452,69.511 775.177,69.511C757.312,69.511 740.214,79.079 731.621,93.888C731.369,94.323 730.916,94.601 730.415,94.633C729.918,94.668 729.431,94.442 729.127,94.041C719.648,81.527 705.294,74.349 689.751,74.349C665.49,74.349 645.058,91.822 641.169,115.893C641.095,116.348 640.818,116.744 640.414,116.967C640.011,117.19 639.528,117.216 639.104,117.035C632.971,114.434 626.223,113.06 619.588,113.06C592.502,113.06 570.466,135.096 570.466,162.182C570.466,167.137 571.055,171.565 572.268,175.72C572.379,176.105 572.333,176.519 572.138,176.869C571.944,177.219 571.616,177.477 571.231,177.585C549.96,183.503 535.107,203.037 535.107,225.087C535.107,236.214 538.664,246.642 545.396,255.242C545.765,255.716 545.818,256.363 545.529,256.889C541.329,264.524 539.199,272.671 539.199,281.106C539.199,288.517 540.842,295.752 544.081,302.612C552.37,319.757 569.324,330.414 588.322,330.414C590.322,330.414 592.367,330.226 594.127,330.05C594.692,329.968 595.364,329.833 596.035,329.698C596.759,329.553 597.484,329.41 598.159,329.312C598.922,329.211 599.642,329.688 599.827,330.434C600.056,331.35 600.459,332.209 600.886,333.119C601.073,333.516 601.257,333.909 601.425,334.303C609.601,351.021 626.969,361.867 645.644,361.867C652.751,361.867 659.679,360.347 666.236,357.349C666.854,357.066 667.587,357.236 668.02,357.762C677.427,369.241 691.318,375.825 706.128,375.825C718.415,375.825 730.282,371.14 739.543,362.635C739.831,362.37 740.196,362.238 740.56,362.238ZM774.99,378.824C762.211,378.824 750.035,374.194 740.549,365.761C730.89,374.196 718.72,378.824 706.129,378.824C690.797,378.824 676.398,372.177 666.437,360.543C659.797,363.412 652.809,364.866 645.645,364.866C625.832,364.866 607.406,353.359 598.699,335.551C598.513,335.12 598.343,334.759 598.171,334.394C597.885,333.785 597.592,333.163 597.34,332.498C597.104,332.544 596.864,332.592 596.624,332.64C595.897,332.786 595.168,332.931 594.49,333.028C592.595,333.218 590.462,333.415 588.323,333.415C568.164,333.415 550.176,322.108 541.375,303.907C537.94,296.631 536.2,288.965 536.2,281.107C536.2,272.48 538.297,264.142 542.434,256.31C535.674,247.331 532.107,236.557 532.107,225.088C532.107,202.194 547.199,181.859 568.993,175.117C567.967,171.108 567.467,166.86 567.467,162.183C567.467,133.443 590.85,110.061 619.589,110.061C626.002,110.061 632.513,111.272 638.538,113.575C643.385,88.998 664.633,71.35 689.752,71.35C705.521,71.35 720.129,78.308 730.168,90.518C739.603,75.868 757.022,66.511 775.177,66.511C801.372,66.511 823.743,86.427 826.913,112.186C831.703,110.774 836.642,110.06 841.617,110.06C870.358,110.06 893.74,133.442 893.74,162.182L893.74,162.312C897.419,163.265 900.828,164.52 903.89,166.051C921.958,174.787 933.195,192.777 933.195,212.99C933.195,221.568 931.142,229.926 927.248,237.243C938.019,247.303 944.172,261.323 944.172,275.897C944.172,304.637 920.79,328.019 892.05,328.019L891.314,328.019C884.684,349.773 864.334,364.868 841.429,364.868C832.455,364.868 823.808,362.651 816.327,358.447C806.411,371.231 791.061,378.824 774.99,378.824Z" style="fill:rgb(255,210,106);fill-rule:nonzero;"/>
            <path d="M794.344,146.922C805.138,150.644 815.374,149.714 817.049,144.875C818.725,139.85 811.466,132.778 800.671,129.056C789.877,125.334 779.642,126.264 777.966,131.103C776.291,135.942 783.55,143.014 794.344,146.922Z" style="fill:rgb(12,43,52);fill-rule:nonzero;"/>
            <path d="M688.076,149.341C698.685,144.874 705.571,137.244 703.524,132.405C701.477,127.566 691.24,127.194 680.632,131.661C670.025,136.128 663.138,143.758 665.186,148.597C667.233,153.436 677.468,153.808 688.076,149.341Z" style="fill:rgb(12,43,52);fill-rule:nonzero;"/>
            <path d="M687.519,328.378C683.796,328.378 672.629,327.261 668.535,314.606C668.35,313.675 668.721,312.745 669.653,312.559C670.583,312.373 671.513,312.745 671.699,313.676C675.608,326.145 687.704,325.215 688.263,325.029C689.195,324.843 689.939,325.587 690.124,326.518C690.124,327.449 689.567,328.193 688.635,328.379C688.634,328.378 688.262,328.378 687.519,328.378Z" style="fill:rgb(237,126,151);fill-rule:nonzero;"/>
            <path d="M803.278,345.128C801.044,345.128 798.624,344.756 795.833,343.639C794.903,343.267 794.531,342.336 794.903,341.592C795.275,340.661 796.205,340.289 796.949,340.661C809.233,345.314 815.933,335.078 816.118,334.705C816.676,333.961 817.608,333.774 818.352,334.147C819.095,334.705 819.282,335.636 818.909,336.38C818.91,336.381 813.327,345.128 803.278,345.128Z" style="fill:rgb(237,126,151);fill-rule:nonzero;"/>
            <path d="M693.659,350.339C692.729,350.339 691.798,350.339 691.053,350.153C684.354,349.036 679.886,344.198 678.212,342.15C656.623,346.989 648.993,325.772 648.993,325.586C648.621,324.655 649.179,323.725 649.924,323.539C650.856,323.167 651.785,323.725 651.971,324.47C652.157,325.214 659.043,343.825 678.399,338.614C679.143,338.428 679.887,338.8 680.259,339.358C680.259,339.358 684.354,345.686 691.613,346.802C696.451,347.546 701.849,345.685 707.245,341.033C707.99,340.475 708.92,340.475 709.479,341.219C710.036,341.963 710.036,342.894 709.292,343.452C703.896,348.292 698.685,350.339 693.659,350.339Z" style="fill:rgb(237,126,151);fill-rule:nonzero;"/>
            <path d="M843.106,344.942C836.406,344.942 831.195,343.267 831.008,343.267C830.077,343.081 829.705,342.15 829.892,341.22C830.077,340.289 831.008,339.917 831.939,340.103C833.056,340.475 857.808,348.106 865.439,326.703C865.811,325.772 866.741,325.4 867.486,325.772C868.416,326.144 868.788,327.075 868.416,327.819C863.763,341.964 852.225,344.942 843.106,344.942Z" style="fill:rgb(237,126,151);fill-rule:nonzero;"/>
            <path d="M644.238,205.415C652.356,185.082 672.633,174.069 689.529,180.815C706.424,187.56 713.54,209.512 705.422,229.844C697.304,250.176 677.027,261.19 660.131,254.444C643.236,247.698 636.119,225.747 644.238,205.415Z" style="fill:white;fill-rule:nonzero;"/>
            <path d="M654.688,228.176C656.572,214.634 667.591,204.976 679.3,206.605C691.01,208.234 698.975,220.533 697.091,234.075C695.207,247.617 684.188,257.274 672.478,255.645C660.769,254.016 652.804,241.717 654.688,228.176Z" style="fill:rgb(34,33,63);fill-rule:nonzero;"/>
            <path d="M673.933,242.396C672.629,245.56 668.721,247.049 664.999,245.56C661.278,244.071 659.416,240.349 660.718,237.185C662.022,234.021 665.929,232.532 669.652,234.021C673.188,235.51 675.049,239.232 673.933,242.396Z" style="fill:white;fill-rule:nonzero;"/>
            <path d="M840.499,202.382C849.061,222.482 842.361,244.629 825.611,251.701C808.861,258.773 788.388,248.351 779.827,228.251C771.267,208.151 777.966,186.004 794.716,178.932C811.466,171.861 831.939,182.283 840.499,202.382Z" style="fill:white;fill-rule:nonzero;"/>
            <path d="M808.499,204.413C820.169,202.517 831.407,211.921 833.6,225.417C835.793,238.912 828.111,251.39 816.442,253.287C804.772,255.183 793.533,245.78 791.34,232.283C789.148,218.788 796.829,206.31 808.499,204.413Z" style="fill:rgb(34,33,63);fill-rule:nonzero;"/>
            <path d="M798.252,234.579C796.949,237.743 798.996,241.465 802.532,242.954C806.254,244.443 810.162,242.954 811.465,239.79C812.769,236.626 810.722,232.904 807.186,231.415C803.463,229.926 799.555,231.415 798.252,234.579Z" style="fill:white;fill-rule:nonzero;"/>
            <path d="M812.026,259.704C786.156,259.704 765.126,238.674 765.126,212.805C765.126,186.936 786.156,165.906 812.026,165.906C837.895,165.906 858.924,186.936 858.924,212.805C858.924,238.674 837.895,259.704 812.026,259.704ZM673.188,259.704C647.319,259.704 626.288,238.674 626.288,212.805C626.288,186.936 647.319,165.906 673.188,165.906C698.87,165.906 719.901,186.936 720.086,212.805C720.087,238.674 699.057,259.704 673.188,259.704ZM812.026,157.716C783.866,157.716 760.693,178.888 757.51,206.188C745.094,200.714 734.156,203.359 727.696,206.12C724.482,178.853 701.324,157.716 673.189,157.716C642.853,157.716 618.286,182.282 618.286,212.618C618.286,242.954 643.038,267.52 673.189,267.52C702.573,267.52 726.82,244.183 728.032,214.915C732.348,212.568 743.928,207.67 757.187,215.083C758.485,244.272 782.698,267.52 812.026,267.52C842.175,267.52 866.927,242.954 866.927,212.618C866.927,182.283 842.174,157.716 812.026,157.716Z" style="fill:rgb(12,43,52);fill-rule:nonzero;"/>
            <path d="M953.095,344.011C940.998,354.805 920.34,358.155 902.474,355.364C879.954,350.339 865.624,350.339 869.346,333.217C878.465,316.467 896.147,335.264 915.129,332.845C966.867,332.659 926.11,286.69 905.637,270.871C900.426,266.963 899.495,259.518 903.405,254.493C917.548,239.79 932.995,264.915 946.024,278.501C964.075,301.392 973.568,324.656 953.095,344.011Z" style="fill:rgb(255,234,182);fill-rule:nonzero;"/>
            <path d="M745.009,315.909L745.009,407.288L739.24,405.613L599.101,365.6L599.101,348.478L601.52,345.128L640.975,291.157C640.975,291.157 663.308,287.621 689.176,291.157C708.346,293.948 729.748,300.648 745.009,315.909Z" style="fill:rgb(230,236,255);fill-rule:nonzero;"/>
            <path d="M744.095,391.097C744.095,391.097 685.1,330.612 598.744,348.478C597.814,348.664 601.163,345.128 601.163,345.128C629.452,333.775 686.959,344.942 708.92,357.597C731.068,370.252 738.884,371.741 733.672,338.8C728.461,306.045 689.378,291.528 688.821,291.342C708.175,293.948 729.578,300.647 745.026,315.908L744.095,391.097Z" style="fill:rgb(245,248,255);fill-rule:nonzero;"/>
            <path d="M739.071,405.613L598.93,365.6L598.93,359.831C598.744,359.83 697.754,357.969 739.071,405.613Z" style="fill:rgb(199,209,234);fill-rule:nonzero;"/>
            <path d="M890.936,348.478L890.936,365.6L756.193,403.938L744.839,407.102L744.839,315.723C780.573,280.362 849.061,291.157 849.061,291.157L890.936,348.478Z" style="fill:rgb(230,236,255);fill-rule:nonzero;"/>
            <path d="M751.354,394.074C751.354,394.074 773.5,375.091 809.234,362.436C844.966,349.781 891.679,353.131 891.679,353.131L891.121,348.478C891.121,348.478 798.812,333.217 746.887,393.516L751.354,394.074Z" style="fill:rgb(245,248,255);fill-rule:nonzero;"/>
            <path d="M890.936,359.83L890.936,365.599L756.193,403.937C775.547,390.352 819.656,365.786 890.936,359.83Z" style="fill:rgb(199,209,234);fill-rule:nonzero;"/>
            <path d="M746.143,391.097C746.143,391.097 805.138,330.612 891.493,348.478C892.424,348.664 889.074,345.128 889.074,345.128C860.785,333.775 803.279,344.942 781.318,357.597C759.17,370.252 751.354,371.741 756.566,338.8C761.777,306.045 800.86,291.528 801.417,291.342C782.063,293.948 760.659,300.647 745.212,315.908L746.143,391.097Z" style="fill:rgb(199,209,234);fill-rule:nonzero;"/>
            <path d="M600.43,364.469L739.483,404.171L743.339,405.291L743.339,316.534C730.675,304.105 712.328,296.068 688.79,292.641C665.8,289.498 645.374,292.032 641.645,292.55L602.562,346.012L600.432,348.963L600.432,364.469L600.43,364.469ZM744.839,408.788C744.699,408.788 744.559,408.768 744.421,408.728L738.653,407.053L598.519,367.043C597.873,366.859 597.43,366.271 597.43,365.601L597.43,348.479C597.43,348.164 597.53,347.857 597.714,347.601L600.133,344.25L639.593,290.272C639.827,289.952 640.178,289.737 640.571,289.675C640.796,289.64 663.421,286.147 689.21,289.67C713.689,293.233 732.757,301.704 745.901,314.848C746.182,315.129 746.339,315.511 746.339,315.909L746.339,407.288C746.339,407.76 746.117,408.204 745.74,408.487C745.478,408.684 745.16,408.788 744.839,408.788Z" style="fill:rgb(129,150,201);fill-rule:nonzero;"/>
            <path d="M746.339,316.353L746.339,405.126L755.789,402.492L889.436,364.467L889.436,348.967L848.221,292.552C841.42,291.62 779.462,284.194 746.339,316.353ZM744.839,408.602C744.516,408.602 744.197,408.497 743.933,408.296C743.559,408.013 743.339,407.57 743.339,407.102L743.339,315.723C743.339,315.323 743.499,314.939 743.784,314.657C779.643,279.174 848.603,289.565 849.293,289.676C849.687,289.738 850.037,289.952 850.272,290.273L892.147,347.594C892.334,347.851 892.436,348.16 892.436,348.479L892.436,365.601C892.436,366.271 891.991,366.861 891.345,367.043L756.603,405.381L745.242,408.548C745.11,408.584 744.975,408.602 744.839,408.602Z" style="fill:rgb(129,150,201);fill-rule:nonzero;"/>
            <path d="M729.765,402.519C729.765,402.519 743.536,382.047 759.729,402.519C759.729,402.519 745.956,420.199 729.765,402.519Z" style="fill:rgb(230,236,255);fill-rule:nonzero;"/>
            <path d="M731.728,402.41C736.11,406.871 740.653,409.048 745.249,408.867C751.296,408.636 755.978,404.371 757.762,402.482C753.394,397.299 748.871,394.746 744.335,394.928C738.215,395.156 733.467,400.255 731.728,402.41ZM744.721,411.877C739.133,411.877 733.733,409.073 728.658,403.532C728.191,403.021 728.133,402.257 728.52,401.682C728.778,401.298 734.943,392.287 744.204,391.931C750.036,391.68 755.657,394.956 760.905,401.588C761.333,402.13 761.336,402.896 760.911,403.441C760.655,403.77 754.532,411.499 745.391,411.864C745.167,411.873 744.945,411.877 744.721,411.877Z" style="fill:rgb(129,150,201);fill-rule:nonzero;"/>
            <path d="M744.839,414.174C738.884,414.174 732.928,412.127 728.089,408.032C640.433,382.349 595.58,369.321 594.463,368.949C592.603,368.391 591.671,366.344 592.231,364.482C592.788,362.621 594.836,361.69 596.698,362.249C597.442,362.435 616.052,368.018 730.696,401.518C731.253,401.704 731.626,401.89 731.998,402.262L732.185,402.448C739.256,408.776 750.05,408.776 757.123,402.448C757.495,402.076 758.054,401.89 758.426,401.704C819.284,383.838 890.936,362.993 892.796,362.435C894.657,361.877 896.704,362.807 897.263,364.668C897.822,366.529 896.892,368.39 895.031,369.135C893.541,369.693 793.23,398.912 761.218,408.404C756.565,412.127 750.61,414.174 744.839,414.174Z" style="fill:rgb(65,80,216);fill-rule:nonzero;"/>
            <path d="M595.59,363.593C595.248,363.593 594.922,363.666 594.631,363.808C594.155,364.039 593.813,364.432 593.668,364.913C593.504,365.458 593.548,366.054 593.789,366.55C594.022,367.027 594.413,367.368 594.895,367.513C595.416,367.684 603.648,370.087 618.59,374.45C640.361,380.804 677.063,391.519 728.511,406.594C728.712,406.653 728.899,406.753 729.059,406.888C733.468,410.62 739.073,412.675 744.839,412.675C750.329,412.675 755.958,410.692 760.281,407.234C760.433,407.114 760.606,407.023 760.791,406.967C776.965,402.171 810.483,392.366 840.056,383.716C867.53,375.679 893.48,368.088 894.519,367.726C895.62,367.285 896.164,366.222 895.827,365.1C895.522,364.085 894.355,363.536 893.229,363.873C892.747,364.018 887.629,365.509 879.255,367.95C854.858,375.063 804.112,389.856 758.965,403.11C758.898,403.141 758.824,403.174 758.75,403.208C758.561,403.293 758.273,403.421 758.185,403.51C750.446,410.438 738.864,410.44 731.185,403.568L730.936,403.321C730.79,403.176 730.652,403.087 730.223,402.944C644.475,377.888 612.109,368.348 601.473,365.214C598.071,364.211 596.518,363.754 596.33,363.705C596.079,363.629 595.83,363.593 595.59,363.593ZM744.839,415.674C738.47,415.674 732.28,413.443 727.367,409.384C676.077,394.357 639.476,383.671 617.749,377.329C601.771,372.664 594.478,370.535 593.99,370.372C592.739,369.998 591.694,369.101 591.09,367.86C590.517,366.678 590.411,365.325 590.794,364.05C591.183,362.756 592.079,361.711 593.321,361.109C594.503,360.535 595.857,360.429 597.129,360.812C597.274,360.846 598.16,361.108 602.322,362.334C612.956,365.468 645.32,375.007 731.116,400.078C731.779,400.297 732.428,400.57 733.058,401.198L733.247,401.389C739.722,407.177 749.584,407.18 756.123,401.328C756.543,400.905 757.112,400.651 757.527,400.466C757.609,400.429 757.687,400.395 757.756,400.36C757.835,400.321 757.917,400.289 758.002,400.263C803.182,387 853.994,372.187 878.414,365.068C886.777,362.63 891.885,361.141 892.365,360.998C895.077,360.184 897.918,361.637 898.698,364.235C899.482,366.844 898.173,369.49 895.587,370.526C894.805,370.82 875.302,376.528 840.898,386.592C811.495,395.194 778.193,404.935 761.92,409.759C757.109,413.521 750.901,415.674 744.839,415.674Z" style="fill:rgb(49,64,155);fill-rule:nonzero;"/>
            <path d="M717.667,349.967M733.488,362.436C732.557,362.436 731.998,361.692 731.626,361.319C731.441,361.133 731.254,360.947 731.069,360.761C730.882,360.575 730.882,360.389 730.697,360.389C730.138,359.458 729.952,358.9 729.766,358.714C729.394,358.9 729.022,358.9 728.649,358.9C728.09,358.714 727.717,358.528 727.531,358.156C726.601,356.667 725.298,354.992 723.995,355.364C723.623,355.364 723.438,355.55 723.065,355.364C721.575,354.992 720.646,353.689 719.529,352.2C718.97,351.456 718.226,350.339 717.667,349.967C717.667,349.967 717.482,350.153 717.482,350.339C717.11,350.711 716.738,350.897 716.365,351.083C715.807,351.083 715.434,351.083 715.062,350.711C714.875,350.525 714.503,350.711 713.758,351.083C712.642,351.641 710.966,352.2 709.291,351.455C707.802,350.711 706.686,349.222 705.57,346.43C701.848,346.43 698.125,344.755 694.403,341.405L694.216,341.219C691.984,338.613 689.749,338.427 686.958,338.427C685.469,338.427 683.981,338.241 682.491,337.869C682.119,337.869 681.934,337.683 681.747,337.497C678.77,334.892 675.792,334.892 672.255,334.892L668.348,334.892C667.604,334.706 666.672,334.334 665.928,334.148C661.834,332.845 657.925,331.729 654.018,333.031C650.295,335.078 646.573,334.334 643.409,333.589C641.176,333.031 638.943,332.658 636.896,333.031C635.964,333.217 635.034,332.659 634.849,331.542C634.662,330.611 635.22,329.681 636.337,329.495C639.129,328.937 641.735,329.495 644.34,330.053C647.504,330.611 650.11,331.17 652.715,329.681C652.715,329.681 652.902,329.495 653.087,329.495C658.113,327.634 663.138,329.123 667.417,330.426C668.161,330.612 668.906,330.798 669.651,331.17L672.815,331.17C676.536,331.17 680.631,330.984 684.539,334.334C685.656,334.52 686.773,334.52 687.89,334.706C691.054,334.892 694.404,335.078 697.753,338.8C701.104,341.778 704.268,343.08 707.432,342.708C708.175,342.708 708.92,343.08 709.292,343.825C710.409,347.175 711.339,347.733 711.526,347.919C711.898,348.105 712.27,347.919 713.2,347.547C714.131,347.175 715.247,346.616 716.55,346.989C717.109,346.431 717.854,346.245 718.598,346.245C720.645,346.245 722.133,348.106 723.437,349.781C723.809,350.339 724.367,351.084 724.74,351.456C726.786,351.084 728.833,352.2 730.695,354.806C731.067,354.806 731.252,354.806 731.625,354.992C733.115,355.364 734.232,356.853 734.976,358.342L735.161,358.528C735.906,358.714 736.464,359.459 736.464,360.203C736.464,361.506 735.533,362.064 735.161,362.064C733.86,362.436 733.673,362.436 733.488,362.436Z" style="fill:rgb(129,150,201);fill-rule:nonzero;"/>
            <path d="M787.83,340.847M759.729,359.458C758.797,359.458 757.867,358.714 757.867,357.783C757.867,356.666 758.425,356.108 758.798,355.922C758.985,355.736 759.357,355.736 759.915,355.736C760.102,355.55 760.102,355.364 760.287,355.178C760.474,354.992 760.659,354.806 760.845,354.62C762.149,353.317 764.196,351.27 766.988,351.084C767.173,351.084 767.545,351.084 767.732,351.27C768.104,351.27 769.406,350.153 770.151,349.409C771.64,348.106 773.315,346.803 775.175,346.245C776.479,345.128 777.967,344.012 779.828,344.012C780.015,344.012 780.386,343.826 780.573,343.826C781.503,343.64 782.247,343.454 782.991,342.709C783.364,341.778 783.922,340.662 785.038,340.104C786.156,339.546 787.272,340.104 787.83,340.29C787.83,340.29 787.83,340.104 788.017,340.104C789.505,338.243 791.181,338.429 792.111,338.615C792.855,338.615 793.041,338.615 793.228,338.429C793.785,337.685 794.903,337.685 795.647,338.243C796.019,338.615 796.391,338.429 798.066,337.312C798.438,337.126 798.81,336.94 799.183,336.754C799.183,336.754 799.368,336.754 799.368,336.568C799.926,336.382 800.299,336.01 800.858,335.824C802.347,335.08 804.022,334.149 806.069,334.335L806.441,334.335C806.998,334.521 807.93,334.149 808.673,333.777C809.417,333.405 810.349,333.033 811.465,332.846C813.141,331.915 815.56,330.427 818.165,331.171C818.537,330.799 819.097,330.427 819.655,330.054C821.144,328.937 822.632,327.635 824.308,327.262C826.727,325.401 829.147,327.448 830.449,328.565C830.822,328.937 831.38,329.309 831.752,329.496C833.799,328.379 836.032,328.752 837.522,329.124C838.079,329.31 838.639,329.31 839.197,329.496L842.361,329.496C843.663,329.496 845.153,329.31 846.641,329.496C846.826,329.496 847.013,329.682 847.384,329.682C848.316,330.24 849.245,330.054 850.548,329.868C851.665,329.682 852.781,329.682 854.084,329.868C856.503,329.496 859.482,329.496 862.459,331.171C863.391,331.729 863.576,332.66 863.203,333.59C862.646,334.521 861.714,334.707 860.784,334.334C858.551,333.031 856.318,333.217 854.271,333.59L853.527,333.59C852.782,333.404 851.852,333.404 850.92,333.59C849.432,333.776 847.756,333.962 845.896,333.032C844.779,332.846 843.662,333.032 842.545,333.032L839.009,333.032C838.266,333.032 837.521,332.846 836.777,332.66C835.102,332.288 834.17,332.102 833.055,333.032C832.683,333.404 832.123,333.404 831.566,333.404C830.263,333.218 829.147,332.287 828.215,331.543C827.657,331.171 826.727,330.426 826.54,330.426L826.355,330.612C825.983,330.984 825.611,331.17 825.238,331.17C824.307,331.17 823.191,332.287 822.073,333.217C821.329,333.961 820.399,334.706 819.467,335.078C818.909,335.45 818.351,335.45 817.792,335.078C816.49,334.52 815.188,335.078 813.14,336.381C812.953,336.567 812.581,336.567 812.208,336.567C811.651,336.567 810.906,336.939 810.161,337.125C808.859,337.683 807.369,338.242 805.695,337.869C804.95,337.869 803.833,338.427 802.716,338.986C802.158,339.358 801.6,339.544 800.856,339.917C800.669,340.103 800.297,340.289 800.112,340.475C798.809,341.406 796.762,342.522 794.901,341.964C793.783,342.708 792.667,342.522 791.922,342.522C791.179,342.522 791.179,342.522 790.991,342.708C789.874,344.383 788.386,344.941 786.525,344.011C786.525,344.197 786.338,344.383 786.338,344.569C786.338,344.755 786.153,344.941 785.966,345.127C784.291,347.174 782.616,347.36 781.314,347.546C781.127,347.546 780.755,347.546 780.57,347.732L780.012,347.732C779.268,347.732 778.151,348.663 777.22,349.407C777.033,349.593 776.661,349.779 776.288,349.779C775.171,349.965 773.683,351.082 772.567,352.198C770.892,353.687 769.031,355.176 766.984,354.803C765.681,354.989 764.378,356.292 763.262,357.222C763.075,357.408 763.075,357.408 762.89,357.594C762.518,358.338 761.958,359.269 760.843,359.455C760.471,359.641 760.099,359.641 759.911,359.455C759.914,359.458 759.914,359.458 759.729,359.458Z" style="fill:rgb(129,150,201);fill-rule:nonzero;"/>
            <path d="M763.45,331.356C762.52,331.356 761.776,330.798 761.404,330.053C760.659,329.681 760.101,328.936 760.286,328.006C760.473,326.703 761.589,326.331 761.776,326.331C762.333,326.331 762.706,326.331 762.893,326.517C763.078,325.959 763.823,325.4 764.381,325.4L764.94,325.4C765.125,325.214 765.312,324.842 765.497,324.469C766.241,323.166 767.172,320.933 769.219,321.119C770.708,321.119 771.452,322.422 771.825,323.352C771.825,323.166 772.011,323.166 772.011,322.98C772.198,322.422 772.57,322.049 772.755,321.491C773.872,319.816 774.989,317.583 777.223,317.769C778.339,317.769 779.083,318.327 779.827,319.444C782.061,320.002 784.666,318.886 787.457,316.28L787.644,316.094C789.691,314.605 791.923,314.791 793.6,314.977C795.46,315.163 796.764,315.163 798.252,313.86C798.624,313.488 799.184,313.302 799.741,313.302C801.044,313.488 802.347,313.116 803.835,312.744L804.579,312.558C806.441,312 808.86,311.627 811.093,312.558C812.025,312.93 812.397,314.047 812.025,314.791C811.653,315.722 810.535,316.094 809.791,315.722C808.674,315.164 807.372,315.35 805.511,315.908L804.768,316.094C803.279,316.466 801.789,316.838 800.115,316.838C797.696,318.699 795.461,318.513 793.414,318.327C791.74,318.141 790.81,318.141 789.693,318.885C785.599,322.607 781.69,323.724 777.967,322.421C777.595,322.235 777.224,322.049 777.036,321.49C777.036,321.49 777.036,321.304 776.851,321.304C776.479,321.862 775.919,322.793 775.734,323.165C775.547,323.537 775.362,323.909 774.99,324.468C774.059,326.143 773.128,328.004 771.268,327.818C769.779,327.632 769.221,326.329 768.849,325.399C768.849,325.585 768.662,325.585 768.662,325.771C767.918,327.446 766.988,329.121 765.498,329.307C765.126,330.051 764.381,330.796 763.451,330.796C763.636,331.356 763.45,331.356 763.45,331.356Z" style="fill:rgb(129,150,201);fill-rule:nonzero;"/>
            <path d="M704.081,326.889C703.151,326.889 702.406,326.331 701.849,325.586C700.36,325.586 699.242,323.911 698.313,322.422C698.126,322.236 698.126,322.05 698.126,322.05C697.941,322.981 697.382,324.469 696.079,324.656C694.218,325.028 693.102,323.353 691.986,321.678C691.799,321.306 691.427,320.934 691.241,320.561C691.055,320.189 690.311,319.444 689.752,318.886L689.752,319.072C689.567,319.444 689.195,319.816 688.822,320.003C685.285,321.678 681.377,320.934 676.725,317.77C675.608,317.212 674.491,317.398 673.002,317.77C671.142,318.142 668.721,318.514 666.116,317.026C664.442,317.212 662.952,317.026 661.463,316.84L660.719,316.654C658.859,316.468 657.555,316.468 656.439,317.026C655.507,317.584 654.577,317.212 654.02,316.282C653.461,315.352 653.833,314.421 654.763,313.863C656.996,312.56 659.231,312.746 661.278,313.119L662.022,313.305C663.51,313.491 664.999,313.677 666.115,313.305C666.673,313.119 667.233,313.305 667.605,313.677C669.093,314.794 670.582,314.608 672.257,314.235C673.933,313.863 676.165,313.491 678.4,314.607C678.4,314.607 678.585,314.607 678.585,314.793C681.749,317.026 684.355,317.771 686.588,317.026C687.147,315.909 688.077,315.165 689.007,314.979C691.054,314.607 692.543,316.654 693.846,318.143C694.218,318.515 694.405,319.074 694.778,319.446C694.778,319.446 694.963,319.632 694.963,319.818C695.335,318.887 695.895,317.585 697.382,317.399C699.243,317.027 700.546,319.074 701.477,320.377C701.662,320.749 701.849,321.121 702.034,321.308C702.22,321.308 702.406,321.122 702.592,321.122C703.336,321.122 703.896,321.308 704.268,322.053C704.64,321.867 705.011,321.681 705.384,321.681C705.756,321.681 706.688,321.867 707.06,323.17C707.245,323.914 706.873,324.845 706.316,325.217C705.756,326.145 705.198,326.889 704.081,326.889Z" style="fill:rgb(129,150,201);fill-rule:nonzero;"/>
            <g>
                <path d="M870.65,332.472C871.022,332.844 871.394,333.03 871.767,333.403C872.51,333.961 873.442,334.147 874.371,334.334C883.49,335.078 889.632,342.895 889.819,343.081C891.865,345.687 895.402,346.059 898.007,344.198C900.613,342.151 900.986,338.615 899.124,336.009C898.939,335.823 891.494,331.356 889.26,329.309C887.4,327.634 891.308,328.378 888.329,326.703C884.793,324.656 880.512,322.981 875.674,322.609L875.489,322.609C874.744,322.609 873.999,322.609 873.255,322.795C871.023,323.539 869.348,325.401 869.161,328.006C868.975,329.681 869.532,331.356 870.65,332.472Z" style="fill:rgb(255,234,182);fill-rule:nonzero;"/>
                <path d="M870.65,332.472C870.65,327.633 876.978,326.517 882.189,326.33C885.353,326.33 888.145,326.516 888.33,326.702L878.653,324.283L873.255,322.98C871.023,323.724 869.348,325.585 869.161,328.191C868.975,329.681 869.532,331.356 870.65,332.472Z" style="fill:rgb(255,234,182);fill-rule:nonzero;"/>
            </g>
            <path d="M890.936,344.756C890.377,344.756 890.004,344.57 889.632,344.198C889.632,344.198 882.561,336.754 874.186,336.009C872.882,335.823 871.767,335.451 870.835,334.892C868.416,333.403 867.114,330.798 867.486,328.006C867.858,323.912 871.394,320.748 875.674,321.12C882.746,321.678 889.26,325.587 892.611,328.006C893.355,328.564 893.541,329.495 892.983,330.239C892.424,330.983 891.493,331.17 890.749,330.611C887.772,328.564 881.63,324.842 875.302,324.283C873.07,324.097 871.023,325.772 870.835,328.191C870.65,329.68 871.394,331.169 872.697,332.099C873.254,332.471 873.999,332.657 874.558,332.843C884.421,333.587 892.238,342.148 892.238,342.335C892.795,343.079 892.61,344.01 891.865,344.568C891.679,344.569 891.308,344.756 890.936,344.756Z" style="fill:rgb(255,234,182);fill-rule:nonzero;"/>
            <path d="M613.633,314.978C559.849,355.922 517.602,336.008 535.654,262.309C543.47,236.068 543.283,214.665 563.57,223.971C571.386,231.601 567.851,235.138 564.314,246.49C558.544,262.309 551.285,300.275 557.799,309.767C566.174,318.7 586.832,304.37 597.998,297.484C608.981,289.295 623.124,305.114 613.633,314.978Z" style="fill:rgb(255,234,182);fill-rule:nonzero;"/>
            <path d="M620.892,317.77L636.897,301.764L642.853,316.095L648.249,329.122L635.221,323.725L620.892,317.77Z" style="fill:rgb(255,234,182);fill-rule:nonzero;"/>
            <path d="M635.221,323.725C636.153,322.236 637.082,320.747 638.385,319.258C639.689,317.955 641.177,316.839 642.666,315.908L648.064,328.936L635.221,323.725Z" style="fill:rgb(234,42,33);fill-rule:nonzero;"/>
            <path d="M622.969,316.877L646.315,327.807L635.75,303.83L622.969,316.877ZM647.676,329.381C646.71,327.204 634.999,325.269 634.814,325.083L620.333,319.258C619.776,319.072 619.403,318.514 619.403,318.141C619.216,317.583 619.403,317.024 619.775,316.652L635.78,300.647C636.152,300.275 636.71,300.089 637.269,300.275C637.826,300.461 638.199,300.833 638.385,301.206L644.017,315.443C644.202,316.001 649.042,327.632 648.485,328.19C648.297,328.376 647.826,329.721 647.676,329.381Z" style="fill:rgb(226,151,0);fill-rule:nonzero;"/>
            <path d="M540.169,237.537L556.184,221.442L636.792,301.641L620.779,317.737L540.169,237.537Z" style="fill:rgb(204,87,73);fill-rule:nonzero;"/>
            <path d="M542.292,237.532L620.776,315.617L634.673,301.648L556.191,223.563L542.292,237.532ZM620.781,319.238C620.398,319.238 620.016,319.092 619.722,318.801L539.114,238.601C538.527,238.017 538.525,237.067 539.109,236.479L555.122,220.383C555.404,220.101 555.784,219.942 556.183,219.941C556.573,219.945 556.962,220.097 557.244,220.378L637.855,300.578C638.136,300.858 638.295,301.24 638.296,301.638C638.297,302.036 638.141,302.418 637.86,302.7L621.845,318.796C621.55,319.091 621.166,319.238 620.781,319.238Z" style="fill:rgb(183,19,11);fill-rule:nonzero;"/>
            <path d="M628.145,310.828C627.773,310.828 627.963,311.256 627.778,310.884L547.006,230.671C546.448,230.113 546.448,228.996 547.006,228.438C547.565,227.88 548.681,227.88 549.24,228.438L629.824,308.651C630.382,309.209 629.638,309.717 629.08,310.275C628.895,310.647 628.517,310.828 628.145,310.828Z" style="fill:rgb(183,19,11);fill-rule:nonzero;"/>
            <path d="M532.863,232.533L551.472,214.294L557.428,220.436L539.19,238.674L532.863,232.533Z" style="fill:rgb(230,236,255);fill-rule:nonzero;"/>
            <path d="M528.209,209.641C532.676,205.174 539.748,205.174 544.214,209.641L550.169,215.596L534.164,231.601L528.209,225.645C523.742,221.179 523.742,213.921 528.209,209.641Z" style="fill:rgb(255,202,59);fill-rule:nonzero;"/>
            <path d="M528.209,209.641M536.211,207.78C533.792,207.78 531.187,208.711 529.325,210.572C525.604,214.294 525.604,220.436 529.325,224.344L535.335,230.317L549.292,216.913L542.91,210.572C541.05,208.71 538.631,207.78 536.211,207.78ZM534.164,233.276C533.792,233.276 533.234,233.09 533.047,232.718L527.092,226.763C522.068,221.738 522.068,213.549 527.092,208.338C532.117,203.313 540.307,203.313 545.518,208.338L551.472,214.294C552.031,214.852 551.468,215.355 550.91,215.913L534.443,231.601C534.071,232.159 534.724,233.276 534.164,233.276Z" style="fill:rgb(226,151,0);fill-rule:nonzero;"/>
            <g>
                <path d="M615.866,278.873C615.68,279.617 615.494,280.362 615.122,280.92C614.75,281.478 614.378,282.037 613.82,282.409C612.888,283.153 611.958,283.898 611.213,284.828C610.282,285.945 609.538,286.875 608.981,287.992C607.864,289.853 607.491,291.528 607.305,293.017C606.934,295.622 607.491,297.484 607.491,297.856L601.722,306.789L596.325,301.578C596.139,301.206 595.208,298.228 595.395,293.761C595.58,287.992 597.814,280.175 606.562,273.289C609.167,271.242 612.703,271.614 614.75,274.22C615.68,275.709 616.052,277.384 615.866,278.873Z" style="fill:rgb(255,239,200);fill-rule:nonzero;"/>
                <path d="M624.986,283.712C625.358,285.387 624.986,287.248 624.054,288.737C623.683,289.109 623.311,289.481 622.938,289.854C622.379,290.226 622.006,290.598 621.448,291.157C620.331,292.088 619.402,293.204 618.656,294.135C615.307,298.602 614.748,302.51 614.748,303.254L601.534,312.187L603.024,303.068C603.024,302.882 603.024,301.579 603.581,299.346C603.953,297.857 604.512,295.81 605.443,293.763C605.628,293.205 606,292.46 606.373,291.902C607.676,289.483 609.537,286.691 612.143,284.085C613.073,283.154 614.003,282.224 615.12,281.293C615.306,281.107 615.678,280.921 615.865,280.735C618.47,278.688 622.193,279.246 624.053,281.852C624.614,282.223 624.799,282.967 624.986,283.712Z" style="fill:rgb(255,239,200);fill-rule:nonzero;"/>
                <path d="M631.314,296.926C631.127,297.298 630.755,297.67 630.57,298.043C630.011,298.787 629.08,299.346 628.151,299.532C619.589,302.696 615.682,311.815 615.682,312.001C615.682,312.001 609.354,315.351 608.051,315.165C604.887,314.793 603.584,310.512 604.887,307.535C604.887,307.349 605.819,305.488 607.307,302.882C608.61,300.835 610.47,298.229 612.889,295.81C615.682,293.018 619.404,290.227 624.057,288.552C624.8,288.366 625.545,288.18 626.104,288.18C628.523,288.18 630.571,289.669 631.5,292.088C632.244,293.762 632.058,295.437 631.314,296.926Z" style="fill:rgb(255,239,200);fill-rule:nonzero;"/>
                <path d="M614.564,274.406C614.564,274.406 600.234,278.5 595.208,293.947C595.395,288.178 597.627,280.361 606.375,273.475C608.981,271.429 612.702,271.801 614.564,274.406Z" style="fill:rgb(255,239,200);fill-rule:nonzero;"/>
                <path d="M624.986,283.712C624.614,283.898 618.657,282.223 607.119,293.204C606.562,293.762 605.63,293.576 605.445,293.576C604.886,293.576 605.073,293.018 606.375,291.715C606.562,291.529 607.492,290.226 608.982,288.179C609.726,287.248 610.47,286.318 611.214,285.015C611.401,284.643 611.773,284.271 611.958,283.898C613.075,282.409 614.377,280.734 615.866,279.059C615.68,279.803 615.494,280.548 615.122,281.106C615.309,280.92 615.68,280.734 615.866,280.548C618.472,278.501 622.195,279.059 624.055,281.665C624.614,282.223 624.799,282.967 624.986,283.712Z" style="fill:rgb(255,239,200);fill-rule:nonzero;"/>
                <path d="M631.314,296.926C630.01,292.087 623.496,292.832 618.658,293.948C615.494,294.692 613.075,295.809 612.89,295.809L621.45,290.97L626.289,288.178C628.708,288.178 630.756,289.667 631.687,292.086C632.244,293.762 632.058,295.437 631.314,296.926Z" style="fill:rgb(255,239,200);fill-rule:nonzero;"/>
                <path d="M595.58,301.02C594.836,301.02 594.091,300.462 593.906,299.717C592.975,294.878 592.416,282.409 605.258,272.173C606.747,270.87 608.794,270.312 610.841,270.498C612.888,270.684 614.564,271.801 615.866,273.29C617.913,275.709 618.1,279.246 616.424,281.851C615.866,282.595 614.936,282.782 614.192,282.409C613.448,281.851 613.26,280.92 613.633,280.176C614.565,278.687 614.377,276.64 613.261,275.337C612.518,274.406 611.586,273.848 610.469,273.848C609.353,273.662 608.237,274.034 607.305,274.779C595.952,283.898 596.325,294.879 597.07,299.159C597.218,300.488 596.131,301.022 596.131,301.022C596.131,301.022 595.767,301.02 595.58,301.02Z" style="fill:rgb(255,239,200);fill-rule:nonzero;"/>
                <path d="M604.699,297.112C604.513,297.112 604.327,297.112 604.142,296.926C603.21,296.554 602.838,295.623 603.21,294.879C604.699,290.599 608.049,284.457 614.936,279.246C616.611,277.943 618.471,277.571 620.519,277.757C622.566,277.943 624.24,279.06 625.543,280.549C627.59,283.154 628,286.225 626.139,288.83C625.581,289.574 624.24,290.413 623.496,289.854C622.752,289.296 622.566,288.365 623.124,287.621C624.241,286.132 624.241,284.085 623.124,282.596C622.38,281.665 621.449,281.107 620.332,280.921C619.215,280.735 618.1,281.107 617.168,281.852C610.84,286.691 607.864,292.274 606.561,295.996C606.002,296.553 605.258,297.112 604.699,297.112Z" style="fill:rgb(255,239,200);fill-rule:nonzero;"/>
                <path d="M613.633,316.653C613.448,316.653 613.261,316.653 612.89,316.467C612.146,316.095 611.453,315.773 611.64,315.029C611.64,314.843 618.101,301.579 627.406,298.042C628.15,297.856 628.708,297.484 629.08,296.925C630.198,295.808 630.383,294.133 630.011,292.645C629.64,291.528 628.895,290.784 627.779,290.226C626.661,289.668 625.545,289.668 624.615,290.04C620.148,291.715 616.053,294.507 612.518,298.415C611.959,299.159 610.842,299.159 610.284,298.601C609.54,298.043 609.54,296.926 610.099,296.368C614.006,292.088 618.474,288.924 623.498,287.063C625.36,286.319 627.406,286.505 629.268,287.249C631.128,288.18 632.432,289.668 633.175,291.529C634.107,294.135 633.547,297.112 631.687,299.159C630.943,300.09 629.825,300.834 628.708,301.206C620.892,303.998 616.039,315.011 616.131,315.172C616.131,315.173 614.192,316.653 613.633,316.653Z" style="fill:rgb(255,239,200);fill-rule:nonzero;"/>
            </g>
            <g>
                <path d="M715.62,260.821C715.62,260.821 703.896,264.729 704.081,274.407C704.268,284.271 720.646,279.99 726.786,273.104L720.273,267.893L715.62,260.821Z" style="fill:rgb(204,87,73);fill-rule:nonzero;"/>
                <path d="M715.975,262.062C713.183,263.365 705.572,267.707 705.757,274.407C705.757,276.454 706.689,277.571 708.364,278.315C712.272,279.804 720.572,277.109 725.037,273.201L719.343,269.568C719.157,269.382 719.157,269.382 718.971,269.196L715.975,262.062ZM710.967,282.037C709.479,282.037 708.363,281.851 707.06,281.479C704.081,280.362 702.406,277.943 702.406,274.593C702.22,263.613 714.503,259.518 715.062,259.332C715.805,259.146 716.55,259.332 716.922,260.076L720.273,267.893L727.717,272.173C728.089,272.545 728.276,272.917 728.276,273.29C728.276,273.662 728.089,274.221 727.904,274.593C723.81,278.873 716.551,282.037 710.967,282.037Z" style="fill:rgb(204,87,73);fill-rule:nonzero;"/>
                <path d="M705.198,279.804C704.641,279.804 704.268,279.618 703.896,279.06C703.337,278.316 703.524,277.385 704.268,276.827C704.639,276.455 713.573,269.941 719.342,266.777C720.086,266.405 721.203,266.591 721.575,267.521C721.948,268.265 721.761,269.382 720.831,269.754C715.248,272.732 706.128,279.618 706.128,279.618C705.944,279.617 705.571,279.804 705.198,279.804Z" style="fill:rgb(204,87,73);fill-rule:nonzero;"/>
            </g>
            <path d="M744.839,394.923C744.444,394.923 744.047,394.767 743.753,394.457C743.463,394.153 714.294,363.901 673.894,352.884C633.474,341.863 599.622,349.856 599.286,349.936C598.483,350.131 597.67,349.639 597.475,348.833C597.279,348.028 597.772,347.218 598.576,347.021C598.922,346.937 633.484,338.754 674.684,349.989C715.913,361.233 745.632,392.078 745.927,392.388C746.498,392.988 746.476,393.937 745.875,394.508C745.583,394.785 745.211,394.923 744.839,394.923Z" style="fill:rgb(129,150,201);fill-rule:nonzero;"/>
            <path d="M737.313,397.06C736.993,397.06 736.672,396.958 736.4,396.749C676.206,350.538 599.82,356.298 599.054,356.365C598.229,356.415 597.504,355.82 597.436,354.995C597.366,354.169 597.98,353.444 598.806,353.375C599.582,353.313 677.093,347.437 738.227,394.37C738.883,394.874 739.007,395.815 738.502,396.473C738.207,396.858 737.762,397.06 737.313,397.06Z" style="fill:rgb(129,150,201);fill-rule:nonzero;"/>
            <path d="M732.727,400.579C732.475,400.579 732.219,400.516 731.985,400.382C672.347,366.361 599.563,361.374 598.834,361.328C598.007,361.275 597.38,360.562 597.433,359.735C597.486,358.909 598.194,358.283 599.025,358.334C599.759,358.381 673.215,363.402 733.47,397.776C734.191,398.186 734.441,399.102 734.031,399.822C733.754,400.307 733.247,400.579 732.727,400.579Z" style="fill:rgb(129,150,201);fill-rule:nonzero;"/>
            <path d="M744.84,394.923C744.468,394.923 744.096,394.786 743.807,394.509C743.206,393.939 743.183,392.988 743.754,392.389C744.049,392.078 773.769,361.234 814.998,349.99C856.201,338.755 890.761,346.939 891.105,347.022C891.909,347.218 892.403,348.029 892.206,348.834C892.011,349.64 891.201,350.136 890.394,349.937C890.058,349.856 856.205,341.862 815.787,352.885C775.355,363.911 746.217,394.155 745.927,394.458C745.631,394.766 745.237,394.923 744.84,394.923Z" style="fill:rgb(129,150,201);fill-rule:nonzero;"/>
            <path d="M752.367,397.06C751.917,397.06 751.471,396.858 751.177,396.473C750.672,395.816 750.796,394.874 751.453,394.37C812.585,347.436 890.098,353.312 890.873,353.375C891.698,353.444 892.312,354.169 892.243,354.995C892.174,355.82 891.481,356.421 890.623,356.365C889.858,356.297 813.471,350.539 753.28,396.749C753.007,396.959 752.688,397.06 752.367,397.06Z" style="fill:rgb(129,150,201);fill-rule:nonzero;"/>
            <path d="M756.951,400.579C756.431,400.579 755.924,400.308 755.648,399.822C755.237,399.102 755.488,398.186 756.207,397.776C816.462,363.402 889.918,358.38 890.654,358.334C891.491,358.284 892.193,358.909 892.245,359.735C892.298,360.562 891.67,361.275 890.844,361.328C890.115,361.374 817.331,366.36 757.695,400.382C757.459,400.515 757.203,400.579 756.951,400.579Z" style="fill:rgb(129,150,201);fill-rule:nonzero;"/>
            <path d="M740.444,277.392C740.429,277.392 740.416,277.392 740.403,277.391C713.84,276.678 713.929,255.791 713.934,255.58C713.948,254.752 714.653,254.12 715.461,254.108C716.288,254.124 716.947,254.806 716.934,255.632C716.923,256.38 716.966,273.76 740.483,274.392C741.311,274.413 741.963,275.103 741.942,275.931C741.919,276.747 741.252,277.392 740.444,277.392Z" style="fill:rgb(204,87,73);fill-rule:nonzero;"/>
            <path d="M535.01,232.528L539.173,236.569L555.323,220.421L551.445,216.422L535.01,232.528ZM539.19,240.174C538.813,240.174 538.437,240.033 538.146,239.75L531.819,233.609C531.528,233.328 531.364,232.941 531.363,232.537C531.362,232.132 531.524,231.745 531.813,231.462L550.422,213.223C550.707,212.944 551.09,212.811 551.491,212.794C551.891,212.799 552.272,212.963 552.549,213.25L558.505,219.392C559.076,219.98 559.069,220.918 558.49,221.497L540.25,239.735C539.957,240.027 539.573,240.174 539.19,240.174Z" style="fill:rgb(129,150,201);fill-rule:nonzero;"/>
            <path d="M637.458,323.014L645.305,326.199L641.992,318.201C640.261,319.526 638.727,321.157 637.458,323.014ZM648.064,330.436C647.874,330.436 647.683,330.4 647.5,330.326L634.658,325.115C634.247,324.949 633.932,324.609 633.795,324.187C633.659,323.765 633.716,323.304 633.951,322.929L634.534,322.003C636.445,318.998 638.965,316.461 641.826,314.665C642.201,314.432 642.68,314.36 643.103,314.492C643.523,314.627 643.885,314.925 644.054,315.333L649.451,328.361C649.683,328.92 649.556,329.563 649.13,329.992C648.84,330.282 648.455,330.436 648.064,330.436Z" style="fill:rgb(183,19,11);fill-rule:nonzero;"/>
        </g>
    </g>
</svg>
