<svg width="62" height="77" viewBox="0 0 62 77" fill="none" xmlns="http://www.w3.org/2000/svg">
<path d="M17.5229 33.6163L17.2623 34.4217C16.8567 35.6754 15.6645 36.2936 14.4804 35.8642C13.3823 35.4661 12.7141 34.1732 13.1196 32.9196L13.3801 32.1142C13.771 30.9061 15.0618 30.2748 16.1598 30.6729C17.3439 31.1023 17.9137 32.4083 17.5229 33.6163ZM20.6937 23.8152L19.7523 26.725C19.3473 27.9768 18.1551 28.595 16.971 28.1656C15.8729 27.7675 15.2047 26.4747 15.6096 25.2229L17.1157 20.5673C17.1299 20.5236 17.1729 20.5392 17.1877 20.4936C17.1588 20.4343 17.1588 20.4343 17.1735 20.3887C17.5502 19.2243 18.8556 18.5474 19.9536 18.9457C22.6179 19.9117 25.4983 18.4561 26.3959 15.6811C27.3079 12.8623 25.8611 9.88644 23.1968 8.9203C21.4639 8.29191 19.6236 8.72597 18.3423 9.91048C17.4042 10.7714 16.0202 10.6687 15.2075 9.6737C14.4373 8.69601 14.5203 7.27457 15.4596 6.41596C17.8786 4.19258 21.3613 3.35442 24.6158 4.53455C29.5209 6.31311 32.175 11.9764 30.4955 17.1677C29.062 21.599 24.9429 24.2566 20.6937 23.8152Z" fill="#4D5070"/>
<path d="M6.60286 15.4435L6.68169 14.8314C6.80436 13.8789 7.50338 13.2726 8.3128 13.4168C9.06352 13.5508 9.63617 14.3837 9.51365 15.3365L9.43482 15.9484C9.31657 16.8664 8.55557 17.4956 7.80499 17.3616C6.99557 17.2173 6.48476 16.3615 6.60286 15.4435ZM5.64407 22.8914L5.92868 20.6801C6.0512 19.7288 6.75023 19.1226 7.55965 19.267C8.31037 19.4008 8.88316 20.2337 8.76064 21.1851L8.30523 24.7228C8.30095 24.7559 8.27153 24.7507 8.2671 24.7853C8.29224 24.8238 8.29224 24.8238 8.28767 24.8585C8.17385 25.7433 7.40842 26.407 6.65769 26.2732C4.83651 25.9485 3.14342 27.386 2.87195 29.4948C2.59619 31.6368 3.85573 33.5668 5.67691 33.8915C6.86176 34.1028 7.99834 33.5391 8.69209 32.5156C9.2009 31.7706 10.1029 31.6538 10.7356 32.2539C11.3393 32.8474 11.4428 33.8756 10.9331 34.6191C9.62146 36.5424 7.47282 37.621 5.24793 37.2244C1.89488 36.6264 -0.438266 32.94 0.0694049 28.995C0.50296 25.6275 2.86052 23.1598 5.64407 22.8914Z" fill="#4D5070"/>
<path d="M45.5053 69.8417L45.1267 70.2714C44.5375 70.9403 43.6692 70.9219 43.1009 70.2283C42.5739 69.5851 42.5491 68.514 43.1384 67.8451L43.517 67.4154C44.0849 66.7709 45.0142 66.8154 45.5411 67.4586C46.1095 68.1522 46.0732 69.1972 45.5053 69.8417ZM50.1126 64.6126L48.7448 66.1651C48.1563 66.833 47.288 66.8144 46.7198 66.1209C46.1927 65.4778 46.168 64.4065 46.7565 63.7386L48.9449 61.2548C48.9654 61.2315 48.9861 61.2567 49.0075 61.2325C49.0074 61.1839 49.0074 61.1839 49.0288 61.1595C49.5762 60.5384 50.5268 60.5587 51.0538 61.2017C52.3326 62.7622 54.4194 62.8314 55.7239 61.351C57.049 59.847 57.0453 57.4134 55.7665 55.8529C54.9347 54.8378 53.7411 54.4726 52.6615 54.7894C51.8728 55.0171 51.0962 54.4649 50.9034 53.5357C50.7305 52.6327 51.1793 51.7419 51.968 51.516C54.0027 50.9266 56.2662 51.6068 57.8282 53.513C60.1824 56.3859 60.1319 60.9824 57.6916 63.7521C55.6084 66.1164 52.4618 66.39 50.1126 64.6126Z" fill="#4D5070"/>
<path d="M28.4241 57.5917C28.1598 59.133 25.3632 75.383 24.7829 75.383C24.1741 75.383 12.1398 77.095 11.9443 76.8649C11.7487 76.6334 14.6412 72.0731 16.2792 71.8691C17.916 71.6635 21.7244 72.6289 21.7244 72.6289C22.9149 70.4073 23.9995 58.8769 24.1176 57.5917H28.4241Z" fill="#FFEBB9"/>
<path d="M40.8744 76.8649C40.7957 76.9575 36.2345 77.0444 34.5571 76.8838C30.6871 76.5134 27.0902 75.383 26.7262 75.383C26.1457 75.383 29.6345 59.1317 29.9665 57.5917H34.4957C34.0283 58.8798 29.9039 70.4073 31.093 72.6289C31.093 72.6289 34.9014 71.6635 36.5396 71.8691C38.1762 72.0731 41.0699 76.6334 40.8744 76.8649Z" fill="#FFEFC8"/>
<path d="M56.3748 54.915C56.0195 56.1281 53.9249 58.6225 53.3815 58.9707C52.8381 59.3191 50.1937 55.9884 50.202 55.2412C50.2102 54.4941 51.6756 50.5191 52.6159 49.8198C53.5563 49.1205 56.743 53.6584 56.3748 54.915Z" fill="#FFEAB6"/>
<path d="M54.2756 47.6704C54.2709 47.0746 53.9296 45.2325 53.4892 45.2429C53.0486 45.2533 53.0272 46.5864 53.0336 47.1284C53.0472 48.245 52.5917 49.6924 52.3606 50.3883C52.1295 51.0841 53.7374 50.985 53.7374 50.985C53.7374 50.985 54.2875 49.2132 54.2756 47.6704Z" fill="#FFEAB6"/>
<path d="M52.0704 51.3532C52.0704 51.3532 51.3744 52.3866 51.7248 53.0148C52.0639 53.619 52.7639 52.9261 52.8147 52.8774C52.7783 52.9323 52.1597 53.9015 52.5671 54.4901C52.9908 55.1015 53.592 54.2639 53.6307 54.2096C53.6103 54.2743 53.3511 55.1348 53.7469 55.4992C54.4276 56.1249 55.1414 53.9457 55.7919 53.6441C55.7919 53.6441 56.3521 54.883 56.3748 54.915C56.3748 54.915 57.0901 52.8582 56.6954 51.8483C56.4872 51.3161 56.0247 51.4392 56.0247 51.4392C56.0247 51.4392 56.3176 50.806 56.0093 50.3307C55.8505 50.0872 55.3782 50.1695 55.3782 50.1695C55.3782 50.1695 55.5948 49.651 55.2981 49.2484C55.0623 48.9262 54.5896 49.0191 54.4324 49.1038C53.2219 49.7554 52.0704 51.3532 52.0704 51.3532Z" fill="#FFEAB6"/>
<path d="M54.5535 49.0674L54.5469 49.0497C53.5686 49.4949 52.6095 50.3367 52.0356 51.3787C52.0167 51.413 52.0559 51.4638 52.0827 51.4308C52.8487 50.4899 53.5923 49.7267 54.5535 49.0674Z" fill="white"/>
<path d="M55.3873 50.1532L55.3758 50.1312C54.3699 50.5962 53.3118 51.5794 52.7704 52.8721C52.7519 52.9165 52.773 52.9782 52.7977 52.9291C53.213 52.1016 54.5195 50.7416 55.3873 50.1532Z" fill="white"/>
<path d="M53.6194 54.3151C54.1792 53.099 55.0139 52.2165 55.982 51.4552L55.9688 51.4303C55.409 51.6508 54.835 52.2118 54.4197 52.6928C54.022 53.1535 53.7417 53.6632 53.5833 54.292C53.5771 54.3163 53.6074 54.341 53.6194 54.3151Z" fill="white"/>
<path d="M52.0704 51.3532C51.9532 51.5673 51.8496 51.7919 51.7685 52.025C51.6903 52.2562 51.6306 52.5092 51.6631 52.7409C51.68 52.855 51.7257 52.9577 51.8002 53.0268C51.8765 53.0964 51.968 53.1495 52.0619 53.1648C52.2499 53.2001 52.4504 53.092 52.5929 52.9471L52.9512 52.5828L52.7223 53.0717C52.6224 53.2851 52.5422 53.5269 52.5071 53.7656C52.4714 54.0037 52.4897 54.2521 52.6075 54.4221C52.7275 54.6024 52.9097 54.6731 53.0862 54.5844C53.2637 54.5054 53.4293 54.3281 53.5553 54.1439L53.9073 53.6296L53.7185 54.2484C53.6674 54.416 53.6307 54.6031 53.6179 54.7824C53.606 54.9615 53.6193 55.1452 53.6881 55.2851C53.7551 55.4225 53.8868 55.5182 54.015 55.5034C54.1501 55.4903 54.2872 55.3839 54.4084 55.2683C54.6536 55.0286 54.8585 54.7237 55.0742 54.4336C55.1814 54.2871 55.2888 54.1399 55.4025 53.9987C55.5167 53.8614 55.6364 53.715 55.7919 53.6441C55.6445 53.7328 55.5423 53.8898 55.4365 54.0342C55.3335 54.1836 55.2365 54.3389 55.1391 54.4945C54.9445 54.8059 54.7454 55.1168 54.4968 55.3889C54.3699 55.5185 54.2283 55.6538 54.0327 55.6886C53.8305 55.7229 53.6358 55.5824 53.5397 55.3882C53.4412 55.1908 53.4288 54.9699 53.4383 54.7673C53.4511 54.5614 53.486 54.3678 53.543 54.1708L53.7061 54.2752C53.5587 54.494 53.3912 54.6874 53.1563 54.802C53.0405 54.8577 52.8977 54.8745 52.7685 54.8246C52.6384 54.7752 52.5362 54.6775 52.4577 54.5597C52.2955 54.3135 52.2869 53.9935 52.3305 53.7286C52.3756 53.456 52.4614 53.2086 52.5772 52.9696L52.7066 53.0942C52.5201 53.2711 52.2821 53.3777 52.0379 53.3224C51.9178 53.294 51.8122 53.2238 51.722 53.1322C51.6292 53.0375 51.5742 52.8959 51.5606 52.7589C51.5358 52.4797 51.6234 52.228 51.7163 51.9974C51.8132 51.7661 51.9336 51.551 52.0704 51.3532Z" fill="white"/>
<path d="M51.7233 49.907C51.9533 49.9685 52.165 50.102 52.3693 50.2388C52.5742 50.3773 52.7673 50.5384 52.9542 50.7078C53.3252 51.053 53.6833 51.4071 54.0041 51.8303C54.0833 51.9379 54.1599 52.0512 54.2172 52.195C54.2453 52.2663 54.2676 52.3513 54.2672 52.4411C54.2678 52.486 54.264 52.5248 54.2499 52.5791C54.2353 52.6254 54.2172 52.6666 54.1941 52.7007C54.1051 52.8434 53.9727 52.9192 53.8429 52.9555C53.7114 52.9868 53.5814 52.9811 53.4568 52.9592C53.2077 52.9118 52.9821 52.7962 52.7719 52.6606C52.5594 52.5271 52.3646 52.3656 52.174 52.1994L52.302 52.0997C52.3357 52.3155 52.3472 52.5236 52.3462 52.7362C52.3447 52.9478 52.3265 53.1594 52.2885 53.3664C52.2492 53.573 52.1851 53.7735 52.0967 53.9567C52.0094 54.1409 51.8922 54.3037 51.7548 54.4335C51.8759 54.2829 51.9747 54.1116 52.0459 53.9263C52.1178 53.7411 52.16 53.5429 52.1867 53.3437C52.2132 53.1441 52.2211 52.9411 52.2127 52.7391C52.2042 52.5386 52.182 52.333 52.1428 52.1439L52.093 51.9036L52.2709 52.0443C52.4626 52.1957 52.6538 52.3486 52.8583 52.467C53.0606 52.5875 53.2714 52.6955 53.4868 52.7318C53.6953 52.7695 53.9293 52.7352 54.0367 52.5639C54.1421 52.4233 54.0026 52.169 53.862 51.971C53.7178 51.7646 53.552 51.572 53.3866 51.3801C53.2206 51.188 53.0523 50.9986 52.8764 50.8199C52.5207 50.4722 52.159 50.1134 51.7233 49.907Z" fill="white"/>
<path d="M50.3503 54.5124C50.3503 54.5124 50.0152 49.0833 51.8823 49.969C52.4373 50.2322 54.449 52.0923 54.1394 52.575C53.7395 53.1984 52.7767 52.6063 52.2224 52.1219C52.2224 52.1219 52.5572 53.9496 51.5455 54.6034C50.911 55.0134 50.3503 54.5124 50.3503 54.5124Z" fill="#FFEAB6"/>
<path d="M40.3686 55.2311L44.6669 51.4823C44.6669 51.4823 47.294 54.8432 47.7537 55.2481C48.2134 55.6531 50.3869 55.0412 50.3869 55.0412L53.9739 58.4191C53.9739 58.4191 53.2339 59.2125 52.8264 59.3103C50.941 59.7631 46.631 59.8239 45.5167 59.1724C44.1522 58.3746 40.3686 55.2311 40.3686 55.2311Z" fill="#FFEAB6"/>
<path d="M39.184 25.4864C39.184 25.4864 42.2389 24.3805 44.6499 26.3087C47.0608 28.2369 47.5348 31.3735 47.5348 31.3735C47.5348 31.3735 49.4691 31.3793 50.9738 33.3986C52.4787 35.4179 52.0774 38.5036 52.0774 38.5036C52.0774 38.5036 53.5683 39.6738 53.6086 42.3428C53.632 43.892 52.6202 45.3412 52.6202 45.3412C52.6202 45.3412 52.7109 48.4565 50.4029 50.3147C47.7861 52.4218 45.4973 52.0066 45.4973 52.0066C45.4973 52.0066 43.9187 54.0474 41.7791 54.6383C39.6396 55.2291 37.6023 54.0616 37.6023 54.0616C37.6023 54.0616 36.2597 55.3617 34.7714 55.5793C33.283 55.797 32.0922 54.6807 32.0922 54.6807C32.0922 54.6807 29.9977 56.2786 27.8099 55.9992C25.5719 55.7131 24.3949 54.4091 24.3949 54.4091C24.3949 54.4091 21.7724 55.3923 20.4371 54.9977C18.1153 54.3116 17.4701 52.0668 17.4701 52.0668C17.4701 52.0668 14.6952 51.2722 13.3561 48.2929C12.0172 45.3137 12.9949 41.7652 12.9949 41.7652C12.9949 41.7652 11.8062 40.8502 11.4269 38.9454C11.0477 37.0407 12.087 35.4384 12.087 35.4384C12.087 35.4384 11.3494 33.3553 11.8125 31.3671C12.379 28.9349 14.2816 27.77 14.2816 27.77C14.8104 24.1348 17.7717 23.7714 17.7717 23.7714C17.7717 23.7714 18.0909 22.0925 19.4851 21.2202C20.8793 20.348 22.2632 20.8028 22.2632 20.8028C22.2632 20.8028 23.9296 19.6898 25.9586 19.7389C27.9876 19.7882 29.3459 21.6419 29.3459 21.6419C29.3459 21.6419 30.5353 20.755 31.7943 20.6989C33.0534 20.6429 34.3072 22.3242 34.3072 22.3242C34.3072 22.3242 36.0576 21.6619 37.393 22.6864C39.0789 23.9795 39.184 25.4864 39.184 25.4864Z" fill="#FEC130"/>
<mask id="mask0_6_261" style="mask-type:luminance" maskUnits="userSpaceOnUse" x="19" y="21" width="35" height="32">
<path d="M46.0017 52.0397C45.9064 52.0397 45.8234 52.0369 45.7537 52.0328C45.7613 51.9686 45.767 51.9123 45.7713 51.8648C46.7672 51.2524 47.4418 50.008 47.7207 48.7407C48.6085 48.724 49.4888 48.2091 50.0039 47.2298C49.2517 47.7896 48.4022 48.1679 47.5401 48.1677C47.34 48.1677 47.1394 48.1474 46.939 48.1042C46.88 47.0267 46.5696 46.2204 46.2666 45.6762C45.9475 45.1027 45.6366 44.8207 45.6366 44.8207C45.6366 44.8207 45.9011 43.4293 45.6442 41.8675C47.117 39.438 45.9341 36.7954 43.2525 36.4391C44.7184 37.2382 46.166 38.4908 45.761 40.6092C45.7152 40.8927 45.6468 41.1746 45.5647 41.4564C45.4261 40.8361 45.1971 40.2059 44.8299 39.64C43.4452 37.5051 41.5157 37.3446 41.5157 37.3446C41.5157 37.3446 41.3795 35.8666 40.5618 34.2551C40.2246 33.5904 39.7717 32.903 39.1645 32.287C39.591 32.0218 39.9604 31.6464 40.2239 31.1553C39.7575 31.482 39.2611 31.7193 38.7486 31.9003C37.984 31.2575 37.1429 30.9232 36.3632 30.7624C36.3628 30.7624 36.3622 30.7622 36.3616 30.762L36.3611 30.7619C35.8895 30.6647 35.4405 30.6311 35.0445 30.6311C34.1559 30.6311 33.534 30.8009 33.5241 30.8035C33.524 30.7955 33.5224 30.7351 33.5091 30.6331C33.4584 30.2446 33.2369 29.2473 32.2701 28.2258C32.1567 28.1061 32.0331 27.986 31.8984 27.8665C31.2369 27.2796 30.4369 27.1388 29.8213 27.1388C29.2525 27.1388 28.841 27.2589 28.841 27.2589C28.841 27.2589 27.6864 25.4811 26.428 25.4363C26.3934 25.4349 26.3589 25.4344 26.3243 25.4344C26.099 25.4344 25.8755 25.4598 25.6606 25.5011C24.8968 24.8875 24.0496 24.5874 23.2068 24.5874C22.9424 24.5874 22.6784 24.617 22.4176 24.6758C21.9312 24.3511 21.3397 24.0832 20.6611 24.0121C20.4639 23.9916 20.2697 23.9822 20.0795 23.9822C19.9874 23.9822 19.8963 23.9844 19.8061 23.9886C20.3464 23.3235 21.2132 22.7259 22.584 22.7259C22.6791 22.7259 22.7769 22.7288 22.8769 22.7346C22.8769 22.7346 24.1395 21.8197 25.6373 21.8197C26.7887 21.8197 28.0791 22.3609 29.0406 24.2744C29.0406 24.2744 30.1972 23.3736 31.6291 23.3736C32.4142 23.3736 33.2825 23.6445 34.0876 24.4835C34.0876 24.4835 34.1806 24.4761 34.3417 24.4761C35.2359 24.4761 38.2271 24.7013 39.0235 27.6517C39.0235 27.6517 39.0842 27.6485 39.1947 27.6485C40.1775 27.6485 45.0834 27.8996 46.0221 32.862C46.0221 32.862 46.1687 32.844 46.4136 32.844C47.6185 32.844 51.1986 33.2774 51.3488 38.4089C51.3488 38.4089 53.897 41.3432 52.6232 45.3365L52.6312 45.3243L53.0416 44.5975C52.821 45.0535 52.6202 45.3412 52.6202 45.3412C52.6202 45.3412 52.6206 45.3575 52.6206 45.3884C52.6208 45.7849 52.5441 48.5907 50.4029 50.3147C48.526 51.8261 46.8175 52.0397 46.0017 52.0397ZM46.4412 50.6068C46.5622 50.3559 46.6785 50.0722 46.7689 49.7677C46.862 49.4542 46.9277 49.1188 46.9424 48.7741C46.9446 48.7243 46.9462 48.6751 46.9472 48.6262C47.1736 48.6993 47.4068 48.7373 47.6402 48.7408C47.3513 49.2956 47.0541 49.8248 46.7008 50.2865C46.6161 50.4006 46.5295 50.5073 46.4412 50.6068ZM23.9305 26.1815C23.9305 26.1815 23.6754 25.7815 23.2092 25.3235C23.2734 25.32 23.3378 25.3183 23.4023 25.3183C23.9379 25.3183 24.4789 25.4403 25.0172 25.6749C24.382 25.8934 23.9305 26.1815 23.9305 26.1815Z" fill="white"/>
</mask>
<g mask="url(#mask0_6_261)">
<path d="M53.897 21.8197H19.8061V52.0397H53.897V21.8197Z" fill="#FFD26A"/>
</g>
<path d="M53.4926 43.349C53.5674 43.0287 53.6136 42.6887 53.6081 42.3438C53.5867 40.9178 53.1515 39.9193 52.7506 39.2985C53.1516 39.919 53.587 40.9171 53.6086 42.3428C53.6089 42.361 53.609 42.3791 53.609 42.3973C53.6089 42.7238 53.5636 43.0453 53.4926 43.349ZM51.8335 35.2298C51.66 34.5964 51.3894 33.9568 50.973 33.3983C49.4687 31.3793 47.5341 31.374 47.5341 31.374C47.5341 31.374 47.3116 29.8989 46.3942 28.3495C47.312 29.8985 47.5348 31.3735 47.5348 31.3735C47.5348 31.3735 49.4691 31.3793 50.9738 33.3986C51.3898 33.9568 51.6601 34.5964 51.8335 35.2298Z" fill="#FFD26A"/>
<path d="M39.1843 25.4872C39.1843 25.4872 39.1843 25.4869 39.1842 25.4862C39.1954 25.4822 40.0637 25.1707 41.2355 25.1707C41.451 25.1707 41.6764 25.1812 41.9089 25.206C41.6771 25.1813 41.4523 25.1709 41.2377 25.1709C40.0571 25.1709 39.1843 25.4872 39.1843 25.4872ZM39.1595 25.318C39.0866 24.9353 38.8094 23.9629 37.7941 23.0239C38.8102 23.9632 39.0869 24.936 39.1595 25.318ZM17.7719 23.7709C17.7743 23.7585 17.8183 23.5356 17.9383 23.2153C17.815 23.5447 17.7719 23.7709 17.7719 23.7709ZM19.365 21.2991C19.4041 21.2722 19.4443 21.2458 19.4851 21.2202C20.1676 20.7932 20.8478 20.6841 21.3641 20.6841C21.9027 20.6841 22.2632 20.8028 22.2632 20.8028C22.2632 20.8028 22.6962 20.5135 23.3891 20.2367C22.6959 20.5139 22.2628 20.8033 22.2628 20.8033C22.2628 20.8033 21.9024 20.6848 21.3637 20.6848C20.8475 20.6848 20.1674 20.7937 19.4845 21.2206C19.4437 21.2461 19.404 21.2723 19.365 21.2991Z" fill="#FFD26A"/>
<path d="M53.0416 44.5975C53.2059 44.2582 53.3811 43.8256 53.4926 43.349C53.3822 43.8209 53.2094 44.25 53.0469 44.5885L53.0416 44.5975ZM52.7506 39.2985C52.401 38.7575 52.0774 38.5036 52.0774 38.5036C52.0774 38.5036 52.126 38.1306 52.126 37.5592C52.126 36.9412 52.0694 36.0912 51.8335 35.2298C52.2879 36.888 52.0776 38.5029 52.0776 38.5029C52.0776 38.5029 52.4012 38.7572 52.7506 39.2985ZM46.3942 28.3495C45.9738 27.6399 45.4073 26.9146 44.6499 26.3087C44.4137 26.1198 44.1712 25.96 43.9261 25.8255C43.9264 25.8253 43.9267 25.8253 43.927 25.8252C44.172 25.9596 44.4141 26.1191 44.6503 26.3078C45.4077 26.9142 45.9739 27.6398 46.3942 28.3495ZM42.395 25.2786C42.2305 25.2469 42.068 25.2232 41.9089 25.206C42.068 25.223 42.2303 25.2467 42.3948 25.2785L42.395 25.2786Z" fill="white"/>
<path d="M43.9261 25.8255C43.4169 25.5459 42.8964 25.3753 42.395 25.2786L42.3948 25.2785C42.8964 25.3749 43.4176 25.5457 43.927 25.8252C43.9267 25.8254 43.9264 25.8254 43.9261 25.8255Z" fill="#80989F"/>
<path d="M39.184 25.4864C39.184 25.4864 39.1799 25.4255 39.1595 25.318C39.1786 25.4185 39.1836 25.4783 39.1842 25.4862L39.184 25.4864Z" fill="white"/>
<path d="M16.5102 24.2308C17.1908 23.8456 17.76 23.7724 17.7719 23.7709C17.7717 23.7713 17.7717 23.7714 17.7717 23.7714C17.7717 23.7714 17.1978 23.842 16.5102 24.2308Z" fill="#EEEEEE"/>
<path d="M17.9383 23.2153C18.1412 22.6735 18.5613 21.8525 19.365 21.299C18.5615 21.8526 18.1413 22.6735 17.9383 23.2153Z" fill="#EEEEEE"/>
<path d="M37.7941 23.0239C37.6716 22.9104 37.5382 22.7977 37.393 22.6864C36.8106 22.2395 36.1494 22.1136 35.5888 22.1136C34.8639 22.1136 34.3072 22.3242 34.3072 22.3242C34.3072 22.3242 33.0943 20.6975 31.8563 20.6975C31.8357 20.6975 31.815 20.698 31.7943 20.6989C30.5353 20.755 29.3459 21.6419 29.3459 21.6419C29.3459 21.6419 28.7564 20.8372 27.7738 20.274C28.7561 20.8372 29.3459 21.6417 29.3459 21.6417C29.3459 21.6417 30.5351 20.7547 31.7947 20.6985C31.8152 20.6975 31.8359 20.6972 31.8563 20.6972C33.0934 20.6972 34.3072 22.3241 34.3072 22.3241C34.3072 22.3241 34.8643 22.1131 35.5895 22.1131C36.15 22.1131 36.8109 22.2392 37.3927 22.6859C37.5379 22.7973 37.6714 22.9104 37.7941 23.0239Z" fill="white"/>
<path d="M27.7738 20.274C27.265 19.9826 26.6508 19.7557 25.9586 19.7389C25.9146 19.7379 25.8712 19.7374 25.8276 19.7374C24.8841 19.7374 24.0266 19.9819 23.3891 20.2367C24.0266 19.9818 24.8844 19.7371 25.8282 19.7371C25.8718 19.7371 25.915 19.7376 25.9589 19.7386C26.6509 19.7555 27.265 19.9824 27.7738 20.274Z" fill="#EEEEEE"/>
<path d="M52.6232 45.3365C53.897 41.3432 51.3488 38.4089 51.3488 38.4089C51.1986 33.2774 47.6185 32.844 46.4136 32.844C46.1687 32.844 46.0221 32.862 46.0221 32.862C45.0834 27.8996 40.1775 27.6485 39.1947 27.6485C39.0842 27.6485 39.0235 27.6517 39.0235 27.6517C38.2271 24.7013 35.2359 24.4761 34.3417 24.4761C34.1806 24.4761 34.0876 24.4835 34.0876 24.4835C33.2825 23.6445 32.4142 23.3736 31.6291 23.3736C30.1972 23.3736 29.0406 24.2744 29.0406 24.2744C28.0791 22.3609 26.7887 21.8197 25.6373 21.8197C24.1396 21.8197 22.8769 22.7346 22.8769 22.7346C22.7769 22.7288 22.6791 22.7259 22.584 22.7259C21.2132 22.7259 20.3464 23.3235 19.8061 23.9886C19.1293 24.0197 18.5156 24.161 18.0295 24.316C17.3446 24.5338 16.9125 24.7783 16.9125 24.7783C16.9125 24.7783 16.5419 24.6238 15.9818 24.5852C16.1603 24.4447 16.3388 24.3279 16.5102 24.2307C17.1978 23.842 17.7718 23.7714 17.7718 23.7714C17.7718 23.7714 17.7718 23.7713 17.7719 23.7709C17.7719 23.7709 17.815 23.5447 17.9383 23.2153C18.1413 22.6735 18.5615 21.8526 19.365 21.299C19.404 21.2723 19.4437 21.2461 19.4845 21.2206C20.1674 20.7937 20.8475 20.6848 21.3637 20.6848C21.9024 20.6848 22.2628 20.8033 22.2628 20.8033C22.2628 20.8033 22.6959 20.5139 23.3891 20.2367C24.0266 19.9819 24.8841 19.7374 25.8276 19.7374C25.8712 19.7374 25.9146 19.7379 25.9586 19.7389C27.9876 19.7882 29.3459 21.6419 29.3459 21.6419C29.3459 21.6419 30.5353 20.755 31.7943 20.6989C31.815 20.698 31.8357 20.6975 31.8563 20.6975C33.0943 20.6975 34.3072 22.3242 34.3072 22.3242C34.3072 22.3242 34.8639 22.1136 35.5888 22.1136C36.1494 22.1136 36.8106 22.2395 37.393 22.6864C37.5382 22.7977 37.6716 22.9104 37.7941 23.0239C38.8094 23.9629 39.0866 24.9353 39.1595 25.318C39.1799 25.4255 39.184 25.4864 39.184 25.4864C39.184 25.4864 39.1842 25.4863 39.1842 25.4862C39.1843 25.4869 39.1843 25.4872 39.1843 25.4872C39.1843 25.4872 40.0571 25.1709 41.2377 25.1709C41.4523 25.1709 41.6771 25.1813 41.9089 25.206C42.7867 25.3 43.7619 25.5986 44.6499 26.3087C45.4073 26.9146 45.9738 27.6399 46.3942 28.3495C47.3116 29.8989 47.5341 31.374 47.5341 31.374C47.5341 31.374 49.4687 31.3793 50.973 33.3983C51.3894 33.9568 51.66 34.5964 51.8335 35.2298C52.0694 36.0912 52.126 36.9412 52.126 37.5592C52.126 38.1306 52.0774 38.5036 52.0774 38.5036C52.0774 38.5036 52.401 38.7575 52.7506 39.2985C53.1515 39.9193 53.5867 40.9178 53.6081 42.3438C53.6136 42.6887 53.5674 43.0287 53.4926 43.349C53.3811 43.8256 53.2059 44.2582 53.0416 44.5975L52.6312 45.3243L52.6232 45.3365Z" fill="#FFE29F"/>
<path d="M37.616 54.0491C38.2015 52.8507 37.9459 51.4167 37.3521 50.3062C37.1515 49.9297 36.9014 49.585 36.621 49.2275C37.4042 49.5285 38.0531 50.3499 38.2889 51.3295C38.5271 52.2619 38.3663 53.5177 37.616 54.0491Z" fill="#FEC130"/>
<path d="M47.5467 31.3481C48.4945 34.2068 47.5008 36.6409 45.0346 37.6036C47.1871 35.6061 47.6199 34.5752 47.5467 31.3481Z" fill="#FEC130"/>
<path d="M40.2239 31.1553C39.3854 32.7185 37.4719 33.1111 36.0677 32.4973C37.4916 32.2667 38.9667 32.0363 40.2239 31.1553Z" fill="#FEC130"/>
<path d="M32.1018 54.6945C33.0913 53.2883 34.2355 51.5515 33.7651 49.6368C33.7292 49.482 33.6566 49.308 33.5979 49.1638C33.5658 49.098 33.4861 48.9593 33.4543 48.8921C34.3659 49.5339 34.4745 51.0816 34.0937 52.1567C33.726 53.2666 32.9854 54.1574 32.1018 54.6945Z" fill="#FEC130"/>
<path d="M19.9083 45.5476C20.2391 45.1116 20.6016 44.6775 20.7625 44.1296L20.9227 44.1149C22.0299 44.0209 23.0939 43.4487 23.7755 42.3843C23.6002 43.4855 22.7462 44.2918 21.8417 44.5207C21.5345 44.6022 21.2339 44.6406 20.9057 44.6115L21.1061 44.467C20.8319 44.9864 20.3884 45.3437 19.9083 45.5476Z" fill="#FEC130"/>
<path d="M12.0934 35.491C13.0709 36.2683 13.9789 36.8606 15.0793 37.4214C13.8842 37.6856 12.5494 36.812 12.0934 35.491Z" fill="#FEC130"/>
<path d="M20.6852 25.94C19.5167 26.1292 18.5046 26.4015 17.3672 26.8483C18.1072 25.7127 19.5965 25.3146 20.6852 25.94Z" fill="#FEC130"/>
<path d="M15.9491 42.9813C17.2108 43.9263 17.8073 46.1869 16.9016 47.681C16.9156 47.2363 16.9588 46.8341 16.9213 46.4301C16.8598 45.19 16.4264 44.0844 15.9491 42.9813Z" fill="#FEC130"/>
<path d="M17.1034 30.3491C17.03 31.3462 16.9872 32.3568 17.1436 33.347C16.5372 32.5366 16.5785 31.2014 17.1034 30.3491Z" fill="#FEC130"/>
<path d="M36.0559 34.4768C36.6974 33.8198 37.325 33.1281 37.7972 32.2882C37.7548 33.3667 36.9366 34.2932 36.0559 34.4768Z" fill="#FEC130"/>
<path d="M52.6149 45.3762C52.1054 44.4281 51.5607 43.4927 50.8502 42.7344C51.8584 42.9729 52.5917 44.1967 52.6149 45.3762Z" fill="#FEC130"/>
<path d="M27.0475 29.2953C28.0651 29.8409 28.7793 31.1812 28.9465 32.4583C28.6348 32.0082 28.2695 31.3531 27.9864 30.8785C27.7095 30.3997 27.3414 29.7619 27.0475 29.2953Z" fill="#FEC130"/>
<path d="M37.626 50.506C38.6608 49.8867 39.5814 49.0242 40.2349 47.9007C41.4863 45.7308 41.475 42.6255 39.9879 40.599C39.2514 39.5572 38.2879 38.7434 37.2537 38.1244C38.421 38.4614 39.5166 39.1792 40.3677 40.1973C41.7324 41.76 42.1109 44.2369 41.5369 46.3405C40.9832 48.4205 39.4036 50.0171 37.626 50.506Z" fill="#FEC130"/>
<path d="M36.999 44.4891C34.5667 44.3912 32.2683 42.2045 31.8794 39.3334C31.7329 38.4 31.7449 37.4476 31.9008 36.5382C31.9514 37.4639 32.0504 38.3688 32.257 39.2291C32.8458 41.909 34.7941 43.7278 36.999 44.4891Z" fill="#FEC130"/>
<path d="M29.036 44.1271C29.2007 41.951 31.1765 40.5739 32.8721 41.4917C32.5672 41.5347 32.2596 41.5374 31.9637 41.6008C30.6691 41.7848 29.6925 42.8428 29.036 44.1271Z" fill="#FEC130"/>
<path d="M50.0039 47.2298C49.0267 49.0875 46.7358 49.2743 45.571 47.5585C45.8597 47.6812 46.1356 47.8412 46.4242 47.9408C47.6512 48.4603 48.9273 48.0309 50.0039 47.2298Z" fill="#FEC130"/>
<path d="M26.9848 45.0066C28.2663 47.4182 28.2365 50.8584 26.4271 52.9044C25.8491 53.5705 25.1586 54.0743 24.4213 54.397C25.0618 53.859 25.6536 53.2728 26.1418 52.5952C27.6897 50.503 27.6731 47.54 26.9848 45.0066Z" fill="#FEC130"/>
<path d="M27.5837 49.6129C28.0138 48.3128 29.5534 47.7713 30.5381 48.5267C30.0165 48.6131 29.4994 48.6635 29.0032 48.8563C28.4992 49.0353 28.06 49.3028 27.5837 49.6129Z" fill="#FEC130"/>
<path d="M41.8686 32.6569C41.3177 29.1587 39.4535 27.0371 36.3344 27.4838C35.4492 27.6197 34.5686 27.9401 33.7177 28.4034C34.2381 27.8323 34.8803 27.4174 35.5458 27.1169C38.9914 25.6242 42.1625 28.298 41.8686 32.6569Z" fill="#FEC130"/>
<path d="M26.9832 27.0388C24.6371 24.795 22.049 24.6012 19.9197 27.3204C19.3206 28.0991 18.8264 29.0147 18.4335 30.0165C18.5153 29.1848 18.776 28.3789 19.1171 27.6425C20.919 23.8777 24.8064 23.495 26.9832 27.0388Z" fill="#FEC130"/>
<path d="M41.7579 51.0475C43.5144 52.0209 45.3439 52.1152 46.7008 50.2865C47.1077 49.7548 47.4401 49.1334 47.7713 48.4869C47.4734 50.1593 46.478 51.8628 44.9562 52.1981C43.82 52.489 42.5882 51.9446 41.7579 51.0475Z" fill="#FEC130"/>
<path d="M21.2446 39.8412C20.1209 42.43 17.53 44.1329 15.0892 43.1867C14.3056 42.9021 13.6 42.4018 13.0038 41.7825C13.7178 42.2016 14.438 42.5593 15.1863 42.7448C17.5367 43.3848 19.7282 41.8845 21.2446 39.8412Z" fill="#FEC130"/>
<path d="M27.0612 24.3882C28.8635 23.5257 31.4012 24.3435 32.0719 26.6489C30.7774 24.8931 28.9609 24.4234 27.0612 24.3882Z" fill="#FEC130"/>
<path d="M23.631 33.485C25.2867 34.6875 26.2241 37.5807 25.0392 39.579C25.4789 37.3128 24.7286 35.31 23.631 33.485Z" fill="#FEC130"/>
<path d="M28.3554 37.5747C27.0315 34.0426 28.9998 30.6135 32.2487 30.5346C31.6067 30.8373 30.9916 31.1595 30.4429 31.5756C28.6527 32.8492 28.1485 35.2275 28.3554 37.5747Z" fill="#FEC130"/>
<path d="M21.3903 54.4893C20.6837 53.7669 20.3812 52.4917 20.5047 51.4199C20.6641 51.8683 20.8251 52.4962 20.9563 52.9562C21.0818 53.4179 21.2486 54.0328 21.3903 54.4893Z" fill="#FEC130"/>
<path d="M22.0119 47.4792C22.3615 50.684 20.0896 52.8856 17.4663 52.0404C18.0427 51.977 18.6013 51.8903 19.1257 51.71C20.8195 51.1883 21.7042 49.4206 22.0119 47.4792Z" fill="#FEC130"/>
<path d="M43.2525 36.4391C46.1522 36.8243 47.2993 39.883 45.2317 42.4547C45.4544 41.8364 45.6612 41.2269 45.761 40.6092C46.166 38.4908 44.7184 37.2382 43.2525 36.4391Z" fill="#FEC130"/>
<path d="M15.0679 32.7465C17.9074 31.9551 19.8658 34.3773 18.6587 37.6202C18.6908 36.9498 18.7103 36.2939 18.6267 35.6729C18.3991 33.5179 16.677 32.9153 15.0679 32.7465Z" fill="#FEC130"/>
<path d="M52.0774 38.5414C51.6254 38.0085 51.0562 37.5901 50.447 37.3804L50.7026 36.9836C50.9118 37.373 51.0204 37.773 51.0562 38.2217C51.1289 39.0953 50.7743 39.9536 50.2072 40.4983C49.9413 40.763 49.6335 40.9563 49.3151 41.1081C49.4337 40.9598 49.5535 40.8223 49.6734 40.6894C50.472 39.7289 50.8569 38.5328 50.3242 37.271L50.0389 36.6268L50.5798 36.874C51.2354 37.1886 51.8087 37.7658 52.0774 38.5414Z" fill="#FEC130"/>
<path d="M33.524 30.8035C33.524 30.8035 36.6355 29.9446 38.9297 32.061C41.2238 34.1774 41.5157 37.3446 41.5157 37.3446C41.5157 37.3446 43.4452 37.5051 44.8299 39.64C46.2147 41.7749 45.6364 44.8214 45.6364 44.8214C45.6364 44.8214 47.0563 46.1081 46.9424 48.7741C46.8763 50.3216 45.7833 51.6866 45.7833 51.6866C45.7833 51.6866 45.6939 54.8019 43.2841 56.4714C40.5518 58.3645 38.2921 57.7672 38.2921 57.7672C38.2921 57.7672 36.5994 59.6772 34.4308 60.0957C32.262 60.5142 30.2969 59.1863 30.2969 59.1863C30.2969 59.1863 28.8824 60.3764 27.3848 60.4745C25.8873 60.5727 24.7638 59.3638 24.7638 59.3638C24.7638 59.3638 22.5817 60.7905 20.4152 60.3367C18.1989 59.8727 17.0999 58.4774 17.0999 58.4774C17.0999 58.4774 14.4267 59.2488 13.1172 58.7485C10.8403 57.8784 10.3262 55.5871 10.3262 55.5871C10.3262 55.5871 7.60349 54.5726 6.43949 51.4932C5.27563 48.4138 6.45591 44.9516 6.45591 44.9516C6.45591 44.9516 5.32276 43.9438 5.05414 42.0131C4.78567 40.0823 5.91525 38.5667 5.91525 38.5667C5.91525 38.5667 5.29948 36.4295 5.87627 34.483C6.58187 32.1017 8.54729 31.0916 8.54729 31.0916C9.28444 27.507 12.2601 27.3813 12.2601 27.3813C12.2601 27.3813 12.6753 25.7315 14.1167 24.9727C15.5581 24.2139 16.9125 24.7783 16.9125 24.7783C16.9125 24.7783 18.6391 23.8012 20.6608 24.0124C22.6822 24.2237 23.9303 26.1816 23.9303 26.1816C23.9303 26.1816 25.1683 25.3919 26.4276 25.4366C27.687 25.4813 28.841 27.2591 28.841 27.2591C28.841 27.2591 30.6254 26.7381 31.8988 27.867C33.506 29.2918 33.524 30.8035 33.524 30.8035Z" fill="#FEC130"/>
<path d="M27.2113 60.4802C25.8014 60.4802 24.7638 59.3638 24.7638 59.3638C24.7638 59.3638 24.4317 59.5807 23.8982 59.8187C23.2516 60.107 22.3088 60.4258 21.3022 60.4259C21.01 60.4259 20.7125 60.3991 20.4152 60.3367C18.1989 59.8727 17.0999 58.4774 17.0999 58.4774C17.0999 58.4774 15.5757 58.9172 14.2653 58.9172C13.8403 58.9172 13.4379 58.871 13.1172 58.7485C10.8403 57.8784 10.3262 55.5871 10.3262 55.5871C10.3262 55.5871 7.60349 54.5726 6.43949 51.4932C6.05535 50.4767 5.92654 49.4186 5.92639 48.457C5.92625 46.5054 6.45591 44.9516 6.45591 44.9516C6.45591 44.9516 5.32276 43.9438 5.05414 42.0131C5.02558 41.8075 5.01287 41.6067 5.01287 41.4119C5.0133 39.7768 5.91526 38.5667 5.91526 38.5667C5.91526 38.5667 5.91511 38.5662 5.91468 38.5651C5.9154 38.4955 5.97281 33.9329 9.13393 32.6502C9.13393 32.6502 10.9571 29.555 13.3358 29.4627C13.3358 29.4627 13.9843 26.7082 16.7657 26.7082C16.9698 26.7082 17.1857 26.723 17.4133 26.7549C17.4133 26.7549 18.5518 26.0507 19.9152 26.0507C21.1414 26.0507 22.5493 26.6204 23.4739 28.7838C23.4739 28.7838 24.5251 28.0807 25.8276 28.0807C26.6848 28.0807 27.651 28.3856 28.4972 29.3957C28.4972 29.3957 32.5021 29.4024 33.2388 32.9511C33.2388 32.9511 39.1973 33.1173 39.9206 38.7088C39.9206 38.7088 39.9425 38.7079 39.9832 38.7079C40.5697 38.7079 45.0796 38.8953 44.9149 44.6686C44.9149 44.6686 47.2879 47.7998 45.7866 51.6821L45.7953 51.6707L46.2467 50.9784C46.0002 51.4157 45.7833 51.6866 45.7833 51.6866C45.7833 51.6866 45.7815 51.7505 45.7713 51.8648C45.767 51.9123 45.7613 51.9686 45.7537 52.0328C45.7329 52.208 45.6976 52.4414 45.6384 52.7132C45.4077 53.7715 44.813 55.4123 43.2841 56.4714C43.0176 56.6561 42.7557 56.8169 42.4998 56.9571C41.1474 57.6978 39.9667 57.8566 39.2032 57.8566C38.6301 57.8566 38.2921 57.7672 38.2921 57.7672C38.2921 57.7672 36.5994 59.6772 34.4308 60.0957C34.1486 60.1502 33.8695 60.175 33.5981 60.177C33.5855 60.1772 33.5732 60.1772 33.5608 60.1772C31.7633 60.1774 30.2969 59.1863 30.2969 59.1863C30.2969 59.1863 29.9898 59.4448 29.5103 59.7305C29.0886 59.9819 28.5335 60.2547 27.9367 60.3917C27.7557 60.4332 27.571 60.4622 27.3848 60.4745C27.3264 60.4784 27.2685 60.4802 27.2113 60.4802ZM46.7689 49.7677C46.8619 49.4546 46.9275 49.1193 46.9419 48.7751C47.0026 47.3565 46.6293 46.3281 46.2666 45.6762C46.6034 46.281 46.9496 47.2104 46.9489 48.4754C46.9489 48.5252 46.9483 48.5754 46.9472 48.6262C46.9462 48.6751 46.9446 48.7243 46.9424 48.7741C46.9277 49.1188 46.8621 49.4542 46.7689 49.7677ZM45.576 41.5075C45.4386 40.8707 45.2068 40.2213 44.8291 39.6395C43.4449 37.5051 41.515 37.3451 41.515 37.3451C41.515 37.3451 41.3792 35.867 40.5618 34.2551C41.3795 35.8666 41.5157 37.3446 41.5157 37.3446C41.5157 37.3446 43.4452 37.5051 44.8299 39.64C45.2072 40.2217 45.4387 40.8707 45.576 41.5075ZM5.64521 36.8406C5.63536 36.6769 5.62965 36.5063 5.62965 36.3303C5.6295 36.0029 5.64907 35.6577 5.69876 35.3083C5.62265 35.8458 5.61722 36.3725 5.64521 36.8406ZM8.54729 31.0916C8.96042 29.0826 10.0769 28.1599 10.9784 27.7371C10.077 28.1602 8.96099 29.0829 8.54757 31.0913C8.54757 31.0913 8.54743 31.0916 8.54729 31.0916ZM33.5241 30.8044V30.8035C33.534 30.8009 34.1559 30.6311 35.0445 30.6311C35.4405 30.6311 35.8895 30.6647 36.3611 30.7619C35.8904 30.6651 35.4423 30.6314 35.0468 30.6314C34.1497 30.6314 33.5241 30.8044 33.5241 30.8044ZM36.3632 30.7624C36.3626 30.7624 36.3623 30.7622 36.3616 30.762C36.3622 30.7622 36.3628 30.7624 36.3632 30.7624ZM33.5091 30.6331C33.4581 30.2437 33.2364 29.2468 32.2701 28.2258C33.2369 29.2473 33.4584 30.2446 33.5091 30.6331ZM12.2602 27.3808C12.2632 27.3685 12.3196 27.1517 12.4563 26.8441C12.3158 27.1606 12.2602 27.3808 12.2602 27.3808ZM14.0044 25.0349C14.0411 25.0136 14.0785 24.9929 14.1167 24.9727C14.6962 24.6677 15.2617 24.5764 15.7306 24.5764C16.4282 24.5764 16.9125 24.7783 16.9125 24.7783C16.9125 24.7783 17.3446 24.5338 18.0295 24.3159C17.3443 24.5341 16.9121 24.779 16.9121 24.779C16.9121 24.779 16.428 24.5771 15.7302 24.5771C15.2612 24.5771 14.6957 24.6682 14.116 24.9732C14.0781 24.9931 14.0408 25.0137 14.0044 25.0349Z" fill="#FFD26A"/>
<path d="M46.4405 50.6077C46.5616 50.3568 46.6783 50.0726 46.7689 49.7677C46.6785 50.0722 46.5622 50.3559 46.4412 50.6068C46.4409 50.6072 46.4408 50.6073 46.4405 50.6077ZM46.2666 45.6762C45.9474 45.1033 45.6364 44.8214 45.6364 44.8214C45.6364 44.8214 45.7562 44.1905 45.7562 43.3016C45.7562 42.8702 45.728 42.3781 45.6442 41.8677C45.9011 43.4295 45.6366 44.8207 45.6366 44.8207C45.6366 44.8207 45.9475 45.1027 46.2666 45.6762Z" fill="#FFE29F"/>
<path d="M5.91468 38.5659L5.9124 38.5604C5.89712 38.5051 5.75988 38.0014 5.68234 37.2834C5.76217 38.0204 5.9054 38.5321 5.91468 38.5651V38.5659Z" fill="white"/>
<path d="M5.68248 37.2834C5.66735 37.1434 5.65435 36.995 5.64521 36.8406C5.65449 36.9952 5.66735 37.1433 5.68248 37.2834Z" fill="#EEEEEE"/>
<path d="M6.06977 33.9338H6.0692C6.43192 33.0507 6.9613 32.3914 7.43784 31.9313C6.96144 32.3913 6.43221 33.0507 6.06977 33.9338Z" fill="white"/>
<path d="M5.69876 35.3083C5.73761 35.0336 5.79501 34.7559 5.87584 34.4821C5.93282 34.2905 5.9978 34.1077 6.0692 33.9337H6.06977C5.99808 34.108 5.93311 34.2909 5.87627 34.483C5.79516 34.7564 5.73775 35.0337 5.69876 35.3083Z" fill="#EEEEEE"/>
<path d="M40.5618 34.2551C40.2245 33.5906 39.7711 32.903 39.1637 32.2874C39.164 32.2872 39.1642 32.2872 39.1645 32.287C39.7717 32.903 40.2246 33.5904 40.5618 34.2551Z" fill="#FFE29F"/>
<path d="M38.7478 31.9007C37.9833 31.2578 37.1429 30.9234 36.3632 30.7624C37.1429 30.9232 37.984 31.2575 38.7486 31.9004C38.7483 31.9005 38.748 31.9005 38.7478 31.9007Z" fill="#FFE29F"/>
<path d="M8.06746 31.4003C8.34779 31.1955 8.53858 31.096 8.54729 31.0914C8.54729 31.0914 8.35421 31.1908 8.06746 31.4003Z" fill="white"/>
<path d="M33.524 30.8035C33.524 30.8035 33.5232 30.7424 33.5091 30.6331C33.5224 30.7351 33.524 30.7955 33.5241 30.8035H33.524ZM36.3616 30.762C36.3613 30.762 36.3613 30.762 36.3611 30.7619L36.3616 30.762ZM32.2701 28.2258C32.1569 28.1063 32.0334 27.9863 31.8988 27.867C31.2365 27.2799 30.4362 27.1391 29.8205 27.1391C29.2521 27.1391 28.841 27.2591 28.841 27.2591C28.841 27.2591 27.687 25.4813 26.4276 25.4366C26.3929 25.4354 26.3583 25.4348 26.3236 25.4348C26.0987 25.4348 25.8753 25.4601 25.6608 25.5013L25.6606 25.5011C25.8755 25.4598 26.099 25.4344 26.3243 25.4344C26.3589 25.4344 26.3934 25.4349 26.428 25.4363C27.6864 25.4811 28.841 27.2589 28.841 27.2589C28.841 27.2589 29.2525 27.1388 29.8213 27.1388C30.4369 27.1388 31.2369 27.2796 31.8984 27.8665C32.0331 27.986 32.1567 28.1061 32.2701 28.2258Z" fill="#FFE29F"/>
<path d="M10.9784 27.7371C11.678 27.4087 12.2484 27.3813 12.2602 27.3808C12.2601 27.3811 12.2601 27.3813 12.2601 27.3813C12.2601 27.3813 11.6853 27.4055 10.9784 27.7371ZM12.4563 26.8441C12.6903 26.3174 13.1604 25.5237 14.0044 25.0349C13.1607 25.5238 12.6905 26.3173 12.4563 26.8441Z" fill="white"/>
<path d="M23.9303 26.1816C23.9303 26.1816 23.6753 25.7815 23.209 25.3235C23.2093 25.3235 23.2092 25.3235 23.2092 25.3235C23.6754 25.7815 23.9305 26.1815 23.9305 26.1815C23.9305 26.1815 24.382 25.8934 25.0172 25.6749L25.0175 25.6751C24.3823 25.8934 23.9303 26.1816 23.9303 26.1816ZM22.4175 24.6758C21.9311 24.3512 21.3394 24.0834 20.6608 24.0124C20.4635 23.9918 20.2693 23.9825 20.0789 23.9825C19.9869 23.9825 19.8958 23.9847 19.806 23.9889L19.8061 23.9886C19.8963 23.9844 19.9874 23.9822 20.0795 23.9822C20.2697 23.9822 20.4639 23.9916 20.6611 24.0121C21.3397 24.0832 21.9312 24.3511 22.4176 24.6758H22.4175Z" fill="#FFE29F"/>
<path d="M18.0295 24.316C18.5156 24.161 19.1292 24.0197 19.8061 23.9886L19.806 23.9889C19.1292 24.0198 18.5156 24.1612 18.0295 24.316Z" fill="#FFECC0"/>
<path d="M39.1637 32.2874C39.0881 32.2107 39.0102 32.1353 38.9297 32.061C38.8696 32.0055 38.8089 31.9521 38.7478 31.9007C38.748 31.9005 38.7483 31.9005 38.7486 31.9003C38.8096 31.9516 38.8701 32.0049 38.9301 32.0602C39.0107 32.1344 39.0889 32.2102 39.1645 32.287C39.1642 32.2872 39.164 32.2872 39.1637 32.2874Z" fill="#FFD67C"/>
<path d="M25.0175 25.6751L25.0172 25.6749C25.2163 25.6065 25.4336 25.5448 25.6606 25.5011L25.6608 25.5013C25.4339 25.545 25.2167 25.6067 25.0175 25.6751ZM23.209 25.3235C22.9903 25.1085 22.7249 24.8808 22.4175 24.6758H22.4176C22.7249 24.8808 22.9904 25.1087 23.2092 25.3235C23.2092 25.3235 23.2093 25.3235 23.209 25.3235Z" fill="#FFD67C"/>
<path d="M46.2467 50.9784C46.3104 50.8653 46.3761 50.7413 46.4405 50.6077C46.4408 50.6073 46.4409 50.6072 46.4412 50.6068C46.3785 50.7371 46.3145 50.8586 46.2524 50.9697L46.2467 50.9784Z" fill="#FFD67C"/>
<path d="M45.7866 51.6821C47.2879 47.7998 44.9149 44.6686 44.9149 44.6686C45.0796 38.8953 40.5696 38.7079 39.9831 38.7079C39.9424 38.7079 39.9206 38.7088 39.9206 38.7088C39.1973 33.1173 33.2388 32.9511 33.2388 32.9511C32.502 29.4024 28.4972 29.3957 28.4972 29.3957C27.651 28.3856 26.6848 28.0807 25.8276 28.0807C24.5251 28.0807 23.4739 28.7838 23.4739 28.7838C22.5493 26.6204 21.1414 26.0507 19.9152 26.0507C18.5517 26.0507 17.4133 26.7549 17.4133 26.7549C17.1857 26.723 16.9698 26.7082 16.7657 26.7082C13.9843 26.7082 13.3358 29.4627 13.3358 29.4627C10.9571 29.555 9.13393 32.6502 9.13393 32.6502C5.9728 33.9329 5.9154 38.4955 5.91468 38.5651C5.90369 38.5259 5.70319 37.8086 5.64521 36.8406C5.61722 36.3725 5.62265 35.8458 5.69876 35.3083C5.73775 35.0337 5.79516 34.7564 5.87627 34.483C6.22128 33.3186 6.86748 32.4822 7.43784 31.9313C7.43827 31.9307 7.43855 31.9304 7.43898 31.9301C7.43912 31.9299 7.43927 31.9297 7.43927 31.9297C7.66932 31.7077 7.88681 31.5323 8.06746 31.4003C8.35421 31.1908 8.54729 31.0916 8.54729 31.0916C8.54743 31.0914 8.54757 31.0913 8.54757 31.0913C8.96099 29.0829 10.077 28.1602 10.9784 27.7371C11.6853 27.4055 12.2601 27.3813 12.2601 27.3813C12.2601 27.3813 12.2601 27.3811 12.2602 27.3808C12.2602 27.3808 12.3158 27.1606 12.4563 26.8441C12.6905 26.3173 13.1607 25.5238 14.0044 25.0349C14.0408 25.0138 14.0781 24.9931 14.116 24.9732C14.6957 24.6682 15.2612 24.5771 15.7302 24.5771C16.428 24.5771 16.9121 24.779 16.9121 24.779C16.9121 24.779 17.3443 24.5341 18.0295 24.316C18.58 24.1407 19.2945 23.9825 20.0789 23.9825C20.2693 23.9825 20.4635 23.9918 20.6608 24.0124C22.6822 24.2237 23.9303 26.1816 23.9303 26.1816C23.9303 26.1816 25.1011 25.4348 26.3236 25.4348C26.3583 25.4348 26.3929 25.4354 26.4276 25.4366C27.687 25.4813 28.841 27.2591 28.841 27.2591C28.841 27.2591 29.2521 27.1391 29.8205 27.1391C30.4362 27.1391 31.2365 27.2799 31.8988 27.867C32.0334 27.9863 32.1569 28.1063 32.2701 28.2258C33.2363 29.2468 33.4581 30.2437 33.5091 30.6331C33.5232 30.7424 33.524 30.8035 33.524 30.8035H33.5241V30.8044C33.5241 30.8044 34.1497 30.6314 35.0468 30.6314C35.4422 30.6314 35.8904 30.6651 36.3611 30.7619C36.3613 30.762 36.3613 30.762 36.3616 30.762C36.3623 30.7622 36.3626 30.7624 36.3632 30.7624C37.2052 30.9361 38.1184 31.3124 38.9297 32.061C39.6566 32.7316 40.1825 33.5077 40.5618 34.2551C41.3792 35.867 41.515 37.3451 41.515 37.3451C41.515 37.3451 43.4449 37.5051 44.8291 39.6395C45.2068 40.2213 45.4386 40.8707 45.5759 41.5075C45.7133 42.1447 45.7562 42.7693 45.7562 43.3016C45.7562 44.1905 45.6364 44.8214 45.6364 44.8214C45.6364 44.8214 45.9474 45.1032 46.2665 45.6762C46.6293 46.3281 47.0026 47.3565 46.9419 48.7751C46.9274 49.1193 46.8619 49.4546 46.7689 49.7677C46.6301 50.2347 46.4302 50.6527 46.2467 50.9784L45.7953 51.6707L45.7866 51.6821Z" fill="#FFE29F"/>
<path d="M30.3113 59.1752C30.9645 58.0262 30.7924 56.5753 30.264 55.4198C30.0855 55.0281 29.8559 54.6642 29.5968 54.2851C30.3608 54.6481 30.9609 55.5193 31.1395 56.5156C31.3233 57.4648 31.0904 58.705 30.3113 59.1752Z" fill="#FEC130"/>
<path d="M41.529 37.3204C42.3096 40.2482 41.1777 42.5971 38.6616 43.3606C40.9245 41.5396 41.4158 40.5459 41.529 37.3204Z" fill="#FEC130"/>
<path d="M33.4795 37.348C32.5527 38.8404 30.621 39.0792 29.2555 38.3545C30.6894 38.2384 32.1743 38.1263 33.4795 37.348Z" fill="#FEC130"/>
<path d="M24.7725 59.3782C25.8409 58.0544 27.0826 56.4131 26.724 54.4652C26.6969 54.3078 26.6346 54.1284 26.5844 53.9799C26.5561 53.9116 26.4847 53.7671 26.4567 53.6974C27.3292 54.4106 27.3482 55.9634 26.9062 57.0055C26.4754 58.0835 25.6851 58.9129 24.7725 59.3782Z" fill="#FEC130"/>
<path d="M13.1349 49.2778C13.4902 48.8694 13.8769 48.4654 14.069 47.9314L14.2296 47.9294C15.3398 47.9244 16.4345 47.4383 17.176 46.4311C16.9375 47.5156 16.039 48.2518 15.1232 48.4079C14.812 48.4647 14.5098 48.479 14.1841 48.4237L14.3924 48.2955C14.0888 48.7917 13.6256 49.1129 13.1349 49.2778Z" fill="#FEC130"/>
<path d="M5.91854 38.62C6.84891 39.4735 7.72059 40.137 8.7862 40.7845C7.5785 40.9526 6.29726 39.9743 5.91854 38.62Z" fill="#FEC130"/>
<path d="M15.0418 29.7775C13.8648 29.873 12.8394 30.0637 11.6788 30.4187C12.4826 29.3448 13.9916 29.0666 15.0418 29.7775Z" fill="#FEC130"/>
<path d="M9.333 46.401C10.5373 47.4447 11.002 49.7478 10.0122 51.166C10.0517 50.7236 10.118 50.3257 10.1039 49.9196C10.1141 48.6775 9.74556 47.5398 9.333 46.401Z" fill="#FEC130"/>
<path d="M11.2136 33.8902C11.0828 34.8793 10.9818 35.8839 11.0806 36.8844C10.5226 36.0275 10.6408 34.6986 11.2136 33.8902Z" fill="#FEC130"/>
<path d="M29.1296 40.3286C29.8076 39.7244 30.4735 39.0844 30.9932 38.2842C30.8885 39.357 30.0188 40.2158 29.1296 40.3286Z" fill="#FEC130"/>
<path d="M45.776 51.7211C45.3223 50.7344 44.8329 49.7576 44.1678 48.9443C45.1598 49.2628 45.8209 50.5425 45.776 51.7211Z" fill="#FEC130"/>
<path d="M21.1956 33.6338C22.1794 34.2595 22.8146 35.6537 22.9077 36.9413C22.6225 36.4673 22.2959 35.7845 22.041 35.2883C21.7924 34.7885 21.4618 34.1227 21.1956 33.6338Z" fill="#FEC130"/>
<path d="M30.5258 55.641C31.5938 55.1057 32.5622 54.3189 33.2789 53.2503C34.6525 51.1855 34.8205 48.0864 33.4537 45.9458C32.7792 44.8475 31.8649 43.9584 30.8688 43.2584C32.0139 43.6877 33.0656 44.4915 33.856 45.5752C35.1272 47.2432 35.3621 49.7448 34.668 51.7977C33.9955 53.8286 32.3275 55.2953 30.5258 55.641Z" fill="#FEC130"/>
<path d="M30.2474 49.5879C27.8262 49.2958 25.6594 46.9303 25.4372 44.035C25.3448 43.0919 25.4118 42.1428 25.6197 41.2479C25.6169 42.1754 25.6633 43.0861 25.8198 43.9611C26.2526 46.6819 28.0915 48.6521 30.2474 49.5879Z" fill="#FEC130"/>
<path d="M22.3236 48.5904C22.6135 46.4323 24.6644 45.2163 26.3029 46.2676C25.9962 46.2861 25.6891 46.2642 25.3902 46.3039C24.0881 46.3839 23.0528 47.3613 22.3236 48.5904Z" fill="#FEC130"/>
<path d="M43.064 53.3617C41.982 55.137 39.6855 55.1402 38.6224 53.3353C38.9034 53.4807 39.1695 53.6624 39.4516 53.7849C40.6458 54.4014 41.9437 54.0748 43.064 53.3617Z" fill="#FEC130"/>
<path d="M20.2263 49.3038C21.3659 51.8122 21.1375 55.242 19.2142 57.1386C18.5992 57.7571 17.8811 58.2047 17.1268 58.4675C17.797 57.9821 18.4209 57.4445 18.9475 56.8075C20.6124 54.8437 20.7669 51.8863 20.2263 49.3038Z" fill="#FEC130"/>
<path d="M20.5582 53.9473C21.0623 52.6846 22.6295 52.2673 23.5683 53.0997C23.043 53.1442 22.5241 53.1532 22.0179 53.3059C21.5049 53.4442 21.0511 53.676 20.5582 53.9473Z" fill="#FEC130"/>
<path d="M35.8712 38.4968C35.5452 34.9598 33.8218 32.6793 30.6829 32.8489C29.7918 32.9064 28.8931 33.1477 28.015 33.5346C28.5703 33.0112 29.2372 32.6543 29.92 32.4133C33.4511 31.2294 36.4426 34.1761 35.8712 38.4968Z" fill="#FEC130"/>
<path d="M21.2618 31.3773C19.0506 28.9511 16.4797 28.5508 14.1982 31.0938C13.5556 31.8227 13.0095 32.6966 12.5598 33.6648C12.6895 32.8415 12.9959 32.0583 13.3789 31.3508C15.3939 27.7387 19.2945 27.6676 21.2618 31.3773Z" fill="#FEC130"/>
<path d="M34.6168 56.5116C36.3131 57.6231 38.1328 57.8633 39.5923 56.1474C40.0288 55.6494 40.3964 55.056 40.7642 54.4375C40.3703 56.0822 39.2791 57.7021 37.7413 57.9151C36.5908 58.1146 35.3933 57.4729 34.6168 56.5116Z" fill="#FEC130"/>
<path d="M14.7976 43.6917C13.5269 46.1846 10.8439 47.6761 8.46318 46.5372C7.69789 46.1908 7.02285 45.635 6.46362 44.9695C7.15194 45.4448 7.84969 45.8592 8.58556 46.1041C10.8936 46.9304 13.1666 45.6088 14.7976 43.6917Z" fill="#FEC130"/>
<path d="M21.4925 28.7392C23.3404 28.0226 25.8251 29.0414 26.3612 31.395C25.171 29.5397 23.3858 28.9259 21.4925 28.7392Z" fill="#FEC130"/>
<path d="M17.5453 37.5407C19.1277 38.8728 19.896 41.8342 18.5986 43.7332C19.1681 41.5073 18.535 39.4492 17.5453 37.5407Z" fill="#FEC130"/>
<path d="M22.0228 41.9986C20.9057 38.3689 23.0674 35.1048 26.3133 35.286C25.6553 35.5366 25.0231 35.809 24.4516 36.1801C22.5921 37.3078 21.9518 39.6403 22.0228 41.9986Z" fill="#FEC130"/>
<path d="M14.0974 58.3174C13.4342 57.5401 13.206 56.2437 13.3912 55.1844C13.5243 55.6444 13.6486 56.2837 13.7529 56.7533C13.8516 57.2238 13.9824 57.8505 14.0974 58.3174Z" fill="#FEC130"/>
<path d="M15.1223 51.3732C15.2861 54.5983 12.8924 56.6134 10.3239 55.5605C10.9027 55.5434 11.4649 55.5015 11.9984 55.3635C13.7185 54.9783 14.7033 53.2856 15.1223 51.3732Z" fill="#FEC130"/>
<path d="M36.951 42.0562C39.8218 42.6724 40.7897 45.8157 38.5784 48.2161C38.8363 47.6171 39.0779 47.0255 39.213 46.4173C39.7394 44.336 38.3673 42.9708 36.951 42.0562Z" fill="#FEC130"/>
<path d="M9.04439 36.1194C11.923 35.5569 13.7372 38.1298 12.3457 41.2689C12.4164 40.6025 12.4737 39.9496 12.4261 39.3235C12.3236 37.1553 10.6401 36.4165 9.04439 36.1194Z" fill="#FEC130"/>
<path d="M45.6341 44.8592C45.2139 44.2913 44.6701 43.8285 44.0745 43.5707L44.3524 43.1949C44.5388 43.6004 44.6239 44.0081 44.6337 44.4585C44.6559 45.3358 44.2526 46.1639 43.6554 46.662C43.3749 46.9049 43.0566 47.0731 42.7301 47.199C42.857 47.0607 42.9845 46.9331 43.1119 46.8099C43.964 45.9155 44.417 44.753 43.9583 43.4515L43.7108 42.786L44.2363 43.0759C44.8722 43.4421 45.4107 44.0639 45.6341 44.8592Z" fill="#FEC130"/>
<path d="M14.28 50.3208C14.28 50.3208 12.0813 51.3164 10.0036 53.6554C9.21933 54.5382 8.29424 55.9027 7.74144 57.0543L10.5401 60.4725C10.5401 60.4725 11.2116 59.6687 12.5487 58.3026C12.8887 57.9551 15.5814 56.8403 17.6022 55.8676C17.6022 55.8676 18.5816 51.4719 14.28 50.3208Z" fill="#FFEAB6"/>
<path d="M7.71588 62.893C7.95279 62.6577 9.27316 63.7531 9.28916 64.7921C9.29987 65.4895 9.91807 66.8231 10.6735 66.7078C11.4996 66.5818 10.579 63.9203 10.6775 62.775C10.7783 61.6294 10.8846 60.0769 10.8846 60.0769C10.471 60.4456 7.96207 62.6353 7.71588 62.893Z" fill="#FFEAB6"/>
<path d="M8.22712 56.1499C6.04492 57.2978 4.23744 58.3677 3.2271 60.9133C3.02903 61.4126 3.12771 61.8168 3.12771 61.8168C2.6576 62.9482 2.97048 63.5492 2.97048 63.5492C2.80683 64.761 3.19868 65.3238 3.19868 65.3238C3.19868 65.3238 2.65917 66.6594 3.29094 67.1772C3.99782 67.7603 4.61716 65.7705 5.5264 64.9215C7.60949 62.9761 10.3035 60.6233 10.8846 60.0769L8.22712 56.1499Z" fill="#FFEAB6"/>
<path d="M43.635 30.5661C45.3742 29.832 46.8715 31.5064 47.5991 33.8937C48.1881 35.8271 47.7576 38.2373 46.0885 38.9417C44.4194 39.6462 42.68 37.7614 42.1268 35.9458C41.5736 34.1304 41.7466 31.363 43.635 30.5661Z" fill="#0C2B34"/>
<path d="M43.6201 31.1372C45.2548 30.4473 46.6624 32.021 47.3462 34.2652C47.9001 36.0826 47.4952 38.3479 45.9264 39.0101C44.3574 39.6723 42.7226 37.9007 42.2025 36.194C41.6825 34.4875 41.845 31.8864 43.6201 31.1372Z" fill="white"/>
<path d="M43.2879 31.1015C44.5676 30.5615 45.6695 31.7934 46.2047 33.5501C46.6383 34.9729 46.3214 36.7463 45.0933 37.2646C43.8652 37.7829 42.5853 36.396 42.1782 35.0601C41.7712 33.7243 41.8985 31.6879 43.2879 31.1015Z" fill="#0C2B34"/>
<path d="M31.2227 34.286C28.6753 34.446 27.4983 36.8275 27.6203 39.5155C27.7189 41.6924 29.3318 43.8206 31.7766 43.667C34.2214 43.5134 35.6149 40.8059 35.5222 38.7617C35.4294 36.7176 33.9886 34.1124 31.2227 34.286Z" fill="#0C2B34"/>
<path d="M31.4933 34.8342C29.0989 34.9845 27.9926 37.2231 28.1072 39.7496C28.2001 41.7961 29.7159 43.7964 32.0141 43.652C34.3121 43.5078 35.622 40.9627 35.5348 39.0412C35.4477 37.1197 34.0933 34.6709 31.4933 34.8342Z" fill="white"/>
<path d="M30.9332 34.685C28.9783 34.8077 28.0751 36.6352 28.1686 38.6978C28.2445 40.3686 29.482 42.0016 31.3582 41.8838C33.2343 41.766 34.3037 39.6881 34.2326 38.1195C34.1614 36.5508 33.0558 34.5516 30.9332 34.685Z" fill="#0C2B34"/>
<path d="M45.0729 29.0278C44.7597 28.3676 44.1426 28.0362 43.534 27.9492C42.9284 27.8766 42.2823 28.0463 41.8282 28.588C42.1444 28.6986 42.4151 28.7307 42.6802 28.7839C43.4792 28.9012 44.2523 29.0125 45.0729 29.0278Z" fill="#0C2B34"/>
<path d="M28.9177 31.8131C29.5941 31.2676 30.1873 30.6718 30.7981 30.0552C30.9942 29.8385 31.2048 29.6358 31.4166 29.3384C30.784 29.1817 30.1656 29.4599 29.6947 29.914C29.228 30.3819 28.869 31.059 28.9177 31.8131Z" fill="#0C2B34"/>
<path d="M35.8018 46.135C36.1379 46.4672 36.4822 46.936 36.9596 46.9408C37.417 46.9459 37.9353 46.6568 38.3403 46.4296C38.38 46.4074 38.4254 46.455 38.4019 46.5035C38.1001 47.1242 37.4095 47.557 36.7956 47.4855C36.1958 47.4161 35.8645 46.84 35.6805 46.2153C35.6547 46.1283 35.7526 46.0864 35.8018 46.135Z" fill="#0C2B34"/>
<path d="M42.8904 39.5908C42.3811 41.9581 39.7932 41.6591 38.2365 42.1272C37.7033 42.2969 37.1786 42.5625 36.6654 42.945C37.272 41.602 38.6227 41.1178 39.8234 40.9803C40.9565 40.8023 42.1418 40.7183 42.8904 39.5908Z" fill="#0C2B34"/>
<path d="M39.2563 41.2919C39.2563 41.2919 39.4716 44.1186 38.3156 45.0797C36.9854 46.1856 35.6416 44.4075 36.8654 42.6085C37.5069 41.6657 39.2563 41.2919 39.2563 41.2919Z" fill="#0C2B34"/>
<path d="M39.2046 42.9591C39.104 43.7438 38.855 44.6249 38.3112 45.0782C37.6127 45.6631 36.9039 45.4436 36.5736 44.8358L36.568 44.8253C36.5564 44.8044 36.56 44.7873 36.5574 44.7594C37.6273 42.965 38.5631 42.7482 39.2046 42.9591Z" fill="#F492B5"/>
<path d="M40.0227 35.7991C40.7683 36.2426 41.4425 36.8359 42.0937 37.4442C41.6361 37.8251 41.1617 38.2062 40.6875 38.555L40.7923 38.1446C40.9652 38.5659 41.2675 38.9118 41.6141 39.1491C41.9986 39.4099 42.4404 39.5282 42.8904 39.5933L42.6225 39.9889C41.7619 40.0205 40.4903 39.1098 40.1738 38.162C40.6062 37.8177 41.0475 37.4795 41.4952 37.1637L41.4669 37.6706C40.9455 37.0938 40.4431 36.4858 40.0227 35.7991Z" fill="#0C2B34"/>
<path d="M1.77592 13.0644C1.77592 18.1168 5.25807 22.2148 9.55135 22.2148C11.2863 22.2148 12.8881 21.5453 14.1834 20.4103L17.9924 21.5548L16.4067 17.3808C16.9958 16.0939 17.3266 14.622 17.3266 13.0644C17.3266 8.01176 13.8445 3.9137 9.55135 3.9137C5.25807 3.9137 1.77592 8.01176 1.77592 13.0644Z" fill="white"/>
<path d="M1.77592 13.0644C1.80691 5.27132 9.48551 1.05056 14.5875 6.02525C16.4158 7.82236 17.4767 10.6045 17.3872 13.4086C17.3502 14.8051 17.0326 16.1904 16.4655 17.4181L16.4677 17.3487L18.0439 21.5278L18.0913 21.6535L17.9784 21.6192L14.1721 20.4628L14.2108 20.4537C13.6313 20.9564 12.9941 21.3656 12.3215 21.6661C9.78155 22.8067 6.80493 22.2427 4.69485 20.2307C2.86223 18.5235 1.77221 15.8118 1.77592 13.0644ZM1.77592 13.0644C1.78949 15.7808 2.83525 18.3732 4.61131 20.1016C4.67785 20.1554 5.07142 20.5102 5.14768 20.5723C5.35603 20.7483 5.61251 20.9054 5.83029 21.0688C6.19986 21.294 6.65655 21.539 7.05655 21.6921C8.73965 22.3668 10.6319 22.3306 12.2929 21.5777C12.9639 21.273 13.5983 20.8589 14.1734 20.3517C14.1942 20.3584 17.9841 21.4836 18.0064 21.4905L17.9408 21.5819L16.3457 17.4129L16.3323 17.3778L16.3478 17.3435C16.8962 16.1319 17.2078 14.7748 17.2544 13.4027C17.4346 9.21426 14.9047 5.21165 11.4315 4.24092C6.60472 2.73876 1.7595 7.19934 1.77592 13.0644Z" fill="#0C2B34"/>
<path d="M10.0593 17.687V17.967C10.0593 18.4028 9.78169 18.7295 9.4114 18.7295C9.06809 18.7295 8.76349 18.4028 8.76349 17.967V17.687C8.76349 17.2672 9.06809 16.9252 9.4114 16.9252C9.78169 16.9252 10.0593 17.2672 10.0593 17.687ZM10.0593 14.2804V15.2918C10.0593 15.7269 9.78169 16.0538 9.4114 16.0538C9.06809 16.0538 8.76349 15.7269 8.76349 15.2918V13.6737C8.76349 13.6585 8.77749 13.6585 8.77749 13.6426C8.76349 13.6274 8.76349 13.6274 8.76349 13.6116C8.76349 13.2069 9.06809 12.8491 9.4114 12.8491C10.2445 12.8491 10.9183 12.0713 10.9183 11.1068C10.9183 10.127 10.2445 9.3645 9.4114 9.3645C8.87002 9.3645 8.39434 9.70702 8.14244 10.2201C7.95736 10.5937 7.56122 10.7179 7.24377 10.5001C6.94016 10.2828 6.83363 9.83122 7.01885 9.45811C7.49453 8.4936 8.39434 7.84 9.4114 7.84C10.9451 7.84 12.2012 9.30232 12.2012 11.1068C12.2012 12.647 11.2884 13.9384 10.0593 14.2804Z" fill="#FEC130"/>
</svg>
