<?xml version="1.0" encoding="UTF-8" standalone="no"?>
<!DOCTYPE svg PUBLIC "-//W3C//DTD SVG 1.1//EN" "http://www.w3.org/Graphics/SVG/1.1/DTD/svg11.dtd">
<svg width="100%" height="100%" viewBox="0 0 93 123" version="1.1" xmlns="http://www.w3.org/2000/svg" xmlns:xlink="http://www.w3.org/1999/xlink" xml:space="preserve" xmlns:serif="http://www.serif.com/" style="fill-rule:evenodd;clip-rule:evenodd;stroke-linejoin:round;stroke-miterlimit:2;">
    <path d="M46.325,123L50.356,122.311L47.311,77.521L43.279,78.21L46.325,123Z" style="fill:rgb(255,239,200);fill-rule:nonzero;"/>
    <path d="M36.191,123L32.16,122.311L35.204,77.521L39.236,78.21L36.191,123Z" style="fill:rgb(255,234,182);fill-rule:nonzero;"/>
    <g transform="matrix(0.935206,0,0,0.935206,3.00101,1.17435)">
        <path d="M86.074,61.841L87.607,62.585C87.607,62.585 88.218,61.269 89.567,61.894C90.268,62.219 90.412,62.859 90.393,63.286C90.371,63.783 90.101,64.23 89.694,64.503C89.231,64.816 88.476,64.938 87.529,64.25L86.462,66.551L87.978,67.286L88.366,66.45C88.366,66.45 90.753,66.92 91.865,64.523C92.929,62.231 91.165,60.723 90.304,60.305C89.646,59.986 87.329,59.061 86.074,61.841Z" style="fill:rgb(215,217,217);fill-rule:nonzero;"/>
        <path d="M86.616,70.164L87.473,68.666L86.094,67.844L85.237,69.341L86.616,70.164Z" style="fill:rgb(215,217,217);fill-rule:nonzero;"/>
        <path d="M70.642,87.278L72.374,87.778C72.374,87.778 72.785,86.292 74.304,86.702C75.092,86.915 75.354,87.559 75.408,88.009C75.47,88.532 75.265,89.048 74.887,89.408C74.457,89.818 73.689,90.082 72.58,89.534L71.861,92.133L73.573,92.628L73.835,91.683C73.835,91.683 76.412,91.743 77.161,89.037C77.877,86.447 75.772,85.189 74.8,84.908C74.057,84.693 71.473,84.144 70.642,87.278Z" style="fill:rgb(215,217,217);fill-rule:nonzero;"/>
        <path d="M70.799,95.289L72.589,95.54L72.827,93.833L71.037,93.582L70.799,95.289Z" style="fill:rgb(215,217,217);fill-rule:nonzero;"/>
        <path d="M80.247,80.166L83.596,79.796C83.596,79.796 83.293,76.921 86.21,76.548C87.725,76.354 88.618,77.283 89.02,78.027C89.487,78.89 89.483,79.933 89.074,80.827C88.607,81.847 87.454,82.855 85.154,82.697L85.684,87.722L88.996,87.357L88.803,85.53C88.803,85.53 93.318,83.79 92.766,78.557C92.238,73.549 87.724,72.87 85.844,73.078C84.406,73.236 79.546,74.131 80.247,80.166Z" style="fill:rgb(240,240,240);fill-rule:nonzero;"/>
        <path d="M85.479,93.023L88.856,92.869L88.71,89.645L85.332,89.799L85.479,93.023Z" style="fill:rgb(240,240,240);fill-rule:nonzero;"/>
        <path d="M13.128,22.294C13.128,23.176 13.828,23.892 14.691,23.892C15.554,23.892 16.254,23.176 16.254,22.294C16.254,21.411 15.554,20.696 14.691,20.696C13.828,20.696 13.128,21.411 13.128,22.294Z" style="fill:white;fill-rule:nonzero;"/>
        <path d="M13.128,22.294C13.142,22.295 13.138,22.152 13.202,21.91C13.266,21.673 13.425,21.328 13.774,21.062C14.112,20.796 14.666,20.647 15.203,20.852C15.467,20.95 15.719,21.134 15.897,21.389C16.081,21.64 16.184,21.962 16.187,22.294C16.184,22.626 16.081,22.948 15.897,23.199C15.719,23.453 15.467,23.638 15.203,23.736C14.666,23.941 14.111,23.792 13.774,23.526C13.425,23.26 13.266,22.914 13.202,22.678C13.138,22.436 13.142,22.293 13.128,22.294C13.124,22.294 13.121,22.329 13.12,22.397C13.118,22.464 13.125,22.565 13.152,22.691C13.202,22.939 13.354,23.31 13.717,23.602C14.068,23.895 14.661,24.069 15.244,23.854C15.532,23.751 15.806,23.553 16.002,23.278C16.203,23.006 16.317,22.655 16.32,22.294C16.317,21.933 16.203,21.581 16.002,21.31C15.806,21.035 15.532,20.837 15.244,20.734C14.661,20.52 14.068,20.693 13.717,20.985C13.354,21.278 13.202,21.649 13.152,21.897C13.125,22.023 13.118,22.124 13.12,22.191C13.121,22.259 13.124,22.294 13.128,22.294Z" style="fill:rgb(12,43,52);fill-rule:nonzero;"/>
        <path d="M12.676,57.875C10.079,66.886 9.471,76.423 11.034,85.69C11.227,86.834 10.735,88.009 9.563,88.338C8.55,88.623 7.168,87.986 6.973,86.834C5.279,76.794 5.796,66.512 8.615,56.73C9.38,54.078 13.445,55.207 12.676,57.875Z" style="fill:rgb(255,234,182);fill-rule:nonzero;"/>
        <path d="M0.737,46.767C1.968,42.447 5.361,38.93 9.399,37.789C8.587,34.699 9.873,31.131 11.472,28.424C13.07,25.718 15.955,23.772 18.885,23.275C21.928,22.76 23.817,23.04 26.766,24.005C28.526,20.558 31.909,18.689 35.522,18.246C39.136,17.804 43.027,19.883 44.492,23.488C45.016,19.698 49.194,17.45 52.643,18.305C56.092,19.161 58.711,22.29 60.326,25.701L13.992,76.664C9.885,78.338 4.819,76.596 2.356,72.662C-0.108,68.729 0.27,62.986 3.224,59.47C0.481,56.063 -0.493,51.087 0.737,46.767Z" style="fill:rgb(254,193,48);fill-rule:nonzero;"/>
        <path d="M76.456,32.151C75.073,28.196 72.542,25.196 68.674,23.56C64.773,21.91 60.37,21.885 56.213,22.636C54.509,22.944 52.758,23.412 51.445,24.563C50.131,25.715 49.394,27.723 50.151,29.314C46.547,27.234 41.872,27.248 38.281,29.351C34.69,31.454 32.311,35.569 32.242,39.799C28.488,39.492 24.547,40.341 21.568,42.698C18.588,45.055 16.745,49.046 17.42,52.835C14.965,52.615 12.611,54.231 11.304,56.368C9.996,58.504 9.569,61.078 9.396,63.592C9.288,65.143 9.273,66.741 9.78,68.208C10.026,68.922 10.394,69.595 10.554,70.334C10.749,71.228 10.628,72.157 10.601,73.073C10.476,77.31 12.539,81.55 15.918,84.005C19.296,86.46 23.891,87.057 27.763,85.544C32.063,90.083 39.77,90.649 44.66,86.784C47.842,87.875 51.213,88.662 54.541,88.224C56.239,88.001 57.918,87.424 59.369,86.487C60.698,85.628 61.46,83.968 62.712,83.182C63.575,82.64 64.514,82.786 65.477,82.932C65.941,83.003 66.41,83.073 66.879,83.066C68.563,83.043 70.244,82.62 71.736,81.821C74.582,80.297 76.699,77.455 77.473,74.267C77.629,73.621 77.745,72.936 78.143,72.41C78.507,71.928 79.059,71.644 79.573,71.338C82.778,69.425 85.089,66.015 85.713,62.275C86.337,58.534 85.264,54.534 82.86,51.643C82.86,51.643 85.287,45.278 83.003,39.578C80.72,33.878 76.456,32.151 76.456,32.151Z" style="fill:rgb(254,193,48);fill-rule:nonzero;"/>
        <path d="M1.626,46.918C2.822,42.717 6.122,39.296 10.05,38.186C9.26,35.181 10.511,31.711 12.066,29.078C13.62,26.446 16.426,24.553 19.277,24.07C22.236,23.569 24.073,23.842 26.941,24.78C28.653,21.428 31.944,19.61 35.458,19.179C38.972,18.748 42.757,20.771 44.181,24.278C44.691,20.591 48.754,18.405 52.109,19.237C55.464,20.069 58.011,23.112 59.582,26.429L14.517,75.996C10.523,77.625 5.596,75.93 3.2,72.104C0.804,68.278 1.171,62.693 4.044,59.274C1.376,55.96 0.429,51.12 1.626,46.918Z" style="fill:rgb(255,210,106);fill-rule:nonzero;"/>
        <path d="M75.269,32.703C73.925,28.856 71.463,25.939 67.701,24.347C63.907,22.742 59.625,22.718 55.582,23.448C53.924,23.748 52.221,24.203 50.944,25.323C49.666,26.443 48.949,28.396 49.685,29.944C46.18,27.92 41.634,27.934 38.141,29.98C34.648,32.025 32.335,36.027 32.268,40.142C28.616,39.843 24.783,40.668 21.885,42.961C18.988,45.253 17.195,49.135 17.852,52.82C15.464,52.607 13.174,54.178 11.902,56.256C10.631,58.334 10.216,60.837 10.047,63.282C9.942,64.791 9.927,66.346 10.42,67.772C10.66,68.466 11.018,69.121 11.174,69.84C11.363,70.71 11.245,71.613 11.219,72.504C11.098,76.624 13.104,80.748 16.39,83.136C19.676,85.524 24.145,86.104 27.911,84.632C32.093,89.048 39.589,89.598 44.345,85.839C47.44,86.9 50.718,87.665 53.955,87.239C55.607,87.022 57.24,86.462 58.651,85.55C59.944,84.715 60.685,83.101 61.902,82.336C62.741,81.809 63.655,81.951 64.592,82.093C65.043,82.161 65.499,82.23 65.956,82.223C67.593,82.201 69.228,81.789 70.679,81.012C73.447,79.53 75.507,76.766 76.259,73.665C76.411,73.037 76.524,72.37 76.911,71.859C77.265,71.39 77.801,71.114 78.301,70.816C81.419,68.956 83.666,65.639 84.273,62.001C84.881,58.363 83.836,54.472 81.498,51.661C81.498,51.661 83.859,45.471 81.638,39.927C79.417,34.383 75.269,32.703 75.269,32.703Z" style="fill:rgb(255,210,106);fill-rule:nonzero;"/>
        <path d="M42.804,86.861C43.345,86.566 43.863,86.227 44.353,85.842C44.35,85.84 44.348,85.84 44.345,85.839C43.858,86.224 43.342,86.564 42.803,86.859L42.804,86.861ZM57.38,86.251C57.828,86.044 58.261,85.806 58.676,85.538C59.968,84.703 60.71,83.089 61.927,82.324C62.009,82.273 62.091,82.228 62.174,82.189C62.083,82.231 61.992,82.28 61.902,82.336C60.685,83.101 59.944,84.715 58.651,85.55C58.244,85.813 57.819,86.046 57.38,86.251ZM70.19,81.257C70.364,81.176 70.535,81.091 70.704,81C73.472,79.518 75.531,76.754 76.283,73.653C76.436,73.025 76.549,72.359 76.936,71.847C77.29,71.379 77.826,71.102 78.326,70.804C81.444,68.944 83.691,65.628 84.298,61.99C84.54,60.544 84.516,59.06 84.259,57.618C84.254,57.639 84.251,57.66 84.247,57.681C84.496,59.106 84.512,60.573 84.273,62.001C83.666,65.639 81.419,68.956 78.301,70.816C77.801,71.114 77.265,71.39 76.911,71.858C76.524,72.37 76.411,73.037 76.259,73.665C75.507,76.766 73.447,79.529 70.679,81.012C70.518,81.098 70.356,81.18 70.19,81.257ZM11.338,76.777C11.505,76.777 11.673,76.772 11.839,76.763C11.822,76.709 11.804,76.655 11.788,76.601C11.63,76.609 11.472,76.613 11.314,76.613C10.939,76.613 10.564,76.59 10.191,76.544C10.191,76.597 10.192,76.651 10.193,76.704C10.574,76.752 10.956,76.777 11.338,76.777ZM6.005,75.126C6.005,75.078 6.005,75.029 6.006,74.98C4.9,74.243 3.932,73.273 3.2,72.104C2.476,70.948 2.004,69.631 1.778,68.262C1.992,69.69 2.472,71.066 3.225,72.268C3.951,73.428 4.91,74.392 6.005,75.126Z" style="fill:rgb(168,171,171);fill-rule:nonzero;"/>
        <path d="M11.314,76.613C11.472,76.613 11.63,76.609 11.788,76.601C11.379,75.279 11.178,73.891 11.219,72.504C11.222,72.403 11.226,72.302 11.231,72.2C8.112,72.163 4.985,70.503 3.225,67.693C2.563,66.635 2.112,65.443 1.867,64.2C1.608,65.533 1.576,66.92 1.778,68.262C2.004,69.631 2.476,70.948 3.2,72.104C3.932,73.273 4.9,74.243 6.006,74.98C7.27,75.823 8.714,76.361 10.191,76.544C10.564,76.59 10.939,76.613 11.314,76.613Z" style="fill:rgb(255,210,106);fill-rule:nonzero;"/>
        <path d="M42.172,87.18C42.385,87.081 42.597,86.974 42.804,86.861L42.803,86.859C42.596,86.973 42.386,87.08 42.172,87.18Z" style="fill:rgb(1,23,33);fill-rule:nonzero;"/>
        <path d="M36.901,88.325C38.718,88.325 40.531,87.947 42.172,87.18C42.386,87.08 42.596,86.973 42.803,86.859C43.342,86.564 43.858,86.224 44.345,85.839C44.348,85.84 44.35,85.84 44.353,85.841C44.358,85.837 44.365,85.832 44.37,85.827C46.869,86.684 49.486,87.348 52.106,87.348C52.731,87.348 53.357,87.31 53.98,87.228C55.147,87.074 56.304,86.75 57.38,86.251C57.819,86.046 58.244,85.813 58.651,85.55C59.944,84.715 60.685,83.101 61.902,82.336C61.992,82.28 62.082,82.231 62.174,82.189C62.551,82.01 62.942,81.95 63.342,81.95C63.759,81.95 64.185,82.016 64.617,82.081C65.049,82.147 65.485,82.212 65.921,82.212C65.941,82.212 65.961,82.212 65.981,82.212C67.427,82.192 68.872,81.868 70.19,81.257C70.356,81.18 70.518,81.098 70.679,81.012C73.447,79.529 75.506,76.766 76.259,73.665C76.411,73.037 76.524,72.37 76.911,71.858C77.265,71.39 77.801,71.114 78.301,70.816C81.419,68.956 83.666,65.639 84.273,62.001C84.512,60.573 84.496,59.106 84.247,57.681C83.576,61.213 81.367,64.414 78.326,66.228C77.826,66.527 77.29,66.803 76.936,67.271C76.549,67.783 76.436,68.449 76.283,69.078C75.531,72.179 73.472,74.942 70.704,76.425C69.253,77.202 67.618,77.613 65.981,77.636C65.961,77.636 65.941,77.636 65.921,77.636C65.485,77.636 65.049,77.571 64.617,77.506C64.185,77.44 63.759,77.375 63.342,77.375C62.995,77.375 62.654,77.42 62.324,77.549C62.304,77.859 62.272,78.163 62.229,78.461C62.143,79.021 62.019,79.555 61.874,80.055C61.576,81.052 61.193,81.909 60.825,82.599C60.457,83.29 60.117,83.824 59.871,84.184C59.75,84.366 59.648,84.5 59.581,84.593C59.515,84.683 59.477,84.73 59.472,84.73L59.472,84.73C59.468,84.728 59.498,84.675 59.559,84.578C59.628,84.469 59.717,84.329 59.828,84.154C60.06,83.786 60.387,83.247 60.742,82.554C61.098,81.863 61.468,81.008 61.757,80.019C61.896,79.523 62.017,78.995 62.1,78.441C62.138,78.168 62.168,77.89 62.188,77.607C62.1,77.647 62.013,77.695 61.927,77.749C60.71,78.513 59.968,80.127 58.676,80.963C57.265,81.874 55.632,82.435 53.98,82.652C53.356,82.734 52.731,82.772 52.106,82.772C49.486,82.772 45.785,80.908 43.287,80.052C41.164,81.73 39.036,80.98 36.359,80.98C33.04,80.979 30.251,82.489 27.936,80.045C26.555,80.585 25.08,80.849 23.604,80.848C21.052,80.848 18.496,80.061 16.415,78.549C14.284,77 12.692,74.72 11.868,72.185C11.692,72.196 11.515,72.201 11.338,72.201C11.303,72.201 11.266,72.201 11.231,72.2C11.226,72.302 11.222,72.403 11.219,72.504C11.178,73.891 11.379,75.279 11.788,76.601C11.804,76.655 11.822,76.709 11.839,76.763C11.849,76.762 11.859,76.761 11.868,76.761C12.692,79.296 14.284,81.576 16.415,83.124C18.497,84.637 21.052,85.424 23.604,85.424C25.08,85.424 26.555,85.16 27.936,84.621C30.251,87.065 33.582,88.325 36.901,88.325Z" style="fill:rgb(255,210,106);fill-rule:nonzero;"/>
        <path d="M57.676,60.106C57.68,60.109 57.715,60.06 57.777,59.967C57.842,59.876 57.922,59.73 58.05,59.56C58.291,59.21 58.674,58.726 59.218,58.202C59.76,57.676 60.48,57.128 61.363,56.675C62.243,56.221 63.293,55.881 64.426,55.766C65.56,55.664 66.654,55.8 67.601,56.08C68.551,56.357 69.358,56.76 69.986,57.174C70.615,57.587 71.08,57.989 71.379,58.288C71.536,58.431 71.641,58.559 71.721,58.637C71.799,58.717 71.842,58.757 71.846,58.754C71.849,58.751 71.813,58.704 71.741,58.618C71.667,58.535 71.568,58.4 71.416,58.25C71.125,57.939 70.667,57.521 70.037,57.093C69.41,56.665 68.596,56.248 67.635,55.959C66.677,55.67 65.567,55.527 64.414,55.63C63.262,55.747 62.197,56.097 61.308,56.563C60.416,57.029 59.692,57.592 59.153,58.132C58.612,58.671 58.236,59.168 58.007,59.53C57.885,59.706 57.812,59.856 57.754,59.953C57.699,60.051 57.672,60.104 57.676,60.106Z" style="fill:rgb(196,138,1);fill-rule:nonzero;"/>
        <path d="M54.126,75.562C54.128,75.562 54.127,75.53 54.124,75.469C54.12,75.401 54.114,75.312 54.107,75.198C54.097,75.076 54.086,74.93 54.073,74.758C54.045,74.584 54.014,74.385 53.979,74.162C53.899,73.716 53.764,73.176 53.556,72.566C53.329,71.965 53.051,71.281 52.624,70.593C51.8,69.214 50.497,67.71 48.635,66.679C47.71,66.161 46.649,65.784 45.515,65.605C44.382,65.424 43.18,65.437 41.983,65.655C39.585,66.101 37.479,67.355 36.071,68.956C34.645,70.552 33.905,72.441 33.734,74.056C33.555,75.686 33.908,77.004 34.253,77.833C34.609,78.669 34.931,79.057 34.931,79.057C34.933,79.056 34.919,79.028 34.888,78.976C34.853,78.918 34.808,78.841 34.75,78.745C34.635,78.538 34.467,78.231 34.301,77.813C33.973,76.984 33.638,75.675 33.827,74.068C34.008,72.473 34.748,70.612 36.161,69.04C37.556,67.464 39.638,66.229 42.007,65.789C43.189,65.574 44.377,65.56 45.495,65.737C46.615,65.911 47.662,66.28 48.576,66.789C50.419,67.802 51.717,69.282 52.545,70.643C52.972,71.323 53.254,71.998 53.486,72.592C53.699,73.195 53.841,73.729 53.928,74.172C53.968,74.393 54.003,74.591 54.033,74.763C54.052,74.934 54.067,75.08 54.08,75.201C54.093,75.313 54.103,75.402 54.111,75.47C54.118,75.531 54.123,75.562 54.126,75.562Z" style="fill:rgb(196,138,1);fill-rule:nonzero;"/>
        <path d="M21.032,78.545C21.03,78.55 21.068,78.571 21.142,78.609C21.218,78.643 21.325,78.706 21.474,78.76C21.766,78.882 22.207,79.019 22.769,79.094C23.33,79.17 24.015,79.164 24.749,79.002C25.482,78.842 26.262,78.51 26.959,77.979C27.649,77.437 28.173,76.76 28.522,76.082C28.873,75.402 29.065,74.73 29.145,74.157C29.227,73.584 29.219,73.112 29.183,72.792C29.172,72.631 29.142,72.508 29.13,72.424C29.115,72.341 29.105,72.298 29.1,72.299C29.062,72.299 29.238,73.012 29.052,74.142C28.962,74.704 28.764,75.36 28.414,76.022C28.066,76.684 27.551,77.342 26.878,77.87C26.199,78.389 25.44,78.717 24.723,78.88C24.005,79.045 23.333,79.061 22.78,78.998C21.665,78.874 21.042,78.508 21.032,78.545Z" style="fill:rgb(196,138,1);fill-rule:nonzero;"/>
        <path d="M59.79,28.064C59.799,28.063 59.785,27.944 59.752,27.728C59.721,27.513 59.656,27.204 59.558,26.828C59.461,26.451 59.315,26.01 59.125,25.531C58.929,25.056 58.686,24.545 58.388,24.033C58.085,23.523 57.758,23.063 57.439,22.663C57.115,22.268 56.803,21.929 56.522,21.665C56.243,21.399 56.007,21.196 55.835,21.067C55.665,20.937 55.569,20.868 55.563,20.875C55.547,20.895 55.92,21.189 56.457,21.734C56.727,22.005 57.029,22.347 57.344,22.742C57.654,23.142 57.975,23.599 58.273,24.103C58.568,24.609 58.812,25.113 59.013,25.58C59.207,26.05 59.36,26.484 59.467,26.854C59.686,27.595 59.765,28.069 59.79,28.064Z" style="fill:rgb(196,138,1);fill-rule:nonzero;"/>
        <path d="M69.76,32.062C69.767,32.089 70.219,31.954 70.967,31.874C71.342,31.83 71.79,31.817 72.287,31.837C72.782,31.867 73.326,31.936 73.884,32.068C74.442,32.206 74.958,32.392 75.415,32.593C75.868,32.801 76.263,33.019 76.579,33.228C77.213,33.643 77.558,33.97 77.576,33.949C77.582,33.942 77.499,33.858 77.341,33.712C77.264,33.637 77.166,33.55 77.045,33.458C76.924,33.365 76.792,33.252 76.63,33.148C76.318,32.926 75.921,32.696 75.465,32.478C75.004,32.269 74.481,32.075 73.915,31.936C73.348,31.802 72.795,31.735 72.292,31.712C71.788,31.698 71.333,31.722 70.957,31.778C70.767,31.797 70.599,31.837 70.45,31.866C70.302,31.892 70.176,31.926 70.074,31.957C69.869,32.016 69.758,32.053 69.76,32.062Z" style="fill:rgb(196,138,1);fill-rule:nonzero;"/>
        <path d="M69.76,53.708C69.757,53.711 69.792,53.743 69.86,53.802C69.93,53.858 70.027,53.949 70.167,54.047C70.439,54.252 70.857,54.52 71.409,54.778C71.96,55.036 72.654,55.269 73.449,55.392C74.242,55.517 75.139,55.519 76.051,55.338C76.962,55.148 77.79,54.796 78.477,54.37C79.166,53.945 79.719,53.459 80.132,53.005C80.545,52.55 80.831,52.14 81.006,51.843C81.098,51.699 81.154,51.576 81.198,51.497C81.239,51.416 81.259,51.373 81.255,51.371C81.245,51.365 81.15,51.53 80.962,51.815C80.776,52.1 80.481,52.498 80.064,52.938C79.648,53.379 79.095,53.85 78.414,54.263C77.735,54.676 76.92,55.018 76.025,55.205C75.129,55.382 74.249,55.384 73.467,55.268C72.683,55.153 71.996,54.934 71.447,54.69C70.897,54.446 70.476,54.194 70.197,54.003C69.917,53.813 69.767,53.698 69.76,53.708Z" style="fill:rgb(196,138,1);fill-rule:nonzero;"/>
        <path d="M76.02,65.935C75.996,65.945 76.196,66.399 76.406,67.169C76.513,67.553 76.609,68.019 76.684,68.541C76.75,69.063 76.792,69.643 76.781,70.251C76.765,70.859 76.699,71.436 76.61,71.955C76.513,72.473 76.397,72.934 76.273,73.313C76.031,74.072 75.811,74.517 75.835,74.528C75.843,74.533 75.902,74.424 76.001,74.223C76.052,74.123 76.111,73.999 76.169,73.85C76.227,73.702 76.302,73.536 76.362,73.344C76.499,72.965 76.625,72.501 76.73,71.979C76.827,71.455 76.898,70.87 76.914,70.254C76.924,69.637 76.879,69.051 76.805,68.523C76.722,67.996 76.616,67.527 76.496,67.142C76.444,66.948 76.377,66.778 76.324,66.628C76.273,66.477 76.22,66.35 76.173,66.248C76.083,66.043 76.029,65.931 76.02,65.935Z" style="fill:rgb(196,138,1);fill-rule:nonzero;"/>
        <path d="M59.472,84.73C59.475,84.733 59.513,84.686 59.581,84.593C59.648,84.5 59.75,84.366 59.871,84.184C60.117,83.824 60.457,83.29 60.825,82.599C61.193,81.909 61.576,81.052 61.874,80.055C62.019,79.555 62.143,79.021 62.229,78.461C62.31,77.899 62.352,77.311 62.35,76.71C62.337,74.295 61.682,72.167 61.014,70.757C60.682,70.046 60.362,69.499 60.123,69.134C60.007,68.949 59.904,68.814 59.839,68.72C59.772,68.627 59.735,68.579 59.731,68.582C59.728,68.585 59.757,68.637 59.817,68.735C59.875,68.835 59.971,68.974 60.079,69.163C60.304,69.535 60.61,70.087 60.929,70.797C61.571,72.209 62.204,74.319 62.217,76.71C62.219,77.305 62.178,77.885 62.1,78.441C62.017,78.995 61.896,79.523 61.757,80.019C61.468,81.008 61.098,81.863 60.742,82.554C60.387,83.247 60.06,83.786 59.828,84.154C59.717,84.329 59.628,84.469 59.559,84.578C59.498,84.675 59.468,84.727 59.472,84.73Z" style="fill:rgb(196,138,1);fill-rule:nonzero;"/>
        <path d="M62.04,73.69C62.037,73.696 62.133,73.753 62.326,73.797C62.518,73.843 62.811,73.854 63.156,73.777C63.503,73.704 63.892,73.538 64.3,73.316C64.709,73.093 65.133,72.798 65.531,72.434C66.335,71.705 66.857,70.846 67.14,70.196C67.28,69.868 67.369,69.593 67.42,69.401C67.468,69.207 67.49,69.1 67.482,69.097C67.457,69.09 67.354,69.519 67.055,70.155C66.754,70.786 66.231,71.618 65.443,72.332C65.052,72.689 64.639,72.982 64.242,73.206C63.844,73.43 63.467,73.601 63.135,73.684C62.714,73.798 62.391,73.761 62.209,73.724C62.1,73.702 62.041,73.68 62.04,73.69Z" style="fill:rgb(196,138,1);fill-rule:nonzero;"/>
        <path d="M43.56,86.262C43.565,86.27 43.648,86.226 43.794,86.139C43.942,86.054 44.147,85.917 44.393,85.736C44.885,85.375 45.526,84.812 46.113,84.077C46.698,83.34 47.109,82.584 47.355,82.019C47.478,81.736 47.568,81.503 47.62,81.338C47.674,81.174 47.699,81.082 47.691,81.079C47.669,81.071 47.536,81.428 47.27,81.978C47.004,82.528 46.587,83.265 46.01,83.991C45.431,84.715 44.81,85.282 44.337,85.659C43.863,86.037 43.548,86.242 43.56,86.262Z" style="fill:rgb(196,138,1);fill-rule:nonzero;"/>
        <path d="M26.432,78.128C26.423,78.128 26.414,78.226 26.406,78.404C26.397,78.582 26.391,78.839 26.392,79.158C26.397,79.793 26.426,80.681 26.639,81.636C26.851,82.592 27.24,83.398 27.574,83.936C27.745,84.204 27.891,84.415 28.003,84.552C28.112,84.691 28.176,84.765 28.183,84.759C28.203,84.744 27.969,84.431 27.655,83.886C27.345,83.341 26.977,82.546 26.768,81.605C26.559,80.666 26.515,79.788 26.486,79.155C26.461,78.521 26.452,78.128 26.432,78.128Z" style="fill:rgb(196,138,1);fill-rule:nonzero;"/>
        <path d="M15.631,64.637C15.628,64.632 15.587,64.652 15.51,64.694C15.435,64.738 15.32,64.798 15.18,64.888C14.903,65.071 14.509,65.357 14.095,65.793C13.683,66.228 13.254,66.813 12.902,67.531C12.726,67.89 12.571,68.28 12.431,68.692C12.297,69.106 12.182,69.542 12.088,69.994C11.723,71.808 11.742,73.491 11.775,74.693C11.795,75.295 11.824,75.782 11.846,76.118C11.857,76.273 11.866,76.401 11.874,76.505C11.882,76.593 11.888,76.64 11.893,76.64C11.897,76.639 11.9,76.593 11.901,76.504C11.9,76.4 11.899,76.272 11.897,76.116C11.89,75.759 11.881,75.277 11.869,74.691C11.86,73.491 11.857,71.817 12.218,70.022C12.311,69.575 12.424,69.144 12.554,68.734C12.691,68.327 12.841,67.941 13.012,67.587C13.352,66.877 13.766,66.296 14.164,65.859C14.563,65.421 14.943,65.127 15.209,64.932C15.481,64.746 15.636,64.646 15.631,64.637Z" style="fill:rgb(196,138,1);fill-rule:nonzero;"/>
        <path d="M18.613,67.53C18.619,67.522 18.525,67.44 18.352,67.3C18.177,67.161 17.93,66.953 17.631,66.688C17.032,66.161 16.247,65.38 15.495,64.417C14.745,63.452 14.176,62.495 13.807,61.78C13.622,61.423 13.479,61.13 13.386,60.925C13.291,60.721 13.234,60.609 13.225,60.613C13.217,60.616 13.257,60.735 13.338,60.946C13.417,61.159 13.548,61.46 13.724,61.824C14.073,62.554 14.634,63.528 15.391,64.502C16.15,65.473 16.953,66.25 17.57,66.762C17.878,67.018 18.136,67.216 18.321,67.342C18.505,67.47 18.608,67.537 18.613,67.53Z" style="fill:rgb(196,138,1);fill-rule:nonzero;"/>
        <path d="M20.149,31.89C20.145,31.888 20.126,31.922 20.093,31.989C20.062,32.056 20.011,32.153 19.959,32.284C19.849,32.543 19.712,32.93 19.593,33.422C19.352,34.399 19.235,35.841 19.619,37.349C20.002,38.858 20.791,40.06 21.467,40.793C21.805,41.164 22.109,41.433 22.329,41.605C22.436,41.694 22.527,41.753 22.586,41.796C22.647,41.838 22.679,41.858 22.682,41.854C22.689,41.845 22.569,41.747 22.362,41.564C22.153,41.381 21.862,41.103 21.537,40.729C20.886,39.987 20.125,38.798 19.748,37.315C19.371,35.833 19.47,34.416 19.685,33.444C19.791,32.955 19.913,32.567 20.008,32.303C20.102,32.039 20.159,31.895 20.149,31.89Z" style="fill:rgb(196,138,1);fill-rule:nonzero;"/>
        <path d="M15.631,34.464C15.631,34.488 15.884,34.483 16.285,34.543C16.684,34.601 17.229,34.746 17.778,35.033C18.325,35.322 18.758,35.69 19.038,35.988C19.319,36.286 19.462,36.499 19.481,36.486C19.493,36.479 19.376,36.244 19.107,35.923C18.84,35.602 18.402,35.209 17.839,34.912C17.274,34.617 16.707,34.483 16.296,34.447C15.884,34.411 15.629,34.45 15.631,34.464Z" style="fill:rgb(196,138,1);fill-rule:nonzero;"/>
        <path d="M7.395,62.862C7.4,62.861 7.383,62.797 7.346,62.677C7.313,62.557 7.247,62.385 7.189,62.155C7.057,61.7 6.901,61.03 6.8,60.189C6.699,59.349 6.67,58.333 6.805,57.222C6.935,56.113 7.237,54.907 7.764,53.734C8.029,53.149 8.337,52.602 8.67,52.097C9.008,51.597 9.373,51.142 9.744,50.731C10.499,49.921 11.28,49.293 11.987,48.853C12.694,48.411 13.307,48.124 13.741,47.958C13.955,47.864 14.129,47.817 14.243,47.77C14.358,47.728 14.418,47.703 14.417,47.699C14.416,47.694 14.353,47.71 14.235,47.744C14.118,47.782 13.941,47.822 13.723,47.909C13.281,48.06 12.657,48.336 11.938,48.771C11.218,49.204 10.423,49.831 9.655,50.645C9.278,51.058 8.907,51.516 8.562,52.022C8.224,52.531 7.912,53.085 7.643,53.678C7.11,54.865 6.808,56.086 6.684,57.207C6.554,58.331 6.593,59.355 6.707,60.201C6.82,61.047 6.992,61.718 7.139,62.17C7.206,62.399 7.28,62.569 7.321,62.686C7.366,62.803 7.391,62.864 7.395,62.862Z" style="fill:rgb(196,138,1);fill-rule:nonzero;"/>
        <path d="M7.411,46.158C7.397,46.162 7.435,46.415 7.567,46.806C7.699,47.196 7.936,47.72 8.299,48.234C8.661,48.748 9.073,49.144 9.397,49.392C9.72,49.64 9.946,49.753 9.953,49.74C9.982,49.704 9.112,49.173 8.406,48.155C7.688,47.147 7.454,46.141 7.411,46.158Z" style="fill:rgb(196,138,1);fill-rule:nonzero;"/>
        <path d="M34.228,24.78C34.219,24.777 34.183,24.873 34.125,25.051C34.095,25.14 34.061,25.249 34.032,25.379C34.002,25.508 33.961,25.654 33.937,25.82C33.874,26.149 33.834,26.548 33.822,26.992C33.818,27.436 33.847,27.925 33.93,28.43C34.019,28.936 34.153,29.406 34.303,29.823C34.46,30.237 34.63,30.598 34.798,30.886C34.875,31.034 34.962,31.158 35.033,31.269C35.103,31.381 35.171,31.473 35.229,31.545C35.342,31.693 35.408,31.771 35.415,31.765C35.436,31.75 35.187,31.423 34.88,30.839C34.725,30.549 34.567,30.189 34.418,29.779C34.276,29.367 34.148,28.904 34.061,28.407C33.979,27.91 33.947,27.43 33.944,26.993C33.949,26.556 33.98,26.163 34.03,25.836C34.126,25.181 34.252,24.788 34.228,24.78Z" style="fill:rgb(196,138,1);fill-rule:nonzero;"/>
        <path d="M54.126,75.562C54.128,75.562 54.127,75.53 54.124,75.469C54.123,75.451 54.122,75.432 54.12,75.411C54.115,75.412 54.11,75.413 54.104,75.414C54.107,75.434 54.109,75.453 54.111,75.47C54.118,75.531 54.123,75.562 54.126,75.562ZM34.288,72.149C34.548,71.434 34.913,70.709 35.392,70.016C35.371,70.001 35.35,69.987 35.328,69.972C35.317,69.965 35.305,69.957 35.293,69.949C34.831,70.626 34.475,71.332 34.217,72.03C34.24,72.071 34.264,72.111 34.288,72.149Z" style="fill:rgb(196,138,1);fill-rule:nonzero;"/>
        <path d="M62.213,77.08C62.258,77.052 62.303,77.024 62.348,76.995C62.349,76.9 62.35,76.805 62.35,76.71C62.34,74.933 61.984,73.312 61.53,72.018C61.5,72.044 61.469,72.07 61.439,72.097C61.87,73.378 62.208,74.97 62.217,76.71C62.218,76.834 62.216,76.957 62.213,77.08Z" style="fill:rgb(196,138,1);fill-rule:nonzero;"/>
        <path d="M62.669,73.833C62.813,73.833 62.978,73.817 63.156,73.777C63.503,73.704 63.892,73.538 64.3,73.316C64.709,73.093 65.133,72.798 65.531,72.434C66.335,71.705 66.857,70.846 67.14,70.196C67.28,69.868 67.369,69.593 67.42,69.401C67.468,69.207 67.49,69.1 67.482,69.097L67.481,69.097C67.455,69.097 67.352,69.525 67.055,70.155C66.754,70.786 66.231,71.618 65.443,72.332C65.052,72.689 64.639,72.982 64.242,73.206C63.844,73.43 63.467,73.601 63.135,73.684C62.922,73.741 62.734,73.76 62.577,73.76C62.423,73.76 62.299,73.742 62.209,73.724C62.118,73.706 62.062,73.687 62.045,73.687C62.042,73.687 62.04,73.688 62.04,73.69C62.037,73.696 62.133,73.753 62.326,73.797C62.419,73.819 62.535,73.833 62.669,73.833Z" style="fill:rgb(196,138,1);fill-rule:nonzero;"/>
        <path d="M52.944,28.272C52.949,28.284 53.142,28.189 53.499,28.046C53.855,27.901 54.387,27.728 55.062,27.611C55.736,27.492 56.558,27.453 57.454,27.577C58.349,27.699 59.314,28.003 60.22,28.529C61.12,29.067 61.861,29.769 62.414,30.499C62.968,31.23 63.347,31.977 63.584,32.633C63.824,33.289 63.945,33.846 64,34.233C64.058,34.621 64.074,34.839 64.087,34.838C64.091,34.838 64.091,34.783 64.087,34.679C64.079,34.576 64.081,34.422 64.052,34.226C64.011,33.833 63.904,33.268 63.673,32.6C63.444,31.932 63.068,31.169 62.51,30.422C61.955,29.677 61.204,28.959 60.286,28.412C59.363,27.875 58.38,27.57 57.471,27.453C56.56,27.334 55.726,27.384 55.046,27.516C54.364,27.647 53.832,27.836 53.479,27.997C53.299,28.069 53.17,28.149 53.078,28.193C52.988,28.241 52.942,28.268 52.944,28.272Z" style="fill:rgb(196,138,1);fill-rule:nonzero;"/>
        <path d="M41.792,44.416C41.796,44.416 41.792,44.338 41.78,44.192C41.773,44.115 41.765,44.025 41.756,43.922C41.744,43.815 41.733,43.692 41.737,43.553C41.714,42.998 41.774,42.185 42.043,41.231C42.098,40.989 42.205,40.751 42.292,40.496C42.388,40.244 42.515,39.993 42.638,39.731C42.786,39.482 42.914,39.208 43.097,38.959C43.185,38.833 43.269,38.701 43.363,38.574C43.463,38.45 43.563,38.326 43.665,38.199C44.091,37.713 44.573,37.224 45.159,36.835C45.737,36.44 46.388,36.11 47.096,35.892C47.807,35.69 48.531,35.614 49.226,35.633C49.924,35.642 50.587,35.793 51.201,35.972C51.354,36.023 51.504,36.073 51.652,36.124C51.798,36.179 51.938,36.246 52.079,36.305C52.363,36.415 52.614,36.577 52.87,36.706C53.111,36.861 53.349,37.004 53.562,37.165C53.769,37.334 53.983,37.476 54.156,37.651C54.882,38.311 55.356,38.966 55.626,39.447C55.703,39.563 55.758,39.673 55.803,39.769C55.849,39.862 55.889,39.942 55.923,40.011C55.99,40.142 56.027,40.209 56.031,40.208C56.035,40.206 56.006,40.134 55.948,40C55.917,39.929 55.88,39.846 55.838,39.751C55.796,39.652 55.745,39.539 55.671,39.421C55.413,38.927 54.945,38.256 54.218,37.579C54.046,37.4 53.83,37.253 53.622,37.08C53.408,36.915 53.168,36.768 52.925,36.609C52.667,36.475 52.414,36.309 52.126,36.196C51.984,36.134 51.842,36.066 51.694,36.009C51.544,35.957 51.392,35.905 51.237,35.852C50.615,35.667 49.941,35.511 49.231,35.5C48.523,35.478 47.785,35.555 47.059,35.762C46.337,35.983 45.673,36.321 45.086,36.725C44.491,37.122 44.002,37.621 43.572,38.118C43.47,38.247 43.368,38.374 43.268,38.499C43.173,38.629 43.089,38.764 43,38.893C42.816,39.146 42.688,39.425 42.54,39.678C42.417,39.945 42.292,40.201 42.197,40.457C42.111,40.717 42.005,40.959 41.953,41.205C41.692,42.174 41.646,42.997 41.686,43.555C41.685,43.695 41.7,43.819 41.716,43.926C41.73,44.029 41.743,44.119 41.753,44.196C41.774,44.341 41.787,44.417 41.792,44.416Z" style="fill:rgb(196,138,1);fill-rule:nonzero;"/>
        <path d="M65.668,52.414C65.669,52.419 65.717,52.41 65.806,52.389C65.894,52.365 66.028,52.342 66.192,52.283C66.524,52.181 66.994,51.986 67.528,51.657C68.061,51.329 68.647,50.846 69.175,50.197C69.704,49.55 70.16,48.725 70.421,47.785C70.669,46.841 70.691,45.893 70.562,45.06C70.434,44.226 70.173,43.504 69.88,42.943C69.587,42.38 69.281,41.966 69.047,41.704C68.936,41.568 68.832,41.478 68.769,41.411C68.703,41.347 68.667,41.314 68.664,41.318C68.655,41.327 68.788,41.467 69.008,41.739C69.228,42.009 69.518,42.427 69.796,42.987C70.075,43.545 70.322,44.258 70.44,45.079C70.561,45.897 70.535,46.825 70.293,47.749C70.038,48.668 69.594,49.478 69.081,50.117C68.567,50.759 67.997,51.242 67.478,51.575C66.959,51.91 66.5,52.117 66.175,52.233C65.851,52.351 65.665,52.402 65.668,52.414Z" style="fill:rgb(196,138,1);fill-rule:nonzero;"/>
        <path d="M42.6,39.435C42.587,39.426 42.573,39.415 42.558,39.404C42.453,39.323 42.291,39.221 42.084,39.109C41.67,38.884 41.051,38.648 40.335,38.557C40.111,38.529 39.891,38.517 39.683,38.517C39.227,38.517 38.821,38.574 38.508,38.648C38.306,38.695 38.14,38.743 38.019,38.788C38.487,38.683 38.966,38.631 39.444,38.631C40.54,38.631 41.636,38.903 42.6,39.435Z" style="fill:rgb(196,138,1);fill-rule:nonzero;"/>
        <path d="M65.347,61.187C65.347,66.322 63.408,69.999 59.357,72.274C55.306,74.549 50.959,74.661 46.338,74.603C46.273,76.22 46.208,77.836 46.144,79.453C51.601,79.467 57.241,78.771 61.957,75.963C66.673,73.156 70.27,67.85 69.828,62.288C69.828,62.288 69.865,59.583 67.483,59.616C65.326,59.647 65.347,61.187 65.347,61.187Z" style="fill:rgb(255,234,182);fill-rule:nonzero;"/>
        <path d="M34.161,68.396C34.546,68.225 34.978,68.464 35.328,68.701C36.436,69.449 36.762,69.945 37.858,70.673C38.639,71.191 39.794,71.755 40.641,71.359C41.581,70.92 41.594,69.57 42.143,68.675C42.313,68.398 42.587,68.14 42.906,68.163C43.25,68.187 43.667,68.498 43.725,68.845C43.783,69.193 43.681,69.625 43.667,69.977C43.625,71.071 43.624,71.641 43.719,72.492C43.814,73.344 43.994,74.914 43.523,75.623C43.287,76.789 42.999,77.57 42.498,78.645C42.364,78.932 42.785,78.711 42.535,78.901C42.266,79.106 42.01,79.544 41.014,79.717C39.824,79.925 38.918,80.016 37.724,79.839C36.983,79.73 35.807,79.275 35.586,78.544C35.518,78.318 35.521,78.067 35.41,77.858C35.317,77.683 35.156,77.559 35.017,77.42C34.499,76.903 34.38,75.256 34.958,74.811C34.254,73.822 34.323,72.97 35.179,72.115C34.552,71.198 34.284,71.059 33.897,70.068C33.669,69.486 33.599,68.647 34.161,68.396Z" style="fill:rgb(255,234,182);fill-rule:nonzero;"/>
        <path d="M41.473,73.914C41.656,74.076 41.784,73.467 42.01,73.417C43.392,73.108 45.099,73.136 46.486,73.05C46.691,73.037 46.922,73.041 47.066,73.209C47.174,73.335 47.207,73.522 47.23,73.697C47.42,75.122 47.376,76.589 47.101,77.995C46.962,78.712 46.708,79.489 46.136,79.802C45.805,79.983 45.422,79.973 45.058,79.938C43.02,79.738 41.039,78.822 39.439,77.34L41.473,73.914Z" style="fill:rgb(255,234,182);fill-rule:nonzero;"/>
        <path d="M35.953,75.831C35.974,75.797 35.644,75.557 35.303,75.192C34.959,74.829 34.737,74.482 34.703,74.502C34.672,74.518 34.85,74.909 35.207,75.286C35.562,75.666 35.937,75.862 35.953,75.831Z" style="fill:white;fill-rule:nonzero;"/>
        <path d="M36.152,78.5C36.173,78.466 35.843,78.226 35.502,77.86C35.158,77.497 34.936,77.15 34.902,77.171C34.872,77.186 35.049,77.577 35.406,77.955C35.761,78.334 36.136,78.53 36.152,78.5Z" style="fill:white;fill-rule:nonzero;"/>
        <path d="M36.387,73.404C36.408,73.371 36.078,73.131 35.737,72.765C35.393,72.402 35.171,72.055 35.137,72.076C35.106,72.091 35.284,72.482 35.641,72.859C35.996,73.239 36.371,73.435 36.387,73.404Z" style="fill:white;fill-rule:nonzero;"/>
        <path d="M47.047,47.737C47.126,48.34 49.189,48.524 51.483,49.343C53.795,50.114 55.545,51.245 55.964,50.814C56.155,50.605 55.936,50.006 55.283,49.293C54.638,48.583 53.532,47.797 52.151,47.319C50.77,46.844 49.425,46.784 48.49,46.949C47.548,47.111 47.019,47.453 47.047,47.737Z" style="fill:rgb(12,43,52);fill-rule:nonzero;"/>
        <path d="M24.988,38.013C25.434,38.481 27.134,37.949 29.189,37.881C31.242,37.753 32.993,38.121 33.383,37.612C33.554,37.366 33.27,36.894 32.5,36.458C31.742,36.024 30.48,35.682 29.067,35.749C27.655,35.817 26.44,36.276 25.735,36.781C25.019,37.287 24.79,37.784 24.988,38.013Z" style="fill:rgb(12,43,52);fill-rule:nonzero;"/>
        <path d="M24.506,47.097C21.157,48.435 19.565,52.459 20.95,56.084C22.335,59.709 26.174,61.563 29.523,60.225C32.873,58.887 34.465,54.863 33.08,51.238C31.694,47.613 27.856,45.759 24.506,47.097Z" style="fill:white;fill-rule:nonzero;"/>
        <path d="M24.386,46.782C21.037,48.12 19.29,51.74 20.485,54.866C21.679,57.993 25.363,59.442 28.712,58.104C32.062,56.766 33.809,53.147 32.614,50.02C31.42,46.894 27.736,45.444 24.386,46.782Z" style="fill:rgb(12,43,52);fill-rule:nonzero;"/>
        <path d="M44.721,51.736C41.998,54.137 41.805,58.474 44.291,61.422C46.776,64.369 51,64.812 53.723,62.411C56.447,60.01 56.639,55.674 54.154,52.726C51.668,49.779 47.445,49.335 44.721,51.736Z" style="fill:white;fill-rule:nonzero;"/>
        <path d="M44.505,51.48C41.782,53.881 41.312,57.889 43.456,60.431C45.599,62.973 49.545,63.088 52.269,60.687C54.993,58.286 55.462,54.278 53.319,51.736C51.175,49.194 47.229,49.079 44.505,51.48Z" style="fill:rgb(12,43,52);fill-rule:nonzero;"/>
        <path d="M37.12,65.899C37.525,65.899 37.913,65.666 38.156,65.333C38.407,64.99 38.531,64.669 38.536,64.24C38.548,63.327 38.611,62.599 37.879,62.077C37.277,61.647 36.177,61.435 35.311,61.435C35.125,61.435 34.948,61.445 34.791,61.464C34.86,62.537 34.977,63.624 35.436,64.592C35.743,65.238 36.377,65.871 37.079,65.898C37.093,65.899 37.107,65.899 37.12,65.899Z" style="fill:rgb(204,87,73);fill-rule:nonzero;"/>
        <path d="M35.436,64.592C35.433,64.594 35.447,64.628 35.48,64.688C35.513,64.749 35.566,64.836 35.644,64.942C35.802,65.151 36.051,65.435 36.43,65.718C36.625,65.849 36.868,65.96 37.149,65.986C37.428,66.018 37.745,65.934 37.993,65.73C38.243,65.53 38.428,65.227 38.513,64.89C38.6,64.552 38.601,64.192 38.586,63.834C38.572,63.475 38.53,63.115 38.399,62.792C38.27,62.466 38.045,62.203 37.798,62.012C37.298,61.627 36.738,61.488 36.285,61.427C35.826,61.368 35.453,61.375 35.197,61.38C34.941,61.387 34.8,61.397 34.8,61.407C34.8,61.416 34.942,61.423 35.197,61.433C35.452,61.444 35.823,61.452 36.271,61.522C36.715,61.594 37.253,61.74 37.723,62.111C37.955,62.295 38.16,62.54 38.278,62.842C38.399,63.144 38.439,63.487 38.453,63.84C38.469,64.194 38.467,64.54 38.387,64.856C38.31,65.171 38.142,65.447 37.917,65.632C37.693,65.819 37.414,65.897 37.158,65.874C36.9,65.855 36.669,65.757 36.48,65.637C36.113,65.378 35.849,65.102 35.684,64.908C35.519,64.711 35.446,64.586 35.436,64.592Z" style="fill:rgb(244,146,181);fill-rule:nonzero;"/>
        <path d="M38.478,29.79C40.147,28.892 42.031,28.44 43.918,28.436C43.921,26.962 43.924,25.489 43.927,24.015C43.927,24.015 42.543,24.299 42.519,28.272C42.519,28.272 42.427,28.264 42.266,28.264C41.631,28.264 39.913,28.403 38.478,29.79Z" style="fill:rgb(254,193,48);fill-rule:nonzero;"/>
        <path d="M37.147,36.486C36.892,34.611 37.539,32.631 38.843,31.289C39.969,30.131 41.562,29.47 43.157,29.47C43.41,29.47 43.664,29.487 43.915,29.521C43.916,29.159 43.917,28.798 43.918,28.436C42.031,28.44 40.146,28.892 38.478,29.79C38.106,30.149 37.753,30.593 37.443,31.14C35.633,34.328 37.147,36.486 37.147,36.486Z" style="fill:rgb(254,193,48);fill-rule:nonzero;"/>
        <path d="M75.038,42.817C75.036,42.801 74.755,42.812 74.309,42.903C73.864,42.993 73.258,43.178 72.634,43.49C72.01,43.804 71.496,44.182 71.154,44.487C70.811,44.792 70.631,45.013 70.642,45.023C70.657,45.039 70.86,44.843 71.214,44.561C71.567,44.279 72.08,43.921 72.692,43.612C73.306,43.305 73.896,43.109 74.33,42.997C74.765,42.883 75.041,42.838 75.038,42.817Z" style="fill:rgb(12,43,52);fill-rule:nonzero;"/>
        <path d="M55.71,39.487C54.819,36.787 52.632,34.63 49.858,34.321C49.611,34.293 49.363,34.28 49.116,34.28C46.543,34.28 43.991,35.736 42.69,38.014C42.044,37.645 41.305,37.452 40.566,37.452C40.315,37.452 40.064,37.474 39.816,37.519C38.841,37.697 37.932,38.23 37.288,39C37.528,38.914 37.772,38.844 38.019,38.788C38.14,38.743 38.306,38.695 38.508,38.648C38.821,38.574 39.227,38.517 39.683,38.517C39.891,38.517 40.111,38.529 40.335,38.557C41.051,38.648 41.67,38.884 42.084,39.109C42.291,39.221 42.453,39.323 42.558,39.404C42.573,39.415 42.587,39.426 42.6,39.435C42.62,39.446 42.639,39.457 42.658,39.468C42.762,39.276 42.867,39.077 43.001,38.893C43.089,38.764 43.173,38.629 43.268,38.499C43.368,38.374 43.47,38.247 43.572,38.118C44.002,37.621 44.491,37.122 45.086,36.725C45.673,36.321 46.337,35.983 47.059,35.762C47.708,35.577 48.367,35.496 49.005,35.496C49.08,35.496 49.156,35.497 49.231,35.5C49.941,35.511 50.615,35.667 51.237,35.852C51.392,35.905 51.544,35.957 51.694,36.009C51.842,36.066 51.984,36.135 52.126,36.196C52.414,36.309 52.667,36.475 52.925,36.609C53.168,36.768 53.408,36.916 53.622,37.08C53.83,37.253 54.046,37.4 54.218,37.579C54.945,38.257 55.413,38.927 55.671,39.421C55.685,39.443 55.698,39.465 55.71,39.487ZM45.481,36.626C46.55,36.024 47.774,35.691 48.996,35.691C49.06,35.691 49.126,35.692 49.19,35.694C49.873,35.714 50.546,35.802 51.195,35.97C50.583,35.792 49.922,35.642 49.226,35.633C49.158,35.631 49.091,35.63 49.022,35.63C48.39,35.63 47.738,35.71 47.096,35.892C46.517,36.07 45.975,36.324 45.481,36.626Z" style="fill:rgb(254,193,48);fill-rule:nonzero;"/>
        <path d="M70.57,45.117C70.598,45.084 70.627,45.052 70.655,45.02C70.65,45.023 70.647,45.024 70.644,45.024C70.643,45.024 70.642,45.024 70.642,45.023C70.631,45.013 70.811,44.792 71.154,44.487C71.496,44.182 72.01,43.804 72.634,43.49C73.258,43.178 73.864,42.993 74.309,42.903C74.635,42.836 74.874,42.813 74.978,42.811C74.534,42.688 74.074,42.624 73.616,42.624C72.949,42.624 72.285,42.761 71.679,43.057C70.883,41.721 69.427,40.822 67.901,40.724C69.369,41.447 70.385,43.028 70.494,44.685C70.519,44.807 70.542,44.933 70.562,45.06C70.564,45.079 70.567,45.098 70.57,45.117Z" style="fill:rgb(254,193,48);fill-rule:nonzero;"/>
        <path d="M70.498,45.201C70.522,45.173 70.546,45.144 70.57,45.116C70.567,45.098 70.564,45.079 70.562,45.06C70.542,44.933 70.519,44.807 70.494,44.685C70.505,44.856 70.507,45.029 70.498,45.201Z" style="fill:rgb(1,23,33);fill-rule:nonzero;"/>
        <path d="M70.644,45.024C70.647,45.024 70.65,45.023 70.655,45.02C71.771,43.787 73.375,42.967 74.998,42.817C74.992,42.815 74.985,42.813 74.978,42.811C74.874,42.813 74.635,42.836 74.309,42.903C73.864,42.993 73.258,43.178 72.634,43.49C72.01,43.804 71.496,44.182 71.154,44.487C70.811,44.792 70.631,45.013 70.642,45.023C70.642,45.024 70.643,45.024 70.644,45.024Z" style="fill:rgb(1,23,33);fill-rule:nonzero;"/>
        <path d="M6.814,61.002C6.758,60.694 6.717,60.38 6.689,60.061C6.589,59.244 6.56,58.27 6.684,57.207C6.808,56.086 7.11,54.865 7.643,53.678C7.912,53.085 8.224,52.531 8.562,52.022C8.907,51.516 9.278,51.059 9.655,50.645C10.423,49.831 11.218,49.204 11.938,48.771C12.657,48.336 13.281,48.061 13.723,47.909C13.865,47.852 13.99,47.815 14.092,47.786L14.076,47.787C14.002,47.785 13.928,47.783 13.852,47.783C12.325,47.783 10.724,48.329 9.348,49.22C9.706,49.546 9.969,49.72 9.953,49.74C9.953,49.741 9.952,49.741 9.95,49.741C9.922,49.741 9.703,49.627 9.397,49.392C9.351,49.357 9.305,49.32 9.257,49.28C8.121,50.033 7.146,51.022 6.502,52.133C5.026,54.676 5.34,58.457 6.814,61.002ZM10.053,50.411C11.12,49.369 12.343,48.583 13.525,48.045C13.113,48.218 12.584,48.48 11.987,48.853C11.376,49.233 10.709,49.754 10.053,50.411Z" style="fill:rgb(254,193,48);fill-rule:nonzero;"/>
        <path d="M9.95,49.741C9.952,49.741 9.953,49.741 9.953,49.74C9.969,49.72 9.706,49.546 9.348,49.22C9.317,49.24 9.287,49.26 9.257,49.28C9.305,49.32 9.351,49.357 9.397,49.392C9.703,49.627 9.922,49.741 9.95,49.741Z" style="fill:rgb(1,23,33);fill-rule:nonzero;"/>
        <path d="M5.674,90.111C5.646,89.899 5.623,89.686 5.618,89.472C5.605,88.836 5.553,88.305 5.718,87.603C5.833,87.113 6.066,86.617 6.239,86.404C5.874,85.575 5.636,84.701 5.541,83.813C5.505,83.478 5.492,83.127 5.647,82.821C5.915,82.293 6.594,82.051 7.221,81.914C8.453,81.646 9.74,81.588 10.993,81.746C11.148,81.765 11.312,81.792 11.423,81.89C11.573,82.021 11.579,82.232 11.57,82.421C11.54,83.072 11.447,84.163 11.522,85.232C12.158,85.472 12.747,85.857 13.239,86.364L13.255,86.382C13.822,86.962 15.144,87.882 15.144,87.882C15.519,88.141 15.754,88.41 15.78,88.725C15.804,89.018 15.662,89.277 15.421,89.436C14.641,89.95 12.894,88.654 12.894,88.654C12.894,88.654 13.197,89.628 13.661,90.339C14.445,91.538 13.83,90.535 15.027,92.362C15.15,92.55 15.536,93.036 15.381,93.544C15.22,94.076 14.848,94.141 14.336,93.939C13.469,93.598 12.334,92.366 11.581,91.743C11.788,92.004 12.804,93.502 12.973,93.776C13.21,94.159 13.448,94.475 13.337,94.796C13.226,95.117 12.777,95.227 12.444,95.202C12.175,95.181 11.949,94.991 11.749,94.806C11.18,94.279 10.431,93.345 9.94,92.742C10.17,93.278 10.717,94.324 10.867,94.889C10.921,95.098 11.072,95.551 10.979,95.744C10.821,96.072 10.36,96.094 10.028,95.959C9.598,95.783 9.01,95.083 8.756,94.687C8.504,94.29 8.333,93.846 8.164,93.405C8.164,93.405 8.229,93.726 8.311,93.911C8.393,94.096 8.606,94.637 8.609,94.84C8.612,95.043 8.837,95.804 8.52,96.011C8.095,96.29 7.733,95.829 7.622,95.687C6.882,94.737 6.456,93.439 6.157,92.546C5.892,91.754 5.782,90.938 5.674,90.111Z" style="fill:rgb(255,234,182);fill-rule:nonzero;"/>
    </g>
    <path d="M0,10.267C0,15.907 4.472,20.479 9.988,20.479C15.503,20.479 19.975,15.907 19.975,10.267C19.975,4.628 15.503,0.056 9.988,0.056C4.472,0.056 0,4.628 0,10.267Z" style="fill:white;fill-rule:nonzero;"/>
    <path d="M0,10.267C0,10.267 0.008,10.211 0.016,10.102C0.023,9.988 0.033,9.827 0.046,9.617C0.052,9.51 0.059,9.391 0.067,9.26C0.08,9.13 0.108,8.988 0.13,8.834C0.154,8.68 0.18,8.514 0.207,8.337C0.228,8.158 0.293,7.977 0.338,7.78C0.514,6.992 0.875,6.06 1.444,5.072C2.018,4.088 2.846,3.061 3.974,2.189C4.115,2.081 4.258,1.972 4.403,1.861C4.554,1.76 4.713,1.667 4.871,1.569C5.031,1.475 5.183,1.362 5.356,1.282C5.526,1.199 5.698,1.114 5.871,1.029C5.958,0.987 6.046,0.945 6.134,0.902C6.225,0.868 6.317,0.834 6.409,0.8C6.594,0.731 6.78,0.661 6.968,0.591C7.158,0.527 7.357,0.486 7.554,0.431C7.752,0.385 7.947,0.314 8.155,0.292C8.565,0.232 8.98,0.146 9.41,0.144C9.624,0.136 9.84,0.115 10.058,0.118C10.275,0.13 10.494,0.141 10.715,0.153C10.825,0.161 10.936,0.16 11.046,0.175L11.378,0.227C11.599,0.265 11.823,0.291 12.045,0.338C12.484,0.46 12.937,0.551 13.369,0.735C13.814,0.881 14.233,1.106 14.663,1.317C14.873,1.433 15.074,1.569 15.281,1.695C15.383,1.761 15.491,1.818 15.588,1.893L15.88,2.117C16.283,2.4 16.636,2.754 17.006,3.095C17.339,3.472 17.69,3.842 17.978,4.271L18.206,4.583L18.406,4.917L18.606,5.253C18.675,5.363 18.738,5.478 18.79,5.599C18.902,5.836 19.014,6.075 19.127,6.314C19.217,6.564 19.306,6.814 19.396,7.065C19.72,8.084 19.894,9.165 19.908,10.266C19.894,11.367 19.721,12.449 19.397,13.467C19.307,13.719 19.217,13.97 19.128,14.219C19.015,14.459 18.903,14.697 18.791,14.935L18.706,15.112L18.606,15.281L18.407,15.617L18.207,15.951L17.979,16.263C17.691,16.692 17.34,17.061 17.006,17.439C16.637,17.78 16.284,18.135 15.88,18.418L15.588,18.641C15.491,18.717 15.383,18.773 15.281,18.84C15.074,18.966 14.873,19.101 14.664,19.217C14.233,19.428 13.814,19.653 13.369,19.799C12.937,19.984 12.483,20.075 12.045,20.196C11.823,20.243 11.598,20.27 11.377,20.308L11.046,20.36C10.936,20.374 10.824,20.374 10.714,20.381C10.494,20.393 10.275,20.405 10.057,20.416C9.84,20.42 9.624,20.398 9.41,20.391C8.98,20.389 8.565,20.302 8.154,20.242C7.947,20.221 7.752,20.149 7.553,20.103C7.356,20.048 7.158,20.007 6.968,19.943C6.78,19.873 6.593,19.804 6.409,19.735C6.316,19.701 6.225,19.666 6.133,19.632C6.045,19.59 5.958,19.547 5.871,19.505C5.697,19.42 5.525,19.336 5.355,19.252C5.183,19.173 5.031,19.059 4.87,18.966C4.713,18.867 4.554,18.774 4.403,18.673C4.258,18.562 4.115,18.453 3.973,18.346C2.846,17.473 2.018,16.446 1.444,15.462C0.875,14.474 0.514,13.542 0.338,12.754C0.293,12.557 0.228,12.376 0.207,12.197C0.18,12.02 0.154,11.855 0.13,11.7C0.108,11.546 0.08,11.405 0.067,11.274C0.059,11.143 0.052,11.024 0.046,10.917C0.033,10.708 0.023,10.547 0.016,10.433C0.008,10.323 0,10.267 0,10.267C0,10.267 -0.001,10.323 0.002,10.433C0.006,10.547 0.012,10.709 0.019,10.919C0.024,11.026 0.029,11.146 0.034,11.277C0.045,11.409 0.071,11.551 0.091,11.706C0.113,11.861 0.137,12.028 0.163,12.206C0.181,12.386 0.244,12.568 0.288,12.767C0.457,13.561 0.813,14.502 1.38,15.501C1.952,16.495 2.782,17.536 3.916,18.422C4.059,18.531 4.203,18.642 4.349,18.754C4.501,18.857 4.661,18.951 4.819,19.052C4.981,19.147 5.134,19.262 5.308,19.343C5.48,19.428 5.653,19.514 5.828,19.6C5.916,19.644 6.004,19.687 6.093,19.73C6.185,19.765 6.278,19.799 6.371,19.834C6.557,19.905 6.745,19.975 6.935,20.047C7.127,20.112 7.328,20.155 7.526,20.211C7.727,20.258 7.924,20.331 8.134,20.353C8.549,20.415 8.969,20.503 9.403,20.507C9.62,20.515 9.838,20.537 10.058,20.534C10.278,20.523 10.5,20.512 10.723,20.501C10.834,20.493 10.947,20.494 11.058,20.479L11.394,20.427C11.617,20.39 11.845,20.363 12.07,20.316C12.514,20.194 12.973,20.103 13.411,19.917C13.862,19.77 14.286,19.543 14.722,19.33C14.935,19.212 15.139,19.076 15.349,18.949C15.452,18.882 15.562,18.824 15.66,18.748L15.956,18.522C16.365,18.236 16.723,17.878 17.097,17.532C17.436,17.15 17.791,16.776 18.084,16.342L18.315,16.026L18.518,15.688L18.72,15.347L18.821,15.176L18.907,14.996C19.021,14.756 19.135,14.514 19.249,14.272C19.34,14.019 19.431,13.765 19.523,13.51C19.851,12.478 20.027,11.381 20.041,10.266C20.027,9.151 19.85,8.054 19.522,7.023C19.43,6.768 19.339,6.514 19.249,6.261C19.134,6.019 19.02,5.777 18.907,5.537C18.854,5.414 18.79,5.299 18.719,5.186L18.517,4.846L18.314,4.508L18.083,4.192C17.791,3.758 17.435,3.384 17.097,3.002C16.722,2.656 16.364,2.298 15.955,2.012L15.659,1.786C15.561,1.71 15.451,1.653 15.349,1.586C15.138,1.458 14.935,1.322 14.722,1.205C14.286,0.991 13.862,0.765 13.411,0.618C12.973,0.432 12.514,0.34 12.07,0.218C11.845,0.171 11.618,0.145 11.394,0.107L11.059,0.055C10.947,0.041 10.835,0.041 10.723,0.034C10.5,0.023 10.278,0.011 10.059,0C9.839,-0.003 9.62,0.019 9.404,0.028C8.969,0.031 8.549,0.12 8.135,0.181C7.925,0.204 7.728,0.277 7.527,0.324C7.329,0.379 7.128,0.422 6.936,0.487C6.746,0.559 6.558,0.63 6.372,0.7C6.278,0.735 6.186,0.77 6.093,0.804C6.005,0.848 5.916,0.891 5.829,0.934C5.654,1.02 5.48,1.106 5.309,1.191C5.135,1.272 4.982,1.387 4.82,1.482C4.661,1.583 4.501,1.677 4.349,1.78C4.204,1.892 4.059,2.003 3.917,2.112C2.782,2.997 1.953,4.038 1.38,5.033C0.813,6.032 0.457,6.973 0.288,7.768C0.245,7.966 0.181,8.149 0.163,8.328C0.137,8.507 0.113,8.673 0.091,8.828C0.071,8.983 0.045,9.126 0.034,9.257C0.029,9.389 0.024,9.508 0.019,9.616C0.012,9.826 0.006,9.987 0.002,10.102C-0.001,10.211 0,10.267 0,10.267Z" style="fill:rgb(12,43,52);fill-rule:nonzero;"/>
    <g>
        <path d="M6.435,8.517L8.332,8.517C8.332,8.517 8.332,6.888 9.988,6.859C10.848,6.844 11.293,7.419 11.475,7.861C11.685,8.373 11.621,8.957 11.339,9.432C11.018,9.975 10.312,10.468 9.034,10.237L9.034,13.084L10.91,13.084L10.91,12.049C10.91,12.049 13.541,11.354 13.541,8.389C13.541,5.552 11.053,4.893 9.988,4.893C9.174,4.893 6.399,5.094 6.435,8.517Z" style="fill:rgb(12,43,52);fill-rule:nonzero;"/>
        <rect x="9.028" y="13.823" width="1.904" height="1.818" style="fill:rgb(12,43,52);fill-rule:nonzero;"/>
    </g>
    <path d="M53.823,115.285C56.836,114.553 60.023,114.479 62.997,115.473C64.543,115.99 66.104,116.661 67.373,118.005C68.641,119.349 69.675,120.741 69.553,122.966L46.312,123C46.312,119.033 50.811,116.017 53.823,115.285Z" style="fill:rgb(255,239,200);fill-rule:nonzero;"/>
    <path d="M29.674,115.278C26.651,114.556 23.451,114.482 20.466,115.463C18.914,115.973 17.347,116.635 16.074,117.962C14.8,119.289 13.852,120.803 13.974,123L37.214,122.893C37.214,118.978 32.698,116 29.674,115.278Z" style="fill:rgb(255,239,200);fill-rule:nonzero;"/>
</svg>
