<?xml version="1.0" encoding="UTF-8" standalone="no"?>
<!DOCTYPE svg PUBLIC "-//W3C//DTD SVG 1.1//EN" "http://www.w3.org/Graphics/SVG/1.1/DTD/svg11.dtd">
<svg width="100%" height="100%" viewBox="0 0 93 123" version="1.1" xmlns="http://www.w3.org/2000/svg" xmlns:xlink="http://www.w3.org/1999/xlink" xml:space="preserve" xmlns:serif="http://www.serif.com/" style="fill-rule:evenodd;clip-rule:evenodd;stroke-linejoin:round;stroke-miterlimit:2;">
    <g transform="matrix(0.913069,0,0,0.923069,4.69575,17.7308)">
        <g transform="matrix(1,0,0,1.23153,-3.5,-13.4932)">
            <path d="M44.995,66.557C44.589,69.479 40.285,100.278 39.199,100.317C38.059,100.357 15.639,104.38 15.26,103.959C14.881,103.536 20.033,94.753 23.086,94.26C26.137,93.764 33.318,95.331 33.318,95.331C35.419,91.067 36.789,69.272 36.937,66.843L44.995,66.557Z" style="fill:rgb(255,235,185);fill-rule:nonzero;"/>
        </g>
        <g transform="matrix(1,0,0,1.29107,-3.5,-17.1816)">
            <path d="M69.393,102.043C69.251,102.223 60.721,102.688 57.574,102.497C50.311,102.055 43.516,100.164 42.835,100.188C41.749,100.227 47.348,69.379 47.882,66.455L56.356,66.155C55.555,68.613 48.496,90.604 50.848,94.71C50.848,94.71 57.92,92.639 60.996,92.918C64.071,93.194 69.746,101.594 69.393,102.043Z" style="fill:rgb(255,239,200);fill-rule:nonzero;"/>
        </g>
        <g transform="matrix(1,0,0,1,0,-10.8334)">
            <g transform="matrix(1,0,0,1,-3.5,9.5)">
                <path d="M72.611,57.729C65.142,55.025 62.281,49.317 61.248,44.981C60.533,42.063 60.533,39.359 60.613,37.77C60.652,36.912 60.732,36.354 60.772,36.311L61.328,36.44L65.698,37.255C65.698,37.298 65.698,37.341 65.658,37.427C65.579,38.157 65.34,40.818 66.095,43.737C66.135,43.865 66.175,43.994 66.214,44.123C66.373,44.638 66.532,45.153 66.731,45.625C68.081,48.93 70.584,51.248 74.2,52.578C78.649,54.167 86.396,53.051 90.21,52.235C90.687,52.149 91.084,52.02 91.442,51.935C92.793,51.591 94.143,52.493 94.461,53.952C94.779,55.411 93.945,56.871 92.594,57.214C92.515,57.214 92.197,57.3 91.72,57.429C88.701,58.116 78.928,60.004 72.611,57.729Z" style="fill:rgb(255,239,200);fill-rule:nonzero;"/>
            </g>
            <g transform="matrix(1,0,0,1,-3.5,9.5)">
                <path d="M66.771,45.668C68.121,48.973 70.624,51.291 74.239,52.622C78.689,54.21 86.436,53.094 90.25,52.278C90.012,52.364 83.377,54.725 78.173,54.596C72.889,54.467 67.168,51.334 66.771,45.668Z" style="fill:rgb(255,239,200);fill-rule:nonzero;"/>
            </g>
            <g transform="matrix(1,0,0,1,-3.5,9.5)">
                <path d="M72.611,57.729C65.142,55.025 62.281,49.317 61.248,44.981C60.533,42.063 60.533,39.359 60.613,37.77C60.652,36.912 60.732,36.354 60.772,36.311L61.328,36.44L65.658,37.47C65.579,38.2 65.34,40.861 66.095,43.779C66.135,43.908 66.175,44.037 66.214,44.166C66.214,44.166 63.711,46.183 64.943,50.003C66.174,53.866 72.173,59.704 91.68,57.472C88.701,58.116 78.927,60.004 72.611,57.729Z" style="fill:rgb(255,239,200);fill-rule:nonzero;"/>
            </g>
            <g transform="matrix(1,0,0,1,-3.5,9.5)">
                <path d="M91.958,53.737C92.038,53.823 92.316,54.081 92.832,54.339C92.991,54.424 93.15,54.51 93.349,54.553C93.945,54.767 94.7,54.896 95.693,54.896C96.527,54.896 97.52,54.725 98.713,54.381C99.388,54.167 99.785,53.437 99.586,52.707C99.427,52.106 98.951,51.72 98.434,51.72C98.315,51.72 98.196,51.72 98.077,51.763C95.812,52.449 94.501,52.149 93.985,51.934C93.826,51.849 93.706,51.806 93.667,51.763L93.706,51.805L91.958,53.737Z" style="fill:rgb(255,239,200);fill-rule:nonzero;"/>
            </g>
            <g transform="matrix(1,0,0,1,-3.5,9.5)">
                <path d="M91.243,53.051C91.243,53.652 91.601,54.167 92.117,54.339C92.236,54.381 92.356,54.424 92.515,54.424C92.634,54.424 92.753,54.424 92.832,54.382C93.349,54.21 93.746,53.695 93.746,53.051C93.746,52.665 93.826,52.279 93.985,51.935C94.104,51.677 94.223,51.463 94.342,51.248C94.7,50.69 95.097,50.347 95.097,50.347C95.653,49.875 95.733,49.059 95.336,48.458C94.899,47.858 94.144,47.772 93.588,48.201C93.468,48.286 91.204,50.175 91.243,53.051Z" style="fill:rgb(255,239,200);fill-rule:nonzero;"/>
            </g>
            <g transform="matrix(1,0,0,1,-3.5,9.5)">
                <path d="M92.515,57.3C93.548,57.644 94.382,57.643 95.097,57.257C95.812,56.871 96.13,56.141 96.249,55.626C96.368,54.897 95.931,54.167 95.256,54.038C94.66,53.909 94.104,54.253 93.866,54.854C93.706,54.854 93.429,54.811 92.872,54.553C92.237,54.253 91.482,54.553 91.204,55.24C90.926,55.927 91.204,56.742 91.84,57.043C92.078,57.128 92.316,57.214 92.515,57.3Z" style="fill:rgb(255,239,200);fill-rule:nonzero;"/>
            </g>
            <g transform="matrix(1,0,0,1,-3.5,9.5)">
                <path d="M93.865,57.901C94.382,57.901 94.858,57.772 95.256,57.558C96.05,57.086 96.487,56.27 96.567,55.669C96.607,55.369 96.606,55.025 96.487,54.768C96.408,54.553 96.209,54.467 96.05,54.553C95.852,54.639 95.772,54.853 95.852,55.025C95.891,55.197 95.931,55.369 95.891,55.54C95.812,55.97 95.534,56.571 94.938,56.871C94.342,57.214 93.625,57.142 92.711,56.842C92.512,56.756 92.236,56.957 92.197,57.171C92.117,57.386 92.278,57.51 92.477,57.553C92.433,57.658 93.389,57.901 93.865,57.901Z" style="fill:rgb(255,239,200);fill-rule:nonzero;"/>
            </g>
            <g transform="matrix(1,0,0,1,-3.5,9.5)">
                <path d="M95.653,54.897L95.733,54.897C96.567,54.897 97.56,54.725 98.752,54.381C99.427,54.167 99.825,53.437 99.626,52.707C99.467,52.106 98.99,51.72 98.474,51.72C98.553,51.892 99.626,53.823 95.653,54.897Z" style="fill:rgb(255,239,200);fill-rule:nonzero;"/>
            </g>
            <g transform="matrix(1,0,0,1,-3.5,9.5)">
                <path d="M93.548,48.201C93.826,48.244 94.978,48.673 94.303,51.248C94.66,50.69 95.057,50.347 95.057,50.347C95.614,49.875 95.693,49.059 95.296,48.458C94.898,47.857 94.104,47.771 93.548,48.201Z" style="fill:rgb(255,239,200);fill-rule:nonzero;"/>
            </g>
            <g transform="matrix(1,0,0,1,-3.5,9.5)">
                <path d="M95.534,55.293C96.567,55.293 97.679,55.121 98.832,54.735C99.229,54.606 99.587,54.305 99.785,53.919C99.984,53.533 100.063,53.061 99.944,52.589C99.706,51.687 98.832,51.129 97.958,51.387C95.772,52.031 94.58,51.773 94.064,51.558C93.866,51.473 93.667,51.558 93.627,51.773C93.548,51.987 93.627,52.235 93.826,52.278C94.422,52.536 95.772,52.846 98.156,52.116C98.633,51.988 99.149,52.288 99.269,52.803C99.348,53.061 99.308,53.318 99.189,53.533C99.07,53.747 98.871,53.919 98.633,54.005C97.441,54.349 96.368,54.52 95.375,54.52C95.177,54.52 95.018,54.692 95.018,54.906C95.018,55.121 95.177,55.293 95.375,55.293L95.534,55.293Z" style="fill:rgb(255,239,200);fill-rule:nonzero;"/>
            </g>
            <g transform="matrix(1,0,0,1,-3.5,9.5)">
                <path d="M91.323,52.321C91.482,52.321 91.751,52.215 91.791,52.044C92.188,49.941 93.706,48.587 93.746,48.501C94.143,48.157 94.7,48.243 95.018,48.673C95.336,49.102 95.256,49.703 94.858,50.046C94.858,50.046 94.064,50.733 93.627,51.763C93.548,51.935 93.627,52.192 93.826,52.278C93.985,52.364 94.223,52.278 94.302,52.064C94.66,51.248 95.295,50.647 95.335,50.647C95.653,50.39 95.891,49.961 95.931,49.489C95.971,49.016 95.892,48.587 95.613,48.201C95.057,47.428 94.064,47.299 93.349,47.9C93.269,47.943 91.573,49.462 91.096,51.823C91.057,52.037 91.084,52.235 91.283,52.279C91.283,52.321 91.323,52.321 91.323,52.321Z" style="fill:rgb(255,239,200);fill-rule:nonzero;"/>
            </g>
            <g transform="matrix(1,0,0,1,-3.5,9.5)">
                <path d="M80.159,59.189C86.277,59.189 92.316,57.686 92.673,57.6C92.872,57.558 92.991,57.343 92.951,57.128C92.912,56.914 92.713,56.785 92.514,56.828C91.998,56.957 80,59.961 72.73,57.343C65.42,54.682 62.639,49.102 61.566,44.853C60.89,42.02 60.851,39.444 60.97,37.77C61.01,37.341 61.049,36.955 61.049,36.74L65.3,37.556C65.221,38.5 65.062,41.033 65.777,43.866C66.929,48.329 69.71,51.377 74.08,52.965C79.126,54.811 88.383,53.137 91.521,52.321C91.72,52.278 91.839,52.063 91.799,51.849C91.76,51.634 91.561,51.505 91.362,51.548C88.263,52.321 79.205,53.952 74.319,52.192C70.186,50.69 67.565,47.814 66.452,43.608C65.618,40.389 66.015,37.513 66.055,37.255C66.095,37.041 65.936,36.869 65.777,36.826L65.737,36.826L60.811,35.968C60.731,35.968 60.612,35.968 60.533,36.01C60.453,36.053 60.413,36.139 60.374,36.268C60.374,36.311 60.294,36.869 60.215,37.77C60.096,39.487 60.135,42.148 60.85,45.11C61.923,49.531 64.823,55.368 72.451,58.115C74.756,58.931 77.497,59.189 80.159,59.189Z" style="fill:rgb(255,239,200);fill-rule:nonzero;"/>
            </g>
            <g transform="matrix(1,0,0,1,-3.5,9.5)">
                <path d="M87.645,48.292C87.645,54.73 82.798,59.967 76.839,59.967L76.441,59.967C75.17,64.86 70.998,68.466 66.032,68.466C64.046,68.466 62.179,67.907 60.59,66.877C58.603,69.796 55.425,71.684 51.849,71.684C48.989,71.684 46.406,70.483 44.499,68.551C42.553,70.483 39.97,71.684 37.15,71.684C33.773,71.684 30.753,70.01 28.767,67.392C27.376,68.079 25.867,68.465 24.238,68.465C19.947,68.465 16.252,65.761 14.504,61.898C14.385,61.598 14.226,61.297 14.147,60.954C13.869,60.997 13.551,61.082 13.273,61.126C12.875,61.168 12.438,61.211 12.001,61.211C7.711,61.211 4.016,58.507 2.268,54.601C1.592,53.056 1.195,51.339 1.195,49.493C1.195,47.39 1.712,45.459 2.586,43.742C1.155,41.767 0.321,39.278 0.321,36.574C0.321,31.209 3.698,26.659 8.267,25.285C7.989,24.255 7.87,23.182 7.87,22.066C7.87,15.628 12.717,10.391 18.676,10.391C20.185,10.391 21.656,10.734 22.967,11.335C23.801,5.755 28.251,1.463 33.653,1.463C37.189,1.463 40.328,3.309 42.314,6.142L42.553,6.142C44.42,2.665 47.916,0.347 51.889,0.347C57.53,0.347 62.179,5.026 62.655,10.992C63.728,10.606 64.88,10.391 66.072,10.391C72.031,10.391 76.878,15.628 76.878,22.066L76.878,22.367C77.713,22.581 78.507,22.882 79.222,23.268C82.838,25.157 85.301,29.148 85.301,33.784C85.301,35.844 84.824,37.776 83.95,39.45C86.215,41.596 87.645,44.772 87.645,48.292Z" style="fill:rgb(255,210,106);fill-rule:nonzero;"/>
            </g>
            <g transform="matrix(1,0,0,1,-3.5,9.5)">
                <path d="M82.639,42.883C82.639,49.322 77.792,54.558 71.833,54.558L71.435,54.558C70.164,59.452 65.992,63.057 61.027,63.057C59.04,63.057 57.173,62.499 55.584,61.469C53.597,64.388 50.419,66.276 46.843,66.276C43.983,66.276 41.401,65.074 39.494,63.143C37.547,65.075 34.965,66.276 32.144,66.276C28.767,66.276 25.747,64.602 23.761,61.984C22.37,62.671 20.861,63.057 19.232,63.057C17.523,63.057 15.934,62.628 14.504,61.898C14.067,61.684 14.544,61.211 14.147,60.954C12.279,59.623 9.935,57.863 9.141,55.589C8.386,55.76 7.552,55.846 6.757,55.803C5.168,55.76 3.618,55.331 2.268,54.644C1.592,53.099 1.195,51.382 1.195,49.536C1.195,47.434 1.711,45.502 2.585,43.785C1.155,41.811 0.321,39.321 0.321,36.617C0.321,31.252 3.698,26.702 8.267,25.328C7.989,24.298 7.869,23.225 7.869,22.109C7.869,15.671 12.716,10.434 18.676,10.434C20.185,10.434 21.655,10.778 22.966,11.378C23.8,5.798 28.25,1.506 33.653,1.506C37.189,1.506 40.327,3.352 42.314,6.185L42.552,6.185C44.42,2.708 47.916,0.39 51.888,0.39C57.53,0.39 62.178,5.069 62.655,11.035C63.728,10.649 64.88,10.434 66.072,10.434C72.031,10.434 76.878,15.671 76.878,22.109L76.878,22.41C77.712,22.624 78.507,22.925 79.222,23.311C79.897,24.856 80.294,26.573 80.294,28.419C80.294,30.479 79.818,32.411 78.943,34.085C81.209,36.188 82.639,39.364 82.639,42.883Z" style="fill:rgb(255,210,106);fill-rule:nonzero;"/>
            </g>
            <g transform="matrix(1,0,0,1,-3.5,9.5)">
                <path d="M76.839,22.109C73.223,9.49 61.821,13.01 61.821,13.01C61.821,13.01 60.59,6.314 53.756,4.296C46.963,2.322 42.672,8.717 42.672,8.717C42.672,8.717 39.097,4.554 33.137,5.241C27.178,5.927 24.794,14.254 24.794,14.254C24.794,14.254 19.749,12.366 14.028,15.585C8.347,18.804 9.697,27.56 9.697,27.56C-1.705,33.999 2.427,43.613 2.467,43.742C1.037,41.768 0.202,39.278 0.202,36.574C0.202,31.209 3.579,26.659 8.148,25.285C7.87,24.255 7.751,23.182 7.751,22.066C7.751,15.628 12.598,10.391 18.557,10.391C20.067,10.391 21.537,10.735 22.848,11.336C23.682,5.756 28.132,1.463 33.535,1.463C37.071,1.463 40.209,3.309 42.195,6.142L42.434,6.142C44.301,2.665 47.797,0.347 51.77,0.347C57.412,0.347 62.06,5.026 62.536,10.992C63.609,10.606 64.761,10.391 65.953,10.391C71.992,10.391 76.839,15.628 76.839,22.109Z" style="fill:rgb(255,210,106);fill-rule:nonzero;"/>
            </g>
            <g transform="matrix(1,0,0,1,-3.5,9.5)">
                <path d="M44.499,68.204C44.422,68.204 44.344,68.235 44.282,68.296C42.305,70.257 39.772,71.338 37.149,71.338C33.988,71.338 31.024,69.819 29.015,67.172C28.923,67.051 28.766,67.011 28.633,67.077C27.234,67.768 25.755,68.118 24.237,68.118C20.252,68.118 16.544,65.617 14.793,61.746C14.764,61.671 14.724,61.581 14.685,61.489C14.593,61.28 14.507,61.081 14.458,60.87C14.418,60.698 14.264,60.586 14.101,60.61C13.956,60.633 13.802,60.666 13.646,60.7C13.503,60.731 13.36,60.762 13.227,60.782C12.864,60.821 12.426,60.864 12.001,60.864C7.946,60.864 4.327,58.407 2.557,54.45C1.867,52.871 1.516,51.203 1.516,49.493C1.516,47.549 1.971,45.67 2.867,43.909C2.929,43.787 2.918,43.637 2.839,43.528C1.402,41.545 0.642,39.14 0.642,36.574C0.642,31.489 3.813,26.985 8.353,25.62C8.436,25.595 8.506,25.535 8.547,25.454C8.589,25.373 8.599,25.277 8.575,25.188C8.316,24.23 8.191,23.208 8.191,22.066C8.191,15.82 12.894,10.738 18.676,10.738C20.092,10.738 21.532,11.055 22.84,11.655C22.931,11.697 23.035,11.691 23.121,11.639C23.208,11.588 23.268,11.496 23.283,11.391C24.113,5.839 28.475,1.81 33.653,1.81C37.02,1.81 40.332,3.551 42.296,6.351C42.361,6.444 42.465,6.496 42.572,6.488C42.679,6.481 42.776,6.416 42.83,6.316C44.693,2.848 48.164,0.694 51.888,0.694C57.284,0.694 61.872,5.231 62.335,11.022C62.344,11.128 62.397,11.224 62.479,11.282C62.561,11.341 62.663,11.355 62.757,11.321C63.831,10.935 64.947,10.738 66.072,10.738C71.853,10.738 76.557,15.82 76.557,22.066L76.557,22.366C76.557,22.527 76.659,22.667 76.804,22.704C77.635,22.918 78.4,23.212 79.078,23.578C82.72,25.481 84.979,29.39 84.979,33.784C84.979,35.739 84.526,37.639 83.67,39.279C83.595,39.422 83.623,39.602 83.738,39.711C86.016,41.87 87.323,44.998 87.323,48.292C87.323,54.538 82.62,59.619 76.838,59.619L76.441,59.619C76.297,59.619 76.171,59.723 76.132,59.873C74.87,64.727 70.717,68.118 66.032,68.118C64.133,68.118 62.308,67.586 60.755,66.58C60.613,66.488 60.429,66.527 60.331,66.671C58.342,69.593 55.172,71.337 51.849,71.337C49.186,71.337 46.654,70.258 44.719,68.298C44.658,68.236 44.578,68.204 44.499,68.204ZM37.15,72.032C39.838,72.032 42.435,70.964 44.498,69.019C46.523,70.964 49.121,72.032 51.849,72.032C55.28,72.032 58.557,70.281 60.674,67.332C62.271,68.301 64.117,68.812 66.032,68.812C70.922,68.812 75.266,65.331 76.682,60.314L76.839,60.314C82.975,60.314 87.966,54.92 87.966,48.292C87.966,44.892 86.653,41.658 84.354,39.375C85.184,37.688 85.622,35.762 85.622,33.784C85.622,29.122 83.223,24.972 79.362,22.955C78.712,22.604 77.985,22.314 77.2,22.095L77.2,22.066C77.2,15.437 72.208,10.044 66.072,10.044C65.01,10.044 63.956,10.209 62.934,10.534C62.256,4.593 57.481,0 51.889,0C48.093,0 44.544,2.109 42.518,5.536C40.408,2.798 37.057,1.116 33.653,1.116C28.291,1.116 23.755,5.185 22.72,10.854C21.434,10.323 20.045,10.044 18.676,10.044C12.54,10.044 7.548,15.437 7.548,22.066C7.548,23.144 7.655,24.123 7.874,25.048C3.222,26.603 0,31.293 0,36.573C0,39.219 0.762,41.704 2.204,43.775C1.322,45.581 0.874,47.504 0.874,49.493C0.874,51.305 1.245,53.074 1.977,54.749C3.857,58.95 7.698,61.558 12.001,61.558C12.456,61.558 12.913,61.513 13.305,61.471C13.463,61.447 13.618,61.413 13.773,61.38C13.824,61.369 13.875,61.357 13.926,61.347C13.98,61.5 14.042,61.643 14.103,61.784C14.14,61.868 14.176,61.951 14.209,62.034C16.074,66.158 20.008,68.812 24.238,68.812C25.767,68.812 27.259,68.477 28.676,67.815C30.803,70.498 33.877,72.032 37.15,72.032Z" style="fill:rgb(254,193,48);fill-rule:nonzero;"/>
            </g>
            <g transform="matrix(1,0,0,1,-3.5,9.5)">
                <path d="M47.479,65.933C47.518,65.924 47.598,65.933 47.638,65.89C51.651,63.529 50.657,59.752 50.26,58.679C53.041,56.319 54.471,53.7 54.551,50.953C54.67,47.262 52.326,44.472 51.532,43.613C55.624,38.591 51.372,32.625 51.333,32.582C51.214,32.411 50.975,32.411 50.856,32.539C50.697,32.668 50.697,32.926 50.816,33.054C50.975,33.269 54.908,38.806 50.856,43.399C50.777,43.484 50.737,43.57 50.777,43.699C50.777,43.785 50.816,43.914 50.896,43.957C50.935,43.999 54.034,46.961 53.955,50.953C53.875,53.571 52.445,56.018 49.743,58.293C49.624,58.421 49.585,58.593 49.664,58.765C49.743,58.937 51.531,62.843 47.439,65.246C46.808,65.576 47.19,66 47.479,65.933Z" style="fill:rgb(254,193,48);fill-rule:nonzero;"/>
            </g>
            <g transform="matrix(1,0,0,1,-3.5,9.5)">
                <path d="M29.681,11.851C29.8,11.851 29.919,11.808 29.959,11.679C30.038,11.507 32.422,7.902 36.474,9.747C36.673,9.833 36.872,9.748 36.951,9.533C37.031,9.361 36.951,9.103 36.753,9.018C32.184,6.915 29.443,11.164 29.403,11.207C29.284,11.378 29.323,11.636 29.482,11.722C29.522,11.851 29.601,11.851 29.681,11.851Z" style="fill:rgb(254,193,48);fill-rule:nonzero;"/>
            </g>
            <g transform="matrix(1,0,0,1,-3.5,9.5)">
                <path d="M33.177,60.396L33.415,60.396C33.614,60.353 33.733,60.181 33.733,59.966C33.694,59.752 33.535,59.623 33.336,59.623C33.217,59.623 30.634,59.881 29.8,57.005C29.76,56.79 29.561,56.704 29.363,56.747C29.164,56.79 29.085,57.005 29.125,57.219C29.999,60.138 32.382,60.396 33.177,60.396Z" style="fill:rgb(254,193,48);fill-rule:nonzero;"/>
            </g>
            <g transform="matrix(1,0,0,1,-3.5,9.5)">
                <path d="M57.888,64.216C60.073,64.216 61.225,62.241 61.265,62.198C61.384,62.027 61.304,61.769 61.146,61.683C60.987,61.554 60.748,61.64 60.669,61.812C60.59,61.898 59.199,64.258 56.577,63.185C56.378,63.1 56.18,63.228 56.14,63.4C56.061,63.615 56.18,63.829 56.339,63.872C56.895,64.13 57.411,64.216 57.888,64.216Z" style="fill:rgb(254,193,48);fill-rule:nonzero;"/>
            </g>
            <g transform="matrix(1,0,0,1,-3.5,9.5)">
                <path d="M21.02,47.82C21.179,47.82 21.298,47.734 21.338,47.562C21.417,47.347 21.298,47.133 21.139,47.09C21.02,47.047 18.597,46.017 19.073,43.012C19.113,42.798 18.994,42.626 18.795,42.583C18.597,42.54 18.438,42.669 18.398,42.883C17.842,46.489 20.901,47.776 20.941,47.776C20.941,47.82 20.98,47.82 21.02,47.82Z" style="fill:rgb(254,193,48);fill-rule:nonzero;"/>
            </g>
            <g transform="matrix(1,0,0,1,-3.5,9.5)">
                <path d="M68.655,50.524C72.071,50.309 72.548,46.832 72.548,46.789C72.588,46.575 72.429,46.403 72.23,46.36C72.032,46.317 71.873,46.489 71.833,46.704C71.833,46.832 71.396,49.622 68.615,49.794C68.416,49.794 68.257,49.966 68.297,50.18C68.297,50.395 68.456,50.524 68.655,50.524Z" style="fill:rgb(254,193,48);fill-rule:nonzero;"/>
            </g>
            <g transform="matrix(1,0,0,1,-3.5,9.5)">
                <path d="M14.664,29.706C14.862,29.706 15.021,29.535 15.021,29.32C14.902,24.255 18.914,23.655 19.073,23.611C19.232,23.611 19.351,23.483 19.391,23.311C19.669,21.551 20.345,20.307 21.378,19.577C22.887,18.461 24.754,18.89 24.754,18.89C24.953,18.933 25.112,18.804 25.152,18.59C25.191,18.375 25.073,18.203 24.874,18.16C24.795,18.16 22.728,17.688 20.941,18.976C19.789,19.792 19.034,21.122 18.716,22.968C17.723,23.225 14.187,24.427 14.306,29.406C14.306,29.535 14.465,29.706 14.664,29.706Z" style="fill:rgb(254,193,48);fill-rule:nonzero;"/>
            </g>
            <g transform="matrix(1,0,0,1,-3.5,9.5)">
                <path d="M78.507,31.724C78.666,31.724 78.785,31.638 78.825,31.466C78.865,31.38 79.46,29.191 78.428,27.174C77.752,25.886 76.6,24.942 74.932,24.427C74.813,23.354 73.978,19.405 69.409,19.104C69.211,19.104 69.052,19.233 69.052,19.448C69.052,19.663 69.171,19.834 69.37,19.834C74.058,20.135 74.256,24.513 74.256,24.684C74.256,24.856 74.375,24.985 74.534,25.028C76.123,25.5 77.196,26.316 77.792,27.474C78.666,29.234 78.149,31.166 78.149,31.166C78.11,31.38 78.189,31.595 78.388,31.638C78.428,31.724 78.468,31.724 78.507,31.724Z" style="fill:rgb(254,193,48);fill-rule:nonzero;"/>
            </g>
            <g transform="matrix(1,0,0,1,-3.5,9.5)">
                <path d="M34.488,65.46C35.561,65.46 36.673,64.945 37.825,63.915C37.984,63.786 37.984,63.529 37.865,63.4C37.746,63.228 37.507,63.228 37.388,63.357C36.236,64.387 35.083,64.859 34.051,64.688C32.541,64.43 31.667,62.971 31.627,62.971C31.548,62.842 31.389,62.756 31.23,62.799C27.098,63.958 25.628,59.709 25.588,59.537C25.509,59.323 25.31,59.237 25.151,59.323C24.953,59.408 24.873,59.623 24.953,59.795C24.953,59.838 26.621,64.731 31.19,63.615C31.548,64.087 32.462,65.203 33.931,65.46L34.488,65.46Z" style="fill:rgb(254,193,48);fill-rule:nonzero;"/>
            </g>
            <g transform="matrix(1,0,0,1,-3.5,9.5)">
                <path d="M66.39,64.216C68.297,64.216 70.8,63.529 71.873,60.31C71.952,60.096 71.833,59.881 71.674,59.838C71.476,59.752 71.277,59.881 71.237,60.052C69.608,64.988 64.285,63.185 64.086,63.143C63.887,63.057 63.688,63.185 63.649,63.4C63.609,63.615 63.688,63.83 63.887,63.872C63.887,63.83 64.999,64.216 66.39,64.216Z" style="fill:rgb(254,193,48);fill-rule:nonzero;"/>
            </g>
            <g transform="matrix(1,0,0,1,-3.5,9.5)">
                <path d="M77.355,38.763C77.514,38.763 77.633,38.634 77.673,38.505C77.673,38.419 79.421,31.766 74.137,29.921C73.939,29.835 73.74,29.964 73.7,30.178C73.661,30.393 73.74,30.608 73.939,30.65C78.547,32.239 77.077,38.033 76.997,38.291C76.958,38.505 77.037,38.72 77.236,38.763L77.355,38.763Z" style="fill:rgb(254,193,48);fill-rule:nonzero;"/>
            </g>
            <g transform="matrix(1,0,0,1,-3.5,9.5)">
                <path d="M51.055,26.444C51.214,26.444 51.333,26.358 51.373,26.187C53.478,19.276 48.949,16.014 47.877,15.37C48.075,12.537 47.559,10.434 46.407,9.146C45.175,7.73 43.626,7.73 43.347,7.73C43.149,7.73 42.99,7.902 42.99,8.116C42.99,8.331 43.149,8.503 43.347,8.503C43.507,8.503 44.857,8.503 45.89,9.704C46.923,10.906 47.36,12.881 47.162,15.628C47.162,15.799 47.241,15.928 47.36,16.014C47.599,16.143 52.883,18.933 50.697,26.058C50.618,26.272 50.855,26.444 51.055,26.444Z" style="fill:rgb(254,193,48);fill-rule:nonzero;"/>
            </g>
            <g transform="matrix(1,0,0,1,-3.5,9.5)">
                <path d="M69.37,31.337C71.197,35.973 69.767,41.081 66.191,42.712C62.615,44.343 58.246,41.939 56.418,37.303C54.591,32.668 56.021,27.56 59.596,25.929C63.132,24.298 67.542,26.702 69.37,31.337Z" style="fill:white;fill-rule:nonzero;"/>
            </g>
            <g transform="matrix(1,0,0,1,-3.5,9.5)">
                <path d="M69.325,34.462C68.857,31.349 66.458,29.181 63.967,29.618C61.476,30.055 59.836,32.933 60.304,36.046C60.772,39.158 63.171,41.327 65.662,40.889C68.153,40.452 69.793,37.574 69.325,34.462Z" style="fill:rgb(34,33,63);fill-rule:nonzero;"/>
            </g>
            <g transform="matrix(1,0,0,1,-3.5,9.5)">
                <path d="M61.662,32.325C61.384,33.054 61.821,33.913 62.576,34.256C63.371,34.6 64.205,34.256 64.483,33.527C64.761,32.797 64.324,31.938 63.569,31.595C62.775,31.252 61.901,31.595 61.662,32.325Z" style="fill:white;fill-rule:nonzero;"/>
            </g>
            <g transform="matrix(1,0,0,1,-3.5,9.5)">
                <path d="M60.389,19.909C62.821,19.731 64.756,18.615 64.684,17.437C64.596,16.219 62.581,15.368 60.15,15.545C57.718,15.722 55.782,16.838 55.854,18.017C55.927,19.195 57.941,20.047 60.389,19.909Z" style="fill:rgb(12,43,52);fill-rule:nonzero;"/>
            </g>
            <g transform="matrix(1,0,0,1,-3.5,9.5)">
                <path d="M36.041,23.999C38.41,23.296 40.079,21.757 39.781,20.589C39.482,19.421 37.326,19.029 34.956,19.733C32.587,20.436 30.918,21.974 31.217,23.142C31.516,24.31 33.672,24.702 36.041,23.999Z" style="fill:rgb(12,43,52);fill-rule:nonzero;"/>
            </g>
            <g transform="matrix(1,0,0,1,-3.5,9.5)">
                <path d="M32.899,37.003C32.064,36.274 30.793,37.003 30.912,38.162L30.912,38.205C31.548,43.999 35.163,49.064 41.957,50.567C47.996,51.897 53.558,48.292 54.829,45.158C55.226,44.214 55.226,43.313 54.71,42.583C53.041,40.222 48.353,43.527 41.798,41.896C37.865,40.909 34.766,38.677 32.899,37.003Z" style="fill:rgb(34,33,63);fill-rule:nonzero;"/>
            </g>
            <g transform="matrix(1,0,0,1,-3.5,9.5)">
                <path d="M30.912,38.076L30.912,38.162C40.487,49.794 54.67,45.158 54.829,45.115C55.226,44.171 55.226,43.27 54.71,42.54C53.041,40.179 48.353,43.484 41.798,41.853C37.865,40.866 34.726,38.591 32.859,36.917C32.025,36.231 30.793,36.917 30.912,38.076Z" style="fill:white;fill-rule:nonzero;"/>
            </g>
            <g transform="matrix(1,0,0,1,-3.5,9.5)">
                <path d="M19.55,62.199C10.532,57.821 8.307,50.438 8.784,43.056C8.902,41.425 10.333,40.265 11.843,40.695L11.922,40.695C13.074,40.995 13.869,42.154 13.789,43.442C12.796,58.464 27.536,59.967 38.779,57.864C40.13,57.606 41.441,58.636 41.639,60.096C41.878,61.555 40.924,62.972 39.573,63.186C35.72,63.787 26.343,65.031 19.55,62.199Z" style="fill:rgb(255,234,182);fill-rule:nonzero;"/>
            </g>
            <g transform="matrix(1,0,0,1,-3.5,9.5)">
                <path d="M39.097,59.666C39.176,59.752 39.414,60.053 39.931,60.31C40.09,60.396 40.249,60.482 40.447,60.568C41.004,60.825 41.798,61.04 42.791,61.083C43.626,61.126 44.658,61.04 45.85,60.782C46.526,60.611 46.963,59.924 46.844,59.194C46.724,58.593 46.287,58.164 45.731,58.121L45.334,58.121C43.029,58.636 41.758,58.25 41.242,57.95C41.083,57.864 40.963,57.778 40.963,57.778L41.003,57.821L39.097,59.666Z" style="fill:rgb(255,234,182);fill-rule:nonzero;"/>
            </g>
            <g transform="matrix(1,0,0,1,-3.5,9.5)">
                <path d="M38.421,58.937C38.382,59.537 38.699,60.053 39.216,60.267C39.335,60.31 39.454,60.353 39.613,60.353C39.732,60.353 39.852,60.353 39.931,60.31C40.487,60.182 40.884,59.71 40.924,59.066C40.964,58.679 41.043,58.293 41.202,57.993C41.321,57.735 41.48,57.521 41.6,57.349C41.997,56.834 42.394,56.533 42.394,56.533C42.99,56.104 43.109,55.288 42.752,54.645C42.354,54.044 41.6,53.872 41.004,54.258C40.964,54.344 38.58,56.061 38.421,58.937Z" style="fill:rgb(255,234,182);fill-rule:nonzero;"/>
            </g>
            <g transform="matrix(1,0,0,1,-3.5,9.5)">
                <path d="M39.414,63.229C40.407,63.658 41.282,63.701 41.997,63.358C42.712,63.014 43.109,62.327 43.228,61.855C43.387,61.126 42.99,60.396 42.314,60.224C41.718,60.053 41.162,60.353 40.884,60.911C40.725,60.911 40.447,60.825 39.931,60.525C39.335,60.181 38.58,60.439 38.222,61.083C37.904,61.727 38.143,62.542 38.739,62.928C39.017,63.057 39.216,63.143 39.414,63.229Z" style="fill:rgb(255,234,182);fill-rule:nonzero;"/>
            </g>
            <g transform="matrix(1,0,0,1,-3.5,9.5)">
                <path d="M40.964,64.001C41.401,64.001 41.758,63.916 42.116,63.744C42.95,63.358 43.427,62.585 43.546,61.984C43.626,61.684 43.626,61.34 43.546,61.04C43.507,60.825 43.308,60.739 43.109,60.782C42.91,60.825 42.831,61.04 42.871,61.254C42.91,61.426 42.91,61.598 42.871,61.769C42.752,62.199 42.434,62.757 41.838,63.057C41.202,63.358 40.56,63.295 39.646,62.909C39.646,62.909 39.136,62.928 39.096,63.143C39.017,63.358 39.096,63.572 39.295,63.615C39.891,63.873 40.447,64.001 40.964,64.001Z" style="fill:rgb(255,234,182);fill-rule:nonzero;"/>
            </g>
            <g transform="matrix(1,0,0,1,-3.5,9.5)">
                <path d="M42.712,61.083L42.791,61.083C43.626,61.126 44.658,61.04 45.85,60.782C46.526,60.611 46.962,59.924 46.843,59.194C46.724,58.593 46.287,58.164 45.731,58.121C45.81,58.336 46.764,60.353 42.712,61.083Z" style="fill:rgb(255,234,182);fill-rule:nonzero;"/>
            </g>
            <g transform="matrix(1,0,0,1,-3.5,9.5)">
                <path d="M41.043,54.258C41.321,54.344 42.474,54.816 41.599,57.348C41.997,56.833 42.394,56.533 42.394,56.533C42.99,56.103 43.109,55.288 42.751,54.644C42.394,54.044 41.639,53.872 41.043,54.258Z" style="fill:rgb(255,234,182);fill-rule:nonzero;"/>
            </g>
            <g transform="matrix(1,0,0,1,-3.5,9.5)">
                <path d="M43.268,61.512C44.102,61.512 44.976,61.426 45.93,61.211C46.367,61.126 46.724,60.868 46.963,60.482C47.201,60.096 47.281,59.623 47.201,59.194C47.122,58.722 46.883,58.336 46.526,58.078C46.168,57.82 45.731,57.734 45.334,57.82C43.109,58.292 41.957,57.949 41.441,57.692C41.282,57.606 41.043,57.692 40.963,57.863C40.884,58.035 40.884,58.293 41.043,58.379C41.639,58.679 43.03,59.108 45.453,58.55C45.691,58.508 45.93,58.55 46.128,58.679C46.327,58.808 46.486,59.022 46.526,59.28C46.565,59.537 46.526,59.795 46.407,60.01C46.288,60.224 46.089,60.396 45.851,60.439C44.658,60.696 43.546,60.782 42.553,60.696C42.355,60.654 42.195,60.825 42.156,61.04C42.156,61.254 42.275,61.426 42.474,61.469C42.672,61.469 42.95,61.512 43.268,61.512Z" style="fill:rgb(255,234,182);fill-rule:nonzero;"/>
            </g>
            <g transform="matrix(1,0,0,1,-3.5,9.5)">
                <path d="M41.202,58.379C41.321,58.379 41.441,58.293 41.52,58.164C41.917,57.348 42.633,56.834 42.633,56.834C43.347,56.318 43.546,55.245 43.07,54.43C42.831,54.044 42.473,53.786 42.036,53.7C41.6,53.614 41.202,53.7 40.845,53.958C40.765,54.001 39.104,55.417 38.508,57.778C38.468,57.992 38.302,58.164 38.5,58.207C38.699,58.25 39.057,58.173 39.097,57.959C39.653,55.898 41.163,54.644 41.242,54.601C41.441,54.473 41.679,54.387 41.917,54.472C42.156,54.515 42.354,54.687 42.474,54.902C42.752,55.331 42.633,55.975 42.235,56.232C42.235,56.232 41.401,56.876 40.884,57.863C40.805,58.035 40.845,58.293 41.043,58.379L41.202,58.379Z" style="fill:rgb(255,234,182);fill-rule:nonzero;"/>
            </g>
            <g transform="matrix(1,0,0,1,-3.5,9.5)">
                <path d="M31.31,64.474C34.25,64.474 37.11,64.13 39.573,63.615C39.772,63.572 39.891,63.358 39.851,63.186C39.812,62.971 39.613,62.842 39.454,62.885C31.866,64.559 20.662,64.259 14.107,58.035C10.373,54.473 8.704,49.494 9.101,43.141C9.141,42.454 9.459,41.853 9.975,41.467C10.492,41.081 11.127,40.952 11.763,41.081C12.796,41.338 13.472,42.369 13.392,43.484C13.035,48.163 14.266,51.854 17.007,54.516C22.132,59.495 31.627,59.709 38.819,58.25C39.017,58.207 39.136,57.992 39.097,57.821C39.057,57.606 38.858,57.477 38.699,57.52C31.667,58.937 22.41,58.765 17.484,53.958C14.902,51.468 13.789,47.949 14.107,43.528C14.226,42.025 13.312,40.695 11.962,40.309C11.127,40.094 10.293,40.266 9.618,40.781C8.942,41.296 8.505,42.111 8.465,43.013C8.028,49.58 9.777,54.816 13.67,58.508C18.239,62.928 24.993,64.474 31.31,64.474Z" style="fill:rgb(255,234,182);fill-rule:nonzero;"/>
            </g>
            <g transform="matrix(1,0,0,1,-3.5,9.5)">
                <path d="M88.242,16.658L88.005,18.263C87.904,19.065 87.297,19.685 86.554,19.794L85.136,20.013L86.588,20.304C87.262,20.45 87.803,21.034 87.938,21.763L88.207,23.331L88.478,21.799C88.612,21.07 89.119,20.487 89.794,20.341L91.279,20.013L89.895,19.83C89.153,19.721 88.579,19.101 88.444,18.299L88.242,16.658Z" style="fill:rgb(249,199,16);fill-rule:nonzero;"/>
            </g>
            <g transform="matrix(1,0,0,1,-3.5,9.5)">
                <path d="M94.902,26.18L94.733,27.31C94.666,27.857 94.227,28.331 93.721,28.404L92.742,28.55L93.788,28.768C94.261,28.878 94.666,29.279 94.733,29.79L94.902,30.884L95.071,29.79C95.173,29.279 95.544,28.878 96.016,28.768L97.062,28.55L96.084,28.404C95.578,28.331 95.139,27.893 95.071,27.347L94.902,26.18Z" style="fill:rgb(249,199,16);fill-rule:nonzero;"/>
            </g>
            <g transform="matrix(1,0,0,1,-3.5,9.5)">
                <path d="M91.113,36.813L90.944,37.943C90.876,38.49 90.438,38.964 89.931,39.037L88.952,39.183L89.999,39.401C90.471,39.511 90.876,39.912 90.944,40.423L91.113,41.517L91.281,40.423C91.383,39.912 91.754,39.511 92.227,39.401L93.273,39.183L92.294,39.037C91.788,38.964 91.349,38.526 91.281,37.979L91.113,36.813Z" style="fill:rgb(249,199,16);fill-rule:nonzero;"/>
            </g>
            <g transform="matrix(1,0,0,1,-3.5,9.5)">
                <path d="M39.724,36.262C39.79,36.262 39.855,36.237 39.906,36.187C39.997,36.097 40.019,35.951 39.96,35.835C38.655,33.257 35.277,31.004 35.134,30.909C35.008,30.826 34.843,30.869 34.765,31.005C34.688,31.141 34.728,31.319 34.854,31.402C34.883,31.422 37.401,33.102 38.882,35.133C36.962,34.088 32.48,32.194 27.45,33.833C27.309,33.879 27.229,34.041 27.272,34.194C27.314,34.347 27.462,34.434 27.605,34.387C34.019,32.297 39.522,36.175 39.576,36.214C39.621,36.246 39.673,36.262 39.724,36.262Z" style="fill:rgb(34,33,63);fill-rule:nonzero;"/>
            </g>
            <g transform="matrix(1,0,0,1,-3.5,9.5)">
                <path d="M34.994,30.953C35.028,30.953 35.061,30.963 35.091,30.983C35.234,31.077 38.594,33.317 39.889,35.876C39.931,35.958 39.915,36.059 39.851,36.123C39.789,36.184 39.691,36.192 39.621,36.142C39.566,36.102 34.056,32.193 27.582,34.304C27.483,34.336 27.378,34.276 27.349,34.169C27.334,34.117 27.339,34.062 27.363,34.014C27.386,33.967 27.426,33.932 27.474,33.916C32.55,32.262 37.118,34.27 38.846,35.211L39.169,35.386L38.945,35.079C37.461,33.043 34.921,31.345 34.896,31.328C34.808,31.27 34.78,31.145 34.834,31.05C34.869,30.988 34.931,30.953 34.994,30.953ZM39.724,36.349C39.811,36.349 39.895,36.314 39.96,36.251C40.079,36.133 40.107,35.945 40.03,35.793C38.714,33.194 35.319,30.93 35.175,30.835C35.013,30.726 34.798,30.782 34.697,30.959C34.597,31.137 34.648,31.368 34.812,31.476C34.836,31.492 37.101,33.006 38.586,34.88C36.635,33.883 32.262,32.175 27.427,33.75C27.339,33.779 27.265,33.844 27.221,33.932C27.177,34.021 27.168,34.123 27.195,34.219C27.25,34.417 27.444,34.53 27.628,34.47C34.032,32.383 39.477,36.246 39.531,36.286C39.589,36.327 39.656,36.349 39.724,36.349Z" style="fill:rgb(34,33,63);fill-rule:nonzero;"/>
            </g>
        </g>
    </g>
</svg>
