<svg width="100" height="104" viewBox="0 0 100 104" fill="none" xmlns="http://www.w3.org/2000/svg">
<path d="M44.9953 66.5574C44.5888 69.4787 40.2845 100.278 39.1985 100.317C38.0594 100.357 15.6391 104.38 15.2601 103.959C14.8808 103.536 20.0326 94.753 23.0859 94.2601C26.1369 93.7644 33.3183 95.3308 33.3183 95.3308C35.4188 91.0665 36.7895 69.2717 36.937 66.8427L44.9953 66.5574Z" fill="#FFEBB9"/>
<path d="M69.3931 102.043C69.2511 102.223 60.7214 102.688 57.5735 102.497C50.311 102.055 43.5159 100.164 42.8348 100.188C41.7485 100.227 47.3482 69.3785 47.8815 66.4552L56.3563 66.1552C55.5553 68.6128 48.4964 90.6035 50.8484 94.7102C50.8484 94.7102 57.9195 92.6393 60.9964 92.918C64.0706 93.194 69.7457 101.594 69.3931 102.043Z" fill="#FFEFC8"/>
<path d="M72.6106 57.7293C65.1417 55.0252 62.2812 49.3165 61.2482 44.9814C60.5332 42.0627 60.5332 39.3586 60.6127 37.7704C60.6523 36.912 60.7318 36.354 60.7716 36.311L61.3277 36.4396L65.6976 37.2553C65.6976 37.2983 65.6976 37.3411 65.6581 37.427C65.5787 38.1569 65.34 40.818 66.0951 43.7365C66.1346 43.8654 66.1746 43.9941 66.2143 44.1227C66.3732 44.6379 66.5322 45.1529 66.7307 45.625C68.0814 48.93 70.5843 51.2478 74.1997 52.5784C78.649 54.1665 86.3962 53.0505 90.2103 52.2349C90.687 52.1493 91.0844 52.0204 91.4419 51.9345C92.7927 51.5911 94.1432 52.4925 94.4613 53.9522C94.7792 55.4114 93.9448 56.8707 92.594 57.2141C92.5145 57.2141 92.1966 57.3 91.7199 57.4287C88.7007 58.1156 78.9275 60.0041 72.6106 57.7293Z" fill="#FFEFC8"/>
<path d="M66.7706 45.6681C68.1214 48.973 70.6239 51.2911 74.2393 52.6217C78.689 54.2096 86.4362 53.0936 90.2502 52.278C90.0115 52.3639 83.3772 54.7245 78.1728 54.5959C72.8886 54.4672 67.1677 51.3337 66.7706 45.6681Z" fill="#FFEFC8"/>
<path d="M72.6105 57.7293C65.1416 55.0252 62.2811 49.3165 61.2482 44.9814C60.5331 42.0627 60.5331 39.3586 60.6126 37.7704C60.6522 36.912 60.7317 36.354 60.7715 36.311L61.3276 36.4396L65.6581 37.4698C65.5786 38.1995 65.34 40.8606 66.0951 43.7793C66.1345 43.908 66.1746 44.0369 66.2142 44.1656C66.2142 44.1656 63.7113 46.183 64.9428 50.0029C66.1743 53.8661 72.1733 59.7035 91.6798 57.4715C88.7007 58.1156 78.9274 60.0041 72.6105 57.7293Z" fill="#FFEFC8"/>
<path d="M91.9584 53.7375C92.0376 53.8233 92.3159 54.0809 92.8322 54.3385C92.9913 54.4241 93.1503 54.51 93.3486 54.5528C93.9448 54.7674 94.6997 54.8963 95.6928 54.8963C96.527 54.8963 97.5203 54.7246 98.7125 54.3811C99.3877 54.1666 99.7846 53.4368 99.5862 52.7071C99.4271 52.1063 98.9507 51.7198 98.4342 51.7198C98.3153 51.7198 98.1955 51.7198 98.0766 51.7626C95.8121 52.4493 94.5009 52.1491 93.9847 51.9343C93.8257 51.8485 93.7064 51.8056 93.6668 51.7626L93.7062 51.8054L91.9584 53.7375Z" fill="#FFEFC8"/>
<path d="M91.2431 53.0508C91.2431 53.6516 91.6006 54.1668 92.1171 54.3387C92.2364 54.3813 92.3557 54.4244 92.5147 54.4244C92.6338 54.4244 92.7531 54.4244 92.8324 54.3815C93.3488 54.2098 93.7464 53.6949 93.7464 53.051C93.7464 52.6647 93.8259 52.2785 93.9849 51.935C94.104 51.6774 94.2233 51.4629 94.3424 51.2483C94.6999 50.6903 95.0973 50.3469 95.0973 50.3469C95.6534 49.8747 95.7327 49.0591 95.3357 48.4583C94.8987 47.8577 94.1436 47.7716 93.5877 48.2007C93.4682 48.2864 91.2037 50.1749 91.2431 53.0508Z" fill="#FFEFC8"/>
<path d="M92.5147 57.3C93.5476 57.6435 94.382 57.6434 95.0971 57.2572C95.8121 56.8709 96.13 56.1414 96.2491 55.6262C96.3682 54.8965 95.9312 54.1668 95.256 54.0381C94.6601 53.9094 94.104 54.2526 93.8655 54.8537C93.7064 54.8537 93.4285 54.8111 92.8724 54.5533C92.2368 54.2529 91.4819 54.5533 91.2039 55.24C90.9258 55.9266 91.2039 56.7422 91.8395 57.0426C92.0777 57.1283 92.3159 57.2141 92.5147 57.3Z" fill="#FFEFC8"/>
<path d="M93.8653 57.9011C94.3818 57.9011 94.8582 57.7724 95.2558 57.5576C96.0503 57.0855 96.4874 56.2699 96.5668 55.6693C96.6065 55.3686 96.6064 55.0252 96.4873 54.7676C96.4079 54.5531 96.2093 54.4672 96.0503 54.5531C95.8518 54.6389 95.7723 54.8535 95.8518 55.0252C95.8914 55.1969 95.9312 55.3686 95.8914 55.5404C95.8119 55.9697 95.5339 56.5705 94.9377 56.8709C94.3419 57.2144 93.6245 57.1422 92.7107 56.8415C92.5121 56.7557 92.2362 56.9566 92.1966 57.1713C92.1169 57.3861 92.2782 57.5097 92.4772 57.5525C92.4331 57.6583 93.3887 57.9011 93.8653 57.9011Z" fill="#FFEFC8"/>
<path d="M95.653 54.8965H95.7325C96.567 54.8965 97.5602 54.7248 98.7521 54.3813C99.4273 54.1668 99.8249 53.437 99.6263 52.7073C99.4671 52.1065 98.9903 51.72 98.4742 51.72C98.5531 51.8917 99.6263 53.8233 95.653 54.8965Z" fill="#FFEFC8"/>
<path d="M93.5476 48.2005C93.8257 48.2436 94.9777 48.6726 94.3025 51.2481C94.66 50.6901 95.0574 50.3466 95.0574 50.3466C95.6135 49.8745 95.693 49.0589 95.2956 48.4581C94.8983 47.857 94.1037 47.7714 93.5476 48.2005Z" fill="#FFEFC8"/>
<path d="M95.5341 55.2929C96.567 55.2929 97.6794 55.121 98.8315 54.7347C99.2289 54.606 99.5866 54.3054 99.7848 53.9191C99.9838 53.5329 100.063 53.0607 99.9442 52.5886C99.7055 51.6871 98.8315 51.1291 97.9577 51.3867C95.7725 52.0306 94.5804 51.7732 94.0639 51.5584C93.8655 51.4726 93.6667 51.5584 93.6271 51.7732C93.5476 51.9875 93.6271 52.2354 93.8257 52.2782C94.4216 52.5358 95.7723 52.8459 98.1563 52.1164C98.6327 51.9878 99.1492 52.2882 99.2685 52.8031C99.3478 53.0607 99.3081 53.3183 99.189 53.5328C99.0699 53.7474 98.8711 53.9191 98.6327 54.005C97.441 54.3485 96.3684 54.5199 95.3749 54.5199C95.1765 54.5199 95.0176 54.6917 95.0176 54.9064C95.0176 55.1208 95.1765 55.2927 95.3749 55.2927C95.4147 55.2929 95.4942 55.2929 95.5341 55.2929Z" fill="#FFEFC8"/>
<path d="M91.3225 52.321C91.4817 52.321 91.7512 52.2153 91.791 52.0435C92.1882 49.9405 93.7061 48.5868 93.7462 48.5009C94.1433 48.1574 94.6997 48.2433 95.0176 48.6726C95.3355 49.1022 95.256 49.7028 94.8584 50.0462C94.8584 50.0462 94.0639 50.7329 93.6271 51.763C93.5476 51.9348 93.6271 52.1924 93.8257 52.2782C93.9846 52.3641 94.223 52.2782 94.3023 52.0637C94.6598 51.2481 95.2952 50.6473 95.3352 50.6473C95.6529 50.3897 95.8914 49.9606 95.9312 49.4885C95.9708 49.0163 95.8916 48.587 95.6133 48.2007C95.0572 47.4282 94.0637 47.2993 93.3486 47.9003C93.2691 47.9431 91.5727 49.4621 91.0963 51.8228C91.0567 52.0373 91.0843 52.2354 91.2829 52.2785C91.2829 52.321 91.3225 52.321 91.3225 52.321Z" fill="#FFEFC8"/>
<path d="M80.159 59.1887C86.2772 59.1887 92.3159 57.6862 92.6734 57.6004C92.872 57.5576 92.9913 57.3428 92.9514 57.1283C92.9116 56.9137 92.713 56.7848 92.5144 56.8278C91.9979 56.9565 80 59.9611 72.7297 57.343C65.4197 54.6819 62.6387 49.1022 61.5659 44.8527C60.8904 42.0199 60.8506 39.4444 60.9699 37.7704C61.0096 37.3411 61.0494 36.9548 61.0494 36.7403L65.3004 37.5559C65.2209 38.5001 65.0619 41.0326 65.777 43.8656C66.9288 48.3294 69.71 51.3767 74.0803 52.9649C79.1258 54.8108 88.3826 53.1366 91.5211 52.321C91.7197 52.2782 91.839 52.0634 91.7991 51.8489C91.7595 51.6343 91.5607 51.5054 91.3621 51.5485C88.2633 52.321 79.2053 53.9522 74.3185 52.1923C70.1864 50.6901 67.5646 47.8142 66.4522 43.6078C65.6176 40.3887 66.0152 37.5128 66.0546 37.2552C66.0945 37.0407 65.9357 36.869 65.7768 36.8262H65.7371L60.8108 35.9677C60.7313 35.9677 60.6122 35.9677 60.5327 36.0103C60.4532 36.0531 60.4134 36.139 60.3737 36.2679C60.3737 36.3107 60.2943 36.8687 60.2148 37.7702C60.0957 39.487 60.1353 42.1483 60.8502 45.1101C61.923 49.5308 64.8231 55.3684 72.4512 58.1153C74.7559 58.9312 77.4969 59.1887 80.159 59.1887Z" fill="#FFEFC8"/>
<path d="M87.6448 48.2919C87.6448 54.7301 82.7979 59.9667 76.8386 59.9667H76.4412C75.1698 64.8598 70.9984 68.4656 66.0324 68.4656C64.0457 68.4656 62.1788 67.9073 60.5895 66.8772C58.603 69.7959 55.4245 71.6844 51.8492 71.6844C48.9885 71.6844 46.4063 70.4826 44.4991 68.5512C42.5525 70.4828 39.9703 71.6844 37.1495 71.6844C33.7726 71.6844 30.753 70.0104 28.7667 67.3922C27.3762 68.0788 25.8666 68.4651 24.2375 68.4651C19.9472 68.4651 16.2523 65.761 14.5043 61.898C14.3852 61.5976 14.2262 61.2972 14.1468 60.954C13.8687 60.9966 13.5508 61.0824 13.2728 61.1255C12.8752 61.1683 12.4384 61.2113 12.0014 61.2113C7.71079 61.2113 4.01595 58.5072 2.26794 54.6012C1.59229 53.0561 1.19534 51.3393 1.19534 49.4933C1.19534 47.3902 1.71183 45.4586 2.58584 43.7418C1.15529 41.7674 0.321342 39.2778 0.321342 36.5737C0.321342 31.2085 3.69827 26.6586 8.26712 25.285C7.98907 24.2549 7.86975 23.1819 7.86975 22.0659C7.86975 15.6275 12.7166 10.391 18.6758 10.391C20.1854 10.391 21.6555 10.7344 22.9666 11.3352C23.8009 5.75546 28.2505 1.46317 33.6533 1.46317C37.1894 1.46317 40.3279 3.30891 42.3143 6.14173H42.5525C44.4201 2.66504 47.9161 0.347168 51.8888 0.347168C57.5302 0.347168 62.1788 5.02572 62.6554 10.992C63.728 10.606 64.8803 10.3912 66.0718 10.3912C72.0313 10.3912 76.8782 15.6277 76.8782 22.0661V22.3666C77.7126 22.5811 78.5071 22.8817 79.2222 23.268C82.8376 25.1565 85.3006 29.1484 85.3006 33.7839C85.3006 35.8442 84.824 37.7758 83.9498 39.4498C86.2145 41.5959 87.6448 44.7724 87.6448 48.2919Z" fill="#FFD26A"/>
<path d="M82.6388 42.8834C82.6388 49.3218 77.7919 54.5584 71.8327 54.5584H71.4354C70.164 59.4515 65.9923 63.0571 61.0265 63.0571C59.0401 63.0571 57.1727 62.4991 55.5836 61.4689C53.5972 64.3876 50.4188 66.2764 46.8433 66.2764C43.9829 66.2764 41.4005 65.0743 39.4935 63.1432C37.5469 65.0745 34.9645 66.2764 32.1437 66.2764C28.7667 66.2764 25.7473 64.6022 23.7609 61.9839C22.3704 62.6706 20.8608 63.0568 19.2319 63.0568C17.5235 63.0568 15.9344 62.6275 14.5041 61.8983C14.0671 61.6835 14.5439 61.2111 14.1468 60.954C12.2794 59.6232 9.93523 57.8633 9.1407 55.5885C8.3858 55.7603 7.55163 55.8461 6.75688 55.8031C5.16781 55.7603 3.61815 55.3312 2.2675 54.6442C1.59186 53.0989 1.19492 51.3821 1.19492 49.5364C1.19492 47.4335 1.7114 45.5017 2.5854 43.7849C1.15485 41.8105 0.320908 39.3209 0.320908 36.6167C0.320908 31.2517 3.69784 26.7016 8.26669 25.328C7.98863 24.2979 7.86932 23.225 7.86932 22.109C7.86932 15.6705 12.7162 10.434 18.6756 10.434C20.1849 10.434 21.6551 10.7775 22.9661 11.3783C23.8003 5.79826 28.25 1.50621 33.653 1.50621C37.1887 1.50621 40.3274 3.35195 42.3139 6.18477H42.5521C44.4197 2.70831 47.9157 0.390221 51.8884 0.390221C57.5298 0.390221 62.1784 5.06877 62.655 11.035C63.7276 10.6488 64.8799 10.4342 66.0716 10.4342C72.0309 10.4342 76.8778 15.6708 76.8778 22.1092V22.4098C77.7122 22.6241 78.5067 22.9246 79.2218 23.3111C79.8972 24.8564 80.2944 26.5732 80.2944 28.4189C80.2944 30.4792 79.8175 32.4108 78.9433 34.0848C81.2086 36.1876 82.6388 39.3639 82.6388 42.8834Z" fill="#FFD26A"/>
<path d="M76.8386 22.1092C73.2232 9.48996 61.8212 13.0097 61.8212 13.0097C61.8212 13.0097 60.5897 6.31368 53.7563 4.29646C46.9626 2.32228 42.6721 8.71741 42.6721 8.71741C42.6721 8.71741 39.0965 4.55406 33.1372 5.24074C27.1779 5.92742 24.7943 14.2544 24.7943 14.2544C24.7943 14.2544 19.7488 12.3658 14.0278 15.5849C8.34657 18.804 9.69722 27.5603 9.69722 27.5603C-1.70476 33.9987 2.42707 43.6131 2.46671 43.7421C1.03658 41.7676 0.202415 39.2781 0.202415 36.5739C0.202415 31.2087 3.57936 26.6588 8.14821 25.2852C7.87016 24.2551 7.75061 23.1821 7.75061 22.0661C7.75061 15.6277 12.5975 10.3912 18.5571 10.3912C20.0667 10.3912 21.5366 10.7346 22.8476 11.3355C23.682 5.75568 28.1316 1.4634 33.5346 1.4634C37.0705 1.4634 40.209 3.30914 42.1952 6.14196H42.4338C44.3012 2.66527 47.7972 0.347412 51.7701 0.347412C57.4116 0.347412 62.0599 5.02596 62.5365 10.9922C63.6089 10.6062 64.7614 10.3914 65.9531 10.3914C71.9917 10.3912 76.8386 15.6277 76.8386 22.1092Z" fill="#FFD26A"/>
<path d="M44.4992 68.204C44.4216 68.204 44.3435 68.2348 44.282 68.2957C42.3052 70.2571 39.772 71.3375 37.1494 71.3375C33.9883 71.3375 31.0236 69.8193 29.0151 67.1723C28.9225 67.0505 28.7659 67.0114 28.6329 67.0769C27.2336 67.7678 25.7545 68.1184 24.2374 68.1184C20.2518 68.1184 16.5443 65.6168 14.7927 61.7457C14.7635 61.6712 14.7243 61.5809 14.6845 61.4893C14.5932 61.2796 14.5071 61.0813 14.4581 60.8697C14.418 60.6975 14.264 60.5862 14.101 60.6103C13.9562 60.6327 13.8015 60.6661 13.6464 60.6996C13.5033 60.7306 13.3602 60.7616 13.227 60.782C12.8636 60.8211 12.4262 60.8644 12.0008 60.8644C7.94606 60.8644 4.32726 58.4067 2.55653 54.4503C1.86675 52.8712 1.5163 51.2025 1.5163 49.4935C1.5163 47.5488 1.97065 45.6699 2.86715 43.9092C2.92906 43.7874 2.91792 43.6374 2.83866 43.5282C1.40169 41.5448 0.642281 39.1403 0.642281 36.5739C0.642281 31.4892 3.81293 26.9847 8.35286 25.6197C8.43555 25.5947 8.50558 25.5349 8.54736 25.4539C8.58913 25.3727 8.59899 25.2771 8.57521 25.188C8.31644 24.2296 8.19069 23.2083 8.19069 22.0661C8.19069 15.82 12.8943 10.7383 18.6756 10.7383C20.0918 10.7383 21.532 11.0554 22.8404 11.6551C22.9313 11.6967 23.0345 11.6909 23.1213 11.6393C23.2078 11.5877 23.2676 11.4961 23.283 11.3908C24.1135 5.83946 28.4746 1.81032 33.6531 1.81032C37.02 1.81032 40.332 3.55052 42.2964 6.3514C42.3613 6.44398 42.4647 6.49582 42.5719 6.48841C42.6794 6.48101 42.7762 6.41643 42.8302 6.31599C44.6926 2.84833 48.1636 0.694318 51.8884 0.694318C57.2837 0.694318 61.8723 5.23077 62.335 11.0218C62.3436 11.1278 62.3965 11.2237 62.4787 11.2822C62.561 11.3408 62.6632 11.3549 62.7568 11.3213C63.8311 10.9346 64.9465 10.7383 66.0716 10.7383C71.8534 10.7383 76.5567 15.82 76.5567 22.0661V22.3665C76.5567 22.5274 76.6587 22.667 76.8037 22.7042C77.6353 22.9178 78.4005 23.212 79.0781 23.5784C82.7196 25.4806 84.9792 29.39 84.9792 33.7839C84.9792 35.7386 84.5263 37.639 83.6698 39.279C83.5951 39.422 83.6234 39.6021 83.7378 39.7106C86.0164 41.8702 87.3233 44.9978 87.3233 48.2915C87.3233 54.5375 82.6197 59.6193 76.8384 59.6193H76.4411C76.2971 59.6193 76.1705 59.7227 76.1315 59.8727C74.8702 64.7274 70.7171 68.1179 66.0322 68.1179C64.1327 68.1179 62.3078 67.5859 60.7547 66.5796C60.6127 66.4877 60.4289 66.5273 60.3306 66.6714C58.342 69.5929 55.1715 71.337 51.849 71.337C49.1863 71.337 46.6542 70.2576 44.7192 68.2975C44.6575 68.2355 44.5782 68.204 44.4992 68.204ZM37.1496 72.0316C39.8376 72.0316 42.4352 70.9644 44.4975 69.0192C46.5225 70.9642 49.1214 72.0316 51.8492 72.0316C55.2797 72.0316 58.5568 70.2805 60.6744 67.3317C62.2714 68.3012 64.1171 68.8123 66.0324 68.8123C70.9224 68.8123 75.2661 65.3307 76.6821 60.3136H76.8386C82.9745 60.3136 87.9662 54.9203 87.9662 48.2915C87.9662 44.8916 86.6531 41.6579 84.3541 39.375C85.1844 37.6883 85.622 35.7616 85.622 33.7839C85.622 29.1216 83.2234 24.9723 79.3619 22.9553C78.7118 22.6038 77.9845 22.3142 77.1996 22.0951V22.0661C77.1996 15.4372 72.2077 10.044 66.0718 10.044C65.0095 10.044 63.9562 10.2086 62.9342 10.5337C62.2564 4.59316 57.4808 0 51.8889 0C48.0925 0 44.5442 2.10865 42.5177 5.53627C40.4085 2.79811 37.0566 1.11578 33.6533 1.11578C28.2914 1.11578 23.7551 5.18517 22.7198 10.8536C21.4341 10.3229 20.0447 10.0435 18.6758 10.0435C12.5402 10.0435 7.54847 15.4365 7.54847 22.0657C7.54847 23.1439 7.65514 24.1232 7.87407 25.0478C3.22168 26.603 6.10352e-05 31.2934 6.10352e-05 36.5734C6.10352e-05 39.2188 0.761604 41.7035 2.20436 43.7745C1.32156 45.5808 0.874062 47.5036 0.874062 49.4931C0.874062 51.3053 1.24488 53.0737 1.97708 54.7493C3.85728 58.9502 7.69756 61.5583 12.0014 61.5583C12.456 61.5583 12.9125 61.5134 13.3047 61.4705C13.4628 61.4465 13.6179 61.4131 13.7728 61.3796C13.824 61.3687 13.8754 61.3574 13.926 61.3467C13.9799 61.4999 14.0421 61.6432 14.1031 61.7837C14.1397 61.8677 14.1759 61.951 14.2089 62.0343C16.0743 66.1577 20.0083 68.8118 24.2376 68.8118C25.7669 68.8118 27.2587 68.4767 28.676 67.8152C30.8029 70.4983 33.8767 72.0316 37.1496 72.0316Z" fill="#FEC130"/>
<path d="M47.4791 65.9329C47.5179 65.9239 47.5982 65.9329 47.6381 65.8901C51.6506 63.5294 50.6573 59.7521 50.2601 58.6791C53.0409 56.3185 54.4714 53.7002 54.5509 50.953C54.67 47.2618 52.3258 44.4718 51.5315 43.6134C55.6235 38.5914 51.3723 32.6253 51.3329 32.5823C51.2138 32.4105 50.9754 32.4105 50.8561 32.5394C50.6971 32.6681 50.6971 32.9257 50.8164 33.0544C50.9754 33.269 54.9084 38.8059 50.8561 43.3986C50.7766 43.4845 50.737 43.5703 50.7766 43.699C50.7766 43.7849 50.8162 43.9138 50.8957 43.9566C50.9353 43.9994 54.0342 46.9614 53.9547 50.9532C53.8753 53.5713 52.4452 56.0178 49.7434 58.2926C49.6243 58.4213 49.5845 58.593 49.6639 58.765C49.7434 58.9365 51.5313 62.8425 47.4391 65.246C46.8076 65.5763 47.1904 65.9996 47.4791 65.9329Z" fill="#FEC130"/>
<path d="M29.6808 11.8506C29.7999 11.8506 29.9192 11.8078 29.9587 11.6789C30.0381 11.5071 32.4217 7.90176 36.4741 9.74749C36.6729 9.83312 36.8717 9.7475 36.9512 9.53272C37.0306 9.36099 36.9512 9.10341 36.7526 9.01777C32.1837 6.91468 29.4426 11.1639 29.4028 11.2067C29.2837 11.3784 29.3233 11.636 29.4822 11.7217C29.5216 11.8506 29.6011 11.8506 29.6808 11.8506Z" fill="#FEC130"/>
<path d="M33.1768 60.3957H33.4153C33.6138 60.3529 33.7332 60.1812 33.7332 59.9664C33.6935 59.7518 33.5346 59.6232 33.3358 59.6232C33.2165 59.6232 30.6343 59.8805 29.7999 57.0047C29.7603 56.7901 29.5615 56.7042 29.3629 56.7471C29.1641 56.7899 29.0846 57.0047 29.1245 57.2192C29.9987 60.1383 32.3823 60.3957 33.1768 60.3957Z" fill="#FEC130"/>
<path d="M57.8878 64.2158C60.073 64.2158 61.2249 62.2414 61.2649 62.1984C61.384 62.0267 61.3045 61.7691 61.1456 61.6832C60.9869 61.5545 60.7484 61.6404 60.6692 61.8121C60.5897 61.8978 59.199 64.2584 56.5772 63.1855C56.3784 63.0996 56.1798 63.2283 56.1402 63.4C56.0607 63.6146 56.1798 63.8293 56.3387 63.8722C56.8949 64.13 57.4113 64.2158 57.8878 64.2158Z" fill="#FEC130"/>
<path d="M21.02 47.8197C21.179 47.8197 21.2981 47.7336 21.3379 47.5619C21.4172 47.3474 21.2983 47.1326 21.1393 47.0898C21.0202 47.047 18.5966 46.0168 19.0734 43.0121C19.113 42.7975 18.9939 42.6258 18.7953 42.5827C18.5965 42.5399 18.4378 42.6686 18.398 42.8831C17.8419 46.4887 20.9009 47.7762 20.9405 47.7762C20.9405 47.8198 20.9804 47.8197 21.02 47.8197Z" fill="#FEC130"/>
<path d="M68.6546 50.5237C72.071 50.3091 72.5481 46.8324 72.5481 46.7894C72.5875 46.5748 72.4289 46.4031 72.2302 46.3601C72.0316 46.3172 71.8726 46.489 71.8328 46.7035C71.8328 46.8322 71.3958 49.6222 68.6148 49.7939C68.4162 49.7939 68.2573 49.9657 68.2969 50.1802C68.2971 50.395 68.4556 50.5237 68.6546 50.5237Z" fill="#FEC130"/>
<path d="M14.6635 29.7064C14.8621 29.7064 15.021 29.5347 15.021 29.3201C14.9019 24.2553 18.9144 23.6545 19.0734 23.6114C19.2323 23.6114 19.3514 23.4828 19.3911 23.311C19.6693 21.5514 20.3448 20.3065 21.3777 19.5767C22.8873 18.4607 24.7544 18.8901 24.7544 18.8901C24.9532 18.9329 25.112 18.8042 25.152 18.5897C25.1914 18.3751 25.0726 18.2034 24.874 18.1603C24.7945 18.1603 22.7284 17.6882 20.9409 18.9762C19.7889 19.7915 19.0337 21.1221 18.7161 22.9678C17.7229 23.2254 14.1868 24.4273 14.3062 29.4062C14.3059 29.5347 14.4647 29.7064 14.6635 29.7064Z" fill="#FEC130"/>
<path d="M78.5072 31.7236C78.6659 31.7236 78.7852 31.638 78.8251 31.466C78.8647 31.3801 79.4604 29.1912 78.4277 27.1737C77.7523 25.886 76.6002 24.9417 74.9316 24.4268C74.8125 23.3538 73.9782 19.4048 69.4093 19.1044C69.2107 19.1044 69.0518 19.2331 69.0518 19.4478C69.0518 19.6626 69.1709 19.8341 69.3697 19.8341C74.0576 20.1345 74.2562 24.5126 74.2562 24.6844C74.2562 24.8561 74.3753 24.9848 74.5341 25.0278C76.1231 25.5 77.1962 26.3156 77.7919 27.4744C78.6659 29.2342 78.1494 31.1658 78.1494 31.1658C78.11 31.3801 78.1893 31.5949 78.3881 31.638C78.4277 31.7236 78.4675 31.7236 78.5072 31.7236Z" fill="#FEC130"/>
<path d="M34.4879 65.4605C35.5605 65.4605 36.6729 64.9454 37.825 63.9152C37.9839 63.7865 37.9839 63.529 37.8646 63.4C37.7455 63.2283 37.5071 63.2283 37.3878 63.3572C36.2357 64.3874 35.0834 64.8595 34.0507 64.6878C32.5411 64.4302 31.6669 62.971 31.627 62.971C31.5475 62.8423 31.3888 62.7564 31.2298 62.7992C27.098 63.958 25.628 59.7088 25.5884 59.5371C25.5089 59.3225 25.3104 59.2367 25.1514 59.3225C24.9528 59.4084 24.8733 59.6232 24.9528 59.7947C24.9528 59.8375 26.6212 64.7308 31.19 63.615C31.5475 64.0869 32.4616 65.2029 33.9314 65.4605H34.4879Z" fill="#FEC130"/>
<path d="M66.3901 64.2158C68.2971 64.2158 70.8 63.5291 71.8726 60.3098C71.9521 60.0955 71.833 59.8805 71.6741 59.8377C71.4755 59.7518 71.2765 59.8805 71.237 60.0522C69.6081 64.9884 64.2846 63.1855 64.0858 63.1429C63.8872 63.0568 63.6884 63.1855 63.6488 63.4002C63.609 63.6148 63.6884 63.8296 63.8872 63.8724C63.8872 63.8296 64.9994 64.2158 66.3901 64.2158Z" fill="#FEC130"/>
<path d="M77.3549 38.7628C77.5141 38.7628 77.6332 38.6342 77.673 38.5053C77.673 38.4194 79.421 31.7664 74.1371 29.9207C73.9385 29.8351 73.7395 29.9635 73.7001 30.1783C73.6605 30.3931 73.7395 30.6076 73.9385 30.6504C78.547 32.2386 77.0771 38.0331 76.9974 38.2907C76.958 38.5053 77.0372 38.72 77.236 38.7628H77.3549Z" fill="#FEC130"/>
<path d="M51.0549 26.4442C51.2138 26.4442 51.3329 26.3584 51.3728 26.1866C53.4781 19.2761 48.9493 16.0139 47.8767 15.3701C48.0753 12.5373 47.5588 10.4339 46.4067 9.14644C45.1752 7.73003 43.6258 7.73003 43.3475 7.73003C43.1491 7.73003 42.99 7.90176 42.99 8.11631C42.99 8.33085 43.1491 8.50258 43.3475 8.50258C43.5067 8.50258 44.8573 8.50258 45.8903 9.70444C46.9232 10.9063 47.3602 12.8807 47.1616 15.6277C47.1616 15.7994 47.2411 15.9281 47.3602 16.014C47.5987 16.1426 52.8826 18.9326 50.6973 26.0577C50.6178 26.2723 50.855 26.4442 51.0549 26.4442Z" fill="#FEC130"/>
<path d="M69.3696 31.3374C71.1971 35.9729 69.7668 41.0807 66.1913 42.7117C62.6155 44.3426 58.2455 41.9391 56.418 37.3034C54.5905 32.6677 56.0206 27.56 59.5963 25.9293C63.1322 24.2981 67.5421 26.7019 69.3696 31.3374Z" fill="white"/>
<path d="M69.3251 34.4618C68.8571 31.3492 66.458 29.1806 63.9669 29.618C61.4757 30.0554 59.8359 32.9329 60.3042 36.0456C60.7722 39.1582 63.1711 41.3268 65.6622 40.8893C68.1533 40.4521 69.7934 37.5744 69.3251 34.4618Z" fill="#22213F"/>
<path d="M61.6621 32.3247C61.3842 33.0544 61.8212 33.9128 62.5761 34.2563C63.3707 34.5998 64.2051 34.2563 64.4829 33.5266C64.7612 32.7968 64.3242 31.9384 63.5693 31.595C62.7747 31.2515 61.9007 31.595 61.6621 32.3247Z" fill="white"/>
<path d="M60.3887 19.9086C62.8206 19.7311 64.7564 18.6153 64.684 17.437C64.5962 16.2192 62.5814 15.3675 60.1497 15.5449C57.7179 15.7222 55.782 16.8381 55.8543 18.0165C55.927 19.195 57.9413 20.0465 60.3887 19.9086Z" fill="#0C2B34"/>
<path d="M36.0411 23.9989C38.4104 23.2955 40.0794 21.7572 39.7806 20.5891C39.4816 19.4212 37.3255 19.0292 34.9562 19.7325C32.5868 20.4359 30.9177 21.9744 31.2167 23.1423C31.5158 24.3102 33.6717 24.7022 36.0411 23.9989Z" fill="#0C2B34"/>
<path d="M32.8988 37.0032C32.0644 36.2735 30.7932 37.0032 30.9123 38.162V38.2051C31.5477 43.9994 35.1631 49.0642 41.9568 50.5665C47.9956 51.897 53.5576 48.2919 54.8289 45.1582C55.2263 44.214 55.2263 43.3125 54.7096 42.583C53.0411 40.2221 48.3533 43.527 41.798 41.8961C37.8648 40.909 34.7661 38.677 32.8988 37.0032Z" fill="#22213F"/>
<path d="M30.9123 38.0762V38.162C40.4868 49.794 54.67 45.1585 54.8289 45.1154C55.2263 44.1711 55.2263 43.2697 54.7096 42.54C53.0411 40.1793 48.3533 43.4842 41.798 41.8533C37.865 40.866 34.7263 38.5911 32.8589 36.9171C32.0248 36.2305 30.7932 36.9174 30.9123 38.0762Z" fill="white"/>
<path d="M19.55 62.1987C10.5316 57.8206 8.30673 50.4379 8.78358 43.0556C8.90247 41.4245 10.333 40.2654 11.8426 40.6947H11.9221C13.0742 40.9951 13.8687 42.1542 13.7894 43.4419C12.7963 58.4644 27.5356 59.9667 38.7786 57.8636C40.1295 57.606 41.4405 58.6361 41.6391 60.0958C41.8775 61.5551 40.924 62.9715 39.5732 63.186C35.7196 63.7868 26.3433 65.0315 19.55 62.1987Z" fill="#FFEAB6"/>
<path d="M39.0965 59.6663C39.176 59.7522 39.4144 60.0526 39.9309 60.3102C40.0896 60.396 40.2488 60.4819 40.4474 60.568C41.0035 60.8253 41.7982 61.0401 42.7914 61.0827C43.6257 61.1255 44.6585 61.0401 45.8504 60.7823C46.5258 60.6106 46.9626 59.9239 46.8435 59.1941C46.7244 58.5933 46.2874 58.164 45.7309 58.1212H45.3337C43.0294 58.6364 41.758 58.2499 41.2415 57.9495C41.0828 57.8636 40.9634 57.7777 40.9634 57.7777L41.0033 57.8206L39.0965 59.6663Z" fill="#FFEAB6"/>
<path d="M38.4209 58.9365C38.3815 59.5374 38.6992 60.0525 39.2157 60.2671C39.3348 60.3099 39.4541 60.353 39.613 60.353C39.7319 60.353 39.8515 60.353 39.931 60.3101C40.4871 60.1815 40.8842 59.7096 40.9241 59.0655C40.9635 58.6792 41.0432 58.2929 41.2021 57.9927C41.321 57.7349 41.4802 57.5206 41.5995 57.3486C41.9969 56.8335 42.394 56.533 42.394 56.533C42.9898 56.1037 43.1091 55.2884 42.7516 54.6445C42.3542 54.0437 41.5995 53.872 41.0035 54.2582C40.9635 54.3439 38.5801 56.0607 38.4209 58.9365Z" fill="#FFEAB6"/>
<path d="M39.4142 63.2288C40.4074 63.6581 41.2816 63.7009 41.9966 63.3575C42.7117 63.014 43.1091 62.3273 43.2282 61.8552C43.3871 61.1255 42.9895 60.3958 42.3143 60.2243C41.7184 60.0525 41.1623 60.3529 40.8838 60.9109C40.725 60.9109 40.4468 60.8251 39.9305 60.5247C39.3346 60.1812 38.5796 60.4388 38.2221 61.0827C37.9042 61.7265 38.1426 62.5421 38.7386 62.9284C39.0171 63.0571 39.2157 63.1432 39.4142 63.2288Z" fill="#FFEAB6"/>
<path d="M40.9635 64.0014C41.4007 64.0014 41.758 63.9155 42.1155 63.7438C42.9501 63.3575 43.4268 62.585 43.5461 61.9839C43.6256 61.6835 43.6256 61.34 43.5461 61.0396C43.5065 60.8251 43.3077 60.7392 43.1091 60.782C42.9103 60.8249 42.831 61.0396 42.8707 61.2542C42.9101 61.4261 42.9101 61.5976 42.8707 61.7694C42.7516 62.1987 42.4337 62.7569 41.8377 63.0571C41.2021 63.3575 40.5597 63.295 39.6458 62.9087C39.6458 62.9087 39.136 62.9284 39.0964 63.1432C39.0169 63.3575 39.0964 63.5723 39.2947 63.6153C39.8911 63.8727 40.447 64.0014 40.9635 64.0014Z" fill="#FFEAB6"/>
<path d="M42.7117 61.0827H42.7912C43.6256 61.1255 44.6585 61.0399 45.8502 60.7823C46.5257 60.6105 46.9624 59.9239 46.8433 59.1941C46.7242 58.5933 46.2872 58.164 45.7307 58.1212C45.8104 58.3355 46.7641 60.353 42.7117 61.0827Z" fill="#FFEAB6"/>
<path d="M41.0431 54.258C41.321 54.3439 42.4735 54.816 41.5993 57.3484C41.9966 56.8332 42.3938 56.5328 42.3938 56.5328C42.9895 56.1035 43.1089 55.2881 42.7513 54.6443C42.394 54.0435 41.6391 53.8717 41.0431 54.258Z" fill="#FFEAB6"/>
<path d="M43.268 61.5118C44.1024 61.5118 44.9764 61.4262 45.9299 61.2114C46.3669 61.1255 46.7244 60.8679 46.9626 60.4816C47.2012 60.0956 47.2807 59.6232 47.2012 59.1939C47.1218 58.7218 46.8834 58.3355 46.5256 58.0779C46.1681 57.8203 45.7311 57.7345 45.3339 57.8203C43.109 58.2925 41.957 57.949 41.4405 57.6916C41.2815 57.6058 41.0431 57.6916 40.9634 57.8634C40.8839 58.0351 40.884 58.2927 41.0431 58.3788C41.6391 58.679 43.0296 59.1083 45.453 58.5503C45.6914 58.5075 45.9299 58.5503 46.1284 58.679C46.327 58.8076 46.486 59.0224 46.5258 59.2798C46.5654 59.5374 46.5258 59.795 46.4067 60.0095C46.2876 60.2241 46.0888 60.3958 45.8506 60.4388C44.6585 60.6964 43.5463 60.7823 42.5529 60.6964C42.3546 60.6536 42.1954 60.8251 42.1558 61.0401C42.1558 61.2544 42.2749 61.4264 42.4737 61.4692C42.672 61.469 42.9501 61.5118 43.268 61.5118Z" fill="#FFEAB6"/>
<path d="M41.2021 58.3788C41.321 58.3788 41.4406 58.2927 41.52 58.164C41.9174 57.3484 42.6325 56.8335 42.6325 56.8335C43.3473 56.3183 43.5463 55.2453 43.0695 54.4297C42.8311 54.0435 42.4733 53.7859 42.0365 53.7C41.5995 53.6141 41.2021 53.7 40.8446 53.9576C40.7651 54.0006 39.1037 55.4171 38.5077 57.7777C38.4681 57.9923 38.3018 58.164 38.5004 58.2068C38.6992 58.2496 39.057 58.1733 39.0966 57.9585C39.6527 55.8982 41.1625 54.6443 41.242 54.6012C41.4406 54.4726 41.679 54.3869 41.9174 54.4725C42.1558 54.5154 42.3544 54.6871 42.4735 54.9019C42.7516 55.3314 42.6325 55.9748 42.2351 56.2324C42.2351 56.2324 41.4007 56.8763 40.8842 57.8634C40.8048 58.0351 40.8446 58.2927 41.0432 58.3788H41.2021Z" fill="#FFEAB6"/>
<path d="M31.3097 64.4737C34.2496 64.4737 37.1101 64.1301 39.5732 63.6153C39.7717 63.5723 39.8911 63.3575 39.8512 63.1858C39.8116 62.9712 39.6128 62.8423 39.4538 62.8854C31.8656 64.5594 20.6622 64.259 14.1069 58.0351C10.3726 54.4726 8.7041 49.4936 9.10126 43.141C9.14089 42.4544 9.45879 41.8533 9.97527 41.467C10.4915 41.0808 11.1273 40.9519 11.7631 41.0808C12.7961 41.3384 13.4715 42.3685 13.3918 43.4845C13.0345 48.1631 14.2661 51.8543 17.0072 54.5156C22.1324 59.4946 31.6274 59.7091 38.8185 58.2499C39.017 58.2071 39.1364 57.9923 39.0965 57.8206C39.0569 57.606 38.8579 57.4771 38.6991 57.5202C31.6672 58.9366 22.4104 58.7648 17.4841 53.9576C14.9016 51.468 13.7892 47.9485 14.1069 43.5275C14.2262 42.0253 13.3124 40.6947 11.9617 40.3085C11.1273 40.0939 10.2932 40.2656 9.61774 40.7806C8.94231 41.2958 8.50531 42.1111 8.46547 43.0126C8.02846 49.5797 9.77669 54.8162 13.6701 58.5075C18.2387 62.9282 24.9928 64.4737 31.3097 64.4737Z" fill="#FFEAB6"/>
<path d="M88.2416 16.6579L88.0053 18.2627C87.9038 19.0646 87.2965 19.6846 86.554 19.7941L85.1363 20.0128L86.5876 20.3044C87.2624 20.4502 87.8027 21.0337 87.9376 21.7632L88.2073 23.331L88.4775 21.7993C88.6124 21.07 89.1186 20.4866 89.7938 20.3407L91.2788 20.0126L89.895 19.8302C89.1527 19.7207 88.5788 19.1009 88.4438 18.2985L88.2416 16.6579Z" fill="#F9C710"/>
<path d="M94.9021 26.1797L94.7333 27.3099C94.666 27.8568 94.2273 28.331 93.7209 28.4039L92.7419 28.5497L93.7884 28.7684C94.2609 28.8779 94.666 29.279 94.7333 29.7895L94.9021 30.8835L95.0711 29.7895C95.1725 29.279 95.5437 28.8779 96.0163 28.7684L97.0623 28.5497L96.0837 28.4039C95.5775 28.331 95.1386 27.8933 95.0711 27.3467L94.9021 26.1797Z" fill="#F9C710"/>
<path d="M91.1126 36.8125L90.9438 37.9429C90.8761 38.4898 90.4376 38.964 89.931 39.0369L88.9524 39.1827L89.9987 39.4014C90.4713 39.5109 90.8761 39.9122 90.9438 40.4225L91.1126 41.5165L91.2814 40.4225C91.3827 39.9122 91.754 39.5109 92.2266 39.4014L93.2728 39.1827L92.294 39.0369C91.7876 38.964 91.3489 38.5263 91.2814 37.9794L91.1126 36.8125Z" fill="#F9C710"/>
<path d="M39.7244 36.2624C39.7899 36.2624 39.8546 36.2367 39.9056 36.1865C39.9965 36.0965 40.0187 35.9511 39.9596 35.8345C38.655 33.2569 35.2768 31.0036 35.1335 30.909C35.0077 30.8257 34.8428 30.8685 34.7653 31.0048C34.6881 31.1409 34.7278 31.3191 34.8539 31.4024C34.8833 31.4219 37.4014 33.1016 38.8823 35.1332C36.9621 34.0883 32.4795 32.1944 27.4503 33.8332C27.3092 33.8793 27.2288 34.0408 27.2715 34.1938C27.3143 34.3468 27.4625 34.4336 27.6054 34.3873C34.0187 32.2972 39.5215 36.1745 39.5764 36.214C39.6214 36.2464 39.6732 36.2624 39.7244 36.2624Z" fill="#22213F"/>
<path d="M34.9942 30.9534C35.0275 30.9534 35.0611 30.9631 35.0911 30.9828C35.2335 31.077 38.594 33.3171 39.8889 35.8759C39.9305 35.9581 39.9148 36.0592 39.851 36.1226C39.7889 36.1835 39.6906 36.1916 39.6207 36.1418C39.5659 36.102 34.0562 32.1932 27.5821 34.304C27.4831 34.3357 27.3784 34.2755 27.3486 34.1686C27.3338 34.1167 27.3389 34.0619 27.3627 34.0142C27.3863 33.9665 27.4257 33.9318 27.4737 33.9161C32.5502 32.262 37.118 34.2702 38.8459 35.2105L39.1689 35.3862L38.9453 35.0793C37.461 33.0429 34.9212 31.3452 34.8959 31.3284C34.8077 31.27 34.7798 31.145 34.8338 31.0502C34.8691 30.9877 34.9308 30.9534 34.9942 30.9534ZM39.7244 36.3492C39.8114 36.3492 39.8949 36.3143 39.9596 36.2506C40.0785 36.1328 40.107 35.9446 40.0301 35.7926C38.7144 33.1935 35.3192 30.9298 35.1753 30.8347C35.0127 30.7262 34.7976 30.7822 34.6969 30.9592C34.5967 31.1365 34.6483 31.3684 34.8122 31.4762C34.8357 31.492 37.1013 33.0063 38.5858 34.88C36.6354 33.8828 32.2617 32.1747 27.4274 33.7501C27.3385 33.7791 27.2653 33.8436 27.2213 33.9323C27.1772 34.0209 27.168 34.1225 27.1948 34.2188C27.25 34.4167 27.4443 34.5296 27.6281 34.4701C34.032 32.3826 39.4774 36.2464 39.5314 36.286C39.5888 36.3274 39.6556 36.3492 39.7244 36.3492Z" fill="#22213F"/>
</svg>
