<svg width="93" height="123" viewBox="0 0 93 123" fill="none" xmlns="http://www.w3.org/2000/svg">
<path d="M46.3245 123L50.3557 122.311L47.3109 77.521L43.2794 78.2101L46.3245 123Z" fill="#FFEFC8"/>
<path d="M36.1908 123L32.1596 122.311L35.2044 77.521L39.2359 78.2101L36.1908 123Z" fill="#FFEAB6"/>
<path d="M86.0741 61.841L87.6073 62.5847C87.6073 62.5847 88.2183 61.2685 89.5671 61.8939C90.2677 62.2186 90.4121 62.8589 90.393 63.2864C90.3708 63.7829 90.1005 64.2297 89.6944 64.5031C89.231 64.8155 88.4761 64.9376 87.5293 64.25L86.4617 66.5508L87.9779 67.2864L88.3658 66.4498C88.3658 66.4498 90.7531 66.9195 91.865 64.5232C92.929 62.2308 91.1652 60.7228 90.3044 60.3053C89.6462 59.9859 87.3287 59.0609 86.0741 61.841Z" fill="#D7D9D9"/>
<path d="M86.616 70.1643L87.4725 68.6664L86.0936 67.8436L85.2373 69.3413L86.616 70.1643Z" fill="#D7D9D9"/>
<path d="M70.6418 87.2777L72.3736 87.7784C72.3736 87.7784 72.7848 86.2916 74.3035 86.702C75.0921 86.9152 75.3537 87.5585 75.4076 88.0089C75.4701 88.532 75.2646 89.0482 74.8874 89.4075C74.4567 89.8177 73.6885 90.0818 72.5796 89.5338L71.8607 92.1326L73.5731 92.6278L73.8345 91.6832C73.8345 91.6832 76.4121 91.7427 77.1606 89.0365C77.877 86.4471 75.772 85.1888 74.7999 84.9078C74.0565 84.6928 71.4733 84.144 70.6418 87.2777Z" fill="#D7D9D9"/>
<path d="M70.7989 95.2894L72.589 95.5403L72.8268 93.8331L71.0367 93.5822L70.7989 95.2894Z" fill="#D7D9D9"/>
<path d="M80.2466 80.1656L83.5957 79.7964C83.5957 79.7964 83.2925 76.9213 86.2095 76.5476C87.7245 76.3535 88.6184 77.2832 89.0204 78.0269C89.4869 78.8901 89.4831 79.9331 89.0743 80.8266C88.6072 81.8469 87.4542 82.8547 85.154 82.6968L85.6838 87.7221L88.9956 87.357L88.803 85.5302C88.803 85.5302 93.3184 83.7904 92.7664 78.5569C92.2383 73.5491 87.7239 72.8704 85.8438 73.0776C84.4062 73.236 79.5463 74.1313 80.2466 80.1656Z" fill="#F0F0F0"/>
<path d="M85.4789 93.0228L88.8563 92.8694L88.7098 89.6448L85.3324 89.7986L85.4789 93.0228Z" fill="#F0F0F0"/>
<path d="M0.000497818 10.2674C0.000497818 15.907 4.47202 20.4787 9.98786 20.4787C15.5034 20.4787 19.975 15.907 19.975 10.2674C19.975 4.62759 15.5034 0.0555611 9.98786 0.0555611C4.47202 0.0555611 0.000497818 4.62759 0.000497818 10.2674Z" fill="white"/>
<path d="M0.000482559 10.2674C0.000482559 10.2674 0.00788116 10.2113 0.0155373 10.102C0.0226841 9.98795 0.0328903 9.82695 0.0461617 9.61741C0.0522861 9.51042 0.0591755 9.39143 0.0668316 9.26044C0.0803585 9.1297 0.10767 8.98801 0.130129 8.83405C0.154118 8.67983 0.179895 8.51413 0.207458 8.33721C0.228386 8.15846 0.293207 7.97736 0.338125 7.78035C0.513964 6.99177 0.874826 6.05994 1.4442 5.072C2.01816 4.08849 2.84607 3.06089 3.97358 2.18855C4.11522 2.08078 4.25839 1.9717 4.40335 1.86132C4.55443 1.76007 4.71344 1.66744 4.87064 1.56854C5.03117 1.47512 5.18327 1.36161 5.35554 1.28202C5.52551 1.19852 5.69752 1.11423 5.87132 1.02917C5.95834 0.986893 6.04588 0.94462 6.13367 0.902086C6.22503 0.867902 6.31691 0.833717 6.4093 0.799534C6.59381 0.730644 6.78012 0.661232 6.96846 0.591299C7.15834 0.527106 7.35689 0.485877 7.55366 0.431079C7.75221 0.385152 7.94744 0.313653 8.15467 0.291994C8.5653 0.232499 8.98028 0.146126 9.41031 0.143777C9.62443 0.13621 9.84033 0.114812 10.0578 0.118205C10.275 0.129686 10.4942 0.141429 10.7147 0.15291C10.8249 0.160739 10.9362 0.160216 11.0464 0.17509L11.3775 0.227019C11.5985 0.264595 11.823 0.29095 12.0453 0.338181C12.4835 0.460043 12.9373 0.550853 13.3689 0.735341C13.8142 0.880949 14.2327 1.10588 14.6633 1.31699C14.8728 1.43337 15.0737 1.56854 15.2811 1.69458C15.3827 1.76112 15.4912 1.81774 15.5879 1.89263L15.8801 2.11653C16.2833 2.39965 16.6363 2.75376 17.0056 3.09481C17.3394 3.4724 17.6901 3.8419 17.9779 4.27063L18.2061 4.58298L18.4059 4.91673L18.6055 5.25257C18.6749 5.36321 18.7382 5.47751 18.7903 5.59858C18.902 5.83604 19.0143 6.07455 19.1271 6.3141C19.2165 6.56356 19.3063 6.81407 19.3964 7.06536C19.7197 8.08357 19.894 9.16519 19.9083 10.2659C19.8943 11.3668 19.7205 12.4487 19.3972 13.4674C19.3071 13.719 19.2172 13.9695 19.1279 14.2189C19.0151 14.4585 18.9028 14.697 18.791 14.9347L18.7063 15.1121L18.606 15.2807L18.4067 15.6168L18.2069 15.9508L17.9787 16.2629C17.6908 16.6916 17.3402 17.0614 17.0061 17.4393C16.6368 17.7803 16.2839 18.1347 15.8804 18.4178L15.5882 18.6414C15.4914 18.7166 15.383 18.7732 15.2814 18.8397C15.0739 18.9658 14.8731 19.101 14.6635 19.2173C14.233 19.4284 13.8142 19.6534 13.3689 19.7992C12.9373 19.9835 12.4833 20.0745 12.0451 20.1964C11.8228 20.2434 11.5982 20.27 11.3772 20.3076L11.0462 20.3595C10.9359 20.3744 10.8244 20.3736 10.7144 20.3814C10.4937 20.3932 10.2747 20.4049 10.0573 20.4164C9.83982 20.4198 9.62391 20.3984 9.40979 20.3908C8.97976 20.3885 8.5648 20.3018 8.15417 20.2423C7.94694 20.2207 7.7517 20.1492 7.55289 20.1032C7.35638 20.0484 7.15757 20.0072 6.96769 19.943C6.7796 19.8731 6.59331 19.8037 6.40854 19.7348C6.31641 19.7006 6.22453 19.6664 6.13291 19.6322C6.04511 19.5897 5.95758 19.5472 5.87055 19.5052C5.69701 19.4198 5.52499 19.3355 5.35477 19.2523C5.18276 19.1725 5.03066 19.0589 4.87013 18.9655C4.71292 18.8666 4.55367 18.774 4.40284 18.6727C4.25788 18.5624 4.11471 18.4533 3.97307 18.3455C2.84556 17.4732 2.01766 16.4456 1.44395 15.4621C0.874577 14.4741 0.513706 13.5423 0.337868 12.7537C0.29295 12.557 0.22813 12.3759 0.207458 12.1971C0.179895 12.0202 0.154118 11.8545 0.130129 11.7003C0.10767 11.5463 0.0803585 11.4046 0.0668316 11.2739C0.0591755 11.1432 0.0522861 11.0242 0.0461617 10.9172C0.0328903 10.7076 0.0226841 10.5466 0.0155373 10.4326C0.00788116 10.3233 0.000482559 10.2674 0.000482559 10.2674C0.000482559 10.2674 -0.00130844 10.3233 0.00201035 10.4329C0.00609207 10.5472 0.011713 10.7087 0.0193691 10.9187C0.0237083 11.0263 0.0285511 11.1458 0.0339108 11.2773C0.0451393 11.4085 0.0706615 11.551 0.0910778 11.706C0.113281 11.861 0.137014 12.0278 0.162535 12.206C0.181421 12.3858 0.244465 12.5684 0.287851 12.7668C0.456799 13.5613 0.812559 14.502 1.37989 15.5009C1.95207 16.4954 2.7815 17.5363 3.91616 18.422C4.05856 18.5313 4.20276 18.642 4.34874 18.7542C4.50059 18.857 4.66086 18.9512 4.81934 19.0519C4.98089 19.1466 5.13427 19.2617 5.30781 19.3431C5.47957 19.4279 5.65286 19.5138 5.82819 19.6004C5.91598 19.6435 6.00403 19.6865 6.09284 19.7298C6.18497 19.7645 6.27787 19.7995 6.37102 19.8345C6.55732 19.9047 6.74541 19.9754 6.93529 20.0469C7.1272 20.1124 7.32779 20.1549 7.52635 20.2108C7.7272 20.2577 7.92447 20.3305 8.13375 20.3532C8.54872 20.4146 8.96854 20.503 9.40341 20.5069C9.61983 20.515 9.83803 20.5369 10.058 20.5341C10.278 20.5231 10.4995 20.5119 10.7228 20.5007C10.8344 20.4931 10.9469 20.4939 11.0584 20.4793L11.3935 20.4273C11.6174 20.39 11.8447 20.3634 12.0698 20.3164C12.5136 20.1941 12.9733 20.1025 13.4107 19.9169C13.8617 19.77 14.2861 19.5433 14.7222 19.3298C14.9348 19.2124 15.1385 19.0759 15.3488 18.9486C15.4519 18.8815 15.5616 18.8241 15.6596 18.7482L15.9559 18.5222C16.3648 18.2357 16.7228 17.8776 17.0972 17.5322C17.4361 17.1504 17.7914 16.7757 18.0836 16.3417L18.3148 16.0257L18.5177 15.6875L18.7201 15.347L18.8214 15.1763L18.9074 14.9965C19.021 14.7559 19.1351 14.5141 19.2494 14.2716C19.34 14.0185 19.4311 13.7649 19.5225 13.5099C19.8509 12.4779 20.027 11.3811 20.0413 10.2659C20.027 9.15058 19.8502 8.05434 19.5217 7.02256C19.4303 6.76788 19.3392 6.51424 19.2486 6.26139C19.1343 6.01897 19.0202 5.77733 18.9069 5.53674C18.8541 5.4141 18.7895 5.2985 18.7193 5.18629L18.5169 4.84602L18.314 4.50809L18.0828 4.19183C17.7909 3.75787 17.4354 3.38368 17.0967 3.00165C16.7223 2.65642 16.3642 2.29841 15.9554 2.01215L15.6594 1.78591C15.5614 1.71023 15.4514 1.65283 15.3485 1.58576C15.1382 1.45842 14.9346 1.32195 14.7222 1.20452C14.2861 0.991328 13.8617 0.764567 13.4107 0.617655C12.9733 0.432123 12.5136 0.340269 12.0701 0.218147C11.845 0.171176 11.6176 0.14456 11.3938 0.107245L11.0587 0.0553164C10.9472 0.0407035 10.8346 0.0414861 10.7231 0.0339187C10.5 0.022698 10.2783 0.0114779 10.0585 0.000257267C9.83854 -0.00261313 9.62034 0.0193062 9.40393 0.0276564C8.96905 0.0313097 8.54949 0.11977 8.13452 0.181354C7.92524 0.204056 7.72771 0.276598 7.52712 0.323568C7.32856 0.379411 7.12771 0.421946 6.93605 0.487443C6.74617 0.558942 6.55783 0.629658 6.37152 0.699592C6.27837 0.734819 6.18573 0.769786 6.09335 0.804492C6.00479 0.847809 5.91649 0.890865 5.8287 0.93366C5.65363 1.02029 5.48008 1.10614 5.30858 1.19121C5.13503 1.27237 4.98166 1.38744 4.81986 1.48243C4.66137 1.58289 4.50136 1.67709 4.34925 1.77991C4.20353 1.89211 4.05908 2.00275 3.91667 2.11209C2.78201 2.99748 1.95257 4.03839 1.3804 5.03311C0.812809 6.03201 0.457054 6.97272 0.287851 7.76757C0.24472 7.96588 0.181421 8.14854 0.162535 8.32834C0.137014 8.50656 0.113281 8.67331 0.0910778 8.82831C0.0706615 8.98331 0.0451393 9.12579 0.0339108 9.25704C0.0285511 9.38856 0.0237083 9.50833 0.0193691 9.61558C0.011713 9.8259 0.00609207 9.98743 0.00201035 10.1017C-0.00130844 10.2113 0.000482559 10.2674 0.000482559 10.2674Z" fill="#0C2B34"/>
<path d="M6.43467 8.517H8.33215C8.33215 8.517 8.33215 6.88792 9.98769 6.85895C10.8477 6.84356 11.2933 7.41946 11.4745 7.86072C11.6848 8.37322 11.6213 8.95696 11.3395 9.43214C11.0177 9.97465 10.3123 10.4678 9.03372 10.2374V13.0843H10.9098V12.0494C10.9098 12.0494 13.5412 11.3537 13.5412 8.38888C13.5412 5.55188 11.0529 4.89299 9.98795 4.89299C9.17358 4.89299 6.39894 5.09444 6.43467 8.517Z" fill="#0C2B34"/>
<path d="M10.9325 13.8234H9.02834V15.6416H10.9325V13.8234Z" fill="#0C2B34"/>
<path d="M13.1282 22.2939C13.1282 23.1764 13.828 23.8919 14.6911 23.8919C15.5542 23.8919 16.254 23.1764 16.254 22.2939C16.254 21.4114 15.5542 20.6961 14.6911 20.6961C13.828 20.6961 13.1282 21.4114 13.1282 22.2939Z" fill="white"/>
<path d="M13.1282 22.2939C13.1422 22.2947 13.1376 22.1517 13.2022 21.9103C13.2663 21.6734 13.4247 21.3276 13.7741 21.062C14.1115 20.7958 14.6663 20.6473 15.2025 20.8519C15.4667 20.95 15.7186 21.1342 15.8972 21.3889C16.0812 21.64 16.1843 21.9617 16.1874 22.2936C16.1843 22.6258 16.0812 22.9478 15.8972 23.1988C15.7186 23.4535 15.4667 23.638 15.2025 23.7359C14.6661 23.9407 14.1113 23.7922 13.7739 23.5258C13.4247 23.2604 13.266 22.9144 13.2022 22.6777C13.1376 22.4364 13.1422 22.2931 13.1282 22.2939C13.1236 22.2939 13.1208 22.3291 13.12 22.3967C13.1177 22.464 13.1251 22.5645 13.1519 22.6905C13.2024 22.9389 13.3538 23.31 13.717 23.6023C14.0676 23.895 14.6612 24.0686 15.2444 23.8536C15.5315 23.7507 15.8063 23.5532 16.0021 23.2779C16.2035 23.006 16.3175 22.655 16.3203 22.2936C16.3175 21.9327 16.2032 21.5815 16.0021 21.3099C15.8063 21.0346 15.5315 20.837 15.2444 20.7342C14.6612 20.5195 14.0676 20.693 13.717 20.9855C13.3538 21.278 13.2024 21.6488 13.1519 21.8972C13.1251 22.0233 13.1177 22.1237 13.12 22.1913C13.1208 22.2589 13.1236 22.2939 13.1282 22.2939Z" fill="#0C2B34"/>
<path d="M12.6757 57.8746C10.0785 66.8856 9.47055 76.4226 11.0337 85.6896C11.2266 86.8341 10.7351 88.0086 9.56319 88.3379C8.54975 88.6226 7.16753 87.9864 6.97306 86.8343C5.2795 76.7942 5.79553 66.5121 8.61534 56.7301C9.37969 54.0781 13.4449 55.2069 12.6757 57.8746Z" fill="#FFEAB6"/>
<path d="M0.737255 46.7667C1.96764 42.4468 5.36072 38.9297 9.39903 37.7889C8.58665 34.699 9.87319 31.1309 11.4715 28.4243C13.0697 25.7178 15.9548 23.7715 18.8853 23.2752C21.9283 22.7595 23.8173 23.0402 26.7659 24.0049C28.526 20.5581 31.9092 18.6889 35.5224 18.2462C39.1359 17.8035 43.0272 19.8828 44.4917 23.4885C45.0157 19.6977 49.1936 17.4499 52.6426 18.3055C56.0918 19.1609 58.7111 22.29 60.3259 25.7006L13.9921 76.664C9.88526 78.3382 4.81913 76.5959 2.35573 72.6624C-0.107933 68.7286 0.269928 62.9855 3.22375 59.4703C0.480896 56.0632 -0.493134 51.0865 0.737255 46.7667Z" fill="#FEC130"/>
<path d="M76.4555 32.1512C75.0732 28.196 72.5418 25.1962 68.6738 23.5598C64.773 21.9098 60.3699 21.8849 56.213 22.6356C54.509 22.9436 52.7583 23.4115 51.4447 24.5633C50.1311 25.7148 49.3935 27.723 50.1506 29.314C46.5468 27.2336 41.8721 27.2481 38.281 29.351C34.6895 31.4537 32.3114 35.5685 32.2424 39.7993C28.4875 39.4924 24.5467 40.341 21.5675 42.698C18.5882 45.0549 16.7454 49.0456 17.4203 52.8347C14.965 52.6155 12.6105 54.2315 11.3035 56.3679C9.99622 58.5041 9.5693 61.0781 9.39559 63.5918C9.28827 65.1434 9.27279 66.7413 9.77974 68.2081C10.0264 68.9218 10.3938 69.5947 10.5541 70.3338C10.7485 71.2283 10.6276 72.1574 10.6008 73.0731C10.4764 77.3095 12.5386 81.5497 15.9175 84.0049C19.2962 86.4598 23.8908 87.0567 27.7627 85.5436C32.0632 90.0831 39.7698 90.649 44.6604 86.7839C47.8422 87.8753 51.2125 88.6617 54.541 88.2238C56.239 88.0006 57.9181 87.424 59.3686 86.4869C60.6979 85.6281 61.4602 83.9684 62.7118 83.1823C63.5746 82.6401 64.5143 82.7863 65.4773 82.9322C65.9412 83.0025 66.4103 83.0731 66.8792 83.0664C68.5625 83.0433 70.2437 82.6202 71.736 81.8209C74.582 80.2968 76.6993 77.4552 77.4725 74.2671C77.6289 73.6213 77.7452 72.936 78.143 72.4096C78.5069 71.9281 79.0587 71.6442 79.5728 71.3375C82.7785 69.4254 85.0889 66.0153 85.7132 62.2747C86.3374 58.5344 85.2637 54.5336 82.8598 51.643C82.8598 51.643 85.2868 45.2784 83.0031 39.5782C80.7195 33.8782 76.4555 32.1512 76.4555 32.1512Z" fill="#FEC130"/>
<path d="M1.62566 46.918C2.82234 42.7166 6.12246 39.2958 10.0501 38.1863C9.26 35.181 10.5113 31.7107 12.0658 29.0782C13.6203 26.4458 16.4263 24.5529 19.2765 24.0702C22.2361 23.5686 24.0734 23.8416 26.9412 24.7799C28.6531 21.4276 31.9435 19.6096 35.4577 19.179C38.9722 18.7484 42.757 20.7708 44.1813 24.2776C44.691 20.5907 48.7544 18.4045 52.1089 19.2367C55.4636 20.0686 58.0111 23.112 59.5816 26.4291L14.5173 75.9963C10.523 77.6246 5.5957 75.93 3.19979 72.1043C0.803635 68.2783 1.17114 62.6925 4.04403 59.2736C1.37633 55.9598 0.428989 51.1195 1.62566 46.918Z" fill="#FFD26A"/>
<path d="M75.2694 32.703C73.9249 28.8562 71.4629 25.9385 67.7009 24.347C63.9069 22.7422 59.6245 22.718 55.5815 23.4481C53.9242 23.7476 52.2214 24.2027 50.9438 25.323C49.6663 26.443 48.9489 28.3961 49.6851 29.9435C46.1801 27.9202 41.6335 27.9343 38.1408 29.9796C34.6477 32.0246 32.3347 36.0267 32.2676 40.1416C28.6156 39.843 24.7828 40.6684 21.8852 42.9608C18.9875 45.2532 17.1952 49.1345 17.8516 52.8199C15.4636 52.6067 13.1736 54.1783 11.9024 56.2563C10.631 58.3339 10.2158 60.8374 10.0468 63.2822C9.94242 64.7913 9.92736 66.3455 10.4204 67.772C10.6603 68.4662 11.0176 69.1206 11.1736 69.8395C11.3627 70.7095 11.245 71.6132 11.219 72.5038C11.098 76.6241 13.1037 80.7481 16.39 83.136C19.6761 85.5236 24.1448 86.1043 27.9107 84.6325C32.0933 89.0477 39.5888 89.5981 44.3454 85.8389C47.4401 86.9004 50.718 87.6652 53.9553 87.2394C55.6068 87.0223 57.2398 86.4615 58.6506 85.55C59.9435 84.7147 60.6849 83.1005 61.9023 82.3359C62.7414 81.8086 63.6553 81.9508 64.5919 82.0927C65.0431 82.1611 65.4994 82.2297 65.9555 82.2232C67.5927 82.2008 69.2278 81.7893 70.6792 81.0119C73.4472 79.5295 75.5065 76.7658 76.2586 73.665C76.4107 73.0369 76.5237 72.3704 76.9106 71.8585C77.2646 71.3901 77.8013 71.114 78.3012 70.8157C81.4191 68.956 83.6663 65.6393 84.2734 62.0012C84.8805 58.3634 83.8362 54.4722 81.4983 51.6607C81.4983 51.6607 83.8587 45.4706 81.6376 39.9265C79.4165 34.3827 75.2694 32.703 75.2694 32.703Z" fill="#FFD26A"/>
<path d="M42.8037 86.8612C43.3447 86.5664 43.8628 86.2269 44.3526 85.8415C44.3503 85.8404 44.348 85.8399 44.3454 85.8388C43.858 86.2243 43.3419 86.564 42.8034 86.8591L42.8037 86.8612ZM57.38 86.2511C57.8276 86.0437 58.2612 85.806 58.6757 85.5382C59.9683 84.7032 60.7099 83.089 61.9273 82.3242C62.0087 82.273 62.0909 82.2281 62.1738 82.189C62.0825 82.2307 61.9919 82.2795 61.9023 82.3359C60.6849 83.1005 59.9435 84.7147 58.6507 85.55C58.2438 85.8127 57.8187 86.0463 57.38 86.2511ZM70.1904 81.2566C70.364 81.1763 70.5352 81.0907 70.7042 81.0004C73.4722 79.518 75.5315 76.7543 76.2833 73.6532C76.4357 73.0251 76.5485 72.3589 76.9356 71.8469C77.2896 71.3785 77.8263 71.1022 78.3263 70.8039C81.4442 68.9444 83.6913 65.6276 84.2984 61.9897C84.5398 60.5443 84.5161 59.0598 84.2586 57.6181C84.2545 57.6392 84.2507 57.6601 84.2469 57.681C84.4957 59.1063 84.5118 60.5733 84.2734 62.0012C83.6663 65.6393 81.4191 68.9559 78.3013 70.8157C77.8013 71.1139 77.2646 71.39 76.9106 71.8584C76.5237 72.3704 76.4107 73.0369 76.2586 73.665C75.5065 76.7658 73.4472 79.5294 70.6792 81.0119C70.5184 81.098 70.3556 81.1797 70.1904 81.2566ZM11.3384 76.7767C11.5053 76.7767 11.6725 76.772 11.8391 76.7626C11.8218 76.7089 11.8044 76.6546 11.7878 76.6009C11.6301 76.6092 11.4716 76.6134 11.3137 76.6134C10.9388 76.6134 10.5636 76.5899 10.1905 76.5437C10.1913 76.5967 10.1923 76.6512 10.1933 76.7042C10.5736 76.7522 10.9564 76.7767 11.3384 76.7767ZM6.00506 75.1265C6.00531 75.078 6.00532 75.0287 6.00557 74.9799C4.9 74.2429 3.93174 73.273 3.1998 72.1042C2.47551 70.948 2.00388 69.631 1.77752 68.2618C1.99215 69.6897 2.47169 71.0659 3.22456 72.2684C3.95113 73.428 4.90996 74.3919 6.00506 75.1265Z" fill="#A8ABAB"/>
<path d="M11.3137 76.6134C11.4716 76.6134 11.6301 76.6092 11.7878 76.6009C11.3785 75.2789 11.1782 73.8912 11.219 72.5037C11.2218 72.4028 11.2259 72.3015 11.2307 72.2003C8.11156 72.1629 4.98499 70.5033 3.22455 67.6927C2.56254 66.6353 2.11235 65.4433 1.86709 64.2002C1.60806 65.5328 1.57564 66.9203 1.77751 68.2618C2.00388 69.631 2.47551 70.948 3.19979 72.1042C3.93173 73.273 4.9 74.2429 6.00557 74.9799C7.27013 75.8227 8.71411 76.3608 10.1905 76.5437C10.5636 76.5899 10.9388 76.6134 11.3137 76.6134Z" fill="#FFD26A"/>
<path d="M42.172 87.1804C42.3854 87.0807 42.5965 86.974 42.8037 86.8612L42.8034 86.8591C42.5962 86.9729 42.3856 87.0799 42.172 87.1804Z" fill="#011721"/>
<path d="M36.9009 88.3246C38.7175 88.3246 40.5305 87.9473 42.172 87.1804C42.3856 87.0799 42.5962 86.9729 42.8034 86.8591C43.3419 86.564 43.8579 86.2243 44.3454 85.8388C44.3479 85.8399 44.3502 85.8404 44.3525 85.8414C44.3584 85.8368 44.3645 85.8318 44.3704 85.8274C46.8687 86.684 49.4863 87.3476 52.1058 87.3476C52.7311 87.3476 53.3566 87.3098 53.9803 87.2278C55.1466 87.0744 56.3037 86.7498 57.38 86.2511C57.8187 86.0463 58.2438 85.8127 58.6506 85.55C59.9435 84.7147 60.6849 83.1005 61.9023 82.3359C61.9918 82.2795 62.0824 82.2307 62.1738 82.189C62.551 82.0105 62.9417 81.9502 63.3419 81.9502C63.7587 81.9502 64.1854 82.0157 64.6169 82.0812C65.0485 82.1465 65.4851 82.212 65.9213 82.212C65.941 82.212 65.9609 82.212 65.9805 82.2117C67.4273 82.1916 68.8723 81.868 70.1904 81.2566C70.3556 81.1797 70.5184 81.098 70.6792 81.0119C73.4472 79.5294 75.5064 76.7658 76.2586 73.6649C76.4107 73.0368 76.5237 72.3704 76.9106 71.8584C77.2646 71.39 77.8013 71.1139 78.3012 70.8157C81.4191 68.9559 83.6663 65.6393 84.2734 62.0012C84.5118 60.5733 84.4957 59.1063 84.2469 57.681C83.5764 61.2134 81.3673 64.4144 78.3263 66.2283C77.8263 66.5265 77.2896 66.8029 76.9356 67.2713C76.5485 67.7832 76.4357 68.4494 76.2833 69.0775C75.5315 72.1786 73.4722 74.9423 70.7042 76.4247C69.2525 77.2021 67.6177 77.6133 65.9805 77.636C65.9609 77.6363 65.9412 77.6363 65.9213 77.6363C65.4851 77.6363 65.0485 77.5708 64.6169 77.5055C64.1854 77.44 63.7587 77.3745 63.3419 77.3745C62.9948 77.3745 62.6544 77.42 62.3239 77.5486C62.3037 77.8586 62.2716 78.1634 62.2289 78.4606C62.1427 79.0214 62.0186 79.5547 61.8745 80.0547C61.5761 81.0521 61.1933 81.9093 60.825 82.5992C60.457 83.2902 60.1168 83.8238 59.8708 84.1837C59.7503 84.3655 59.6477 84.5002 59.5809 84.5933C59.5148 84.6831 59.4773 84.7303 59.4719 84.7303L59.4717 84.7301C59.4678 84.7275 59.4979 84.675 59.5589 84.5777C59.6278 84.4691 59.7169 84.3287 59.8277 84.1542C60.0602 83.7862 60.3868 83.2469 60.7418 82.5541C61.0976 81.8626 61.4682 81.008 61.7571 80.019C61.8964 79.5232 62.0166 78.9953 62.1001 78.4408C62.1383 78.1683 62.1677 77.8899 62.1876 77.6068C62.1001 77.6475 62.0133 77.6945 61.9273 77.7485C60.7099 78.5133 59.9683 80.1273 58.6757 80.9626C57.2649 81.874 55.6318 82.4351 53.9803 82.6522C53.3563 82.7341 52.7311 82.7719 52.1055 82.7719C49.4863 82.7719 45.785 80.9083 43.287 80.0516C41.1635 81.7297 39.036 80.9798 36.3591 80.9795C33.0401 80.9793 30.251 82.4891 27.9357 80.0451C26.555 80.5847 25.0802 80.8485 23.6035 80.8483C21.0524 80.8483 18.4963 80.061 16.415 78.5485C14.2835 76.9998 12.6915 74.7202 11.8682 72.1851C11.6919 72.1958 11.5153 72.201 11.3384 72.201C11.3027 72.201 11.2664 72.2008 11.2307 72.2003C11.2259 72.3015 11.2218 72.4027 11.219 72.5037C11.1781 73.8912 11.3785 75.2789 11.7878 76.6008C11.8044 76.6546 11.8218 76.7089 11.8391 76.7626C11.8488 76.7621 11.8585 76.7613 11.8682 76.7608C12.6915 79.2959 14.2835 81.5755 16.415 83.1242C18.4965 84.6367 21.0522 85.4239 23.6035 85.4239C25.0799 85.4239 26.5553 85.1604 27.9357 84.6207C30.2512 87.065 33.5817 88.3246 36.9009 88.3246Z" fill="#FFD26A"/>
<path d="M57.6762 60.1064C57.6803 60.1088 57.7148 60.0605 57.7771 59.9671C57.8421 59.8758 57.922 59.7299 58.0499 59.56C58.2905 59.2098 58.6739 58.7258 59.2175 58.2015C59.7595 57.6763 60.4802 57.1278 61.363 56.675C62.2432 56.2212 63.2931 55.881 64.4263 55.7659C65.5604 55.6644 66.654 55.8003 67.6013 56.0795C68.551 56.3574 69.3584 56.7603 69.9863 57.1739C70.6154 57.5865 71.0796 57.9894 71.3794 58.2882C71.5359 58.4309 71.6405 58.559 71.7214 58.6365C71.7993 58.7167 71.8421 58.7574 71.8455 58.7542C71.849 58.7511 71.813 58.7044 71.7413 58.618C71.6668 58.5345 71.5675 58.3999 71.4159 58.2503C71.1253 57.9385 70.6666 57.5205 70.0373 57.0933C69.4095 56.6648 68.5961 56.2476 67.6353 55.9592C66.677 55.6696 65.5668 55.5274 64.4135 55.6304C63.2623 55.7474 62.197 56.097 61.3079 56.5631C60.4159 57.0286 59.6921 57.592 59.1529 58.1319C58.6116 58.6707 58.2364 59.1683 58.0073 59.5298C57.8853 59.7056 57.812 59.8565 57.7541 59.9528C57.6992 60.0514 57.6722 60.1041 57.6762 60.1064Z" fill="#C48A01"/>
<path d="M54.1255 75.5617C54.1278 75.5615 54.1273 75.5304 54.1243 75.4693C54.1199 75.4012 54.1141 75.3117 54.1069 75.1982C54.0975 75.0764 54.086 74.9297 54.0725 74.7577C54.0454 74.5837 54.014 74.3849 53.979 74.162C53.8987 73.7155 53.7637 73.1759 53.5559 72.5658C53.3285 71.9648 53.0509 71.2814 52.6244 70.5931C51.7996 69.2137 50.4972 67.7104 48.6345 66.6786C47.7103 66.1609 46.6489 65.7838 45.5153 65.6051C44.3824 65.4242 43.1796 65.437 41.9827 65.6552C39.585 66.1006 37.479 67.3545 36.0705 68.9556C34.6449 70.5516 33.9051 72.4413 33.7338 74.0563C33.5547 75.6857 33.9081 77.0042 34.2532 77.8327C34.6089 78.6685 34.9312 79.0571 34.9312 79.0571C34.9333 79.0558 34.9185 79.0281 34.8876 78.9759C34.8529 78.9177 34.8075 78.8413 34.7495 78.7447C34.6347 78.5378 34.4668 78.2309 34.3011 77.8126C33.9729 76.9841 33.6381 75.6752 33.8272 74.0675C34.0082 72.4734 34.748 70.6116 36.1611 69.0396C37.5563 67.4638 39.6378 66.229 42.0067 65.7888C43.1891 65.5735 44.3765 65.5599 45.4951 65.7366C46.6145 65.9114 47.6616 66.2804 48.5763 66.7887C50.4194 67.8015 51.7166 69.2823 52.5445 70.6434C52.9725 71.3227 53.2537 71.998 53.4862 72.5919C53.6991 73.1952 53.8407 73.7294 53.9283 74.1719C53.9676 74.3932 54.0028 74.5905 54.0334 74.763C54.0518 74.9339 54.0674 75.0795 54.0801 75.2006C54.0929 75.3133 54.1028 75.4023 54.1105 75.4701C54.1181 75.5307 54.1232 75.5617 54.1255 75.5617Z" fill="#C48A01"/>
<path d="M21.0315 78.5451C21.0295 78.5496 21.0675 78.5712 21.1418 78.6085C21.2176 78.643 21.3245 78.7064 21.4735 78.7602C21.7655 78.8825 22.2073 79.0187 22.7692 79.0936C23.3302 79.1698 24.0147 79.1638 24.7494 79.002C25.4824 78.8423 26.2618 78.5104 26.9588 77.9786C27.6486 77.4369 28.1728 76.7597 28.5219 76.0815C28.8733 75.4023 29.065 74.7301 29.1451 74.1573C29.2271 73.584 29.2186 73.1122 29.1827 72.7918C29.1724 72.6308 29.1418 72.5082 29.1301 72.4244C29.1148 72.3412 29.1048 72.2978 29.1002 72.2986C29.0624 72.2991 29.238 73.0115 29.0522 74.1419C28.9616 74.7038 28.7641 75.36 28.414 76.0223C28.0661 76.6835 27.5511 77.3419 26.8784 77.8703C26.199 78.3886 25.4398 78.7168 24.7229 78.8797C24.0047 79.0448 23.3333 79.0613 22.78 78.9981C21.6652 78.8742 21.0422 78.5083 21.0315 78.5451Z" fill="#C48A01"/>
<path d="M59.7896 28.0644C59.7988 28.0628 59.7848 27.9436 59.7516 27.7283C59.7212 27.5128 59.6564 27.2038 59.5577 26.8275C59.4609 26.4505 59.3152 26.0095 59.1253 25.5314C58.9293 25.056 58.6856 24.545 58.3875 24.0331C58.0851 23.5234 57.7579 23.0634 57.4392 22.6634C57.1151 22.2678 56.8027 21.9293 56.5222 21.665C56.2435 21.3993 56.0072 21.1961 55.8354 21.0674C55.665 20.9367 55.5685 20.8681 55.5629 20.8754C55.5473 20.8955 55.9202 21.1893 56.4569 21.7341C56.7266 22.005 57.0288 22.3468 57.3442 22.7424C57.6543 23.1425 57.9746 23.5994 58.2734 24.103C58.5682 24.6092 58.8124 25.1126 59.0125 25.5802C59.2065 26.0504 59.3599 26.4836 59.4673 26.8541C59.6863 27.5945 59.7654 28.0691 59.7896 28.0644Z" fill="#C48A01"/>
<path d="M69.7599 32.0621C69.7666 32.089 70.2185 31.9543 70.9673 31.8737C71.3415 31.8304 71.7904 31.8168 72.2865 31.8374C72.7824 31.8669 73.3257 31.9361 73.8844 32.0676C74.442 32.2056 74.9583 32.3922 75.4149 32.5926C75.8676 32.8014 76.2632 33.0187 76.5786 33.2285C77.2131 33.6432 77.5584 33.9701 77.576 33.949C77.5821 33.9422 77.4986 33.8582 77.3414 33.7121C77.2638 33.6374 77.1661 33.5498 77.0446 33.4579C76.9242 33.3647 76.7917 33.2515 76.6302 33.1482C76.3175 32.9256 75.9214 32.6962 75.4649 32.4783C75.0045 32.2688 74.4813 32.0754 73.915 31.9356C73.3477 31.8017 72.7951 31.7354 72.2919 31.7122C71.7881 31.6984 71.3333 31.7224 70.9566 31.7782C70.767 31.7967 70.5988 31.8374 70.4503 31.8656C70.3015 31.8922 70.1757 31.9262 70.0736 31.9572C69.8692 32.0162 69.7576 32.053 69.7599 32.0621Z" fill="#C48A01"/>
<path d="M69.7599 53.7075C69.7571 53.7112 69.7915 53.7435 69.8599 53.8017C69.9299 53.8578 70.0274 53.9492 70.1672 54.0465C70.4393 54.2521 70.857 54.5198 71.4091 54.7777C71.9603 55.0365 72.6537 55.2688 73.4489 55.3922C74.2424 55.5167 75.1389 55.5185 76.0513 55.3382C76.9624 55.1479 77.7901 54.7957 78.4768 54.3701C79.1656 53.945 79.7194 53.4591 80.1316 53.0045C80.5453 52.5502 80.8311 52.1398 81.0057 51.8433C81.0983 51.6988 81.1542 51.5761 81.1979 51.4971C81.2392 51.4164 81.2591 51.3731 81.255 51.371C81.2448 51.365 81.1496 51.5297 80.9623 51.8146C80.7757 52.1001 80.481 52.4978 80.0637 52.938C79.648 53.3787 79.0954 53.85 78.4143 54.2626C77.7347 54.6756 76.9198 55.018 76.0255 55.2048C75.1295 55.3818 74.249 55.3841 73.4666 55.2682C72.6828 55.1534 71.9963 54.9342 71.4471 54.6897C70.8969 54.446 70.4758 54.1939 70.1966 54.0029C69.9166 53.8129 69.7673 53.6981 69.7599 53.7075Z" fill="#C48A01"/>
<path d="M76.0202 65.9349C75.996 65.9454 76.1963 66.3994 76.4058 67.1692C76.513 67.5531 76.6087 68.0191 76.6835 68.5405C76.7501 69.0634 76.7915 69.6425 76.7812 70.2507C76.7652 70.8592 76.6991 71.4359 76.6097 71.9552C76.5125 72.4729 76.3969 72.9343 76.2731 73.3129C76.0307 74.0723 75.8109 74.5169 75.8347 74.5284C75.8428 74.5326 75.9015 74.4238 76.0008 74.2228C76.0516 74.1229 76.1106 73.9987 76.1685 73.8502C76.2274 73.702 76.302 73.5358 76.3622 73.3437C76.4985 72.9653 76.6251 72.5014 76.7299 71.9787C76.8269 71.4545 76.8979 70.8702 76.9142 70.2538C76.9244 69.6372 76.879 69.0506 76.8045 68.5227C76.7223 67.9956 76.6159 67.5265 76.4962 67.1423C76.4441 66.9477 76.377 66.7783 76.3244 66.6278C76.2729 66.4767 76.2195 66.3501 76.1728 66.2478C76.0825 66.0425 76.0286 65.9313 76.0202 65.9349Z" fill="#C48A01"/>
<path d="M59.4717 84.73C59.4752 84.7329 59.5127 84.6857 59.5809 84.5933C59.6478 84.5002 59.7503 84.3655 59.8708 84.1836C60.1168 83.8238 60.457 83.2901 60.825 82.5992C61.1933 81.9092 61.5761 81.052 61.8745 80.0547C62.0186 79.5547 62.1427 79.0213 62.2289 78.4606C62.3096 77.899 62.3519 77.3114 62.3499 76.7096C62.3366 74.2946 61.6825 72.1668 61.0144 70.7567C60.6824 70.0464 60.3618 69.4992 60.1227 69.1341C60.0071 68.9488 59.904 68.8142 59.8389 68.7197C59.772 68.6266 59.735 68.5791 59.7312 68.5817C59.7276 68.5846 59.7572 68.6373 59.817 68.7354C59.8746 68.8345 59.9706 68.9736 60.0791 69.1626C60.3039 69.5349 60.6104 70.0866 60.9292 70.7971C61.5713 72.2086 62.2039 74.3194 62.2169 76.7104C62.219 77.3054 62.1781 77.8854 62.1001 78.4407C62.0166 78.9952 61.8964 79.5231 61.7571 80.0189C61.4682 81.0079 61.0976 81.8625 60.7418 82.554C60.3868 83.2468 60.0602 83.7862 59.8277 84.1541C59.7169 84.3287 59.6278 84.4691 59.5589 84.5777C59.4979 84.675 59.4678 84.7274 59.4717 84.73Z" fill="#C48A01"/>
<path d="M62.0401 73.69C62.0373 73.6957 62.1327 73.7531 62.3259 73.7972C62.5178 73.8429 62.8111 73.8544 63.1564 73.7771C63.5029 73.7041 63.8921 73.5378 64.3002 73.3163C64.7088 73.0932 65.1327 72.7978 65.5313 72.4335C66.3352 71.7052 66.8574 70.8462 67.1404 70.1957C67.2798 69.8676 67.3694 69.5931 67.4204 69.4008C67.4684 69.2072 67.4903 69.0997 67.4816 69.0973C67.4566 69.0898 67.3543 69.5193 67.0552 70.1549C66.7543 70.7862 66.2306 71.6183 65.443 72.332C65.0521 72.6892 64.6391 72.9815 64.242 73.2064C63.8436 73.4301 63.4672 73.6013 63.1349 73.6837C62.7138 73.7975 62.3912 73.7607 62.2085 73.7239C62.0995 73.702 62.0406 73.6801 62.0401 73.69Z" fill="#C48A01"/>
<path d="M43.5604 86.2621C43.5652 86.2699 43.6482 86.2258 43.7944 86.1389C43.9419 86.0536 44.1471 85.9166 44.3934 85.736C44.8849 85.3751 45.5257 84.8115 46.113 84.0767C46.6984 83.34 47.1088 82.5843 47.3551 82.0191C47.4784 81.7362 47.5682 81.503 47.62 81.338C47.6738 81.1739 47.6991 81.082 47.6907 81.0787C47.6692 81.0706 47.5363 81.4275 47.2701 81.9779C47.0042 82.5277 46.5869 83.2646 46.0099 83.9908C45.4308 84.7152 44.8096 85.282 44.3367 85.6593C43.8633 86.0369 43.5481 86.2423 43.5604 86.2621Z" fill="#C48A01"/>
<path d="M26.4322 78.1279C26.4231 78.1276 26.4139 78.226 26.4057 78.4037C26.3968 78.5817 26.3912 78.8392 26.3922 79.1576C26.397 79.793 26.4264 80.6807 26.6387 81.6358C26.8505 82.5924 27.2402 83.3982 27.5743 83.9363C27.745 84.2037 27.8905 84.4154 28.0028 84.5521C28.112 84.6912 28.1758 84.765 28.183 84.7593C28.2029 84.7442 27.9689 84.431 27.6547 83.8864C27.3446 83.3411 26.9766 82.5457 26.7684 81.6052C26.5593 80.6658 26.5147 79.788 26.4861 79.1552C26.4611 78.5214 26.4522 78.1279 26.4322 78.1279Z" fill="#C48A01"/>
<path d="M15.6305 64.6365C15.6282 64.6323 15.5871 64.6524 15.5103 64.6944C15.4348 64.7377 15.3199 64.7975 15.1801 64.8875C14.9029 65.071 14.5094 65.357 14.0954 65.7927C13.6828 66.2277 13.2543 66.8133 12.9021 67.5309C12.726 67.8897 12.5706 68.2801 12.4305 68.6918C12.297 69.106 12.1819 69.542 12.0875 69.9937C11.7233 71.808 11.7416 73.4911 11.7751 74.6928C11.795 75.2953 11.8241 75.782 11.8458 76.1181C11.857 76.2731 11.8664 76.401 11.8738 76.5048C11.8818 76.5933 11.8881 76.6397 11.8927 76.6395C11.8973 76.6392 11.8999 76.5925 11.9006 76.5038C11.8999 76.3996 11.8989 76.2715 11.8973 76.1157C11.8904 75.759 11.8807 75.2771 11.869 74.6905C11.8596 73.4909 11.8567 71.8169 12.2176 70.0216C12.311 69.5746 12.4238 69.1435 12.554 68.7341C12.6908 68.3273 12.8413 67.9414 13.0118 67.5867C13.3525 66.877 13.7655 66.2958 14.1636 65.859C14.5625 65.4211 14.9425 65.1271 15.2087 64.9316C15.4812 64.7456 15.6356 64.6459 15.6305 64.6365Z" fill="#C48A01"/>
<path d="M18.6134 67.5296C18.6188 67.522 18.5251 67.4403 18.3516 67.2997C18.177 67.1609 17.9295 66.9526 17.6306 66.6883C17.0321 66.1607 16.2474 65.3802 15.4953 64.4168C14.745 63.4515 14.1764 62.4946 13.8071 61.7804C13.622 61.4235 13.4791 61.1302 13.3857 60.925C13.2905 60.7207 13.2336 60.6093 13.2252 60.6127C13.2168 60.6164 13.2573 60.7348 13.3382 60.9464C13.4174 61.1589 13.548 61.4597 13.7236 61.8243C14.0733 62.5539 14.6345 63.528 15.3912 64.5016C16.1499 65.4731 16.9528 66.2502 17.5701 66.7619C17.8784 67.0184 18.1359 67.2157 18.3207 67.342C18.5045 67.4701 18.6083 67.5372 18.6134 67.5296Z" fill="#C48A01"/>
<path d="M20.1493 31.8904C20.1452 31.8883 20.126 31.9222 20.0934 31.9888C20.0622 32.0558 20.0107 32.1526 19.9594 32.2839C19.8491 32.5433 19.7123 32.9297 19.5934 33.4219C19.352 34.3994 19.2354 35.8409 19.6189 37.3494C20.0023 38.8584 20.7909 40.0596 21.4672 40.7931C21.8053 41.1636 22.109 41.4332 22.3287 41.6046C22.4359 41.6939 22.527 41.7528 22.5863 41.7959C22.6465 41.8376 22.6794 41.8577 22.682 41.8541C22.6886 41.8449 22.5694 41.7474 22.3617 41.5639C22.1532 41.381 21.8622 41.1031 21.5368 40.7286C20.8858 39.9868 20.1245 38.7979 19.7476 37.3152C19.3709 35.833 19.4696 34.4156 19.685 33.4435C19.7909 32.9545 19.9127 32.5668 20.0076 32.3032C20.1018 32.0394 20.1592 31.8948 20.1493 31.8904Z" fill="#C48A01"/>
<path d="M15.6305 34.4638C15.631 34.4876 15.8845 34.4826 16.2846 34.5427C16.6843 34.6014 17.2294 34.7462 17.7778 35.0327C18.3253 35.3216 18.7581 35.6903 19.0376 35.988C19.3185 36.2855 19.4622 36.499 19.4814 36.4857C19.4931 36.4789 19.3762 36.2443 19.1067 35.9231C18.8395 35.6021 18.4023 35.2091 17.8386 34.9119C17.2738 34.6168 16.707 34.4826 16.2958 34.4474C15.8837 34.4106 15.6292 34.4503 15.6305 34.4638Z" fill="#C48A01"/>
<path d="M7.39545 62.862C7.39978 62.8605 7.38269 62.7965 7.34645 62.677C7.31327 62.5565 7.24743 62.3845 7.18898 62.1546C7.05704 61.6998 6.9006 61.0297 6.80005 60.1886C6.6995 59.3487 6.66964 58.3333 6.80541 57.2222C6.93454 56.1127 7.23722 54.9071 7.76372 53.7344C8.02939 53.1491 8.33692 52.6016 8.66971 52.0972C9.00837 51.5967 9.37307 51.1422 9.74363 50.7307C10.4985 49.921 11.2797 49.2926 11.9874 48.8532C12.6938 48.4111 13.3069 48.1243 13.7412 47.9584C13.9546 47.8642 14.1294 47.8167 14.243 47.7702C14.3583 47.7277 14.4183 47.7032 14.417 47.6987C14.4157 47.694 14.3532 47.7097 14.2351 47.7439C14.1184 47.782 13.9405 47.8216 13.7231 47.9088C13.2811 48.0604 12.6574 48.3357 11.9384 48.771C11.2182 49.2039 10.4227 49.8307 9.65456 50.6448C9.27762 51.0584 8.90655 51.5164 8.56227 52.0218C8.22412 52.5312 7.91199 53.0852 7.643 53.6775C7.11012 54.8648 6.8077 56.0855 6.68392 57.2073C6.55351 58.331 6.59332 59.3554 6.70689 60.2009C6.82021 61.0469 6.99196 61.718 7.13947 62.17C7.20583 62.3986 7.27984 62.5685 7.32118 62.6864C7.36585 62.8033 7.39111 62.8636 7.39545 62.862Z" fill="#C48A01"/>
<path d="M7.41099 46.1584C7.39669 46.1618 7.43523 46.4152 7.56717 46.8061C7.69861 47.1962 7.93646 47.7204 8.2986 48.2342C8.661 48.748 9.07265 49.1444 9.39651 49.3915C9.72012 49.6402 9.94572 49.7529 9.95313 49.7399C9.98171 49.7041 9.1117 49.1731 8.4063 48.1546C7.6884 47.1474 7.45361 46.1414 7.41099 46.1584Z" fill="#C48A01"/>
<path d="M34.2279 24.7799C34.2192 24.777 34.183 24.8733 34.125 25.051C34.0947 25.1395 34.061 25.2488 34.0322 25.3785C34.0023 25.5079 33.9612 25.6541 33.9372 25.82C33.8742 26.1493 33.8336 26.5481 33.8221 26.9919C33.8178 27.4358 33.8469 27.9248 33.9301 28.4305C34.0186 28.9357 34.1526 29.4062 34.3029 29.8227C34.4604 30.2365 34.6301 30.5979 34.798 30.886C34.8754 31.034 34.9621 31.1577 35.0331 31.2691C35.103 31.3813 35.1706 31.4726 35.2286 31.5454C35.3416 31.6926 35.4075 31.7709 35.4149 31.7651C35.4355 31.7495 35.187 31.4228 34.8802 30.8393C34.7248 30.5489 34.5666 30.1888 34.4178 29.7793C34.2761 29.3671 34.148 28.9039 34.061 28.4073C33.9793 27.9102 33.9472 27.4301 33.9444 26.9932C33.9492 26.5564 33.9796 26.1629 34.0299 25.8357C34.1263 25.1807 34.2524 24.7875 34.2279 24.7799Z" fill="#C48A01"/>
<path d="M54.1255 75.5617C54.1278 75.5615 54.1273 75.5304 54.1243 75.4694C54.123 75.4514 54.1217 75.4321 54.1204 75.4112C54.1151 75.4122 54.1097 75.4133 54.1044 75.4141C54.1067 75.4341 54.1087 75.4529 54.1105 75.4702C54.1181 75.5307 54.1232 75.5617 54.1255 75.5617ZM34.2876 72.1491C34.5482 71.4338 34.9134 70.7092 35.3916 70.0156C35.3707 70.0013 35.3495 69.9869 35.3284 69.9723C35.3166 69.9645 35.3049 69.9566 35.2931 69.9488C34.8307 70.6257 34.4747 71.3318 34.2172 72.0298C34.2404 72.0711 34.2639 72.1107 34.2876 72.1491Z" fill="#C48A01"/>
<path d="M62.2129 77.0797C62.2575 77.052 62.303 77.0236 62.3476 76.9954C62.3494 76.9004 62.3502 76.8052 62.3499 76.7096C62.3402 74.9329 61.9837 73.3119 61.5297 72.0176C61.4998 72.0439 61.4694 72.0703 61.4391 72.0966C61.8699 73.3784 62.2075 74.9702 62.2169 76.7104C62.2175 76.8341 62.2159 76.9573 62.2129 77.0797Z" fill="#C48A01"/>
<path d="M62.6687 73.8332C62.8126 73.8332 62.9775 73.8171 63.1564 73.7771C63.5029 73.7041 63.8921 73.5378 64.3002 73.3163C64.7088 73.0932 65.1327 72.7978 65.5313 72.4335C66.3352 71.7052 66.8574 70.8462 67.1404 70.1957C67.2798 69.8676 67.3694 69.5931 67.4204 69.4008C67.4684 69.2072 67.4903 69.0997 67.4816 69.0973H67.4809C67.4549 69.0973 67.3517 69.5248 67.0552 70.1549C66.7543 70.7862 66.2306 71.6183 65.443 72.332C65.0521 72.6893 64.6391 72.9815 64.242 73.2064C63.8436 73.4301 63.4672 73.6013 63.1349 73.6837C62.9221 73.7414 62.7342 73.7604 62.577 73.7604C62.4234 73.7604 62.2989 73.7422 62.2085 73.7239C62.1182 73.7056 62.0623 73.6874 62.0454 73.6874C62.0421 73.6874 62.0403 73.6881 62.0401 73.69C62.0373 73.6957 62.1327 73.7531 62.3259 73.7972C62.4186 73.8194 62.5347 73.8332 62.6687 73.8332Z" fill="#C48A01"/>
<path d="M52.9437 28.2724C52.9493 28.2841 53.1417 28.1894 53.4985 28.0459C53.8548 27.9008 54.3869 27.7283 55.0616 27.6112C55.7356 27.4924 56.5582 27.453 57.4542 27.577C58.349 27.6991 59.3139 28.0031 60.2202 28.5292C61.1203 29.0672 61.8614 29.7687 62.4135 30.499C62.968 31.2297 63.347 31.977 63.5844 32.6328C63.824 33.2886 63.9445 33.8457 64.0003 34.2334C64.0583 34.6212 64.0741 34.8388 64.0869 34.8378C64.0915 34.8375 64.0912 34.7833 64.0869 34.6794C64.0787 34.5761 64.0807 34.4216 64.0516 34.2261C64.0111 33.8334 63.9036 33.2677 63.6727 32.5997C63.4435 31.9316 63.0683 31.1686 62.5104 30.4223C61.9554 29.6765 61.2038 28.9595 60.2865 28.4115C59.3632 27.8752 58.3799 27.5699 57.4706 27.453C56.5595 27.3338 55.7257 27.3841 55.0456 27.5164C54.3644 27.6472 53.8318 27.8358 53.4791 27.9968C53.2992 28.0691 53.1695 28.1487 53.0782 28.1933C52.9878 28.2411 52.9416 28.2682 52.9437 28.2724Z" fill="#C48A01"/>
<path d="M41.7915 44.4163C41.7961 44.4155 41.7918 44.3383 41.7795 44.1919C41.7729 44.1149 41.7647 44.0251 41.7555 43.9216C41.7435 43.8151 41.7326 43.6922 41.7374 43.5526C41.7137 42.9981 41.7739 42.1852 42.0429 41.2315C42.0978 40.989 42.205 40.7513 42.292 40.4961C42.3882 40.244 42.5148 39.9928 42.6378 39.7305C42.7863 39.4816 42.9142 39.2078 43.0974 38.9594C43.1852 38.8329 43.2692 38.7006 43.3634 38.5735C43.4626 38.4503 43.5634 38.3256 43.6653 38.1993C44.0912 37.7129 44.5733 37.2236 45.1588 36.8351C45.7368 36.4397 46.3881 36.1096 47.0955 35.892C47.8073 35.69 48.5306 35.6136 49.226 35.6326C49.9243 35.6417 50.5873 35.7926 51.2013 35.9716C51.3537 36.023 51.5038 36.0734 51.6523 36.1235C51.7983 36.1793 51.9384 36.2456 52.0785 36.3048C52.3633 36.4149 52.6142 36.5767 52.8696 36.7061C53.1108 36.8609 53.3489 37.0044 53.5618 37.1649C53.7687 37.3335 53.9834 37.4759 54.1562 37.651C54.8815 38.311 55.3564 38.9657 55.6259 39.4474C55.7027 39.563 55.7576 39.6728 55.803 39.7694C55.8492 39.862 55.8893 39.9424 55.9235 40.011C55.9898 40.1415 56.0266 40.2093 56.0307 40.2075C56.035 40.2057 56.0064 40.1342 55.948 39.9995C55.9168 39.9291 55.8803 39.8464 55.8382 39.7511C55.7961 39.652 55.7446 39.5392 55.6706 39.421C55.4128 38.9273 54.945 38.2564 54.2184 37.5793C54.0457 37.3997 53.8303 37.2531 53.622 37.0801C53.4079 36.9154 53.1682 36.7675 52.9248 36.6086C52.6673 36.4752 52.4138 36.3092 52.1257 36.1955C51.9838 36.1344 51.8419 36.0663 51.6942 36.0086C51.5438 35.957 51.3915 35.9048 51.2373 35.8521C50.6149 35.6668 49.9414 35.5108 49.2306 35.4995C48.5227 35.4784 47.7851 35.5554 47.0585 35.7615C46.3368 35.9833 45.673 36.3207 45.0855 36.7249C44.4906 37.1221 44.0021 37.6213 43.5724 38.1176C43.4698 38.2465 43.3682 38.3736 43.2679 38.4994C43.173 38.6288 43.0888 38.7637 43.0004 38.8926C42.8164 39.146 42.6883 39.4247 42.5403 39.6781C42.4173 39.945 42.2917 40.201 42.1968 40.4572C42.1108 40.7169 42.0054 40.9585 41.9526 41.2046C41.6917 42.1737 41.6461 42.9965 41.6856 43.5547C41.6851 43.6951 41.6999 43.8187 41.7162 43.9255C41.7303 44.0291 41.7425 44.1186 41.753 44.1955C41.7739 44.3412 41.7869 44.4171 41.7915 44.4163Z" fill="#C48A01"/>
<path d="M65.6684 52.414C65.6694 52.4187 65.7166 52.4099 65.8057 52.389C65.8935 52.3647 66.0277 52.3423 66.1916 52.283C66.5241 52.181 66.9942 51.9861 67.5276 51.6565C68.061 51.3288 68.6467 50.846 69.175 50.1965C69.7035 49.5496 70.1603 48.725 70.4209 47.7846C70.6692 46.8408 70.6907 45.8927 70.5615 45.0603C70.4337 44.2256 70.1731 43.5038 69.8796 42.9427C69.5869 42.3801 69.2811 41.9663 69.0469 41.7043C68.9361 41.5676 68.832 41.4781 68.7687 41.411C68.7028 41.3465 68.6669 41.3142 68.6638 41.3176C68.6546 41.3267 68.7883 41.4674 69.0076 41.7387C69.2278 42.0088 69.5182 42.4266 69.7959 42.9866C70.0748 43.5453 70.3216 44.2584 70.4403 45.0791C70.5605 45.8974 70.5352 46.8254 70.2928 47.7486C70.0378 48.6679 69.5943 49.4776 69.0806 50.1169C68.5668 50.7591 67.9974 51.2416 67.4778 51.5751C66.9585 51.9101 66.4996 52.1166 66.175 52.2329C65.8506 52.3509 65.6653 52.4018 65.6684 52.414Z" fill="#C48A01"/>
<path d="M42.6003 39.4351C42.5873 39.4255 42.5732 39.4148 42.5582 39.4035C42.4533 39.3232 42.2912 39.2211 42.0835 39.1092C41.6695 38.8843 41.0509 38.6481 40.3353 38.5568C40.1105 38.5288 39.8912 38.5168 39.6827 38.5168C39.2274 38.5168 38.8209 38.574 38.508 38.6476C38.3056 38.6951 38.1395 38.7433 38.0193 38.7877C38.4868 38.6828 38.9656 38.6306 39.4444 38.6306C40.5397 38.6306 41.6364 38.903 42.6003 39.4351Z" fill="#C48A01"/>
<path d="M65.3466 61.187C65.3466 66.3219 63.4083 69.9992 59.3573 72.2744C55.3061 74.5493 50.9591 74.661 46.3376 74.6028C46.273 76.2196 46.2084 77.8361 46.1439 79.4527C51.601 79.4671 57.2406 78.7711 61.9569 75.9633C66.6732 73.1558 70.2696 67.8498 69.8283 62.288C69.8283 62.288 69.8651 59.5825 67.4834 59.6164C65.3259 59.6472 65.3466 61.187 65.3466 61.187Z" fill="#FFEAB6"/>
<path d="M34.1613 68.3962C34.5459 68.225 34.9782 68.464 35.3283 68.7007C36.4362 69.4494 36.7621 69.9454 37.8577 70.6727C38.6389 71.1909 39.794 71.7548 40.641 71.3592C41.5812 70.9201 41.5945 69.5704 42.1434 68.6749C42.3132 68.3977 42.587 68.1399 42.9058 68.1629C43.2495 68.1874 43.6665 68.498 43.7245 68.8453C43.7827 69.1926 43.6808 69.6252 43.6673 69.9773C43.6254 71.0706 43.6244 71.6405 43.7194 72.4922C43.8143 73.344 43.9935 74.9136 43.5234 75.6233C43.287 76.7892 42.9994 77.57 42.4982 78.6448C42.3642 78.9321 42.7845 78.7108 42.5347 78.9008C42.2657 79.1057 42.0095 79.5438 41.0139 79.7173C39.8241 79.9245 38.9179 80.0158 37.7235 79.8392C36.9831 79.7296 35.8074 79.275 35.5864 78.5444C35.5177 78.3176 35.5205 78.0666 35.4097 77.8581C35.3171 77.683 35.1561 77.5593 35.0167 77.4202C34.4992 76.903 34.38 75.2557 34.9583 74.8107C34.2536 73.8218 34.3231 72.97 35.1788 72.1149C34.5517 71.1982 34.2843 71.0589 33.8969 70.0683C33.669 69.4856 33.5988 68.6467 34.1613 68.3962Z" fill="#FFEAB6"/>
<path d="M41.4733 73.9139C41.656 74.0757 41.7839 73.4669 42.0095 73.4165C43.3922 73.1078 45.0988 73.1358 46.4861 73.0499C46.691 73.0371 46.9215 73.0405 47.0664 73.2093C47.1744 73.3349 47.2065 73.5217 47.2298 73.6973C47.4196 75.1223 47.3757 76.5891 47.1014 77.9953C46.9615 78.7122 46.7076 79.4893 46.1362 79.8019C45.8049 79.983 45.4224 79.9733 45.0577 79.9376C43.0203 79.7377 41.0389 78.8215 39.4387 77.3396L41.4733 73.9139Z" fill="#FFEAB6"/>
<path d="M35.9531 75.831C35.9743 75.7974 35.644 75.5573 35.3028 75.1917C34.9588 74.8288 34.737 74.482 34.7033 74.5023C34.6724 74.518 34.8496 74.9086 35.2069 75.2859C35.5618 75.6656 35.9368 75.8618 35.9531 75.831Z" fill="white"/>
<path d="M36.1522 78.4995C36.1733 78.4658 35.8431 78.2257 35.5016 77.8604C35.1576 77.4974 34.9361 77.1504 34.9024 77.1707C34.8715 77.1864 35.0486 77.577 35.4059 77.9546C35.7609 78.334 36.1358 78.5303 36.1522 78.4995Z" fill="white"/>
<path d="M36.3872 73.4043C36.4084 73.3706 36.0781 73.1305 35.7369 72.7652C35.3929 72.4022 35.1711 72.0554 35.1374 72.0755C35.1065 72.0912 35.2837 72.4818 35.641 72.8594C35.996 73.2388 36.3709 73.4351 36.3872 73.4043Z" fill="white"/>
<path d="M47.0473 47.7371C47.1257 48.3399 49.1888 48.5241 51.4834 49.3425C53.7948 50.1136 55.5448 51.2445 55.9643 50.8139C56.1552 50.6052 55.9362 50.0058 55.2834 49.2929C54.6377 48.5826 53.5319 47.7972 52.1512 47.3191C50.77 46.8444 49.4253 46.7839 48.49 46.9488C47.5483 47.1114 47.0187 47.4527 47.0473 47.7371Z" fill="#0C2B34"/>
<path d="M24.9875 38.0133C25.4339 38.4814 27.1336 37.9488 29.1893 37.8812C31.2422 37.7528 32.9927 38.1205 33.3831 37.6119C33.5536 37.3661 33.2698 36.8935 32.5001 36.4578C31.7416 36.0235 30.4799 35.6822 29.0673 35.749C27.6552 35.8174 26.4404 36.2764 25.735 36.7811C25.0187 37.2873 24.7902 37.7844 24.9875 38.0133Z" fill="#0C2B34"/>
<path d="M24.5064 47.0968C21.1571 48.4349 19.5646 52.4587 20.9499 56.084C22.3351 59.709 26.1737 61.5633 29.5231 60.2252C32.8727 58.8871 34.465 54.8633 33.0797 51.2382C31.6944 47.6129 27.8561 45.7586 24.5064 47.0968Z" fill="white"/>
<path d="M24.386 46.7818C21.0366 48.1199 19.2897 51.7395 20.4846 54.8662C21.6792 57.9925 25.3632 59.4424 28.7125 58.1042C32.0624 56.7664 33.8091 53.1468 32.6144 50.0204C31.4195 46.8937 27.7358 45.4437 24.386 46.7818Z" fill="#0C2B34"/>
<path d="M44.7213 51.7364C41.9977 54.1373 41.805 58.4737 44.2908 61.4216C46.7763 64.369 50.9995 64.8123 53.7231 62.4111C56.4467 60.0102 56.6393 55.674 54.1536 52.7264C51.6679 49.7788 47.4449 49.3354 44.7213 51.7364Z" fill="white"/>
<path d="M44.5054 51.4804C41.7818 53.8813 41.312 57.8889 43.4558 60.4313C45.5993 62.9732 49.5453 63.0878 52.2689 60.6868C54.9925 58.2856 55.4623 54.2782 53.3186 51.7361C51.1748 49.194 47.229 49.0794 44.5054 51.4804Z" fill="#0C2B34"/>
<path d="M37.1202 65.8989C37.5247 65.8989 37.9129 65.6656 38.1556 65.3332C38.4067 64.9895 38.5305 64.6688 38.5363 64.2401C38.5483 63.3271 38.6114 62.5988 37.8792 62.0766C37.2766 61.6471 36.1769 61.4349 35.3113 61.4349C35.1245 61.4349 34.9484 61.4446 34.7909 61.4644C34.8603 62.5374 34.9772 63.6245 35.4363 64.5921C35.7431 65.2382 36.3773 65.8705 37.0791 65.8982C37.0929 65.8987 37.1067 65.8989 37.1202 65.8989Z" fill="#CC5749"/>
<path d="M35.4363 64.5921C35.4327 64.5942 35.4465 64.6279 35.4797 64.6884C35.5126 64.7492 35.5662 64.8358 35.6438 64.9415C35.8023 65.1511 36.0509 65.4352 36.4296 65.7178C36.6251 65.8491 36.8683 65.96 37.149 65.9861C37.4275 66.0177 37.7449 65.9344 37.9933 65.7304C38.2431 65.5302 38.4284 65.227 38.5126 64.8896C38.5999 64.5517 38.6014 64.1918 38.5864 63.8341C38.5716 63.4755 38.5297 63.1154 38.3988 62.7916C38.2697 62.4662 38.0446 62.2026 37.7978 62.0119C37.2978 61.6267 36.7381 61.4882 36.2846 61.4268C35.826 61.3679 35.4532 61.3749 35.1972 61.3799C34.941 61.3867 34.7996 61.3974 34.7996 61.4065C34.7996 61.4162 34.9415 61.4232 35.1969 61.4326C35.4519 61.4438 35.8227 61.4519 36.2714 61.5218C36.7149 61.5936 37.2532 61.74 37.723 62.1111C37.955 62.2953 38.1604 62.5403 38.2783 62.842C38.3988 63.1436 38.4391 63.4873 38.4534 63.8401C38.4687 64.1937 38.4667 64.5399 38.3868 64.8559C38.3095 65.1709 38.1423 65.4472 37.917 65.6322C37.6931 65.8193 37.4144 65.8974 37.158 65.8739C36.9002 65.8548 36.6685 65.7565 36.4804 65.6369C36.1126 65.3776 35.849 65.1017 35.6841 64.9084C35.5193 64.7106 35.446 64.5859 35.4363 64.5921Z" fill="#F492B5"/>
<path d="M53.8234 115.285C56.8359 114.553 60.0228 114.479 62.9968 115.473C64.5429 115.99 66.104 116.661 67.3726 118.005C68.6413 119.349 69.6746 120.741 69.5529 122.966L46.3121 123C46.3121 119.033 50.8108 116.017 53.8234 115.285Z" fill="#FFEFC8"/>
<path d="M29.6742 115.278C26.6506 114.556 23.4514 114.482 20.4662 115.463C18.9143 115.973 17.3473 116.635 16.0738 117.962C14.8004 119.289 13.8517 120.803 13.9743 123L37.2141 122.893C37.2141 118.978 32.6981 116 29.6742 115.278Z" fill="#FFEFC8"/>
<path d="M38.4782 29.7898C40.1465 28.8919 42.0314 28.4402 43.9177 28.4358C43.9208 26.9622 43.9238 25.4886 43.9269 24.0151C43.9269 24.0151 42.5434 24.2993 42.5191 28.2724C42.5191 28.2724 42.4273 28.2635 42.2662 28.2635C41.6305 28.2635 39.9132 28.4034 38.4782 29.7898Z" fill="#FEC130"/>
<path d="M37.1465 36.4857C36.8923 34.6113 37.539 32.6313 38.8433 31.289C39.9691 30.1309 41.5621 29.4704 43.1566 29.4704C43.4101 29.4704 43.6635 29.4871 43.9154 29.521C43.9161 29.1594 43.9169 28.7977 43.9177 28.4358C42.0314 28.4402 40.1464 28.8919 38.4781 29.7898C38.106 30.1494 37.7528 30.593 37.4425 31.1397C35.6326 34.3277 37.1465 36.4857 37.1465 36.4857Z" fill="#FEC130"/>
<path d="M75.0376 42.8165C75.0361 42.8011 74.7548 42.812 74.3092 42.9028C73.8644 42.9929 73.2578 43.1779 72.6335 43.4902C72.0098 43.8044 71.4958 44.182 71.1541 44.4868C70.8114 44.7918 70.6309 45.0128 70.6416 45.0233C70.657 45.0392 70.8601 44.8432 71.2136 44.5611C71.5665 44.2788 72.0795 43.9208 72.6922 43.6121C73.3055 43.3052 73.8961 43.1092 74.3304 42.9965C74.7648 42.883 75.0407 42.8384 75.0376 42.8165Z" fill="#0C2B34"/>
<path d="M55.7101 39.4871C54.8187 36.7871 52.6315 34.6301 49.8582 34.3206C49.6111 34.2932 49.3633 34.2796 49.1158 34.2796C46.5428 34.2796 43.9912 35.7355 42.6896 38.014C42.0442 37.6448 41.3048 37.452 40.5655 37.452C40.3146 37.452 40.0635 37.4744 39.8162 37.5193C38.8411 37.6973 37.9315 38.2298 37.2878 38.9999C37.5275 38.914 37.7717 38.8436 38.0193 38.7877C38.1395 38.7434 38.3056 38.6951 38.508 38.6476C38.8209 38.574 39.2274 38.5169 39.6827 38.5169C39.8912 38.5169 40.1105 38.5289 40.3353 38.5568C41.0509 38.6481 41.6695 38.8843 42.0835 39.1092C42.2912 39.2212 42.4533 39.3232 42.5582 39.4036C42.5732 39.4148 42.5873 39.4255 42.6003 39.4352C42.6197 39.4458 42.6388 39.4566 42.658 39.4675C42.7621 39.2755 42.8665 39.0774 43.0005 38.8926C43.0888 38.7637 43.173 38.6288 43.2679 38.4994C43.3682 38.3736 43.4698 38.2465 43.5724 38.1176C44.0021 37.6213 44.4906 37.1221 45.0855 36.725C45.673 36.3208 46.3368 35.9834 47.0585 35.7616C47.708 35.5771 48.3665 35.4962 49.0048 35.4962C49.0803 35.4962 49.1556 35.4972 49.2306 35.4996C49.9414 35.5108 50.6149 35.6668 51.2373 35.8521C51.3915 35.9048 51.5438 35.957 51.6942 36.0087C51.8419 36.0663 51.9838 36.1345 52.1257 36.1955C52.4138 36.3093 52.6673 36.4752 52.9248 36.6086C53.1682 36.7675 53.4079 36.9155 53.622 37.0801C53.8303 37.2531 54.0457 37.3998 54.2184 37.5793C54.945 38.2565 55.4128 38.9274 55.6706 39.4211C55.6846 39.4432 55.6976 39.4654 55.7101 39.4871ZM45.4808 36.6263C46.5502 36.0241 47.7741 35.6914 48.9958 35.6914C49.0604 35.6914 49.1257 35.6924 49.1903 35.6942C49.873 35.7141 50.5462 35.802 51.1945 35.9698C50.5825 35.7916 49.9217 35.6415 49.226 35.6327C49.1584 35.6308 49.0905 35.6298 49.0224 35.6298C48.39 35.6298 47.7382 35.7099 47.0955 35.892C46.5167 36.0703 45.9752 36.3236 45.4808 36.6263Z" fill="#FEC130"/>
<path d="M70.5699 45.1165C70.598 45.0841 70.6266 45.052 70.6554 45.0202C70.6503 45.0228 70.6468 45.0243 70.6442 45.0243C70.6432 45.0243 70.6424 45.0241 70.6417 45.0233C70.6309 45.0129 70.8114 44.7918 71.1541 44.4868C71.4958 44.182 72.0098 43.8044 72.6336 43.4902C73.2578 43.1779 73.8644 42.9929 74.3093 42.9029C74.6354 42.8363 74.8735 42.8128 74.9784 42.8107C74.5336 42.6884 74.074 42.6236 73.6161 42.6236C72.9485 42.6236 72.2849 42.7612 71.6786 43.0568C70.8833 41.7213 69.4271 40.8221 67.901 40.7237C69.3692 41.4468 70.3847 43.0281 70.4939 44.6848C70.5192 44.8072 70.5419 44.9325 70.5615 45.0603C70.5643 45.0789 70.5671 45.0977 70.5699 45.1165Z" fill="#FEC130"/>
<path d="M70.498 45.2007C70.5217 45.1725 70.5457 45.1444 70.5699 45.1164C70.5671 45.0977 70.5643 45.0789 70.5615 45.0603C70.5419 44.9325 70.5192 44.8072 70.4939 44.6848C70.5051 44.8563 70.5067 45.0285 70.498 45.2007Z" fill="#011721"/>
<path d="M70.6442 45.0243C70.6467 45.0243 70.6503 45.0228 70.6554 45.0202C71.7712 43.7867 73.3752 42.967 74.9983 42.8165C74.9917 42.8146 74.985 42.8126 74.9784 42.8107C74.8735 42.8128 74.6354 42.8363 74.3093 42.9028C73.8644 42.9929 73.2578 43.1779 72.6336 43.4902C72.0098 43.8044 71.4958 44.182 71.1541 44.4868C70.8114 44.7918 70.6309 45.0129 70.6416 45.0233C70.6424 45.0241 70.6432 45.0243 70.6442 45.0243Z" fill="#011721"/>
<path d="M6.81354 61.0015C6.75816 60.6941 6.71708 60.3799 6.68901 60.0613C6.58947 59.2438 6.56038 58.2702 6.6839 57.2074C6.80767 56.0856 7.1101 54.8649 7.64297 53.6776C7.91196 53.0852 8.22409 52.5312 8.56224 52.0219C8.90652 51.5164 9.27759 51.0585 9.65454 50.6449C10.4227 49.8307 11.2182 49.2039 11.9384 48.771C12.6573 48.3357 13.2811 48.0605 13.7231 47.9088C13.8647 47.852 13.9898 47.8154 14.0919 47.7862L14.0763 47.7872C14.0018 47.7846 13.9275 47.7833 13.8525 47.7833C12.3253 47.7833 10.7239 48.3287 9.34778 49.2201C9.70583 49.5463 9.96895 49.7201 9.95313 49.7399C9.95262 49.7407 9.95185 49.7409 9.95032 49.7409C9.92199 49.7409 9.70328 49.6274 9.39652 49.3915C9.35134 49.3571 9.30464 49.3198 9.25666 49.2798C8.12149 50.0329 7.14608 51.0222 6.50168 52.133C5.02631 54.6759 5.34022 58.4573 6.81354 61.0015ZM10.0527 50.4108C11.1199 49.3694 12.3434 48.5826 13.5253 48.0451C13.1134 48.2175 12.5836 48.48 11.9874 48.8532C11.3757 49.2329 10.7093 49.7537 10.0527 50.4108Z" fill="#FEC130"/>
<path d="M9.95033 49.7409C9.95186 49.7409 9.95262 49.7407 9.95313 49.7399C9.96896 49.7201 9.70584 49.5463 9.34778 49.2201C9.31716 49.2396 9.28678 49.2597 9.25667 49.2798C9.30465 49.3198 9.35135 49.3571 9.39652 49.3915C9.70328 49.6274 9.922 49.7409 9.95033 49.7409Z" fill="#011721"/>
<path d="M5.67354 90.1113C5.64572 89.8989 5.62275 89.6857 5.61815 89.4715C5.60514 88.8361 5.55308 88.3048 5.71769 87.6031C5.83305 87.1125 6.06605 86.617 6.23857 86.4043C5.87413 85.5753 5.63551 84.7009 5.54058 83.8129C5.5051 83.4783 5.49183 83.1274 5.64725 82.8213C5.91497 82.2931 6.59382 82.051 7.22138 81.9142C8.45277 81.6457 9.73978 81.588 10.9929 81.7456C11.1475 81.765 11.3119 81.7921 11.4234 81.8897C11.5732 82.0209 11.5788 82.2323 11.5701 82.4205C11.54 83.0715 11.4474 84.1628 11.5217 85.2321C12.1584 85.4722 12.7467 85.8569 13.2385 86.3644L13.2553 86.3819C13.8224 86.9622 15.1438 87.8821 15.1438 87.8821C15.5193 88.1412 15.7543 88.4099 15.7801 88.7252C15.8038 89.0177 15.6619 89.2765 15.4207 89.4357C14.6411 89.95 12.8939 88.6544 12.8939 88.6544C12.8939 88.6544 13.1971 89.6283 13.6613 90.3388C14.4451 91.5384 13.8303 90.5346 15.027 92.3617C15.1505 92.5504 15.5358 93.0355 15.3812 93.5438C15.2196 94.0764 14.8478 94.1406 14.3358 93.9391C13.4692 93.5983 12.3337 92.3659 11.5806 91.7427C11.7881 92.0039 12.8043 93.5018 12.9733 93.7758C13.2096 94.1588 13.4482 94.4746 13.3372 94.7958C13.2262 95.117 12.7765 95.2274 12.4442 95.2018C12.1745 95.1812 11.9491 94.9913 11.7488 94.8055C11.1799 94.2786 10.4311 93.3447 9.93987 92.7416C10.1701 93.2776 10.7172 94.3243 10.8665 94.8892C10.9214 95.0975 11.0722 95.5505 10.9791 95.7438C10.8209 96.0718 10.3599 96.0943 10.0277 95.9586C9.59764 95.7832 9.00963 95.0834 8.75646 94.687C8.50355 94.2904 8.33256 93.846 8.16361 93.4052C8.16361 93.4052 8.22869 93.7257 8.31061 93.9107C8.39253 94.0957 8.60589 94.6371 8.60921 94.8402C8.61227 95.0434 8.8366 95.8038 8.52014 96.011C8.09496 96.2895 7.73282 95.8292 7.62181 95.6867C6.88221 94.7368 6.45601 93.4386 6.1569 92.5457C5.89174 91.7542 5.78175 90.938 5.67354 90.1113Z" fill="#FFEAB6"/>
</svg>
